<?xml version="1.0" standalone="no"?>
<!DOCTYPE svg PUBLIC "-//W3C//DTD SVG 20010904//EN"
 "http://www.w3.org/TR/2001/REC-SVG-20010904/DTD/svg10.dtd">
<svg version="1.0" xmlns="http://www.w3.org/2000/svg"
 width="2000.000000pt" height="2000.000000pt" viewBox="0 0 2000.000000 2000.000000"
 preserveAspectRatio="xMidYMid meet">

<g transform="translate(0.000000,2000.000000) scale(0.100000,-0.100000)"
fill="#000000" stroke="none">
<path d="M11680 18655 c-1245 -300 -1255 -302 -1252 -326 5 -43 595 -2484 602
-2492 6 -7 1447 338 1459 349 10 9 -52 -5 -728 -166 -392 -94 -716 -169 -718
-166 -3 3 -138 556 -299 1228 -162 673 -297 1230 -299 1238 -4 13 44 27 258
79 144 35 703 171 1242 302 539 131 982 234 985 229 3 -5 57 -221 120 -480 63
-260 116 -468 117 -463 3 8 -224 964 -230 968 -1 1 -567 -134 -1257 -300z"/>
<path d="M6730 18423 c0 -7 -276 -1441 -300 -1559 l-11 -50 -1012 168 c-557
92 -1019 167 -1027 165 -8 -1 125 -26 295 -55 171 -30 645 -111 1055 -181
l745 -127 7 -265 c13 -529 90 -937 247 -1314 68 -162 185 -365 267 -462 l44
-51 -62 -6 c-35 -3 -611 -31 -1282 -63 l-1218 -57 -19 25 c-218 275 -368 675
-428 1135 -30 224 -44 496 -39 714 4 128 3 162 -2 100 -11 -139 -11 -374 0
-540 33 -486 128 -863 292 -1165 54 -98 68 -121 136 -212 l54 -73 52 5 c28 3
596 30 1261 60 666 31 1227 59 1247 63 l38 7 -41 50 c-190 235 -335 545 -425
909 -39 162 -41 179 -16 172 40 -12 1536 -296 1544 -294 4 2 -346 73 -779 158
l-787 155 -13 60 c-33 163 -56 423 -57 662 l-1 242 -27 7 c-16 3 -28 9 -28 12
0 8 297 1534 305 1568 l5 21 122 -23 c844 -162 2381 -463 2385 -467 5 -5 -40
-243 -198 -1055 -50 -255 -89 -468 -87 -473 2 -6 72 337 155 762 84 426 150
775 148 777 -2 2 -565 113 -1252 248 -686 134 -1258 246 -1270 249 -13 3 -23
2 -23 -2z"/>
<path d="M12085 18267 c-73 -19 -90 -26 -92 -42 -2 -11 14 -88 35 -171 l37
-152 112 28 c61 15 123 34 137 44 40 26 59 61 51 95 -7 32 -47 71 -73 71 -13
0 -13 3 1 18 22 24 22 74 -1 102 -26 32 -96 34 -207 7z m133 -79 c4 -22 -34
-47 -78 -50 -33 -3 -35 -1 -38 29 -4 36 8 42 73 40 29 -2 41 -7 43 -19z m33
-108 c41 -23 12 -60 -61 -78 -24 -6 -46 -10 -48 -8 -1 2 -5 19 -9 38 -5 35 -5
35 43 46 27 5 50 10 52 11 2 0 12 -4 23 -9z"/>
<path d="M11782 18191 c-62 -16 -115 -30 -117 -33 -6 -6 65 -320 74 -329 8 -8
266 54 265 64 -1 4 -4 20 -7 36 l-6 29 -86 -20 c-48 -11 -88 -18 -90 -16 -2 2
-5 16 -7 33 -3 29 -2 30 67 46 64 15 70 18 67 40 -5 48 -7 48 -83 29 -40 -11
-75 -18 -77 -16 -1 2 -4 16 -5 32 -2 27 0 28 81 47 81 18 82 19 76 45 -12 51
0 50 -152 13z"/>
<path d="M11473 18118 c-70 -17 -123 -35 -123 -41 0 -13 71 -320 75 -325 1 -2
23 2 48 8 44 12 45 12 37 43 -23 92 -28 83 55 103 l76 18 -7 30 c-3 17 -8 33
-10 35 -3 4 -70 -9 -131 -25 -19 -5 -23 -1 -29 31 -8 45 -3 49 84 65 35 7 66
19 69 26 6 17 -5 64 -15 63 -4 0 -62 -14 -129 -31z"/>
<path d="M13171 17954 c0 -11 3 -14 6 -6 3 7 2 16 -1 19 -3 4 -6 -2 -5 -13z"/>
<path d="M13181 17914 c0 -11 3 -14 6 -6 3 7 2 16 -1 19 -3 4 -6 -2 -5 -13z"/>
<path d="M13191 17874 c0 -11 3 -14 6 -6 3 7 2 16 -1 19 -3 4 -6 -2 -5 -13z"/>
<path d="M13202 17835 c0 -11 4 -31 8 -45 6 -20 8 -21 8 -5 0 11 -4 31 -8 45
-6 20 -8 21 -8 5z"/>
<path d="M12798 17760 c-32 -37 -36 -38 -55 -25 -12 8 -34 19 -50 25 -27 10
-28 10 -7 -7 11 -10 30 -25 43 -33 l23 -15 -22 -40 -22 -40 32 34 32 34 40
-23 c50 -28 62 -19 14 12 -36 23 -45 41 -26 53 11 7 43 65 36 65 -2 0 -20 -18
-38 -40z"/>
<path d="M7451 17756 c-11 -41 -8 -44 43 -51 68 -11 68 -12 51 -94 -8 -40 -20
-81 -25 -92 -14 -25 -52 -24 -75 1 -23 25 -26 25 -59 -1 -33 -26 -23 -49 37
-78 82 -40 158 -21 186 46 18 46 61 247 53 254 -4 3 -51 15 -105 26 l-97 21
-9 -32z"/>
<path d="M13221 17744 c0 -11 3 -14 6 -6 3 7 2 16 -1 19 -3 4 -6 -2 -5 -13z"/>
<path d="M13231 17704 c0 -11 3 -14 6 -6 3 7 2 16 -1 19 -3 4 -6 -2 -5 -13z"/>
<path d="M7731 17554 l-110 -153 37 -11 c54 -14 59 -13 79 20 10 18 23 28 33
26 8 -3 41 -10 73 -17 49 -11 58 -16 63 -38 3 -14 7 -31 9 -37 4 -15 95 -35
95 -20 -1 6 -17 89 -38 185 l-37 175 -47 12 -48 12 -109 -154z m153 -32 c6
-42 6 -42 -21 -36 -66 16 -65 15 -31 68 35 53 39 51 52 -32z"/>
<path d="M12401 17655 l-31 -35 -41 20 c-52 27 -64 18 -15 -11 20 -11 36 -25
36 -29 0 -5 -9 -26 -21 -47 l-21 -38 34 37 34 37 30 -18 c16 -9 38 -20 49 -24
16 -6 15 -3 -6 15 -14 13 -35 28 -45 34 -18 11 -18 13 -3 30 18 21 42 64 35
64 -2 0 -18 -16 -35 -35z"/>
<path d="M13241 17664 c0 -11 3 -14 6 -6 3 7 2 16 -1 19 -3 4 -6 -2 -5 -13z"/>
<path d="M8115 17637 c-10 -29 -65 -300 -65 -317 0 -11 6 -20 14 -20 7 0 27
-3 43 -6 l29 -6 18 86 c10 47 23 83 28 80 5 -3 31 -50 58 -104 46 -92 51 -98
86 -104 20 -4 38 -6 40 -4 5 5 75 330 72 333 -2 1 -22 7 -46 12 -39 10 -42 9
-47 -11 -3 -11 -11 -50 -19 -85 -8 -34 -17 -65 -19 -67 -2 -2 -28 42 -57 98
-29 57 -54 105 -56 106 -1 2 -19 7 -39 12 -25 6 -37 5 -40 -3z"/>
<path d="M13251 17624 c0 -11 3 -14 6 -6 3 7 2 16 -1 19 -3 4 -6 -2 -5 -13z"/>
<path d="M13261 17584 c0 -11 3 -14 6 -6 3 7 2 16 -1 19 -3 4 -6 -2 -5 -13z"/>
<path d="M12016 17565 c-9 -9 -22 -25 -29 -36 -14 -19 -15 -19 -63 7 l-49 26
27 -26 c16 -14 35 -29 45 -34 15 -9 14 -12 -5 -37 -32 -41 -26 -55 7 -17 l29
33 52 -26 c59 -30 58 -17 -2 21 -36 23 -38 27 -25 42 17 20 40 62 33 62 -2 0
-12 -7 -20 -15z"/>
<path d="M15429 17536 c-227 -155 -364 -335 -426 -556 -13 -50 -18 -102 -18
-220 0 -143 2 -162 28 -244 16 -50 26 -99 23 -112 -14 -56 -218 -339 -385
-534 -56 -66 -58 -69 -17 -30 110 104 274 313 378 482 56 91 65 101 113 123
193 85 378 282 436 465 27 84 36 256 19 354 -13 73 -60 217 -89 272 l-16 32
-46 -32z"/>
<path d="M13271 17544 c0 -11 3 -14 6 -6 3 7 2 16 -1 19 -3 4 -6 -2 -5 -13z"/>
<path d="M11604 17444 l-29 -37 -42 22 c-59 30 -64 26 -15 -10 l42 -31 -21
-35 c-29 -46 -18 -53 15 -10 l27 35 45 -25 c59 -33 67 -23 11 13 l-45 28 26
38 c33 50 24 58 -14 12z"/>
<path d="M11228 17356 l-31 -45 -39 20 c-51 26 -62 17 -14 -12 20 -11 36 -23
36 -24 0 -2 -10 -20 -21 -40 -28 -47 -17 -57 13 -11 13 20 27 36 31 36 4 0 26
-9 48 -21 57 -29 60 -17 5 16 l-46 27 19 26 c25 36 43 72 36 72 -3 0 -20 -20
-37 -44z"/>
<path d="M12906 17359 l-35 -41 -36 22 c-20 12 -38 20 -41 17 -5 -5 39 -43 57
-49 7 -2 2 -20 -11 -43 l-22 -40 32 33 c30 32 32 33 56 18 28 -19 74 -38 74
-31 0 3 -20 18 -45 34 l-45 28 19 24 c21 28 44 69 37 69 -2 0 -20 -19 -40 -41z"/>
<path d="M13311 17374 c0 -11 3 -14 6 -6 3 7 2 16 -1 19 -3 4 -6 -2 -5 -13z"/>
<path d="M13321 17334 c0 -11 3 -14 6 -6 3 7 2 16 -1 19 -3 4 -6 -2 -5 -13z"/>
<path d="M13331 17294 c0 -11 3 -14 6 -6 3 7 2 16 -1 19 -3 4 -6 -2 -5 -13z"/>
<path d="M12510 17253 l-32 -36 -47 22 -46 21 38 -33 39 -33 -22 -40 -22 -39
32 34 32 34 45 -22 c58 -28 65 -22 13 13 -41 27 -48 40 -30 51 11 7 43 65 36
65 -2 0 -18 -16 -36 -37z"/>
<path d="M13341 17254 c0 -11 3 -14 6 -6 3 7 2 16 -1 19 -3 4 -6 -2 -5 -13z"/>
<path d="M14377 17245 c-24 -23 -31 -74 -31 -225 0 -150 14 -221 63 -317 53
-106 144 -189 234 -214 30 -8 35 -15 41 -47 27 -165 -28 -462 -118 -640 -15
-29 -24 -52 -21 -52 9 0 82 155 103 220 43 132 55 209 56 375 1 146 3 163 23
197 52 89 67 216 37 319 -28 94 -75 170 -159 255 -119 121 -194 163 -228 129z"/>
<path d="M13351 17214 c0 -11 3 -14 6 -6 3 7 2 16 -1 19 -3 4 -6 -2 -5 -13z"/>
<path d="M6896 17170 c15 -28 25 -51 23 -53 -2 -2 -17 -11 -32 -21 -37 -23
-28 -32 12 -12 16 9 32 16 35 16 3 0 19 -20 37 -45 41 -57 50 -51 14 10 -15
26 -25 48 -23 49 1 2 21 15 43 30 30 21 34 26 15 21 -14 -4 -37 -14 -51 -21
-25 -13 -28 -11 -58 31 -42 59 -49 57 -15 -5z"/>
<path d="M4138 17183 c6 -2 18 -2 25 0 6 3 1 5 -13 5 -14 0 -19 -2 -12 -5z"/>
<path d="M4198 17173 c6 -2 18 -2 25 0 6 3 1 5 -13 5 -14 0 -19 -2 -12 -5z"/>
<path d="M12111 17145 l-31 -35 -41 20 c-52 27 -64 18 -15 -11 20 -11 36 -25
36 -29 0 -5 -9 -26 -21 -47 l-21 -38 35 38 34 37 49 -26 c48 -25 48 -25 23 -2
-14 12 -35 28 -45 34 -18 11 -18 13 -3 30 18 21 42 64 35 64 -2 0 -18 -16 -35
-35z"/>
<path d="M4263 17163 c9 -2 23 -2 30 0 6 3 -1 5 -18 5 -16 0 -22 -2 -12 -5z"/>
<path d="M4323 17153 c9 -2 23 -2 30 0 6 3 -1 5 -18 5 -16 0 -22 -2 -12 -5z"/>
<path d="M4052 17120 c0 -14 2 -19 5 -12 2 6 2 18 0 25 -3 6 -5 1 -5 -13z"/>
<path d="M7267 17103 c3 -10 12 -27 20 -38 18 -28 17 -31 -23 -55 -44 -28 -38
-36 11 -16 21 9 39 16 40 16 1 0 15 -18 29 -41 33 -49 47 -44 17 6 -27 47 -27
50 9 65 16 7 34 18 41 26 9 11 5 12 -19 5 -16 -5 -38 -14 -49 -20 -18 -9 -24
-5 -47 29 -28 42 -39 51 -29 23z"/>
<path d="M4042 17060 c0 -14 2 -19 5 -12 2 6 2 18 0 25 -3 6 -5 1 -5 -13z"/>
<path d="M11711 17041 l-31 -39 -48 26 c-34 19 -43 21 -33 8 8 -9 27 -24 43
-32 l28 -15 -26 -47 -26 -47 34 39 35 38 52 -27 c60 -30 60 -17 0 21 l-39 24
26 40 c36 54 25 61 -15 11z"/>
<path d="M7682 16988 l26 -48 -39 -22 c-48 -27 -44 -35 6 -14 21 9 39 16 41
16 2 0 16 -18 30 -40 34 -51 42 -45 15 9 -12 22 -21 42 -21 44 0 3 13 10 30
17 16 7 35 19 42 27 10 12 5 12 -27 -2 -22 -9 -45 -19 -52 -22 -6 -2 -18 8
-27 24 -8 16 -23 36 -32 44 -13 10 -11 1 8 -33z"/>
<path d="M4032 16995 c0 -16 2 -22 5 -12 2 9 2 23 0 30 -3 6 -5 -1 -5 -18z"/>
<path d="M13017 16979 l-35 -40 -38 20 c-57 31 -64 26 -16 -10 l42 -31 -18
-26 c-35 -51 -34 -57 3 -21 l37 36 45 -24 c59 -34 65 -23 9 15 l-46 30 19 23
c21 28 44 69 37 69 -2 0 -20 -18 -39 -41z"/>
<path d="M11334 16951 c-14 -23 -28 -41 -31 -41 -2 0 -22 9 -44 21 -53 26 -61
18 -12 -12 21 -12 40 -24 42 -25 2 -2 -7 -19 -19 -39 -30 -48 -19 -56 15 -11
l27 35 40 -20 c51 -26 62 -17 14 12 -20 11 -36 25 -36 29 0 5 10 25 21 45 30
50 16 55 -17 6z"/>
<path d="M8069 16928 c6 -16 18 -39 26 -52 15 -23 15 -25 -2 -30 -10 -4 -29
-15 -43 -26 l-25 -20 49 17 c36 13 50 15 53 6 7 -20 45 -64 50 -59 3 3 -5 21
-17 41 -12 20 -21 37 -19 39 2 1 21 13 42 25 50 31 40 38 -17 13 -41 -19 -46
-19 -51 -4 -3 9 -17 31 -31 47 l-25 30 10 -27z"/>
<path d="M4022 16910 c0 -19 2 -27 5 -17 2 9 2 25 0 35 -3 9 -5 1 -5 -18z"/>
<path d="M12619 16870 c-31 -38 -33 -39 -56 -25 -13 9 -35 20 -51 25 -27 10
-27 10 -6 -7 11 -10 30 -25 43 -33 l23 -15 -22 -40 -22 -40 32 34 33 35 39
-23 c22 -12 42 -21 44 -18 5 5 -39 43 -59 50 -9 3 -9 9 0 23 23 35 44 74 39
74 -3 0 -20 -18 -37 -40z"/>
<path d="M8484 16814 l25 -52 -29 -12 c-16 -7 -35 -19 -41 -26 -10 -12 -8 -13
15 -4 15 5 36 15 46 20 17 9 23 4 44 -29 37 -58 54 -63 23 -6 -15 26 -26 49
-25 50 2 1 20 12 41 24 49 30 42 37 -14 15 -42 -18 -43 -17 -58 6 -39 58 -52
65 -27 14z"/>
<path d="M4012 16820 c0 -19 2 -27 5 -17 2 9 2 25 0 35 -3 9 -5 1 -5 -18z"/>
<path d="M6790 16807 c0 -4 12 -26 26 -49 18 -29 23 -43 15 -46 -7 -2 -24 -15
-39 -29 l-27 -24 42 21 c23 11 44 20 46 20 3 0 17 -19 32 -42 16 -24 30 -37
32 -31 3 7 -5 26 -16 42 -28 39 -27 46 15 70 48 29 37 38 -14 12 l-40 -20 -36
42 c-19 23 -35 39 -36 34z"/>
<path d="M12224 16773 c-16 -21 -30 -40 -31 -42 -2 -3 -21 6 -44 18 -50 28
-62 21 -17 -10 18 -12 35 -24 37 -26 3 -2 -6 -22 -18 -46 l-22 -42 33 37 33
38 30 -18 c17 -10 39 -21 50 -25 20 -7 20 -7 -1 10 -11 10 -31 25 -43 34 l-24
15 28 42 c35 54 26 66 -11 15z"/>
<path d="M4003 16710 c0 -30 2 -43 4 -27 2 15 2 39 0 55 -2 15 -4 2 -4 -28z"/>
<path d="M7180 16724 c0 -5 9 -24 20 -42 26 -43 25 -49 -11 -67 -41 -22 -30
-30 15 -11 l35 15 21 -34 c35 -56 57 -66 27 -11 -15 27 -27 52 -27 56 0 4 13
13 30 20 16 7 35 19 41 26 8 10 -3 8 -35 -6 -26 -11 -49 -20 -51 -20 -2 0 -17
19 -34 42 -17 23 -31 38 -31 32z"/>
<path d="M11824 16662 l-29 -40 -50 25 c-37 19 -46 21 -36 9 8 -10 27 -24 43
-32 l28 -15 -26 -47 -26 -47 36 39 36 39 52 -28 c58 -31 51 -11 -8 26 l-33 20
26 40 c34 52 23 61 -13 11z"/>
<path d="M7603 16608 l25 -47 -35 -21 c-46 -27 -37 -36 12 -13 35 17 37 17 46
0 6 -9 21 -29 35 -45 l26 -27 -27 50 c-14 27 -23 51 -18 52 21 8 75 45 70 49
-3 3 -24 -4 -48 -16 -38 -20 -43 -20 -51 -6 -5 9 -20 28 -34 44 l-26 27 25
-47z"/>
<path d="M4793 16458 c-6 -95 -10 -174 -8 -176 1 -1 56 -3 121 -5 104 -2 124
1 159 19 101 52 115 202 26 277 -39 33 -80 43 -197 52 l-91 6 -10 -173z m175
82 c38 0 82 -52 82 -95 0 -27 -8 -44 -29 -66 -25 -25 -37 -29 -84 -29 l-54 0
4 78 c6 113 10 125 36 118 12 -3 32 -6 45 -6z"/>
<path d="M11444 16570 c-15 -22 -28 -40 -29 -40 -2 0 -24 9 -49 20 -57 24 -59
18 -6 -15 l39 -25 -21 -35 c-27 -46 -17 -56 13 -13 12 18 24 34 25 36 1 2 21
-6 44 -18 54 -27 63 -20 13 11 -21 12 -39 23 -41 25 -2 1 8 19 23 39 24 36 31
55 20 55 -3 0 -17 -18 -31 -40z"/>
<path d="M5216 16549 c-4 -30 -7 -108 -9 -174 l-2 -120 129 -8 c138 -9 146 -7
146 39 0 18 -8 22 -46 28 -26 3 -66 6 -90 6 -43 0 -44 0 -44 35 l0 34 80 -6
80 -6 0 35 0 36 -78 7 -78 7 4 30 5 31 88 -6 89 -7 0 40 c0 40 0 40 -37 40
-21 0 -81 3 -135 7 l-96 6 -6 -54z"/>
<path d="M5645 16568 c-105 -37 -153 -175 -91 -268 48 -73 160 -103 248 -67
50 21 55 34 22 68 -25 26 -29 27 -44 14 -9 -8 -35 -15 -57 -15 -34 0 -46 6
-67 31 -49 58 -27 139 44 160 34 10 43 9 75 -10 38 -22 58 -19 84 12 9 12 6
20 -19 40 -51 43 -131 57 -195 35z"/>
<path d="M7990 16567 c0 -4 9 -26 20 -48 l21 -39 -36 -21 c-46 -27 -39 -35 10
-12 37 17 38 17 49 -1 6 -10 21 -31 34 -45 18 -21 21 -22 15 -6 -3 11 -15 33
-26 48 -10 16 -18 29 -16 31 2 1 21 13 42 25 49 30 41 39 -11 12 l-41 -21 -30
42 c-17 23 -31 39 -31 35z"/>
<path d="M8403 16456 c15 -27 27 -50 27 -51 0 -2 -16 -13 -36 -25 -44 -28 -38
-36 11 -16 21 9 39 16 40 16 1 0 15 -18 29 -41 33 -49 47 -44 17 6 -11 20 -21
40 -21 45 0 4 19 20 43 34 50 30 33 35 -23 6 l-39 -20 -20 34 c-36 57 -58 67
-28 12z"/>
<path d="M13475 16430 c-25 -11 1 -11 35 0 20 6 21 8 5 8 -11 0 -29 -3 -40 -8z"/>
<path d="M6755 16386 c23 -41 25 -50 13 -57 -8 -5 -26 -18 -39 -29 l-24 -21
40 16 c22 9 43 17 47 18 3 1 22 -16 42 -38 33 -36 35 -37 21 -10 -8 17 -21 38
-28 48 -10 15 -9 20 4 27 9 5 27 18 40 30 l24 20 -30 -11 c-16 -5 -35 -15 -43
-21 -10 -9 -22 -2 -54 33 l-40 44 27 -49z"/>
<path d="M13418 16413 c7 -3 16 -2 19 1 4 3 -2 6 -13 5 -11 0 -14 -3 -6 -6z"/>
<path d="M13378 16403 c7 -3 16 -2 19 1 4 3 -2 6 -13 5 -11 0 -14 -3 -6 -6z"/>
<path d="M13258 16373 c7 -3 16 -2 19 1 4 3 -2 6 -13 5 -11 0 -14 -3 -6 -6z"/>
<path d="M8946 16279 c-9 -50 -15 -93 -13 -95 2 -3 12 36 22 86 10 50 16 93
13 95 -2 3 -12 -36 -22 -86z"/>
<path d="M13218 16363 c7 -3 16 -2 19 1 4 3 -2 6 -13 5 -11 0 -14 -3 -6 -6z"/>
<path d="M7120 16346 c0 -5 11 -28 24 -51 l25 -42 -37 -18 c-20 -10 -32 -20
-25 -22 6 -2 25 3 42 11 l30 16 31 -45 c40 -58 49 -58 16 1 -14 26 -26 48 -26
49 0 1 20 15 45 30 56 36 51 43 -11 15 -47 -20 -49 -20 -62 -3 -43 57 -51 67
-52 59z"/>
<path d="M13088 16333 c7 -3 16 -2 19 1 4 3 -2 6 -13 5 -11 0 -14 -3 -6 -6z"/>
<path d="M13048 16323 c7 -3 16 -2 19 1 4 3 -2 6 -13 5 -11 0 -14 -3 -6 -6z"/>
<path d="M12918 16293 c7 -3 16 -2 19 1 4 3 -2 6 -13 5 -11 0 -14 -3 -6 -6z"/>
<path d="M12878 16283 c7 -3 16 -2 19 1 4 3 -2 6 -13 5 -11 0 -14 -3 -6 -6z"/>
<path d="M12838 16273 c7 -3 16 -2 19 1 4 3 -2 6 -13 5 -11 0 -14 -3 -6 -6z"/>
<path d="M7544 16226 c15 -27 25 -50 24 -51 -81 -49 -89 -60 -22 -28 34 17 36
17 45 0 6 -9 21 -29 35 -45 l26 -27 -26 49 c-14 27 -26 50 -26 51 0 1 13 8 30
15 16 7 35 19 41 26 8 10 -3 8 -36 -6 -43 -19 -50 -19 -57 -5 -5 8 -20 27 -34
43 l-26 27 26 -49z"/>
<path d="M12798 16263 c7 -3 16 -2 19 1 4 3 -2 6 -13 5 -11 0 -14 -3 -6 -6z"/>
<path d="M12758 16253 c7 -3 16 -2 19 1 4 3 -2 6 -13 5 -11 0 -14 -3 -6 -6z"/>
<path d="M1295 16243 c-107 -24 -149 -52 -165 -114 -39 -144 159 -444 399
-604 204 -135 364 -194 559 -202 l124 -6 177 -141 c272 -216 340 -271 337
-273 -1 -2 -20 4 -42 11 -225 80 -316 99 -474 99 -112 -1 -152 -5 -232 -26
-260 -68 -441 -219 -395 -329 19 -45 44 -65 108 -87 164 -57 400 -24 589 82
73 41 208 163 262 237 l25 34 59 -16 c106 -30 187 -73 294 -158 67 -53 92 -69
69 -44 -90 97 -177 244 -241 409 -59 150 -59 145 11 220 113 121 175 298 176
505 0 105 -2 119 -25 159 -40 70 -126 101 -203 72 -38 -15 -120 -94 -160 -155
-62 -93 -80 -157 -81 -281 -1 -103 1 -114 30 -176 35 -73 88 -137 139 -169 28
-17 37 -34 60 -103 35 -110 104 -254 161 -335 27 -39 36 -58 23 -46 -61 54
-348 291 -469 388 -207 165 -220 176 -220 190 0 26 -64 205 -106 295 -137 293
-359 500 -599 556 -57 14 -147 18 -190 8z"/>
<path d="M12718 16243 c7 -3 16 -2 19 1 4 3 -2 6 -13 5 -11 0 -14 -3 -6 -6z"/>
<path d="M12580 16215 c-47 -13 -78 -23 -70 -24 8 0 56 10 105 23 50 13 81 24
70 24 -11 0 -58 -10 -105 -23z"/>
<path d="M7930 16185 c0 -3 9 -24 21 -46 11 -23 19 -42 17 -43 -2 -1 -19 -12
-38 -24 -41 -25 -24 -30 23 -6 30 16 32 16 47 -7 8 -13 25 -35 38 -49 22 -23
22 -22 -4 28 -15 28 -25 54 -23 55 2 2 21 14 42 26 50 31 40 38 -16 13 l-46
-20 -27 39 c-25 37 -34 46 -34 34z"/>
<path d="M8922 16150 c0 -14 2 -19 5 -12 2 6 2 18 0 25 -3 6 -5 1 -5 -13z"/>
<path d="M8337 16095 c3 -11 15 -32 25 -47 l18 -26 -35 -22 c-44 -27 -39 -38
6 -15 l32 17 33 -38 c38 -44 44 -38 13 13 -12 19 -20 35 -18 37 2 1 21 13 42
25 51 31 40 38 -14 10 l-43 -22 -16 24 c-8 12 -23 32 -33 43 -17 21 -17 21
-10 1z"/>
<path d="M8911 16094 c0 -11 3 -14 6 -6 3 7 2 16 -1 19 -3 4 -6 -2 -5 -13z"/>
<path d="M8901 16044 c0 -11 3 -14 6 -6 3 7 2 16 -1 19 -3 4 -6 -2 -5 -13z"/>
<path d="M8891 15994 c0 -11 3 -14 6 -6 3 7 2 16 -1 19 -3 4 -6 -2 -5 -13z"/>
<path d="M8881 15944 c0 -11 3 -14 6 -6 3 7 2 16 -1 19 -3 4 -6 -2 -5 -13z"/>
<path d="M8871 15894 c0 -11 3 -14 6 -6 3 7 2 16 -1 19 -3 4 -6 -2 -5 -13z"/>
<path d="M6260 15830 c-19 -16 -39 -29 -43 -30 -5 0 -25 12 -44 27 -33 25 -35
26 -25 6 7 -12 22 -29 34 -37 l22 -16 -34 -36 c-35 -37 -28 -37 22 -1 l26 19
35 -26 c48 -37 57 -32 17 9 l-34 35 20 22 c29 33 47 58 42 58 -2 0 -19 -13
-38 -30z"/>
<path d="M8862 15840 c0 -14 2 -19 5 -12 2 6 2 18 0 25 -3 6 -5 1 -5 -13z"/>
<path d="M5015 15816 l-40 -34 -35 29 c-48 40 -61 36 -20 -6 l33 -34 -29 -38
-28 -38 37 28 38 29 32 -24 c51 -39 64 -44 42 -17 -11 13 -28 30 -38 38 -18
13 -18 14 5 40 30 33 52 61 47 61 -2 0 -22 -15 -44 -34z"/>
<path d="M5472 15816 l-37 -34 -35 29 c-49 40 -61 36 -20 -6 l34 -35 -21 -22
c-37 -42 -37 -53 0 -25 36 27 39 28 60 13 65 -46 70 -48 32 -7 -40 42 -40 43
-20 60 28 24 59 61 52 61 -4 0 -24 -15 -45 -34z"/>
<path d="M5904 15816 l-39 -34 -35 29 c-42 36 -53 29 -16 -10 l28 -29 -28 -39
-29 -38 37 28 c44 33 49 33 74 6 10 -11 28 -26 39 -32 18 -9 19 -9 6 9 -8 10
-26 29 -40 42 l-26 22 26 23 c27 23 55 57 47 57 -2 0 -22 -15 -44 -34z"/>
<path d="M4576 15799 l-46 -41 -37 29 c-63 49 -70 48 -24 0 l45 -47 -25 -27
c-14 -16 -31 -37 -39 -48 -15 -20 -15 -20 10 0 14 11 37 30 51 43 17 15 29 20
33 13 4 -6 28 -25 54 -42 l47 -32 -48 50 -48 49 22 20 c23 20 63 74 56 74 -2
0 -25 -18 -51 -41z"/>
<path d="M15014 15748 c-407 -417 -654 -877 -740 -1378 -21 -124 -29 -406 -15
-526 23 -185 105 -475 140 -493 20 -11 2474 -712 2477 -708 2 2 -8 43 -22 92
-81 294 -105 674 -59 953 33 202 136 449 313 752 l14 25 -20 -25 c-25 -30
-160 -279 -200 -370 -37 -83 -76 -197 -101 -297 -67 -264 -52 -708 35 -1017
14 -48 23 -90 22 -92 -2 -2 -528 148 -1168 332 -641 184 -1193 342 -1227 351
l-62 17 -31 86 c-42 118 -75 264 -90 393 -15 128 -8 397 14 537 47 293 185
633 370 910 105 158 196 271 375 467 l66 71 805 -229 c443 -126 808 -228 813
-226 6 2 -1601 468 -1613 467 -3 0 -46 -42 -96 -92z"/>
<path d="M8852 15790 c0 -14 2 -19 5 -12 2 6 2 18 0 25 -3 6 -5 1 -5 -13z"/>
<path d="M8842 15740 c0 -14 2 -19 5 -12 2 6 2 18 0 25 -3 6 -5 1 -5 -13z"/>
<path d="M8832 15690 c0 -14 2 -19 5 -12 2 6 2 18 0 25 -3 6 -5 1 -5 -13z"/>
<path d="M8822 15640 c0 -14 2 -19 5 -12 2 6 2 18 0 25 -3 6 -5 1 -5 -13z"/>
<path d="M8812 15590 c0 -14 2 -19 5 -12 2 6 2 18 0 25 -3 6 -5 1 -5 -13z"/>
<path d="M8801 15534 c0 -11 3 -14 6 -6 3 7 2 16 -1 19 -3 4 -6 -2 -5 -13z"/>
<path d="M8158 15513 c6 -2 18 -2 25 0 6 3 1 5 -13 5 -14 0 -19 -2 -12 -5z"/>
<path d="M6297 15475 l-33 -36 -49 26 -50 27 27 -26 c16 -14 35 -29 44 -34 15
-8 14 -13 -11 -46 -37 -48 -26 -57 14 -11 l31 36 28 -19 c56 -40 78 -44 37 -8
-22 20 -44 36 -49 36 -4 0 3 15 16 33 51 67 47 79 -5 22z"/>
<path d="M8208 15503 c6 -2 18 -2 25 0 6 3 1 5 -13 5 -14 0 -19 -2 -12 -5z"/>
<path d="M8258 15493 c6 -2 18 -2 25 0 6 3 1 5 -13 5 -14 0 -19 -2 -12 -5z"/>
<path d="M8318 15483 c7 -3 16 -2 19 1 4 3 -2 6 -13 5 -11 0 -14 -3 -6 -6z"/>
<path d="M8368 15473 c7 -3 16 -2 19 1 4 3 -2 6 -13 5 -11 0 -14 -3 -6 -6z"/>
<path d="M5933 15436 l-38 -34 -35 29 c-47 40 -61 36 -21 -5 l33 -34 -28 -39
-29 -38 37 28 c20 15 39 27 43 27 3 0 24 -14 46 -32 52 -42 58 -31 9 17 l-40
39 37 38 c46 47 36 50 -14 4z"/>
<path d="M8418 15463 c7 -3 16 -2 19 1 4 3 -2 6 -13 5 -11 0 -14 -3 -6 -6z"/>
<path d="M5409 15413 c6 -12 22 -30 36 -41 14 -11 21 -23 16 -27 -6 -3 -20
-20 -33 -38 l-23 -32 32 23 c18 13 35 28 39 33 4 7 14 3 28 -9 11 -11 35 -28
51 -37 26 -16 25 -13 -12 26 l-42 44 34 34 c38 37 40 57 2 25 -52 -46 -51 -46
-97 -12 -35 26 -41 28 -31 11z"/>
<path d="M8628 15423 c7 -3 16 -2 19 1 4 3 -2 6 -13 5 -11 0 -14 -3 -6 -6z"/>
<path d="M4965 15400 c11 -14 29 -32 40 -41 20 -17 20 -18 -9 -48 -17 -17 -25
-31 -20 -31 6 0 21 11 34 25 l23 24 51 -36 c50 -37 48 -21 -3 24 l-25 22 32
41 c39 48 35 51 -12 9 l-35 -30 -48 32 c-40 27 -45 29 -28 9z"/>
<path d="M4637 15379 l-38 -31 -40 27 c-50 35 -63 26 -15 -10 41 -31 44 -45
16 -70 -11 -10 -20 -23 -20 -28 0 -6 13 1 28 16 15 15 32 27 36 27 4 0 23 -12
42 -26 47 -36 54 -24 9 15 l-36 32 30 35 c28 31 36 44 28 44 -1 0 -19 -14 -40
-31z"/>
<path d="M8728 15403 c7 -3 16 -2 19 1 4 3 -2 6 -13 5 -11 0 -14 -3 -6 -6z"/>
<path d="M16778 15353 c7 -3 16 -2 19 1 4 3 -2 6 -13 5 -11 0 -14 -3 -6 -6z"/>
<path d="M16848 15333 c7 -3 16 -2 19 1 4 3 -2 6 -13 5 -11 0 -14 -3 -6 -6z"/>
<path d="M16925 15310 c11 -5 27 -9 35 -9 9 0 8 4 -5 9 -11 5 -27 9 -35 9 -9
0 -8 -4 5 -9z"/>
<path d="M16995 15291 c11 -4 36 -11 55 -15 24 -4 29 -3 15 3 -11 4 -36 11
-55 15 -24 4 -29 3 -15 -3z"/>
<path d="M15413 15118 l-50 -163 26 -12 c51 -23 58 -18 82 62 12 42 25 78 29
80 4 2 14 -31 24 -74 15 -74 26 -91 56 -91 5 0 36 25 69 56 34 31 61 50 61 42
0 -8 -9 -41 -20 -73 -28 -81 -26 -90 17 -103 20 -6 39 -10 41 -7 10 10 101
318 97 325 -3 5 -21 12 -40 16 -33 6 -40 1 -120 -71 -56 -51 -86 -73 -89 -64
-3 8 -12 43 -21 79 -35 141 -33 137 -67 149 -17 6 -34 11 -38 11 -3 0 -29 -73
-57 -162z"/>
<path d="M17105 15260 c11 -5 27 -9 35 -9 9 0 8 4 -5 9 -11 5 -27 9 -35 9 -9
0 -8 -4 5 -9z"/>
<path d="M17168 15243 c7 -3 16 -2 19 1 4 3 -2 6 -13 5 -11 0 -14 -3 -6 -6z"/>
<path d="M17238 15223 c7 -3 16 -2 19 1 4 3 -2 6 -13 5 -11 0 -14 -3 -6 -6z"/>
<path d="M17308 15203 c7 -3 16 -2 19 1 4 3 -2 6 -13 5 -11 0 -14 -3 -6 -6z"/>
<path d="M6279 15103 c6 -12 22 -30 36 -41 14 -11 21 -23 16 -27 -6 -3 -20
-20 -33 -38 l-23 -32 32 23 c18 13 35 28 39 33 4 7 14 3 28 -9 11 -11 35 -28
51 -37 26 -16 25 -13 -12 26 l-43 45 32 31 c42 42 32 51 -14 13 l-35 -29 -43
31 c-35 26 -41 28 -31 11z"/>
<path d="M15904 14964 c-66 -75 -118 -139 -116 -143 2 -3 19 -12 39 -19 34
-11 38 -11 64 14 l28 27 68 -19 c64 -18 68 -21 71 -51 4 -36 13 -45 65 -60 27
-8 37 -8 37 0 0 7 -9 86 -20 177 -11 91 -20 170 -20 177 0 11 -58 33 -86 33
-7 0 -65 -61 -130 -136z m143 -80 c-3 -4 -67 15 -76 22 -2 2 14 24 35 50 l39
47 3 -57 c2 -32 1 -60 -1 -62z"/>
<path d="M17544 15078 l-19 -23 23 19 c21 18 27 26 19 26 -2 0 -12 -10 -23
-22z"/>
<path d="M5985 15056 l-40 -34 -30 23 c-53 39 -61 39 -22 -2 l37 -39 -25 -24
c-14 -13 -23 -26 -20 -28 3 -3 16 5 30 18 l25 23 46 -33 c36 -26 44 -28 35
-12 -6 11 -22 28 -36 39 l-26 18 36 43 c20 23 35 42 33 42 -2 0 -21 -15 -43
-34z"/>
<path d="M5577 15020 c-19 -16 -38 -30 -41 -30 -4 0 -22 11 -40 25 -49 37 -55
30 -12 -14 29 -30 35 -41 24 -47 -7 -5 -22 -20 -33 -33 l-20 -24 21 11 c11 6
26 18 34 26 17 21 26 20 63 -8 56 -41 63 -40 23 2 l-40 42 20 22 c55 63 56 76
1 28z"/>
<path d="M17488 15008 c-19 -24 -58 -77 -88 -118 -29 -41 -64 -90 -78 -107
-13 -18 -22 -33 -19 -33 3 0 55 68 116 150 108 146 138 194 69 108z"/>
<path d="M16244 14855 l-51 -164 45 -16 c25 -8 47 -15 48 -15 1 0 5 15 8 33
10 50 19 59 47 48 18 -6 29 -23 42 -63 16 -51 20 -56 58 -67 23 -7 43 -10 46
-8 4 5 -11 69 -23 102 -4 9 7 19 29 29 91 38 89 173 -3 221 -25 13 -176 65
-190 65 -3 0 -28 -74 -56 -165z m194 39 c32 -21 37 -40 17 -70 -15 -23 -22
-26 -57 -21 -57 8 -63 17 -48 72 12 43 15 46 39 40 14 -3 36 -13 49 -21z"/>
<path d="M5052 14991 c9 -13 26 -30 38 -38 21 -15 21 -16 3 -37 -11 -11 -25
-30 -33 -41 -13 -17 -11 -17 17 3 18 13 35 27 38 33 4 5 29 -7 57 -28 46 -33
49 -34 34 -11 -10 15 -29 34 -43 43 l-25 17 38 39 c44 45 35 51 -16 10 l-34
-29 -45 31 c-38 26 -42 27 -29 8z"/>
<path d="M4774 14956 l-39 -34 -43 30 c-35 24 -42 26 -33 11 5 -11 22 -28 36
-37 l25 -17 -26 -34 c-31 -41 -22 -46 17 -9 l27 26 34 -24 c56 -42 65 -42 23
0 l-41 39 34 41 c42 51 38 53 -14 8z"/>
<path d="M10140 14939 c-25 -5 -81 -16 -125 -24 -173 -34 -355 -111 -476 -202
-82 -62 -172 -164 -233 -262 l-51 -84 -6 89 c-10 134 -55 237 -145 327 -68 69
-132 99 -224 105 -93 5 -161 -20 -216 -80 -34 -39 -82 -127 -85 -158 -1 -8 -5
3 -10 25 -5 26 -6 13 -2 -39 10 -154 46 -242 136 -329 56 -55 126 -93 211
-117 l59 -16 -54 -31 c-208 -118 -341 -289 -405 -523 -15 -55 -18 -110 -19
-355 0 -273 -2 -295 -24 -373 -39 -138 -118 -239 -227 -289 -28 -13 -114 -39
-190 -59 -160 -41 -240 -79 -305 -146 -58 -59 -92 -115 -123 -210 -54 -159
-44 -323 31 -552 30 -89 43 -143 37 -151 -99 -130 -167 -288 -179 -420 -13
-134 31 -278 115 -379 22 -26 40 -54 40 -62 0 -8 -27 -100 -61 -206 -197 -621
-397 -1095 -576 -1360 -47 -71 -125 -160 -259 -299 -436 -450 -584 -679 -648
-1002 -39 -191 -50 -307 -49 -512 0 -512 139 -869 388 -997 22 -12 44 -26 50
-33 36 -44 244 -151 420 -217 124 -47 301 -92 415 -107 40 -5 -201 -10 -640
-12 -678 -3 -690 -3 -320 -10 642 -11 2010 -10 2010 1 0 6 -105 10 -292 11
-208 1 -274 4 -228 10 156 20 412 90 449 123 9 7 41 28 72 45 l56 31 459 -829
c252 -456 462 -827 466 -825 32 20 -22 562 -90 904 -15 75 -16 96 -6 98 7 2
11 9 8 16 -6 16 172 120 192 112 8 -3 14 1 14 9 0 19 143 97 164 89 9 -3 16
-1 16 4 0 21 114 65 181 70 73 5 93 -6 64 -38 -32 -35 -98 -53 -172 -47 -66 5
-67 5 -38 -11 38 -19 129 -19 175 1 48 20 80 53 80 81 0 37 -26 51 -88 49 -30
-1 -53 -1 -51 1 2 2 37 22 77 45 l74 41 264 0 264 0 0 -30 c0 -28 3 -30 34
-30 36 0 1889 148 1916 153 8 1 -30 24 -85 51 -130 64 -425 160 -692 227 -158
39 -210 56 -206 66 3 7 -1 13 -10 13 -18 0 -25 38 -32 155 -2 44 -7 88 -11 98
-4 13 0 23 15 33 41 29 207 172 289 249 45 43 85 76 87 73 2 -2 60 -124 128
-271 69 -148 126 -270 128 -272 2 -2 72 16 154 39 83 24 247 69 365 101 l216
58 -122 461 c-66 253 -239 914 -385 1467 l-263 1007 -25 -9 c-13 -5 -25 -8
-26 -7 -1 2 -31 174 -68 383 -36 209 -75 407 -86 440 -11 33 -31 102 -45 152
-14 51 -115 339 -224 640 -149 415 -207 563 -237 608 -88 134 -286 300 -467
391 -107 54 -274 114 -360 129 -33 6 -38 5 -42 -16 -3 -13 -12 -59 -21 -102
-57 -271 -283 -449 -575 -451 l-85 -1 -20 40 c-42 86 -158 276 -196 324 -24
30 -75 74 -120 103 -43 28 -79 56 -79 62 0 6 5 40 10 76 5 36 12 97 15 135 7
82 73 706 79 751 4 30 2 32 -51 48 -117 37 -169 136 -144 274 15 81 51 146 93
168 42 22 140 13 199 -18 27 -14 67 -24 106 -26 53 -4 72 0 119 23 81 40 128
112 169 262 0 1 52 -16 115 -37 63 -22 124 -40 135 -40 12 -1 2 -8 -24 -18
-68 -26 -60 -37 27 -37 66 0 84 -4 126 -27 55 -32 56 -32 56 -17 0 7 -15 26
-33 43 l-33 31 87 -3 c117 -5 222 18 336 72 107 52 196 134 237 219 37 74 58
187 54 280 l-3 78 22 -28 c36 -45 89 -152 112 -227 35 -113 45 -241 31 -401
-27 -322 -96 -780 -136 -909 -5 -15 3 -13 55 14 81 44 132 89 180 161 62 93
84 177 79 302 -4 90 -8 113 -42 192 -63 152 -62 136 -11 300 67 216 61 323
-26 485 -134 247 -295 404 -533 515 -117 56 -169 72 -291 96 -105 20 -256 24
-335 8z m-204 -1071 c-10 -50 -50 -131 -85 -170 -75 -86 -210 -104 -309 -40
-33 21 -23 23 28 6 120 -42 256 31 322 173 32 68 55 84 44 31z m200 -5211 c4
-4 95 -529 92 -532 -2 -1 -102 -35 -223 -75 -121 -40 -226 -75 -232 -77 -7 -3
5 44 28 109 23 62 77 214 120 338 44 124 82 231 85 239 3 11 18 12 66 7 34 -3
62 -7 64 -9z m758 -2348 c38 -30 36 -79 -5 -113 -36 -30 -40 -31 -78 -11 -32
16 -41 33 -41 75 0 33 40 70 75 70 12 0 34 -9 49 -21z m-409 -236 c8 -51 23
-187 20 -191 -1 -1 -109 -1 -240 0 l-239 3 220 112 c120 62 222 113 226 113 3
0 9 -17 13 -37z m-1440 -38 c49 -48 20 -125 -47 -125 -41 0 -78 34 -78 72 0
36 40 78 75 78 14 0 37 -11 50 -25z"/>
<path d="M17265 14698 c-16 -24 -22 -38 -14 -31 15 12 53 73 46 73 -2 0 -17
-19 -32 -42z"/>
<path d="M14771 14692 c6 -17 15 -35 20 -38 18 -11 8 -30 -26 -48 -46 -25 -38
-32 11 -11 36 15 40 15 49 -1 6 -9 20 -29 33 -43 l23 -26 -21 42 c-25 53 -25
59 3 67 12 3 33 15 47 26 l25 20 -31 -9 c-17 -5 -42 -14 -54 -21 -25 -14 -29
-11 -72 51 l-17 24 10 -33z"/>
<path d="M17204 14608 c-4 -7 -14 -24 -22 -38 -14 -24 -13 -24 3 -5 20 24 37
55 31 55 -3 0 -8 -6 -12 -12z"/>
<path d="M15150 14587 c6 -16 15 -37 20 -47 9 -17 5 -22 -30 -40 -53 -27 -51
-32 8 -15 26 8 48 11 50 7 7 -21 44 -74 48 -69 3 3 -4 23 -15 45 l-21 40 47
23 c54 26 43 38 -14 14 -36 -15 -39 -15 -53 4 -8 11 -23 31 -32 43 l-18 23 10
-28z"/>
<path d="M17153 14528 c-15 -18 -35 -58 -29 -58 2 0 13 16 25 35 20 35 22 46
4 23z"/>
<path d="M15540 14492 c0 -4 9 -23 19 -43 l19 -36 -35 -17 c-41 -19 -40 -32 1
-16 40 15 40 14 71 -35 36 -56 44 -51 15 10 -12 25 -21 47 -19 49 2 2 22 13
44 24 46 24 31 29 -22 7 -20 -8 -37 -14 -38 -13 -1 2 -12 20 -24 41 -22 36
-31 45 -31 29z"/>
<path d="M15946 14363 c9 -21 18 -43 21 -50 2 -6 -10 -19 -27 -28 -40 -21 -31
-32 11 -15 26 11 32 11 40 -1 5 -8 19 -29 30 -46 27 -44 33 -42 13 5 -29 66
-28 67 17 87 50 23 36 32 -16 11 -21 -9 -39 -16 -40 -16 -2 0 -15 20 -29 45
-33 55 -42 58 -20 8z"/>
<path d="M14710 14315 c0 -5 9 -25 21 -44 11 -18 19 -34 17 -35 -2 -1 -19 -12
-38 -24 -41 -25 -34 -28 15 -7 l35 14 25 -39 c30 -48 49 -62 35 -26 -5 14 -17
37 -25 50 -16 24 -16 25 25 46 53 27 46 36 -11 14 -33 -14 -44 -15 -47 -5 -6
19 -51 68 -52 56z"/>
<path d="M16336 14270 c3 -14 12 -37 20 -51 12 -25 11 -27 -23 -43 -45 -21
-39 -29 12 -13 24 7 40 8 42 2 7 -23 45 -77 49 -72 3 3 -4 24 -16 47 -22 43
-18 59 15 60 6 0 21 9 35 20 l25 20 -31 -9 c-17 -5 -40 -14 -52 -20 -18 -9
-24 -5 -52 37 -21 31 -29 38 -24 22z"/>
<path d="M15091 14205 c0 -5 6 -21 14 -35 21 -37 18 -46 -15 -60 -17 -7 -33
-16 -35 -21 -5 -7 30 1 65 15 11 4 21 -5 34 -29 30 -55 52 -69 31 -20 -9 22
-19 45 -22 52 -2 6 14 21 37 33 53 27 46 36 -11 14 -41 -17 -43 -17 -53 0 -19
32 -45 61 -45 51z"/>
<path d="M15490 14087 c5 -16 15 -37 20 -47 9 -16 5 -22 -21 -35 -39 -21 -33
-29 11 -13 20 6 35 7 37 2 8 -22 45 -76 49 -71 3 3 -4 23 -15 46 l-21 41 47
24 c53 28 43 35 -15 10 -36 -15 -38 -14 -52 7 -8 13 -23 32 -33 43 -17 21 -17
21 -7 -7z"/>
<path d="M15890 13974 c6 -14 15 -34 20 -44 9 -16 5 -22 -25 -36 -44 -20 -39
-31 7 -15 35 13 37 12 80 -50 15 -21 15 -17 -2 23 l-19 47 42 25 c47 28 38 34
-18 10 -20 -8 -38 -14 -39 -12 -2 2 -13 20 -25 41 -26 43 -35 48 -21 11z"/>
<path d="M10933 13905 c-18 -8 -33 -21 -33 -30 0 -8 1 -15 3 -15 1 -1 43 -8
92 -16 50 -9 102 -18 118 -21 60 -12 6 63 -62 86 -44 14 -79 13 -118 -4z"/>
<path d="M14767 13905 c3 -11 12 -29 20 -40 20 -29 16 -39 -22 -59 -46 -25
-38 -32 11 -11 38 16 39 16 54 -6 8 -13 23 -32 33 -43 15 -18 15 -15 -3 21
-11 23 -20 44 -20 47 0 3 20 17 45 32 25 14 45 28 45 30 0 2 -24 -5 -52 -16
-50 -19 -54 -19 -66 -3 -48 63 -52 68 -45 48z"/>
<path d="M16286 13863 c9 -21 18 -43 21 -50 2 -6 -10 -19 -27 -28 -38 -19 -35
-30 4 -15 40 15 42 14 70 -35 33 -55 42 -58 20 -7 -28 64 -28 67 12 85 47 23
38 33 -11 13 -21 -9 -39 -16 -40 -16 -2 0 -15 20 -29 45 -33 55 -42 58 -20 8z"/>
<path d="M15156 13775 c9 -22 18 -45 20 -51 3 -6 -13 -19 -36 -29 -52 -24 -46
-30 11 -10 24 9 45 12 46 8 8 -21 45 -75 49 -70 3 3 -4 23 -15 45 l-21 40 46
22 c56 28 52 36 -7 15 -43 -16 -44 -15 -59 6 -8 13 -23 32 -33 43 -17 20 -17
20 -1 -19z"/>
<path d="M10621 13705 c-1 -25 37 -220 90 -472 15 -70 8 -85 -38 -83 -21 1
-54 1 -73 0 l-35 -2 30 -8 c17 -4 51 -8 77 -9 64 -1 82 18 74 78 -10 70 -94
442 -110 487 -14 38 -15 38 -15 9z"/>
<path d="M15540 13695 c0 -3 9 -23 20 -45 l20 -39 -35 -17 c-64 -30 -43 -38
26 -10 11 5 24 -6 44 -38 36 -57 43 -53 16 8 l-20 46 41 21 c51 26 44 34 -12
14 -24 -8 -44 -14 -45 -13 -1 2 -12 20 -24 41 -21 34 -31 45 -31 32z"/>
<path d="M10235 13680 c-51 -19 -59 -79 -14 -112 32 -24 73 -11 91 28 22 47
-28 102 -77 84z"/>
<path d="M2948 13663 l972 -3 0 -84 c0 -228 94 -488 282 -780 254 -392 687
-823 1186 -1178 l93 -67 -43 -5 c-24 -3 -542 -26 -1152 -52 -1106 -47 -1108
-47 -1205 -29 -477 89 -856 278 -1151 574 -182 182 -315 378 -406 598 -21 51
-40 90 -42 88 -7 -6 59 -160 109 -254 286 -536 792 -887 1474 -1021 l110 -22
1085 46 c597 25 1127 48 1178 52 l94 6 -69 49 c-381 272 -699 550 -942 824
-219 247 -315 382 -426 600 -109 214 -164 413 -165 593 l0 72 -977 -2 -978 -3
973 -2z"/>
<path d="M10868 13653 c-21 -8 -38 -18 -38 -22 0 -4 35 -7 78 -6 65 0 85 -5
130 -28 30 -16 56 -26 58 -24 3 3 -8 19 -23 37 -49 59 -129 75 -205 43z"/>
<path d="M15951 13553 c18 -41 18 -49 5 -58 -54 -38 -53 -36 -33 -30 62 18 64
17 86 -21 26 -43 40 -40 17 5 -22 42 -21 46 25 67 51 22 36 31 -17 9 -21 -8
-40 -12 -43 -7 -3 5 -16 25 -29 45 -32 50 -35 46 -11 -10z"/>
<path d="M10920 13552 c-74 -23 -60 -124 17 -124 29 0 63 33 63 61 0 39 -45
74 -80 63z"/>
<path d="M1344 13440 c0 -58 1 -81 3 -52 2 28 2 76 0 105 -2 28 -3 5 -3 -53z"/>
<path d="M16335 13470 c4 -14 14 -36 22 -48 8 -13 13 -25 11 -27 -2 -1 -18
-10 -36 -19 -43 -22 -35 -32 13 -16 20 7 38 10 39 8 1 -1 13 -20 25 -41 31
-50 40 -39 12 14 -12 23 -21 42 -19 43 2 1 21 10 43 20 48 23 32 33 -19 12
-34 -14 -36 -14 -47 7 -7 12 -21 33 -32 47 l-19 25 7 -25z"/>
<path d="M2695 13336 c-63 -28 -115 -110 -115 -181 0 -68 44 -141 103 -172 34
-17 113 -19 161 -3 62 20 126 112 126 180 0 34 -22 91 -47 120 -53 64 -155 88
-228 56z m148 -137 c36 -39 35 -79 -1 -120 -22 -24 -36 -31 -66 -31 -52 0 -96
42 -96 91 1 42 15 65 56 86 38 20 72 12 107 -26z"/>
<path d="M1353 13280 c0 -25 2 -35 4 -22 2 12 2 32 0 45 -2 12 -4 2 -4 -23z"/>
<path d="M2190 13145 l0 -175 50 0 49 0 3 92 3 92 75 -91 c73 -89 76 -92 118
-92 l42 -1 0 175 0 175 -50 0 -49 0 -3 -92 -3 -93 -75 92 c-73 89 -76 92 -117
92 l-43 1 0 -175z"/>
<path d="M2977 13303 c4 -10 37 -88 74 -173 l66 -155 49 -3 49 -3 70 166 c39
91 72 171 74 176 2 6 -16 9 -45 7 l-47 -3 -46 -107 c-25 -60 -48 -108 -52
-108 -3 0 -26 48 -50 108 l-44 107 -52 3 c-47 3 -52 1 -46 -15z"/>
<path d="M1361 13194 c0 -11 3 -14 6 -6 3 7 2 16 -1 19 -3 4 -6 -2 -5 -13z"/>
<path d="M1372 13140 c0 -14 2 -19 5 -12 2 6 2 18 0 25 -3 6 -5 1 -5 -13z"/>
<path d="M10331 13107 c-14 -35 -2 -94 28 -135 29 -41 100 -74 148 -70 l38 3
-52 24 c-65 29 -118 86 -133 143 -17 65 -17 65 -29 35z"/>
<path d="M1381 13084 c0 -11 3 -14 6 -6 3 7 2 16 -1 19 -3 4 -6 -2 -5 -13z"/>
<path d="M1392 13030 c0 -14 2 -19 5 -12 2 6 2 18 0 25 -3 6 -5 1 -5 -13z"/>
<path d="M1401 12984 c0 -11 3 -14 6 -6 3 7 2 16 -1 19 -3 4 -6 -2 -5 -13z"/>
<path d="M1421 12914 c0 -11 3 -14 6 -6 3 7 2 16 -1 19 -3 4 -6 -2 -5 -13z"/>
<path d="M1431 12880 c0 -8 4 -24 9 -35 5 -13 9 -14 9 -5 0 8 -4 24 -9 35 -5
13 -9 14 -9 5z"/>
<path d="M1451 12810 c0 -8 6 -28 14 -45 17 -39 18 -21 0 25 -7 19 -14 28 -14
20z"/>
<path d="M2662 12574 l-42 -36 -37 31 c-47 39 -56 31 -14 -13 19 -20 28 -36
22 -40 -5 -4 -20 -21 -33 -39 l-23 -32 32 23 c18 13 35 27 38 33 4 5 23 -3 43
-19 54 -42 70 -49 47 -22 -11 14 -29 32 -40 41 -20 17 -20 18 6 46 33 37 53
63 47 63 -2 0 -23 -16 -46 -36z"/>
<path d="M3122 12574 l-42 -36 -37 31 c-47 39 -56 31 -14 -13 19 -20 28 -36
22 -40 -5 -4 -20 -21 -33 -39 l-23 -32 32 23 c18 13 35 27 38 33 4 5 29 -7 58
-28 38 -27 47 -31 32 -13 -11 13 -29 32 -40 41 -20 17 -20 18 6 46 33 37 53
63 47 63 -2 0 -23 -16 -46 -36z"/>
<path d="M3895 12579 l-35 -31 -31 26 c-45 38 -58 32 -19 -9 l34 -35 -29 -30
c-34 -36 -24 -39 19 -6 l31 23 35 -28 c50 -42 60 -35 16 10 -22 23 -34 41 -27
45 13 8 54 66 47 66 -3 0 -21 -14 -41 -31z"/>
<path d="M2222 12555 c-28 -26 -53 -41 -57 -35 -3 5 -27 24 -53 42 -40 27 -44
28 -27 8 11 -13 32 -35 48 -48 l27 -24 -35 -39 c-48 -53 -44 -59 11 -14 l45
37 22 -19 c12 -11 38 -30 57 -42 30 -20 27 -15 -16 28 -43 42 -49 52 -38 62
19 15 77 89 71 89 -3 0 -27 -20 -55 -45z"/>
<path d="M3430 12593 c0 -5 13 -22 30 -38 29 -28 29 -29 12 -49 -10 -12 -24
-30 -32 -41 -14 -19 -14 -19 5 -5 11 8 30 22 41 33 21 18 22 17 50 -5 16 -13
38 -30 49 -38 20 -15 20 -15 0 10 -11 14 -28 32 -39 41 -20 17 -19 18 12 53
49 56 43 63 -13 15 -36 -32 -36 -32 -58 -12 -40 35 -57 46 -57 36z"/>
<path d="M4188 12286 l-31 -35 -36 25 c-52 35 -63 29 -17 -10 l39 -34 -21 -27
c-33 -41 -26 -55 8 -17 16 17 32 32 35 32 3 0 23 -12 45 -26 52 -35 62 -25 13
11 -21 16 -40 30 -42 32 -3 2 4 16 15 31 46 62 41 73 -8 18z"/>
<path d="M3715 12256 c10 -15 26 -31 37 -37 18 -10 17 -12 -14 -51 -22 -29
-26 -38 -12 -30 10 5 27 19 38 30 18 21 18 21 69 -16 40 -28 47 -31 32 -12
-11 13 -29 32 -40 41 -20 17 -20 17 0 41 57 64 57 77 0 27 l-36 -32 -46 33
c-45 32 -45 33 -28 6z"/>
<path d="M2973 12205 l-40 -34 -42 30 c-50 37 -55 23 -7 -19 l34 -30 -29 -28
c-38 -36 -29 -44 12 -10 31 27 32 27 53 8 11 -11 32 -25 46 -32 21 -10 19 -6
-12 26 l-37 37 36 44 c19 23 33 43 31 43 -2 0 -23 -16 -45 -35z"/>
<path d="M3323 12202 c23 -23 35 -42 28 -46 -5 -4 -20 -21 -33 -39 -20 -28
-20 -30 -3 -17 11 8 30 23 42 33 22 19 22 19 60 -12 53 -44 64 -39 18 9 l-39
40 34 35 c41 43 28 46 -22 5 -32 -26 -37 -28 -49 -14 -7 8 -26 22 -43 31 -31
15 -31 15 7 -25z"/>
<path d="M2532 12194 l-42 -35 -32 24 c-55 40 -65 40 -22 0 l42 -39 -24 -29
c-30 -38 -21 -46 14 -12 l28 27 43 -31 c55 -41 65 -31 12 12 l-41 33 23 25
c31 35 50 61 45 61 -2 0 -23 -16 -46 -36z"/>
<path d="M4664 11966 l-39 -33 -37 30 c-49 39 -58 30 -13 -13 l35 -34 -32 -34
c-34 -36 -21 -35 19 1 21 19 24 19 45 3 13 -9 34 -24 48 -33 l24 -18 -16 23
c-9 13 -26 31 -38 39 l-22 15 24 27 c32 35 51 61 46 61 -3 0 -22 -15 -44 -34z"/>
<path d="M4254 11936 l-39 -34 -35 29 c-49 42 -61 36 -17 -9 l37 -38 -30 -29
c-40 -38 -30 -45 16 -10 l36 27 26 -24 c15 -13 36 -31 47 -39 17 -12 16 -10
-4 19 -12 17 -31 37 -42 43 -19 10 -19 12 15 50 33 35 42 49 33 49 -2 0 -21
-15 -43 -34z"/>
<path d="M18435 11930 c4 -6 99 -10 251 -10 l244 0 -4 -22 c-3 -13 -10 -50
-16 -83 -58 -308 -204 -718 -348 -980 -128 -231 -211 -345 -372 -505 -240
-240 -501 -364 -819 -390 -155 -12 -1857 -22 -2234 -12 l-298 7 98 55 c282
159 681 463 879 672 103 108 281 344 324 428 20 39 8 24 -74 -99 -122 -180
-273 -346 -486 -532 -175 -153 -485 -369 -687 -480 l-105 -57 84 -6 c321 -22
2465 -11 2605 13 209 37 416 128 588 260 82 62 230 213 307 313 240 310 446
793 548 1284 16 80 30 147 30 149 0 3 -117 5 -261 5 -171 0 -258 -3 -254 -10z"/>
<path d="M3753 11893 l37 -39 -25 -24 c-36 -34 -31 -47 8 -17 l32 25 50 -36
50 -35 -43 44 -42 45 35 34 c45 44 36 52 -14 12 -30 -24 -42 -28 -49 -19 -6 7
-25 21 -44 31 l-33 19 38 -40z"/>
<path d="M3343 11863 l37 -39 -25 -24 c-36 -34 -31 -47 7 -18 l32 25 51 -35
50 -35 -43 44 -42 45 35 34 c45 44 36 52 -14 12 -30 -24 -42 -28 -49 -19 -6 7
-25 21 -44 31 l-33 19 38 -40z"/>
<path d="M3042 11854 l-42 -36 -31 26 c-44 38 -61 31 -18 -7 l37 -32 -24 -30
c-35 -43 -29 -54 9 -17 l32 31 25 -20 c14 -11 33 -24 42 -30 29 -16 11 15 -23
40 l-30 22 35 40 c32 34 42 49 34 49 -2 0 -22 -16 -46 -36z"/>
<path d="M16363 11780 c0 -25 2 -35 4 -22 2 12 2 32 0 45 -2 12 -4 2 -4 -23z"/>
<path d="M16352 11690 c0 -19 2 -27 5 -17 2 9 2 25 0 35 -3 9 -5 1 -5 -18z"/>
<path d="M17030 11458 c-34 -79 -69 -158 -76 -175 l-14 -33 48 0 c45 0 49 2
63 33 14 31 15 32 87 35 l73 3 14 -36 c15 -33 17 -35 65 -35 l50 0 -14 33 c-7
17 -42 96 -76 175 l-63 142 -47 0 -47 0 -63 -142z m130 -4 c11 -25 20 -50 20
-55 0 -5 -20 -9 -44 -9 l-44 0 21 55 c12 30 23 55 25 55 1 0 12 -21 22 -46z"/>
<path d="M17370 11426 l0 -176 50 0 50 0 0 45 0 45 50 0 c126 0 199 85 154
176 -33 67 -60 78 -190 83 l-114 3 0 -176z m204 78 c19 -18 20 -38 6 -65 -8
-15 -22 -19 -60 -19 l-50 0 0 50 0 50 44 0 c27 0 51 -6 60 -16z"/>
<path d="M17740 11425 l0 -175 45 0 45 0 0 45 c0 44 1 45 33 45 27 0 36 -7 60
-45 28 -43 31 -45 78 -45 27 0 49 3 49 6 0 3 -13 25 -30 49 -16 24 -30 46 -30
50 0 3 12 16 26 28 34 30 44 100 19 146 -26 51 -81 71 -197 71 l-98 0 0 -175z
m198 83 c7 -7 12 -24 12 -38 0 -38 -18 -50 -72 -50 l-48 0 0 50 0 50 48 0 c26
0 53 -5 60 -12z"/>
<path d="M16332 11570 c0 -14 2 -19 5 -12 2 6 2 18 0 25 -3 6 -5 1 -5 -13z"/>
<path d="M16298 11452 c-15 -48 -25 -88 -24 -90 6 -5 58 157 54 167 -2 5 -15
-30 -30 -77z"/>
<path d="M16252 11325 c-17 -37 -14 -45 4 -12 9 16 14 31 11 33 -2 2 -9 -7
-15 -21z"/>
<path d="M16191 11197 c-23 -45 -38 -77 -33 -72 15 14 85 145 81 150 -2 2 -24
-34 -48 -78z"/>
<path d="M16332 10874 l48 -49 -42 -43 c-52 -51 -45 -55 12 -7 44 37 55 41 65
25 3 -5 27 -24 53 -41 l47 -31 -51 51 c-51 49 -51 50 -32 68 11 10 30 32 41
48 20 28 20 29 2 16 -11 -8 -34 -28 -51 -44 -20 -18 -34 -25 -38 -18 -4 6 -28
25 -54 42 l-47 32 47 -49z"/>
<path d="M16795 10880 c30 -30 35 -41 23 -45 -8 -3 -26 -20 -39 -38 l-23 -32
43 32 44 32 35 -29 c46 -38 56 -29 14 13 l-32 31 38 39 c30 33 33 37 12 27
-14 -7 -34 -21 -46 -31 -20 -19 -21 -19 -59 11 -52 41 -56 38 -10 -10z"/>
<path d="M17237 10895 c6 -11 21 -29 32 -39 l21 -20 -32 -33 c-38 -39 -28 -43
19 -7 l34 26 35 -31 c49 -44 55 -38 10 8 l-38 39 26 17 c15 10 32 27 38 39 11
20 10 20 -8 6 -10 -8 -29 -23 -41 -34 -23 -19 -23 -19 -45 0 -13 11 -32 26
-42 34 -18 14 -18 14 -9 -5z"/>
<path d="M18025 10890 c11 -14 29 -32 40 -41 20 -17 20 -18 -10 -50 -26 -29
-27 -31 -5 -16 43 30 49 30 83 5 17 -13 39 -28 47 -33 13 -8 13 -6 1 11 -8 10
-26 29 -40 41 l-25 22 29 31 c37 38 27 49 -14 15 l-31 -26 -32 24 c-52 38 -65
43 -43 17z"/>
<path d="M17670 10893 c0 -5 13 -22 30 -38 29 -28 29 -29 10 -42 -11 -8 -25
-24 -32 -36 -10 -20 -8 -19 26 6 l36 28 41 -32 c51 -40 60 -33 14 11 l-35 34
37 38 c44 45 32 50 -19 8 -20 -17 -39 -26 -43 -21 -10 16 -65 53 -65 44z"/>
<path d="M16108 10633 c13 -18 34 -41 47 -51 l24 -19 -25 -24 c-14 -13 -30
-33 -36 -43 -10 -18 -8 -17 19 2 16 12 36 28 43 36 11 14 18 11 58 -24 62 -55
77 -50 21 6 l-47 46 39 35 c55 50 49 63 -7 18 -32 -27 -50 -36 -59 -29 -7 5
-33 25 -56 44 l-44 35 23 -32z"/>
<path d="M16560 10646 c0 -3 16 -24 36 -45 l35 -40 -25 -16 c-13 -9 -27 -23
-30 -32 -4 -10 7 -6 30 12 l36 27 26 -24 c55 -49 66 -52 29 -6 l-37 46 22 19
c48 39 53 57 8 26 l-46 -31 -42 35 c-23 19 -42 32 -42 29z"/>
<path d="M17052 10589 l37 -46 -32 -32 -32 -33 32 16 c17 9 35 20 38 26 4 6
25 -5 51 -26 51 -42 58 -35 12 13 l-32 33 40 41 c31 33 34 39 14 29 -14 -7
-35 -22 -48 -33 l-22 -21 -28 25 c-55 50 -66 53 -30 8z"/>
<path d="M17470 10594 c0 -4 14 -22 31 -40 l31 -32 -25 -17 c-14 -9 -28 -23
-31 -32 -4 -10 6 -6 29 11 l36 28 39 -36 c22 -20 43 -36 46 -36 8 0 -31 54
-51 70 -14 12 -12 18 22 53 l38 40 -44 -31 c-44 -31 -45 -31 -65 -14 -38 33
-56 45 -56 36z"/>
<path d="M17850 10555 l34 -35 -29 -30 c-33 -34 -21 -40 19 -9 27 21 27 21 49
2 63 -55 75 -54 26 1 l-30 35 33 30 c43 38 32 49 -13 12 l-34 -29 -36 29 c-50
40 -60 36 -19 -6z"/>
<path d="M3020 10355 c-294 -85 -592 -171 -663 -191 -70 -21 -125 -39 -123
-41 2 -2 288 77 637 176 349 99 647 183 662 187 25 6 35 0 79 -42 189 -184
430 -508 538 -724 177 -354 253 -654 252 -997 -1 -230 -30 -409 -97 -595 l-33
-93 -1207 -347 c-665 -190 -1218 -349 -1230 -352 l-23 -6 28 108 c72 277 93
619 55 899 -10 72 -53 226 -86 309 -36 92 -130 281 -204 410 -64 111 -222 354
-230 354 -3 0 26 -47 65 -105 162 -242 322 -550 384 -740 53 -162 66 -239 72
-450 9 -273 -16 -495 -80 -715 -14 -46 -23 -86 -21 -89 3 -3 2044 578 2441
695 l52 15 30 87 c74 212 104 388 104 620 1 477 -168 942 -508 1393 -92 122
-325 383 -344 386 -8 1 -256 -68 -550 -152z"/>
<path d="M15861 10325 l-54 -44 -41 35 c-56 48 -68 42 -18 -9 l42 -43 -43 -43
c-31 -33 -34 -38 -12 -22 80 58 73 56 103 30 83 -75 97 -76 30 -3 l-41 45 48
49 c27 28 47 50 45 50 -3 -1 -29 -21 -59 -45z"/>
<path d="M16180 10343 c0 -5 14 -22 30 -38 l30 -29 -32 -34 c-33 -35 -26 -35
23 -1 26 18 27 18 50 -7 13 -14 33 -30 43 -36 18 -10 17 -8 -2 19 -12 16 -28
35 -36 42 -12 10 -9 17 22 46 43 40 28 47 -17 9 l-31 -26 -40 32 c-22 17 -40
28 -40 23z"/>
<path d="M16640 10326 c0 -3 14 -21 31 -41 l32 -36 -29 -31 -29 -31 37 22 38
23 47 -39 c47 -37 44 -26 -6 30 l-26 28 33 25 c17 14 32 30 32 36 0 6 -16 -2
-36 -17 -25 -19 -41 -25 -49 -19 -7 5 -27 19 -44 32 -17 13 -31 21 -31 18z"/>
<path d="M17091 10281 c12 -16 29 -33 37 -36 12 -4 8 -13 -18 -40 -39 -40 -26
-47 18 -10 l29 24 33 -34 c46 -48 59 -44 19 6 l-32 40 34 35 c40 42 27 45 -22
4 l-36 -29 -24 25 c-13 14 -32 30 -42 36 -16 8 -15 5 4 -21z"/>
<path d="M17464 10261 c36 -36 37 -39 19 -52 -19 -15 -48 -49 -41 -49 2 0 19
11 38 25 l34 25 25 -23 c15 -13 35 -30 46 -38 18 -13 17 -11 -2 17 -12 17 -29
37 -38 44 -14 12 -12 17 22 53 39 41 31 41 -25 0 l-33 -25 -35 31 c-49 44 -55
39 -10 -8z"/>
<path d="M2175 10110 c-13 -5 -14 -9 -5 -9 8 0 24 4 35 9 13 5 14 9 5 9 -8 0
-24 -4 -35 -9z"/>
<path d="M2128 10093 c7 -3 16 -2 19 1 4 3 -2 6 -13 5 -11 0 -14 -3 -6 -6z"/>
<path d="M2058 10073 c7 -3 16 -2 19 1 4 3 -2 6 -13 5 -11 0 -14 -3 -6 -6z"/>
<path d="M3002 9907 l-133 -42 6 -35 c8 -43 7 -42 36 -32 80 30 74 36 119
-107 l40 -130 46 16 c25 8 43 20 41 27 -11 29 -66 213 -69 230 -2 14 7 22 45
33 26 7 47 18 47 23 0 22 -21 60 -32 59 -7 0 -73 -19 -146 -42z"/>
<path d="M2695 9815 c-22 -8 -54 -30 -72 -49 -101 -109 -42 -273 108 -301 64
-12 168 38 200 97 8 15 3 21 -25 34 -34 17 -35 17 -66 -14 -65 -66 -170 -25
-170 66 0 74 79 125 140 92 16 -9 22 -5 35 19 20 40 19 46 -10 59 -34 16 -91
14 -140 -3z"/>
<path d="M2274 9707 c-120 -58 -150 -203 -61 -304 38 -43 82 -63 139 -63 159
1 251 180 159 307 -54 75 -153 100 -237 60z m141 -113 c13 -9 29 -31 35 -49
29 -88 -76 -162 -145 -102 -50 43 -49 114 3 153 23 18 78 17 107 -2z"/>
<path d="M1340 9451 c5 -11 15 -23 21 -27 6 -3 3 5 -6 20 -20 30 -30 35 -15 7z"/>
<path d="M3876 9384 c-30 -48 -30 -48 -54 -35 -9 4 -30 11 -47 15 -24 5 -21 1
17 -19 l47 -25 -15 -36 c-20 -48 -12 -54 16 -10 12 20 22 36 23 36 1 0 24 -7
51 -15 65 -20 69 -13 7 14 l-50 21 20 46 c27 60 20 64 -15 8z"/>
<path d="M3544 9255 c-14 -25 -27 -45 -29 -45 -1 0 -19 7 -40 16 -52 21 -69
11 -17 -11 23 -10 42 -22 42 -26 0 -3 -7 -24 -15 -45 l-16 -39 25 27 c13 15
26 32 28 38 3 9 17 8 52 -4 64 -22 72 -12 12 15 -27 12 -45 26 -43 32 3 7 12
29 21 50 22 50 13 47 -20 -8z"/>
<path d="M3136 9114 c-30 -47 -36 -50 -67 -33 -11 5 -28 8 -37 6 -12 -3 -4
-10 25 -22 36 -15 41 -21 33 -36 -6 -10 -15 -30 -20 -46 l-10 -28 20 25 c11
14 22 33 25 42 5 15 9 15 51 1 57 -19 69 -10 18 14 -22 9 -41 18 -43 20 -2 1
6 23 18 49 29 60 23 64 -13 8z"/>
<path d="M3966 8972 l-18 -39 -55 13 c-62 14 -60 3 2 -20 25 -8 39 -19 36 -27
-2 -8 -7 -26 -11 -41 -12 -39 -4 -35 20 11 19 38 21 39 49 30 17 -6 38 -9 48
-7 12 3 3 9 -24 18 -45 14 -49 22 -33 66 16 42 5 39 -14 -4z"/>
<path d="M2712 8988 c-5 -7 -17 -27 -26 -45 l-16 -32 -45 16 c-58 19 -68 12
-15 -12 22 -10 40 -21 40 -25 0 -4 -7 -25 -15 -46 l-16 -39 21 24 c11 13 25
31 29 39 7 13 14 13 56 -2 64 -21 69 -13 11 16 -26 12 -45 27 -42 33 2 5 11
27 20 48 17 38 16 47 -2 25z"/>
<path d="M3625 8836 c-15 -25 -28 -46 -30 -46 -1 0 -19 7 -40 16 -52 21 -67
12 -16 -10 22 -11 41 -22 41 -26 0 -4 -7 -25 -15 -46 l-16 -39 21 24 c11 13
25 31 29 39 8 13 14 13 51 -2 56 -22 63 -13 11 14 -23 11 -41 23 -41 26 0 2 9
23 21 45 29 57 17 60 -16 5z"/>
<path d="M2285 8798 c-15 -29 -29 -54 -30 -56 -1 -1 -21 5 -45 13 -66 23 -81
16 -22 -11 28 -13 52 -25 52 -28 0 -2 -7 -20 -16 -41 -21 -51 -10 -56 16 -6
11 23 24 41 28 41 5 0 30 -7 56 -16 66 -23 68 -11 3 16 l-55 23 25 54 c33 71
24 78 -12 11z"/>
<path d="M3241 8679 c-12 -19 -21 -37 -21 -41 0 -4 -12 -3 -27 3 -42 17 -83
28 -83 24 0 -3 19 -14 43 -26 23 -12 43 -22 45 -24 1 -1 -5 -18 -13 -38 -22
-52 -19 -57 10 -14 29 42 26 42 84 21 60 -21 61 -12 2 16 l-50 23 20 39 c25
50 17 62 -10 17z"/>
<path d="M16655 8333 c-681 -195 -1241 -356 -1243 -358 -2 -2 93 -342 212
-756 119 -414 215 -753 214 -754 -2 -2 -234 21 -517 51 l-515 53 -50 -45 c-96
-87 -248 -263 -323 -374 -127 -188 -236 -444 -302 -705 -69 -277 -92 -478 -89
-790 l2 -210 7 260 c7 268 15 354 48 536 46 249 107 440 206 644 116 240 225
392 408 573 l94 94 1124 -117 c618 -64 1132 -120 1141 -123 14 -6 9 -25 -43
-147 -234 -550 -400 -1153 -440 -1603 -20 -232 -4 -554 36 -729 l5 -23 -772
-3 -773 -2 784 -3 c665 -2 782 0 778 12 -3 8 -16 72 -28 142 -41 234 -28 605
32 929 51 273 193 786 224 811 8 5 59 23 115 38 55 16 99 31 96 33 -2 2 -49
-9 -105 -25 -56 -16 -101 -25 -101 -20 0 21 100 288 164 439 36 86 66 159 66
162 0 6 -38 12 -132 22 l-57 6 21 35 c29 49 15 54 -17 6 l-27 -41 -40 15 c-49
17 -51 17 -43 3 5 -7 -7 -9 -36 -5 -24 4 -239 27 -478 51 -239 25 -436 47
-438 49 -2 2 -100 341 -218 752 l-213 749 26 7 c15 4 567 163 1227 352 660
190 1202 341 1205 336 3 -4 113 -380 244 -834 132 -454 241 -824 243 -822 2 2
-16 75 -41 162 -286 1013 -429 1510 -434 1515 -4 3 -565 -153 -1247 -348z"/>
<path d="M4073 8576 c-10 -13 -22 -31 -28 -41 -9 -15 -13 -15 -49 0 -49 21
-60 11 -12 -11 39 -19 43 -29 21 -58 -27 -35 -15 -42 13 -8 l27 33 48 -21 c63
-28 71 -20 12 11 -25 13 -45 28 -45 32 0 4 9 26 20 47 23 45 20 52 -7 16z"/>
<path d="M2821 8548 c-11 -18 -24 -39 -29 -46 -7 -10 -16 -9 -46 3 -53 22 -70
13 -18 -10 47 -21 48 -24 26 -66 -22 -44 -11 -47 16 -5 12 20 23 36 25 36 1 0
22 -7 45 -15 59 -21 63 -11 7 16 -33 16 -44 26 -37 34 12 14 42 85 36 85 -2 0
-14 -15 -25 -32z"/>
<path d="M3674 8421 c-14 -23 -28 -41 -29 -41 -1 0 -19 7 -38 15 -54 22 -67
18 -24 -9 49 -30 52 -33 39 -49 -13 -15 -34 -67 -27 -67 3 0 16 18 31 39 l26
40 50 -20 c65 -25 72 -19 13 12 -25 13 -45 27 -45 31 0 4 10 23 21 43 30 50
16 55 -17 6z"/>
<path d="M2391 8399 c-12 -19 -22 -38 -24 -43 -1 -4 -25 -1 -51 8 -63 22 -69
14 -11 -13 25 -12 45 -23 45 -25 0 -2 -7 -20 -15 -39 -8 -20 -15 -40 -15 -44
0 -7 47 54 52 68 2 5 25 2 52 -6 65 -20 69 -13 8 15 l-49 22 20 39 c24 50 15
63 -12 18z"/>
<path d="M3284 8280 c-15 -22 -30 -40 -34 -40 -4 0 -24 7 -45 16 -51 21 -56
10 -6 -16 23 -11 41 -23 41 -26 0 -2 -7 -16 -16 -29 -9 -13 -14 -30 -12 -36 2
-7 14 4 26 24 l23 36 45 -21 c58 -25 70 -16 15 12 -39 19 -52 42 -32 54 10 6
33 66 26 66 -3 0 -17 -18 -31 -40z"/>
<path d="M2894 8141 c-14 -23 -30 -41 -34 -41 -4 0 -24 7 -43 15 -20 8 -40 15
-44 15 -13 -1 41 -40 54 -40 23 0 24 -20 2 -62 -18 -35 -19 -40 -5 -29 10 8
24 27 32 42 l14 28 46 -20 c60 -27 70 -16 11 12 l-46 22 26 44 c33 57 23 68
-13 14z"/>
<path d="M17338 8138 c-21 -7 -30 -20 -38 -51 -19 -73 -31 -107 -39 -107 -4 0
-29 23 -56 51 -47 48 -52 50 -89 44 -22 -3 -43 -8 -48 -11 -5 -4 33 -50 85
-103 79 -80 96 -103 101 -136 11 -62 15 -66 64 -53 47 12 48 14 27 81 -14 46
-13 53 15 155 17 59 33 115 36 125 6 20 -14 22 -58 5z"/>
<path d="M2518 8011 c-26 -46 -31 -47 -83 -25 -54 22 -56 9 -2 -17 38 -19 44
-25 36 -40 -14 -28 -29 -69 -24 -69 3 0 16 17 30 39 l26 39 51 -20 c66 -25 73
-17 11 12 -26 13 -49 24 -51 25 -2 2 7 21 19 44 28 55 17 65 -13 12z"/>
<path d="M16874 8008 l-31 -10 -26 -177 c-15 -97 -27 -181 -27 -187 0 -9 11
-9 42 1 37 11 44 17 54 50 10 37 13 39 79 57 l70 19 25 -29 c24 -29 26 -30 65
-18 22 7 39 18 37 24 -5 27 -224 282 -240 281 -9 -1 -31 -6 -48 -11z m84 -144
l31 -41 -40 -12 c-23 -7 -43 -10 -45 -8 -3 2 -1 30 2 61 4 31 10 53 14 49 3
-4 21 -26 38 -49z"/>
<path d="M16623 7943 c-31 -6 -37 -17 -68 -130 -15 -57 -30 -103 -34 -103 -4
0 -27 21 -51 46 -85 86 -116 107 -155 100 -21 -4 -35 -13 -35 -21 0 -12 80
-315 85 -322 1 -3 78 17 82 21 2 1 -6 35 -17 74 -11 39 -20 77 -20 84 0 7 27
-14 60 -47 53 -52 62 -57 82 -48 18 8 27 27 42 87 11 42 22 76 26 76 3 0 14
-31 24 -68 24 -94 26 -96 72 -85 22 5 38 14 38 19 -7 49 -90 324 -98 323 -6
-1 -21 -4 -33 -6z"/>
<path d="M17834 7491 l-26 -39 -35 14 c-47 20 -55 9 -10 -12 35 -17 36 -18 21
-45 -21 -42 -16 -48 11 -14 24 29 25 29 62 16 65 -24 69 -23 21 4 -52 28 -54
31 -35 60 16 23 28 55 22 55 -3 0 -16 -18 -31 -39z"/>
<path d="M17502 7395 c-11 -14 -22 -31 -24 -37 -3 -8 -17 -7 -46 5 -23 9 -45
17 -48 17 -14 0 9 -19 41 -35 34 -15 35 -18 22 -38 -7 -12 -17 -31 -20 -42 -6
-17 -4 -16 13 4 12 13 24 30 28 38 7 11 17 10 56 -8 61 -26 69 -20 13 11 -23
13 -44 24 -46 26 -2 2 7 19 19 39 27 43 21 57 -8 20z"/>
<path d="M17082 7275 c-11 -14 -22 -31 -24 -37 -3 -8 -17 -6 -47 6 -57 22 -64
13 -11 -14 39 -20 41 -22 28 -43 -8 -12 -18 -31 -21 -42 -6 -16 -2 -14 17 7
13 15 26 32 28 38 2 7 20 4 51 -10 61 -27 70 -21 14 10 -23 13 -44 24 -46 26
-2 2 7 19 19 39 27 43 21 57 -8 20z"/>
<path d="M16640 7153 c-14 -20 -27 -40 -30 -44 -3 -5 -29 0 -58 11 -29 11 -52
18 -52 15 0 -2 20 -16 45 -30 l45 -27 -21 -41 -20 -42 24 27 c14 15 27 32 29
38 2 8 20 5 56 -9 60 -24 61 -11 2 19 l-39 20 26 45 c31 56 27 67 -7 18z"/>
<path d="M17995 7122 l-27 -40 -35 14 c-47 20 -52 12 -8 -12 36 -19 42 -28 26
-38 -5 -3 -14 -21 -20 -38 l-11 -33 21 24 c11 13 24 31 29 40 7 14 13 14 47 2
67 -24 69 -23 22 6 l-47 28 20 38 c27 53 16 58 -17 9z"/>
<path d="M16223 7027 c-11 -18 -26 -42 -32 -54 l-11 -21 -51 19 c-66 25 -76
17 -15 -13 50 -24 50 -25 22 -90 -21 -48 -14 -48 16 -1 13 20 26 41 29 46 4 5
31 0 64 -12 76 -28 84 -18 12 15 -32 14 -57 27 -57 29 0 2 12 26 27 54 30 59
28 75 -4 28z"/>
<path d="M17663 7023 c-15 -21 -28 -40 -30 -42 -2 -2 -22 3 -45 12 -55 22 -61
14 -9 -13 l41 -20 -20 -40 c-28 -56 -25 -60 10 -13 l31 42 45 -21 c59 -26 66
-18 11 12 -23 13 -43 24 -45 25 -1 1 9 23 24 48 31 57 25 61 -13 10z"/>
<path d="M18381 6980 c0 -8 4 -24 9 -35 5 -13 9 -14 9 -5 0 8 -4 24 -9 35 -5
13 -9 14 -9 5z"/>
<path d="M17253 6916 c-10 -13 -23 -32 -29 -42 -10 -17 -12 -17 -53 0 -57 22
-64 13 -12 -14 l41 -20 -20 -40 c-28 -56 -25 -60 10 -13 l31 42 45 -21 c60
-26 69 -15 11 13 l-46 22 25 49 c27 52 26 61 -3 24z"/>
<path d="M18401 6910 c0 -8 4 -24 9 -35 5 -13 9 -14 9 -5 0 8 -4 24 -9 35 -5
13 -9 14 -9 5z"/>
<path d="M18421 6840 c0 -8 4 -24 9 -35 5 -13 9 -14 9 -5 0 8 -4 24 -9 35 -5
13 -9 14 -9 5z"/>
<path d="M16803 6786 c-10 -13 -22 -31 -28 -41 -9 -15 -13 -15 -47 -1 -21 9
-41 16 -45 16 -13 -1 41 -40 55 -40 16 0 15 -20 -3 -44 -27 -35 -15 -42 14 -8
l28 32 47 -21 c62 -27 69 -19 11 12 -48 26 -52 34 -32 64 15 22 28 55 22 55
-2 0 -12 -11 -22 -24z"/>
<path d="M18148 6773 c-8 -10 -22 -30 -31 -46 -17 -27 -18 -27 -48 -11 -17 8
-36 13 -42 11 -7 -2 4 -12 23 -22 19 -9 36 -18 38 -20 1 -1 -5 -16 -14 -34
-21 -42 -11 -51 12 -12 21 35 28 37 79 15 53 -22 54 -11 1 17 l-44 23 24 48
c26 51 26 59 2 31z"/>
<path d="M18451 6734 c0 -11 3 -14 6 -6 3 7 2 16 -1 19 -3 4 -6 -2 -5 -13z"/>
<path d="M16372 6631 l-31 -49 -52 19 c-67 26 -73 19 -9 -11 28 -13 50 -25 50
-27 0 -2 -9 -22 -21 -44 -27 -54 -17 -62 13 -10 13 22 28 41 33 41 6 0 34 -9
63 -20 66 -25 61 -12 -7 19 l-50 24 25 49 c34 66 24 72 -14 9z"/>
<path d="M17803 6656 c-10 -13 -23 -32 -29 -42 -10 -17 -12 -17 -53 0 -57 22
-64 13 -12 -14 l41 -20 -20 -40 c-25 -49 -14 -52 18 -6 l23 34 46 -20 c60 -26
68 -15 9 13 l-46 23 18 30 c35 61 39 86 5 42z"/>
<path d="M17374 6520 c-15 -22 -30 -40 -34 -40 -4 0 -24 7 -45 16 -51 21 -54
13 -5 -15 40 -22 48 -35 31 -45 -9 -6 -33 -66 -27 -66 2 0 16 18 30 39 l28 40
45 -20 c61 -26 68 -16 9 12 l-46 23 18 30 c41 70 37 89 -4 26z"/>
<path d="M1630 6338 c0 -22 49 -244 75 -343 138 -527 370 -975 656 -1265 214
-218 475 -355 752 -396 130 -19 1406 -30 2170 -19 l518 7 -116 64 c-349 192
-748 501 -972 754 -134 151 -266 341 -351 505 -12 22 -21 35 -22 30 0 -17 95
-180 173 -295 232 -345 663 -722 1121 -980 l97 -55 -198 -8 c-109 -5 -673 -6
-1253 -3 -1126 5 -1140 6 -1320 56 -213 60 -403 176 -578 352 -132 134 -200
220 -289 365 -169 279 -306 620 -397 989 -19 78 -37 162 -41 188 l-7 46 723 3
724 2 -732 3 c-403 1 -733 1 -733 0z"/>
<path d="M3528 6333 c12 -2 32 -2 45 0 12 2 2 4 -23 4 -25 0 -35 -2 -22 -4z"/>
<path d="M4214 6215 c0 -55 1 -76 3 -47 2 29 2 74 0 100 -2 26 -3 2 -3 -53z"/>
<path d="M14938 6126 c-3 -31 -1 -35 25 -40 16 -3 45 -6 63 -6 19 0 34 -4 34
-9 0 -37 -24 -168 -32 -178 -16 -19 -59 -16 -82 6 -21 19 -21 19 -49 -5 -36
-31 -30 -49 25 -74 79 -36 173 -18 201 37 12 23 47 223 47 268 0 9 -162 35
-216 35 -7 0 -14 -15 -16 -34z"/>
<path d="M18398 6143 c7 -3 16 -2 19 1 4 3 -2 6 -13 5 -11 0 -14 -3 -6 -6z"/>
<path d="M15230 6032 c-7 -55 -11 -120 -8 -146 10 -82 71 -126 176 -126 70 0
118 26 144 80 13 27 51 238 44 247 -1 1 -23 3 -51 5 l-49 3 -14 -105 c-7 -58
-19 -115 -28 -127 -19 -30 -83 -32 -109 -3 -19 21 -19 25 1 203 l7 57 -29 0
c-16 0 -39 3 -50 6 -20 5 -22 0 -34 -94z"/>
<path d="M18328 6123 c7 -3 16 -2 19 1 4 3 -2 6 -13 5 -11 0 -14 -3 -6 -6z"/>
<path d="M4223 6075 c0 -22 2 -30 4 -17 2 12 2 30 0 40 -3 9 -5 -1 -4 -23z"/>
<path d="M18258 6103 c7 -3 16 -2 19 1 4 3 -2 6 -13 5 -11 0 -14 -3 -6 -6z"/>
<path d="M15660 6073 c0 -6 -9 -79 -21 -163 -11 -84 -18 -159 -15 -166 3 -9
21 -14 50 -14 l44 0 8 68 c12 115 14 116 74 26 76 -114 87 -124 132 -124 25 0
38 5 38 13 0 8 9 83 21 167 11 83 19 154 17 155 -2 2 -24 6 -49 10 l-46 7 -14
-93 -14 -92 -69 101 c-39 56 -75 102 -82 102 -6 0 -26 3 -43 6 -18 4 -31 2
-31 -3z"/>
<path d="M18148 6073 c7 -3 16 -2 19 1 4 3 -2 6 -13 5 -11 0 -14 -3 -6 -6z"/>
<path d="M18078 6053 c7 -3 16 -2 19 1 4 3 -2 6 -13 5 -11 0 -14 -3 -6 -6z"/>
<path d="M18008 6033 c7 -3 16 -2 19 1 4 3 -2 6 -13 5 -11 0 -14 -3 -6 -6z"/>
<path d="M4232 6010 c0 -14 2 -19 5 -12 2 6 2 18 0 25 -3 6 -5 1 -5 -13z"/>
<path d="M16089 6028 c0 -2 -10 -78 -23 -170 l-22 -167 25 -5 c46 -9 261 -29
265 -25 2 2 6 18 9 35 l6 32 -67 6 c-127 13 -129 14 -124 48 l5 30 83 -7 84
-7 0 35 0 35 -67 7 c-93 9 -95 10 -87 42 4 16 7 29 8 29 1 1 26 -2 56 -7 30
-4 71 -8 91 -8 35 -1 37 1 41 34 2 20 0 35 -7 35 -5 0 -66 7 -135 15 -133 16
-140 16 -141 13z"/>
<path d="M17915 6010 c-13 -5 -14 -9 -5 -9 8 0 24 4 35 9 13 5 14 9 5 9 -8 0
-24 -4 -35 -9z"/>
<path d="M17845 5990 c-13 -5 -14 -9 -5 -9 8 0 24 4 35 9 13 5 14 9 5 9 -8 0
-24 -4 -35 -9z"/>
<path d="M4241 5964 c0 -11 3 -14 6 -6 3 7 2 16 -1 19 -3 4 -6 -2 -5 -13z"/>
<path d="M17775 5970 c-13 -5 -14 -9 -5 -9 8 0 24 4 35 9 13 5 14 9 5 9 -8 0
-24 -4 -35 -9z"/>
<path d="M17705 5950 c-13 -5 -14 -9 -5 -9 8 0 24 4 35 9 13 5 14 9 5 9 -8 0
-24 -4 -35 -9z"/>
<path d="M4250 5930 c0 -18 51 -173 56 -168 2 2 -10 44 -26 93 -16 50 -29 83
-30 75z"/>
<path d="M17635 5930 c-13 -5 -14 -9 -5 -9 8 0 24 4 35 9 13 5 14 9 5 9 -8 0
-24 -4 -35 -9z"/>
<path d="M2565 5915 c-61 -22 -82 -55 -75 -120 3 -36 39 -62 115 -84 60 -17
75 -25 75 -41 0 -34 -77 -37 -152 -6 -12 6 -21 0 -32 -23 -9 -16 -16 -32 -16
-34 0 -14 89 -37 141 -37 75 0 123 20 143 59 37 71 0 130 -93 150 -64 14 -91
27 -91 46 0 26 86 33 141 10 12 -5 19 2 28 26 6 17 9 35 6 39 -6 10 -96 30
-128 30 -12 -1 -40 -7 -62 -15z"/>
<path d="M2830 5745 l0 -176 138 3 137 3 0 35 0 35 -92 3 -93 3 0 29 0 30 80
0 80 0 0 40 0 40 -81 0 -80 0 3 28 c3 27 3 27 91 30 l87 3 0 34 0 35 -135 0
-135 0 0 -175z"/>
<path d="M3162 5748 l3 -173 48 -3 47 -3 0 43 0 44 76 11 c63 9 82 16 106 40
58 58 41 159 -32 195 -27 14 -60 18 -143 18 l-107 0 2 -172z m203 82 c8 -7 15
-23 15 -36 0 -35 -26 -54 -76 -54 l-44 0 0 56 0 57 45 -5 c25 -3 52 -11 60
-18z"/>
<path d="M3490 5886 l0 -35 53 -3 52 -3 3 -137 3 -138 44 0 45 0 0 140 0 140
55 0 55 0 0 35 0 35 -155 0 -155 0 0 -34z"/>
<path d="M17565 5910 c-13 -5 -14 -9 -5 -9 8 0 24 4 35 9 13 5 14 9 5 9 -8 0
-24 -4 -35 -9z"/>
<path d="M17495 5890 c-13 -5 -14 -9 -5 -9 8 0 24 4 35 9 13 5 14 9 5 9 -8 0
-24 -4 -35 -9z"/>
<path d="M12566 5871 c5 -5 193 -5 434 -1 l425 7 -434 1 c-250 1 -431 -2 -425
-7z"/>
<path d="M17375 5855 c-38 -13 -65 -23 -60 -24 6 0 44 10 85 23 41 13 68 24
60 24 -8 0 -46 -10 -85 -23z"/>
<path d="M17255 5820 c-13 -5 -14 -9 -5 -9 8 0 24 4 35 9 13 5 14 9 5 9 -8 0
-24 -4 -35 -9z"/>
<path d="M17185 5800 c-13 -5 -14 -9 -5 -9 8 0 24 4 35 9 13 5 14 9 5 9 -8 0
-24 -4 -35 -9z"/>
<path d="M17115 5780 c-13 -5 -14 -9 -5 -9 8 0 24 4 35 9 13 5 14 9 5 9 -8 0
-24 -4 -35 -9z"/>
<path d="M4311 5745 c0 -5 6 -21 14 -35 8 -14 14 -20 14 -15 0 6 -6 21 -14 35
-8 14 -14 21 -14 15z"/>
<path d="M14470 5416 c0 -4 18 -26 40 -50 l41 -44 -41 -33 c-52 -42 -44 -50
12 -11 l44 30 53 -44 c70 -58 77 -56 16 6 l-49 50 49 45 50 46 -58 -37 -58
-37 -32 29 c-43 40 -67 58 -67 50z"/>
<path d="M14977 5364 c12 -17 29 -37 38 -44 13 -11 11 -17 -22 -47 l-38 -35
45 25 45 26 44 -42 c42 -39 41 -34 -5 31 -16 22 -15 24 22 58 l39 36 -48 -27
-47 -26 -47 38 c-47 38 -47 38 -26 7z"/>
<path d="M4253 5325 c-31 -26 -43 -32 -51 -22 -6 6 -25 21 -44 31 l-33 19 38
-40 37 -39 -25 -24 c-37 -35 -30 -46 10 -16 l35 27 37 -30 c49 -40 59 -28 11
13 l-38 33 26 24 c24 22 49 59 41 59 -2 0 -22 -16 -44 -35z"/>
<path d="M2999 5316 l-44 -33 -35 28 c-44 37 -52 28 -12 -14 l32 -33 -25 -24
c-37 -35 -30 -46 10 -16 l35 27 37 -30 c48 -40 56 -31 13 14 l-34 35 39 40
c48 49 42 51 -16 6z"/>
<path d="M3463 5315 c-31 -26 -43 -32 -51 -22 -6 6 -25 21 -44 31 l-33 19 37
-39 38 -40 -33 -33 c-33 -35 -19 -33 20 2 l22 19 53 -38 c39 -28 48 -31 33
-14 -11 13 -30 33 -43 43 l-23 19 36 39 c32 36 41 49 32 49 -2 0 -22 -16 -44
-35z"/>
<path d="M3788 5323 c13 -18 31 -37 40 -42 16 -9 15 -11 -4 -33 -11 -13 -26
-32 -34 -43 -14 -19 -14 -19 5 -5 11 8 30 23 42 33 22 19 22 19 60 -12 52 -43
65 -39 20 7 -34 35 -36 40 -22 52 9 7 26 27 38 44 l22 31 -34 -25 c-61 -46
-60 -45 -75 -35 -8 6 -29 21 -47 35 l-34 25 23 -32z"/>
<path d="M2557 5299 l-48 -42 -27 22 c-15 11 -40 28 -57 36 -24 12 -20 6 19
-29 l49 -44 -39 -48 c-38 -47 -38 -48 -8 -27 17 12 37 29 44 38 16 20 29 19
54 -4 12 -10 35 -26 51 -36 23 -14 19 -7 -18 30 l-48 47 41 44 c35 38 46 54
38 54 -2 0 -25 -19 -51 -41z"/>
<path d="M15482 5298 l38 -46 -38 -32 -37 -32 46 26 46 25 33 -34 c46 -48 58
-44 19 5 l-32 40 39 36 39 35 -47 -26 -48 -27 -47 39 -48 38 37 -47z"/>
<path d="M15920 5287 c0 -4 14 -22 31 -41 l30 -35 -33 -32 -33 -31 39 21 39
22 26 -23 c14 -13 37 -32 51 -43 25 -20 25 -20 10 0 -8 11 -25 33 -39 48 l-26
29 40 34 c47 40 36 45 -19 8 -38 -26 -39 -26 -55 -8 -22 26 -61 59 -61 51z"/>
<path d="M16329 5216 l33 -34 -36 -27 c-47 -36 -39 -43 12 -14 l40 23 36 -32
c50 -44 59 -40 13 5 l-37 38 43 38 c29 26 34 34 17 26 -14 -7 -36 -20 -49 -31
-24 -19 -25 -18 -56 12 -43 41 -57 38 -16 -4z"/>
<path d="M4397 5023 c-33 -34 -38 -36 -54 -21 -10 8 -29 21 -43 27 -18 9 -15
3 14 -24 l39 -35 -20 -23 c-11 -12 -24 -29 -28 -37 -8 -13 -7 -13 11 0 10 8
26 23 35 33 15 18 16 18 54 -7 21 -14 43 -26 49 -26 12 1 -54 59 -67 60 -4 0
7 18 24 40 42 52 33 60 -14 13z"/>
<path d="M3932 4999 l37 -46 -27 -26 c-35 -36 -22 -44 17 -11 l32 27 27 -25
c15 -13 36 -31 47 -39 18 -13 17 -11 -2 17 -12 17 -29 37 -38 44 -14 12 -12
17 16 46 43 44 33 52 -15 12 l-37 -31 -27 25 c-55 49 -66 52 -30 7z"/>
<path d="M2722 4995 l-39 -34 -41 30 c-48 35 -57 23 -11 -15 l30 -26 -28 -37
c-28 -37 -17 -37 24 0 21 19 22 19 55 -5 18 -14 39 -29 47 -33 22 -13 -12 33
-38 52 -21 14 -21 15 15 59 44 53 38 57 -14 9z"/>
<path d="M3055 4999 c11 -13 28 -30 38 -38 18 -13 17 -15 -14 -47 -39 -40 -30
-45 17 -9 28 22 33 23 45 9 15 -19 69 -57 69 -50 0 3 -16 24 -35 45 -36 39
-36 39 -14 54 20 15 55 57 46 57 -2 0 -21 -14 -42 -30 l-38 -30 -31 23 c-50
38 -63 43 -41 16z"/>
<path d="M3500 5003 c0 -5 14 -22 30 -38 l30 -29 -32 -33 c-37 -39 -29 -43 17
-9 l31 24 44 -34 c23 -19 45 -34 48 -34 7 0 -27 38 -57 65 l-24 21 24 20 c13
10 31 28 39 38 13 18 13 19 0 11 -8 -5 -29 -19 -47 -32 -18 -14 -34 -20 -37
-14 -10 16 -66 53 -66 44z"/>
<path d="M14395 4949 c10 -13 33 -36 49 -51 l31 -26 -45 -42 c-45 -41 -26 -40
32 3 l26 20 44 -35 c68 -55 77 -55 25 -1 l-49 50 49 47 c47 46 47 46 11 26
-20 -12 -42 -28 -48 -36 -16 -19 -30 -17 -60 7 -14 11 -38 29 -55 41 l-30 22
20 -25z"/>
<path d="M14890 4935 c0 -5 14 -23 31 -41 l31 -32 -36 -27 c-48 -36 -38 -45
13 -12 l39 26 23 -26 c43 -45 64 -48 29 -4 l-33 41 39 36 39 35 -52 -28 -52
-28 -36 35 c-19 18 -35 30 -35 25z"/>
<path d="M15403 4871 l37 -45 -32 -34 c-33 -35 -26 -35 24 0 26 18 26 18 68
-17 56 -47 63 -44 15 5 l-39 40 40 36 39 36 -48 -27 -49 -27 -26 24 c-54 48
-66 52 -29 9z"/>
<path d="M15864 4836 l39 -47 -34 -29 c-38 -32 -28 -41 11 -10 14 11 29 20 33
20 5 0 29 -16 53 -36 54 -44 56 -38 7 17 -33 36 -35 42 -20 50 9 6 29 21 45
35 27 25 27 25 2 13 -14 -6 -37 -20 -51 -30 -26 -18 -27 -18 -45 2 -11 12 -32
31 -49 42 -29 20 -28 19 9 -27z"/>
<path d="M16227 4834 c12 -17 29 -37 38 -44 14 -12 12 -17 -17 -48 -29 -31
-30 -33 -8 -22 14 7 32 19 41 27 14 12 22 9 59 -22 23 -19 44 -35 47 -35 8 0
-26 40 -52 62 -19 16 -19 17 25 58 45 41 26 40 -32 -3 l-26 -20 -48 39 c-47
38 -48 38 -27 8z"/>
<path d="M11550 4309 c-728 -387 -879 -469 -815 -441 11 5 378 197 816 426
437 229 800 416 806 416 29 0 276 -287 410 -476 212 -299 484 -853 634 -1291
47 -136 149 -468 149 -484 0 -4 -163 -92 -362 -197 -200 -104 -646 -340 -993
-524 -994 -528 -905 -483 -905 -458 0 36 -49 246 -87 369 -86 286 -235 604
-446 951 -81 132 -205 320 -213 320 -2 0 17 -33 44 -72 27 -40 87 -136 134
-213 307 -505 473 -903 543 -1304 8 -46 16 -86 18 -88 2 -2 269 138 593 310
609 325 1249 662 1531 808 90 46 163 89 163 96 0 21 -91 318 -147 478 -137
393 -357 866 -533 1145 -148 235 -380 528 -492 621 l-43 36 -805 -428z"/>
<path d="M4257 4704 c12 -17 29 -37 38 -44 14 -12 12 -17 -17 -47 -38 -39 -29
-43 17 -8 l33 24 18 -20 c11 -12 33 -31 49 -42 28 -20 29 -20 16 -2 -8 11 -26
32 -40 48 l-25 27 40 42 39 41 -48 -33 -49 -32 -26 24 c-15 13 -36 31 -47 39
-18 13 -17 11 2 -17z"/>
<path d="M4677 4704 c12 -17 29 -37 38 -44 13 -11 11 -17 -22 -47 -29 -26 -32
-31 -13 -22 14 6 33 19 43 27 16 14 20 13 45 -9 15 -14 36 -32 47 -40 19 -13
19 -13 6 6 -8 11 -26 32 -39 47 l-24 26 26 18 c15 9 32 26 38 37 8 16 2 14
-33 -11 l-43 -32 -25 23 c-15 13 -35 30 -46 38 -18 13 -17 11 2 -17z"/>
<path d="M3442 4679 l37 -46 -32 -33 c-32 -33 -25 -32 24 2 24 16 28 16 39 2
7 -8 27 -24 43 -36 27 -19 29 -20 19 -2 -6 10 -22 30 -36 43 l-25 24 42 39
c30 28 35 36 17 27 -14 -6 -35 -21 -48 -32 l-22 -21 -28 25 c-55 50 -66 53
-30 8z"/>
<path d="M3847 4694 c12 -17 29 -36 37 -43 12 -10 9 -17 -22 -47 -30 -28 -32
-33 -12 -23 14 6 33 19 43 27 16 14 20 13 45 -9 15 -14 36 -32 47 -40 19 -13
19 -13 6 6 -8 11 -26 32 -39 46 l-23 26 23 19 c13 11 30 28 38 38 13 18 13 19
0 11 -8 -4 -29 -18 -46 -31 -28 -21 -33 -22 -45 -8 -7 8 -26 25 -43 37 l-31
22 22 -31z"/>
<path d="M3053 4672 c35 -36 36 -38 17 -50 -23 -14 -50 -59 -28 -47 7 5 23 17
35 28 22 19 22 19 62 -14 52 -41 62 -34 16 11 l-35 34 37 38 c44 45 32 51 -17
9 l-35 -29 -36 29 c-52 41 -60 36 -16 -9z"/>
<path d="M14422 4484 l48 -49 -43 -44 c-36 -37 -38 -41 -12 -25 17 10 40 27
53 38 l22 20 28 -26 c15 -14 41 -34 57 -43 24 -15 21 -9 -18 32 l-48 50 28 25
c15 13 37 35 48 48 l20 24 -35 -24 c-19 -13 -45 -32 -57 -43 l-22 -20 -43 34
c-71 55 -75 55 -26 3z"/>
<path d="M14911 4480 l37 -45 -37 -33 -36 -34 48 27 47 26 48 -38 c46 -37 43
-26 -6 29 l-24 26 39 37 c29 28 32 34 13 24 -14 -6 -35 -21 -48 -32 l-22 -21
-28 25 c-54 50 -66 53 -31 9z"/>
<path d="M15387 4474 c12 -17 29 -37 38 -44 14 -12 12 -17 -17 -48 l-33 -35
43 28 43 28 27 -24 c69 -63 83 -62 27 0 l-36 39 36 28 c48 36 36 44 -16 10
l-41 -28 -27 24 c-14 13 -35 31 -46 39 -18 13 -17 11 2 -17z"/>
<path d="M15873 4433 l37 -39 -37 -33 -38 -32 45 24 44 25 43 -35 c51 -42 57
-31 8 17 l-34 33 42 39 c44 41 35 42 -20 2 -39 -29 -45 -30 -69 -3 -10 11 -28
25 -39 31 -11 6 -4 -7 18 -29z"/>
<path d="M16234 4439 c8 -11 24 -27 35 -36 21 -14 21 -14 -9 -40 -39 -32 -31
-42 10 -13 31 22 31 22 53 2 12 -10 36 -28 52 -37 26 -16 25 -13 -12 26 l-43
45 38 38 37 39 -46 -31 -47 -32 -37 30 c-45 35 -51 37 -31 9z"/>
<path d="M14053 4370 c0 -25 2 -35 4 -22 2 12 2 32 0 45 -2 12 -4 2 -4 -23z"/>
<path d="M14063 4260 c0 -30 2 -43 4 -27 2 15 2 39 0 55 -2 15 -4 2 -4 -28z"/>
<path d="M7425 4254 c-377 -31 -800 -191 -1215 -459 -95 -61 -841 -613 -870
-643 -8 -9 1 -4 20 10 125 90 551 404 631 464 336 254 747 464 1077 549 190
50 271 59 522 59 202 0 251 -3 350 -22 418 -81 823 -265 1177 -534 51 -39 90
-74 88 -78 -3 -5 -40 -33 -83 -63 -42 -30 -380 -269 -750 -531 -370 -262 -677
-476 -681 -476 -4 0 -29 30 -55 66 -57 76 -186 205 -270 267 -296 222 -660
285 -1056 182 -33 -9 -115 -36 -183 -62 -67 -25 -219 -79 -337 -119 -118 -40
-210 -73 -204 -73 18 -1 320 98 485 159 267 99 408 130 588 130 263 0 480 -71
692 -226 96 -71 225 -201 290 -294 38 -54 44 -59 61 -48 143 98 1537 1084
1538 1088 0 8 -204 160 -315 235 -214 143 -564 295 -840 364 -169 42 -489 69
-660 55z"/>
<path d="M14072 4175 c0 -16 2 -22 5 -12 2 9 2 23 0 30 -3 6 -5 -1 -5 -18z"/>
<path d="M7315 4140 c-10 -45 -10 -45 -60 -50 l-50 -6 52 -8 c46 -7 52 -11 56
-34 l4 -27 2 28 c1 23 5 27 34 28 17 0 41 4 52 9 15 6 8 9 -27 9 l-47 1 -3 48
-3 47 -10 -45z"/>
<path d="M7831 4093 c-6 -21 -11 -44 -11 -50 0 -9 -16 -13 -45 -13 -25 0 -45
-4 -45 -10 0 -5 18 -10 39 -10 l40 0 3 -47 4 -48 8 43 9 42 61 1 c67 0 52 17
-17 18 l-38 1 6 55 c8 63 1 72 -14 18z"/>
<path d="M14082 4105 c0 -16 2 -22 5 -12 2 9 2 23 0 30 -3 6 -5 -1 -5 -18z"/>
<path d="M14092 4040 c0 -14 2 -19 5 -12 2 6 2 18 0 25 -3 6 -5 1 -5 -13z"/>
<path d="M8265 3963 l-8 -53 -38 0 c-21 0 -41 -4 -44 -10 -4 -6 10 -10 34 -10
l41 0 1 -42 1 -43 11 43 c10 42 10 42 54 42 27 0 42 4 38 10 -3 6 -23 10 -44
10 -36 0 -37 1 -33 34 7 58 -5 74 -13 19z"/>
<path d="M14101 3974 c0 -11 3 -14 6 -6 3 7 2 16 -1 19 -3 4 -6 -2 -5 -13z"/>
<path d="M11847 3959 l-37 -20 39 -72 c22 -40 59 -109 83 -154 l44 -81 109 59
c60 33 111 61 113 64 7 7 -19 65 -29 65 -5 0 -37 -16 -72 -35 -35 -19 -66 -35
-69 -35 -4 0 -34 52 -68 115 -33 63 -64 115 -68 115 -4 -1 -24 -10 -45 -21z"/>
<path d="M7045 3930 c-7 -40 -7 -40 -53 -41 l-47 -1 48 -10 c45 -10 47 -11 48
-47 l2 -36 10 37 c10 34 13 37 61 45 l51 7 -50 6 c-49 5 -50 6 -48 37 4 47
-14 50 -22 3z"/>
<path d="M7555 3868 c-14 -69 -13 -68 -68 -69 l-52 -1 50 -12 50 -11 -2 -45
-2 -45 11 35 c5 19 12 41 14 49 3 9 14 12 38 8 18 -3 39 -1 47 4 10 6 8 9 -11
9 -60 1 -67 8 -62 61 5 55 -3 66 -13 17z"/>
<path d="M11703 3883 c-18 -9 -33 -20 -33 -23 0 -4 21 -44 46 -91 57 -103 63
-155 22 -178 -49 -28 -74 -8 -138 106 l-56 102 -41 -25 -41 -24 47 -88 c70
-129 73 -132 113 -153 47 -24 82 -24 133 1 123 59 135 126 53 287 -29 57 -57
103 -63 102 -5 0 -25 -8 -42 -16z"/>
<path d="M10658 3834 c-27 -13 -48 -27 -48 -29 0 -3 23 6 50 20 28 14 50 28
50 30 0 7 1 7 -52 -21z"/>
<path d="M7998 3780 c-4 -14 -8 -35 -8 -47 0 -20 -5 -23 -40 -23 -22 0 -40 -4
-40 -10 0 -5 16 -10 35 -10 34 0 35 -1 35 -42 0 -32 3 -39 10 -28 5 8 10 27
10 43 0 25 3 27 45 27 25 0 45 5 45 10 0 6 -18 10 -39 10 l-40 0 -3 48 c-2 38
-4 42 -10 22z"/>
<path d="M10448 3724 c-27 -13 -48 -27 -48 -29 0 -3 23 6 50 20 28 14 50 28
50 30 0 7 1 7 -52 -21z"/>
<path d="M11303 3668 l-92 -49 16 -35 17 -34 52 30 c40 22 55 26 62 17 20 -25
72 -137 72 -156 0 -25 -34 -44 -66 -38 -20 4 -25 -1 -34 -31 -11 -41 -2 -52
40 -52 34 0 100 32 126 61 30 34 37 64 24 104 -11 34 -105 214 -118 226 -4 4
-48 -15 -99 -43z"/>
<path d="M6746 3688 c-3 -13 -7 -32 -8 -43 -3 -16 -13 -21 -53 -26 l-50 -5 45
-5 c44 -4 45 -5 50 -44 l6 -40 8 35 c10 43 20 49 71 51 39 2 39 2 -10 8 l-50
6 3 43 c4 45 -4 57 -12 20z"/>
<path d="M7275 3658 c-2 -13 -6 -34 -7 -48 -3 -22 -9 -26 -51 -32 -67 -9 -71
-18 -9 -18 l52 0 0 -42 c0 -32 3 -39 10 -28 5 8 10 27 10 41 0 25 4 27 58 35
l57 8 -55 6 -54 5 3 48 c3 49 -5 64 -14 25z"/>
<path d="M12735 3607 l-18 -48 -51 5 -51 5 48 -15 c36 -12 47 -19 43 -32 -2
-9 -7 -30 -10 -47 -4 -25 -2 -23 15 13 l20 43 52 -6 52 -5 -45 16 c-25 9 -47
18 -48 20 -2 1 1 19 8 38 18 56 6 66 -15 13z"/>
<path d="M10195 3589 c-27 -16 -47 -29 -43 -29 14 0 98 44 98 52 0 4 -1 8 -2
7 -2 -1 -25 -14 -53 -30z"/>
<path d="M4840 3583 c-54 -9 -189 -45 -264 -70 l-78 -25 -72 22 c-97 30 -272
38 -381 17 -255 -48 -463 -199 -593 -428 -18 -31 -32 -63 -32 -71 0 -17 69
-45 180 -75 79 -22 324 -24 411 -5 151 34 291 105 380 193 95 93 128 183 106
291 l-8 37 113 35 c62 20 156 47 208 60 85 22 99 31 30 19z"/>
<path d="M10100 3540 c-9 -6 -10 -10 -3 -10 6 0 15 5 18 10 8 12 4 12 -15 0z"/>
<path d="M7686 3481 c-6 -37 -9 -41 -36 -41 -17 0 -30 -4 -30 -10 0 -5 14 -10
30 -10 28 0 30 -3 31 -37 l2 -38 10 38 c9 33 14 37 44 37 18 0 33 5 33 10 0 6
-16 10 -36 10 -35 0 -36 1 -31 28 3 15 2 34 -2 41 -5 8 -11 -2 -15 -28z"/>
<path d="M10090 3513 c0 -6 8 -17 18 -24 16 -13 16 -13 2 6 -8 11 -16 22 -17
24 -2 2 -3 0 -3 -6z"/>
<path d="M12426 3426 c-13 -34 -22 -46 -34 -42 -10 2 -33 7 -52 10 l-35 6 30
-15 c17 -8 38 -14 49 -15 15 0 17 -5 12 -27 -4 -16 -9 -37 -12 -48 -2 -11 6
-1 18 23 14 27 27 41 36 37 8 -3 32 -7 55 -10 l42 -5 -50 17 c-27 9 -52 18
-53 19 -2 2 1 19 8 38 18 55 6 65 -14 12z"/>
<path d="M6468 3431 c-5 -18 -8 -44 -8 -56 0 -20 -7 -23 -62 -32 l-63 -10 64
-2 c63 -1 63 -1 58 -28 -3 -15 -2 -34 1 -42 5 -10 9 -1 12 24 l5 40 59 7 c79
10 83 18 8 18 l-61 0 -3 58 c-3 52 -4 54 -10 23z"/>
<path d="M10150 3435 c13 -14 26 -25 28 -25 3 0 -5 11 -18 25 -13 14 -26 25
-28 25 -3 0 5 -11 18 -25z"/>
<path d="M7018 3411 c-5 -18 -8 -44 -8 -57 0 -22 -4 -24 -52 -25 -39 0 -48 -3
-33 -9 11 -5 34 -9 50 -9 30 -1 31 -3 27 -37 -3 -26 -1 -35 7 -30 6 4 11 20
11 35 0 27 3 29 63 38 l62 10 -57 2 -57 1 -3 58 c-3 52 -4 54 -10 23z"/>
<path d="M10210 3366 c0 -2 8 -10 18 -17 15 -13 16 -12 3 4 -13 16 -21 21 -21
13z"/>
<path d="M14283 3245 c88 -179 132 -309 152 -447 l6 -47 -28 8 c-38 10 -90 -3
-118 -29 -12 -12 -28 -42 -34 -68 -26 -101 -31 -118 -50 -149 -20 -32 -92 -88
-196 -153 -74 -45 -102 -96 -86 -151 23 -75 104 -116 202 -100 133 22 280 117
368 236 45 61 57 89 66 148 9 62 -25 165 -71 213 -29 31 -35 48 -48 124 -17
97 -58 235 -87 292 -55 109 18 2 136 -197 111 -187 272 -486 361 -669 l72
-148 -48 -47 c-89 -86 -91 -177 -9 -427 83 -255 149 -381 255 -488 119 -120
271 -131 337 -26 19 30 22 48 21 135 -5 303 -220 741 -413 840 -18 9 -55 17
-81 17 l-48 -1 -36 82 c-44 97 -260 510 -288 550 -39 55 -10 36 52 -34 82 -92
228 -221 357 -317 l102 -76 10 -60 c15 -87 54 -157 117 -215 134 -122 354
-181 601 -160 254 22 393 101 393 224 0 79 -52 131 -208 209 -204 102 -412
179 -535 197 -135 20 -280 -24 -338 -104 -16 -22 -29 -46 -29 -54 0 -20 -7
-17 -79 34 -193 137 -452 384 -527 502 -105 167 -178 277 -191 291 -7 8 -32
47 -55 85 -63 109 -65 101 -5 -20z"/>
<path d="M10296 3258 c31 -43 58 -78 61 -78 6 0 -54 82 -89 122 -16 18 -4 -2
28 -44z"/>
<path d="M12915 3240 l-17 -52 -55 4 c-59 5 -52 -7 10 -18 l38 -6 -5 -41 -6
-42 16 38 17 39 61 -6 61 -5 -57 15 c-62 17 -62 18 -48 79 13 57 5 55 -15 -5z"/>
<path d="M12044 3226 c-18 -44 -20 -46 -54 -40 -19 3 -43 8 -52 11 -40 10 -15
-7 31 -22 49 -16 49 -17 39 -45 -5 -16 -8 -35 -6 -42 3 -7 10 4 17 26 l13 38
57 -5 56 -6 -50 17 -51 17 13 44 c17 59 10 63 -13 7z"/>
<path d="M7408 3214 l-3 -49 -55 -6 -55 -6 52 -1 52 -2 3 -52 3 -53 8 40 c14
65 13 65 62 65 28 0 44 4 40 10 -3 6 -26 10 -51 10 l-44 0 2 40 c2 58 -10 61
-14 4z"/>
<path d="M10396 3120 c20 -30 46 -64 57 -75 24 -24 -32 58 -69 100 -14 17 -9
5 12 -25z"/>
<path d="M5299 3123 c-13 -16 -12 -17 4 -4 9 7 17 15 17 17 0 8 -8 3 -21 -13z"/>
<path d="M5259 3093 c-13 -16 -12 -17 4 -4 16 13 21 21 13 21 -2 0 -10 -8 -17
-17z"/>
<path d="M12590 3048 l-20 -45 -52 13 c-68 18 -73 10 -9 -13 56 -19 56 -19 41
-59 -16 -42 -2 -42 15 0 12 29 20 36 33 31 9 -4 33 -9 52 -11 l35 -4 -30 14
c-16 9 -35 15 -42 16 -21 0 -23 17 -7 55 22 54 8 57 -16 3z"/>
<path d="M5219 3063 c-13 -16 -12 -17 4 -4 9 7 17 15 17 17 0 8 -8 3 -21 -13z"/>
<path d="M11631 3010 c-17 -38 -26 -50 -39 -46 -9 2 -33 7 -52 10 l-35 6 30
-15 c17 -8 38 -14 48 -15 20 0 21 -11 7 -60 -9 -32 -8 -34 6 -15 8 11 17 30
21 43 3 15 11 21 22 18 9 -3 34 -7 56 -10 39 -6 39 -5 -10 11 -27 9 -51 17
-52 18 -1 0 4 23 12 50 20 65 13 67 -14 5z"/>
<path d="M10490 2990 c12 -16 24 -30 26 -30 3 0 -4 14 -16 30 -12 17 -24 30
-26 30 -3 0 4 -13 16 -30z"/>
<path d="M13090 2890 c-14 -30 -29 -49 -36 -46 -25 10 -89 18 -82 11 3 -4 24
-13 45 -20 22 -8 37 -19 34 -27 -2 -7 -7 -25 -11 -41 -11 -36 4 -26 20 14 14
33 10 32 110 13 l25 -5 -25 15 c-14 8 -32 16 -40 16 -37 1 -43 15 -26 65 22
64 15 66 -14 5z"/>
<path d="M12231 2851 c-23 -48 -24 -49 -58 -39 -19 5 -42 7 -51 5 -10 -2 3
-10 31 -18 36 -10 46 -17 41 -29 -12 -28 -23 -70 -19 -70 3 0 14 18 25 39 19
38 21 39 49 30 17 -6 38 -9 48 -7 12 3 3 9 -24 18 -24 7 -43 16 -43 19 0 3 7
26 16 50 20 60 12 61 -15 2z"/>
<path d="M11245 2780 c-17 -50 -17 -51 -53 -45 -83 14 -94 13 -47 -1 28 -8 56
-17 64 -20 9 -3 11 -13 7 -29 -16 -66 -15 -76 5 -29 l21 51 50 -9 c72 -13 84
-3 15 12 -55 13 -58 15 -52 38 23 92 17 112 -10 32z"/>
<path d="M5518 2773 c7 -3 16 -2 19 1 4 3 -2 6 -13 5 -11 0 -14 -3 -6 -6z"/>
<path d="M5417 2753 c-32 -9 -56 -17 -54 -20 5 -4 129 26 136 33 8 7 -23 2
-82 -13z"/>
<path d="M5328 2723 c7 -3 16 -2 19 1 4 3 -2 6 -13 5 -11 0 -14 -3 -6 -6z"/>
<path d="M12725 2688 c-11 -24 -20 -45 -21 -46 -2 -2 -19 1 -38 8 -20 6 -44
10 -53 8 -12 -3 -4 -9 22 -17 54 -18 57 -22 44 -60 -16 -45 -5 -49 16 -5 15
32 20 35 45 31 88 -18 87 -18 45 3 -22 11 -45 20 -52 20 -9 0 -8 12 4 46 20
58 12 67 -12 12z"/>
<path d="M5278 2713 c6 -2 18 -2 25 0 6 3 1 5 -13 5 -14 0 -19 -2 -12 -5z"/>
<path d="M5238 2703 c7 -3 16 -2 19 1 4 3 -2 6 -13 5 -11 0 -14 -3 -6 -6z"/>
<path d="M5188 2693 c6 -2 18 -2 25 0 6 3 1 5 -13 5 -14 0 -19 -2 -12 -5z"/>
<path d="M11821 2654 c-17 -35 -26 -44 -39 -39 -9 4 -33 9 -52 11 -28 4 -31 3
-15 -6 11 -5 33 -14 49 -20 20 -7 26 -15 22 -26 -3 -9 -8 -28 -11 -42 -4 -21
-1 -19 13 10 18 40 25 43 87 28 56 -13 55 -5 -2 16 -26 10 -49 18 -51 19 -1 1
5 21 13 45 21 59 12 61 -14 4z"/>
<path d="M5148 2683 c7 -3 16 -2 19 1 4 3 -2 6 -13 5 -11 0 -14 -3 -6 -6z"/>
<path d="M5098 2673 c7 -3 16 -2 19 1 4 3 -2 6 -13 5 -11 0 -14 -3 -6 -6z"/>
<path d="M5043 2663 c9 -2 23 -2 30 0 6 3 -1 5 -18 5 -16 0 -22 -2 -12 -5z"/>
<path d="M4988 2653 c6 -2 18 -2 25 0 6 3 1 5 -13 5 -14 0 -19 -2 -12 -5z"/>
<path d="M4928 2643 c6 -2 18 -2 25 0 6 3 1 5 -13 5 -14 0 -19 -2 -12 -5z"/>
<path d="M4868 2633 c6 -2 18 -2 25 0 6 3 1 5 -13 5 -14 0 -19 -2 -12 -5z"/>
<path d="M4793 2623 c9 -2 23 -2 30 0 6 3 -1 5 -18 5 -16 0 -22 -2 -12 -5z"/>
<path d="M12360 2485 c-14 -29 -27 -44 -35 -41 -8 3 -31 8 -52 11 -37 6 -38 6
-13 -9 14 -8 33 -15 42 -16 24 0 31 -16 18 -40 -6 -12 -9 -26 -7 -33 3 -7 11
3 19 21 14 36 19 37 108 16 l25 -5 -25 15 c-14 8 -32 16 -40 16 -35 1 -41 14
-25 60 21 59 12 61 -15 5z"/>
<path d="M11419 2473 c-11 -26 -22 -49 -23 -51 -2 -1 -25 2 -51 8 -65 15 -68
6 -5 -15 38 -13 50 -21 46 -32 -24 -62 -15 -87 10 -28 14 36 15 36 64 29 63
-8 65 2 4 17 -40 10 -45 14 -39 33 14 46 23 86 19 86 -3 0 -14 -21 -25 -47z"/>
<path d="M11999 2288 c-12 -24 -23 -44 -24 -46 -1 -2 -24 2 -49 9 -64 16 -69
5 -7 -16 l50 -16 -15 -36 c-20 -48 -9 -55 13 -8 15 32 21 36 44 31 87 -17 86
-17 44 4 -22 11 -46 20 -53 20 -10 0 -10 5 -1 21 13 26 29 79 24 79 -3 0 -14
-19 -26 -42z"/>
<path d="M11645 2107 l-18 -48 -51 5 -51 6 46 -18 c45 -17 46 -17 37 -51 -12
-46 -3 -51 13 -6 14 38 7 37 99 19 48 -9 35 2 -24 20 l-53 17 14 41 c20 59 10
72 -12 15z"/>
</g>
</svg>
