<?xml version="1.0" standalone="no"?>
<!DOCTYPE svg PUBLIC "-//W3C//DTD SVG 20010904//EN"
 "http://www.w3.org/TR/2001/REC-SVG-20010904/DTD/svg10.dtd">
<svg version="1.0" xmlns="http://www.w3.org/2000/svg"
 width="2000.000000pt" height="2000.000000pt" viewBox="0 0 2000.000000 2000.000000"
 preserveAspectRatio="xMidYMid meet">

<g transform="translate(0.000000,2000.000000) scale(0.100000,-0.100000)"
fill="#000000" stroke="none">
<path d="M12428 18733 c7 -3 16 -2 19 1 4 3 -2 6 -13 5 -11 0 -14 -3 -6 -6z"/>
<path d="M12515 18731 c82 -20 145 -81 170 -163 8 -28 15 -61 15 -72 1 -13 16
-32 39 -47 209 -145 128 -460 -124 -486 -53 -6 -56 -7 -74 -47 -38 -85 -116
-130 -205 -120 -53 6 -53 6 -82 -32 -100 -131 -181 -187 -301 -207 -196 -34
-384 101 -387 278 -1 33 2 74 7 90 7 28 5 31 -35 50 -99 46 -126 165 -60 264
37 55 79 84 170 116 95 33 108 44 142 121 36 80 83 132 145 160 27 13 43 24
35 24 -26 0 -117 -58 -138 -87 -11 -15 -33 -55 -50 -88 -38 -76 -50 -86 -147
-119 -124 -43 -192 -110 -210 -207 -14 -75 37 -171 105 -199 28 -12 30 -16 24
-44 -21 -94 6 -198 70 -273 27 -32 138 -93 169 -93 9 0 39 -21 69 -46 69 -59
159 -103 242 -117 269 -46 516 191 492 473 l-6 76 57 12 c182 38 280 231 201
398 -19 41 -107 134 -126 134 -5 0 -12 21 -16 48 -10 74 -57 146 -119 182 -28
16 -63 29 -77 29 -23 -1 -22 -2 5 -8z m63 -936 c-5 -94 -42 -183 -107 -257
-123 -139 -318 -177 -485 -95 -39 20 -84 49 -100 66 l-30 31 50 0 c66 1 126
15 191 47 48 24 89 62 175 163 24 28 32 31 62 26 59 -11 125 12 172 61 23 24
46 58 50 76 l7 32 10 -35 c5 -19 7 -71 5 -115z"/>
<path d="M12355 18711 c-16 -10 -41 -31 -55 -47 -23 -27 -22 -26 10 3 19 18
51 39 70 47 19 8 28 15 20 16 -8 0 -28 -8 -45 -19z"/>
<path d="M12013 18663 c15 -2 37 -2 50 0 12 2 0 4 -28 4 -27 0 -38 -2 -22 -4z"/>
<path d="M12150 18636 c0 -2 7 -7 16 -10 8 -3 12 -2 9 4 -6 10 -25 14 -25 6z"/>
<path d="M12221 18528 c-17 -54 -23 -131 -12 -158 9 -22 10 -20 10 20 1 25 5
72 11 104 11 68 7 83 -9 34z"/>
<path d="M11750 18223 c-25 -8 -65 -31 -89 -51 -38 -31 -42 -37 -27 -47 8 -7
13 -15 10 -18 -3 -3 39 10 94 28 69 24 128 36 191 41 103 8 107 19 18 48 -60
20 -138 20 -197 -1z"/>
<path d="M12321 18082 c36 -66 120 -121 189 -121 17 0 7 7 -33 23 -65 27 -84
40 -140 100 l-39 41 23 -43z"/>
<path d="M7520 17764 c-123 -42 -205 -100 -276 -196 -106 -145 -126 -341 -50
-512 47 -104 159 -200 279 -238 68 -22 194 -26 241 -9 39 16 44 14 61 -19 52
-101 158 -168 320 -201 95 -19 329 -17 396 3 66 21 141 82 171 141 24 49 32
162 11 179 -21 17 -23 6 -7 -41 13 -37 13 -47 -1 -87 -33 -97 -91 -150 -195
-181 -44 -13 -84 -15 -200 -10 -165 6 -229 18 -316 57 -76 34 -136 88 -165
146 -18 38 -25 45 -43 39 -11 -3 -49 -11 -84 -17 -166 -29 -367 73 -442 225
-100 205 -62 429 101 583 132 125 338 178 489 126 113 -39 218 -105 288 -180
l33 -36 24 58 c42 102 113 155 220 164 59 4 72 2 130 -27 47 -23 73 -44 92
-72 26 -39 33 -46 33 -31 0 20 -76 95 -119 116 -74 38 -122 41 -201 16 -76
-25 -128 -68 -162 -135 -11 -22 -22 -42 -23 -43 -2 -2 -34 21 -70 52 -177 145
-360 190 -535 130z"/>
<path d="M8631 17604 c-1 -6 -21 -14 -46 -17 -84 -12 -170 -76 -210 -157 l-17
-35 34 40 c74 89 137 127 238 144 30 5 45 9 33 10 -12 0 -24 7 -26 14 -3 7 -6
8 -6 1z"/>
<path d="M7984 17325 c36 -151 -4 -298 -112 -409 -31 -32 -47 -53 -34 -46 35
18 97 82 126 133 40 67 58 167 45 246 -5 36 -14 72 -20 80 -8 13 -9 13 -5 -4z"/>
<path d="M8872 16944 c-12 -19 -20 -34 -18 -34 7 0 49 61 44 65 -2 2 -13 -12
-26 -31z"/>
<path d="M8720 16880 c0 -5 5 -10 11 -10 5 0 7 5 4 10 -3 6 -8 10 -11 10 -2 0
-4 -4 -4 -10z"/>
<path d="M9643 16343 c9 -2 23 -2 30 0 6 3 -1 5 -18 5 -16 0 -22 -2 -12 -5z"/>
<path d="M9890 16266 c0 -2 7 -7 16 -10 8 -3 12 -2 9 4 -6 10 -25 14 -25 6z"/>
<path d="M9369 16223 c-13 -16 -12 -17 4 -4 16 13 21 21 13 21 -2 0 -10 -8
-17 -17z"/>
<path d="M10004 16160 c9 -14 23 -40 31 -57 9 -18 21 -33 28 -33 8 0 9 2 1 8
-6 4 -14 16 -18 27 -4 11 -18 34 -33 50 -18 21 -21 22 -9 5z"/>
<path d="M9286 16125 c-9 -26 -7 -32 5 -12 6 10 9 21 6 23 -2 3 -7 -2 -11 -11z"/>
<path d="M10228 16053 c6 -2 18 -2 25 0 6 3 1 5 -13 5 -14 0 -19 -2 -12 -5z"/>
<path d="M9860 16031 c-30 -11 -69 -22 -86 -25 -46 -10 -113 -72 -140 -130
-20 -43 -24 -66 -23 -146 l1 -95 13 73 c34 185 163 311 341 331 l69 8 -60 1
c-35 1 -83 -7 -115 -17z"/>
<path d="M10295 16041 c17 -4 40 -13 53 -20 12 -6 22 -9 22 -7 0 11 -60 36
-82 35 -19 -1 -18 -2 7 -8z"/>
<path d="M9243 15975 c0 -22 2 -30 4 -17 2 12 2 30 0 40 -3 9 -5 -1 -4 -23z"/>
<path d="M10407 15990 c51 -30 83 -92 104 -198 11 -52 32 -122 47 -156 23 -51
27 -75 27 -146 0 -75 -3 -91 -28 -136 -58 -105 -163 -183 -332 -249 l-95 -36
-100 19 c-55 10 -100 17 -100 15 0 -12 89 -36 155 -40 67 -4 93 -12 160 -44
139 -68 207 -153 207 -258 0 -74 -14 -107 -70 -164 -83 -85 -190 -127 -327
-127 -116 0 -178 20 -308 98 l-29 17 -31 -40 c-58 -74 -172 -175 -227 -201
-108 -51 -227 -48 -334 9 -94 50 -303 260 -380 382 -11 16 -25 49 -32 75 l-14
45 6 -40 c7 -51 41 -110 118 -204 137 -168 268 -277 374 -307 86 -25 194 -16
274 24 63 32 167 123 225 197 29 37 32 39 50 24 69 -60 192 -99 309 -99 346 0
539 286 332 492 -24 24 -78 62 -121 84 l-78 41 89 37 c156 64 247 139 299 244
24 49 28 69 28 142 -1 75 -5 93 -33 153 -17 37 -37 99 -43 139 -6 39 -19 90
-29 112 -18 42 -90 116 -113 116 -6 0 2 -9 20 -20z"/>
<path d="M13195 15940 c-126 -14 -230 -69 -333 -177 l-52 -55 -71 26 c-38 14
-78 26 -87 26 -9 0 21 -14 68 -30 47 -17 87 -32 90 -33 3 -1 39 33 81 75 105
108 195 151 325 156 100 5 176 -11 252 -53 23 -13 40 -20 37 -14 -10 15 -96
55 -145 67 -69 17 -100 19 -165 12z"/>
<path d="M9243 15865 c0 -22 2 -30 4 -17 2 12 2 30 0 40 -3 9 -5 -1 -4 -23z"/>
<path d="M12463 15773 c9 -2 25 -2 35 0 9 3 1 5 -18 5 -19 0 -27 -2 -17 -5z"/>
<path d="M12528 15773 c7 -3 16 -2 19 1 4 3 -2 6 -13 5 -11 0 -14 -3 -6 -6z"/>
<path d="M12315 15751 c-139 -40 -277 -142 -290 -215 -11 -54 2 -102 33 -127
22 -17 36 -20 82 -16 30 3 65 8 77 12 21 7 21 5 -9 -66 -38 -91 -41 -171 -9
-244 12 -27 29 -58 39 -69 40 -45 146 -70 192 -46 18 10 19 7 13 -54 -9 -99
22 -189 92 -264 94 -101 198 -142 400 -157 95 -7 296 8 341 26 15 5 42 22 59
38 18 16 50 31 72 34 70 12 138 101 150 196 6 57 -16 151 -58 240 -16 35 -28
65 -27 66 2 1 17 10 34 18 43 22 89 62 116 100 15 23 9 19 -23 -14 -24 -25
-65 -58 -91 -74 -27 -15 -48 -31 -48 -36 0 -5 11 -31 24 -57 44 -88 58 -148
54 -227 -3 -62 -8 -80 -33 -116 -39 -54 -71 -78 -118 -86 -21 -3 -51 -18 -68
-34 -42 -39 -116 -52 -299 -52 -245 0 -356 33 -456 132 -121 120 -137 295 -38
411 55 64 79 110 32 60 -18 -19 -45 -50 -59 -67 -36 -43 -87 -73 -124 -73 -55
0 -117 40 -148 95 -25 45 -27 58 -25 131 3 70 8 90 41 157 43 87 74 113 210
178 45 21 77 39 71 39 -36 1 -125 -39 -195 -86 -101 -69 -153 -93 -202 -94
-78 0 -110 76 -67 159 35 70 183 158 311 186 37 8 51 13 34 13 -16 1 -57 -7
-90 -17z"/>
<path d="M12593 15763 c9 -2 23 -2 30 0 6 3 -1 5 -18 5 -16 0 -22 -2 -12 -5z"/>
<path d="M13600 15766 c0 -2 8 -10 18 -17 15 -13 16 -12 3 4 -13 16 -21 21
-21 13z"/>
<path d="M10300 15691 c-49 -15 -104 -40 -90 -41 3 0 39 9 80 20 41 11 103 20
138 20 40 0 61 4 57 10 -10 16 -125 11 -185 -9z"/>
<path d="M12840 15634 c0 -32 30 -124 60 -185 57 -113 159 -213 275 -271 91
-46 101 -40 15 9 -97 56 -208 161 -259 246 -18 31 -46 94 -62 139 -16 46 -29
74 -29 62z"/>
<path d="M9569 15521 c97 -99 166 -209 208 -336 25 -74 27 -93 27 -240 0 -147
-2 -166 -26 -240 -31 -91 -31 -111 1 -33 69 175 69 402 -2 578 -51 125 -157
265 -251 329 -32 22 -22 8 43 -58z"/>
<path d="M5970 15585 c-96 -27 -185 -90 -240 -170 -29 -42 -30 -42 -72 -34
-116 21 -246 -58 -278 -172 -24 -81 4 -193 59 -243 19 -17 19 -19 -7 -74 -36
-76 -37 -209 -4 -290 12 -29 22 -63 22 -76 0 -39 68 -162 111 -201 152 -137
374 -136 520 2 l36 34 49 -30 c115 -70 313 -107 437 -81 145 30 293 140 355
262 51 101 64 236 31 312 -7 17 -8 16 -5 -9 3 -16 8 -49 11 -71 8 -55 -11
-156 -41 -215 -57 -113 -193 -222 -318 -255 -69 -19 -214 -18 -289 2 -62 16
-160 58 -209 91 l-28 18 -37 -39 c-21 -22 -67 -53 -103 -70 -57 -27 -76 -31
-150 -31 -75 0 -92 4 -151 32 -103 51 -183 154 -203 260 l-5 32 39 -20 c33
-17 54 -20 115 -17 41 2 79 8 85 14 8 8 -7 10 -58 6 -40 -2 -92 1 -122 8 -48
12 -54 16 -74 59 -33 71 -29 197 8 274 l28 57 -28 33 c-67 79 -81 166 -40 253
48 103 174 161 270 124 23 -8 26 -15 26 -55 0 -60 19 -103 64 -147 l37 -36
-48 -7 c-104 -15 -212 -69 -251 -127 -11 -16 -5 -13 23 11 21 19 69 48 105 65
60 29 73 31 170 31 97 0 110 -2 170 -31 36 -17 83 -46 105 -65 21 -19 34 -26
29 -17 -28 50 -174 128 -241 128 -38 0 -115 82 -137 145 -23 70 -20 106 12
151 117 161 325 222 488 144 47 -23 93 -71 95 -98 6 -93 -23 -122 -119 -122
-82 0 -129 -22 -154 -71 -38 -73 -16 -160 62 -251 l41 -47 102 50 c106 51 233
89 299 89 48 0 50 17 2 26 -102 19 -276 -19 -378 -83 l-49 -31 -34 45 c-56 73
-66 122 -39 188 22 51 57 69 144 72 83 3 117 18 132 59 27 71 -13 145 -104
189 -70 34 -184 43 -266 20z"/>
<path d="M13217 15049 c7 -100 -16 -208 -63 -284 -42 -71 -38 -84 7 -19 55 81
73 138 73 239 0 50 -5 101 -11 115 -9 20 -10 9 -6 -51z"/>
<path d="M8712 15060 c0 -14 2 -19 5 -12 2 6 2 18 0 25 -3 6 -5 1 -5 -13z"/>
<path d="M8701 15014 c0 -11 3 -14 6 -6 3 7 2 16 -1 19 -3 4 -6 -2 -5 -13z"/>
<path d="M6136 14881 c-22 -35 -48 -137 -53 -207 -6 -80 17 -226 37 -239 4 -3
4 12 -1 33 -26 118 -19 272 17 376 14 37 13 59 0 37z"/>
<path d="M10639 13717 c-76 -26 -164 -89 -204 -147 -33 -48 -74 -147 -75 -180
-1 -48 -10 -51 -85 -24 -92 34 -239 43 -344 20 -194 -41 -357 -168 -445 -346
-94 -193 -99 -373 -15 -564 l23 -52 76 1 c121 0 227 -40 395 -150 151 -98 231
-194 250 -298 7 -37 5 -41 -43 -90 -54 -55 -105 -147 -121 -216 -6 -28 -24
-58 -54 -90 -91 -97 -149 -210 -164 -318 -5 -36 -12 -49 -34 -62 l-27 -15 29
-34 c16 -18 29 -44 29 -58 0 -37 21 -116 38 -142 22 -35 25 -20 5 29 -14 35
-18 72 -18 184 0 129 3 145 27 203 31 72 109 187 139 202 18 10 19 8 14 -27
-10 -61 19 -191 58 -269 41 -82 121 -174 181 -209 76 -45 85 -60 84 -150 -2
-95 13 -134 71 -198 39 -42 130 -92 153 -85 6 2 -9 10 -33 18 -26 9 -65 35
-96 65 -62 60 -88 133 -78 218 7 66 -6 93 -69 134 -204 133 -299 368 -237 584
43 150 115 244 229 297 48 23 71 27 147 27 50 0 106 -4 126 -8 36 -9 37 -8 43
25 14 74 101 140 202 153 72 10 154 -24 216 -87 59 -61 74 -89 83 -153 31
-234 168 -408 385 -492 99 -39 227 -46 330 -18 30 8 57 11 61 7 3 -4 17 -27
30 -52 64 -123 187 -195 396 -231 l72 -12 -69 -136 c-77 -153 -101 -229 -99
-322 l2 -64 7 70 c9 94 39 176 116 322 l65 122 162 -1 c143 -1 171 1 237 22
41 12 96 38 121 56 48 35 99 94 99 115 0 6 -12 -6 -26 -27 -63 -94 -160 -137
-334 -150 -104 -7 -347 17 -443 45 -139 41 -255 127 -299 224 -12 26 -27 47
-33 47 -7 0 -34 -7 -61 -15 -72 -22 -217 -19 -295 5 -182 56 -332 209 -383
390 -49 178 -21 365 77 512 166 249 491 365 752 268 70 -26 144 -64 184 -94
19 -14 37 -24 39 -21 3 3 3 6 1 8 -192 135 -389 185 -557 142 -144 -37 -239
-86 -328 -170 -59 -55 -59 -56 -109 -50 -86 10 -146 35 -197 83 -52 48 -62 47
-24 -2 36 -48 114 -86 190 -93 37 -3 66 -8 66 -11 0 -3 -10 -19 -23 -36 -60
-83 -117 -234 -117 -314 l0 -43 -49 59 c-37 44 -64 65 -112 87 -87 39 -154 38
-236 -4 -67 -33 -96 -63 -113 -118 -10 -29 -16 -34 -34 -29 -86 25 -205 16
-284 -21 -29 -14 -35 -14 -43 -2 -5 8 -9 22 -9 31 0 9 -9 37 -20 63 -11 26
-20 48 -20 50 0 1 18 5 40 9 22 3 40 11 40 17 0 7 -7 8 -17 4 -54 -24 -77 -17
-128 36 -53 54 -202 156 -295 202 -82 40 -186 67 -260 67 l-65 0 -23 56 c-73
180 -67 354 20 533 59 120 164 226 280 281 124 59 193 74 318 67 98 -5 149
-17 251 -61 13 -6 18 5 27 60 22 134 108 251 226 309 82 40 212 47 301 17 46
-16 75 -19 122 -15 46 4 75 1 107 -11 61 -23 133 -97 150 -154 8 -26 15 -39
15 -29 1 30 -25 83 -63 125 -54 60 -114 84 -216 87 -47 1 -110 10 -140 19 -76
22 -162 20 -241 -7z"/>
<path d="M15851 13630 c-64 -23 -85 -36 -129 -81 -56 -57 -85 -124 -87 -202
-1 -57 -5 -70 -23 -83 -61 -43 -80 -156 -39 -236 l23 -46 -48 0 c-189 -2 -355
-233 -305 -425 51 -195 217 -310 447 -309 97 1 210 32 297 82 75 43 166 132
199 194 l28 54 67 -63 c79 -74 161 -117 283 -147 79 -19 96 -21 165 -11 154
23 275 90 367 203 50 62 112 185 100 198 -3 2 -8 -4 -12 -14 -68 -200 -232
-336 -443 -366 -166 -25 -341 37 -463 164 -38 39 -70 69 -72 67 -2 -2 -15 -29
-30 -60 -51 -109 -189 -216 -331 -257 -99 -28 -155 -33 -238 -22 -145 21 -261
100 -320 219 -28 58 -32 75 -32 146 1 98 23 152 92 226 80 85 177 122 262 99
56 -15 64 -5 23 26 -44 35 -62 73 -62 133 0 64 12 95 51 131 30 26 32 34 33
97 1 100 49 182 137 238 46 30 131 55 183 55 62 0 165 -27 229 -61 67 -34 76
-32 15 4 -111 64 -264 84 -367 47z"/>
<path d="M16270 13543 c0 -10 40 -36 46 -30 3 2 -7 12 -21 21 -14 9 -25 13
-25 9z"/>
<path d="M16365 13460 c21 -22 41 -40 44 -40 3 0 -13 18 -34 40 -21 22 -41 40
-44 40 -3 0 13 -18 34 -40z"/>
<path d="M16251 13405 c-60 -51 -65 -143 -10 -189 44 -37 59 -32 21 7 -23 23
-32 42 -32 65 0 37 23 98 47 124 23 26 9 22 -26 -7z"/>
<path d="M11290 13395 c1 -6 14 -26 30 -45 17 -19 30 -30 30 -25 -1 6 -14 26
-30 45 -17 19 -30 30 -30 25z"/>
<path d="M16618 13393 c7 -3 16 -2 19 1 4 3 -2 6 -13 5 -11 0 -14 -3 -6 -6z"/>
<path d="M16450 13365 c13 -14 26 -25 28 -25 3 0 -5 11 -18 25 -13 14 -26 25
-28 25 -3 0 5 -11 18 -25z"/>
<path d="M16422 13299 c-3 -70 -28 -142 -98 -279 -61 -121 -95 -224 -93 -285
1 -27 2 -26 10 10 24 102 45 157 94 251 71 134 97 215 92 290 -3 53 -3 54 -5
13z"/>
<path d="M10494 13228 c-13 -58 -7 -133 16 -181 39 -82 146 -158 246 -173 31
-4 45 -13 57 -34 18 -30 89 -70 125 -70 31 0 84 23 102 45 12 14 8 14 -20 -4
-64 -39 -160 -18 -191 41 -15 29 -28 38 -56 38 -49 0 -138 44 -190 93 -68 64
-87 114 -81 207 3 38 4 70 2 70 -1 0 -6 -15 -10 -32z"/>
<path d="M11382 13230 c0 -14 2 -19 5 -12 2 6 2 18 0 25 -3 6 -5 1 -5 -13z"/>
<path d="M10331 13143 c-43 -107 -56 -319 -27 -430 32 -122 97 -234 182 -313
36 -34 36 -33 -9 23 -64 80 -111 161 -138 237 -21 57 -24 84 -24 220 0 118 4
170 18 219 18 67 18 91 -2 44z"/>
<path d="M15920 13161 c-99 -32 -211 -159 -209 -236 0 -12 6 -4 15 19 19 54
76 125 126 159 115 77 263 55 372 -57 42 -43 47 -46 30 -18 -21 38 -82 90
-134 117 -39 20 -159 30 -200 16z"/>
<path d="M11381 13074 c0 -11 3 -14 6 -6 3 7 2 16 -1 19 -3 4 -6 -2 -5 -13z"/>
<path d="M17202 12970 c0 -19 2 -27 5 -17 2 9 2 25 0 35 -3 9 -5 1 -5 -18z"/>
<path d="M15639 12868 c-1 -7 -3 -24 -4 -38 -3 -32 13 -64 62 -120 51 -58 63
-81 63 -124 0 -48 -39 -93 -93 -104 -40 -8 -40 -9 -16 -16 44 -12 103 24 123
76 25 62 15 94 -59 183 -61 73 -70 92 -66 138 1 9 0 17 -3 17 -3 0 -7 -6 -7
-12z"/>
<path d="M17203 12825 c0 -27 2 -38 4 -22 2 15 2 37 0 50 -2 12 -4 0 -4 -28z"/>
<path d="M11300 12787 c0 -3 12 -12 26 -22 15 -9 23 -12 20 -6 -7 11 -46 35
-46 28z"/>
<path d="M11376 12707 c3 -10 9 -15 12 -12 3 3 0 11 -7 18 -10 9 -11 8 -5 -6z"/>
<path d="M8075 12681 c-13 -5 3 -10 52 -13 84 -6 139 -34 197 -99 49 -53 75
-112 82 -186 6 -57 7 -59 56 -88 123 -74 193 -248 158 -394 -16 -69 -79 -163
-137 -205 -55 -40 -156 -76 -213 -76 -36 0 -62 -14 -40 -22 11 -3 34 -143 26
-156 -4 -7 -39 -8 -110 -3 -4 1 3 16 16 34 31 40 58 92 58 109 -1 7 -10 -5
-22 -27 -26 -50 -67 -95 -87 -95 -9 0 5 -11 31 -25 26 -14 54 -22 63 -19 9 4
43 1 75 -6 l60 -13 0 -59 c0 -51 5 -69 37 -121 40 -67 81 -117 96 -117 5 0 -7
19 -28 41 -49 55 -86 137 -92 207 -5 54 -3 60 37 121 163 243 551 308 734 124
32 -31 35 -33 17 -8 -12 17 -35 39 -52 50 -29 19 -31 22 -26 75 3 30 9 64 13
75 4 11 4 17 -1 13 -4 -4 -15 -34 -24 -66 l-16 -59 -55 18 c-172 57 -379 11
-524 -116 -33 -28 -43 -24 -52 22 -6 29 -3 32 30 43 57 19 141 102 178 178 30
61 33 74 33 162 0 87 -3 101 -32 160 -35 72 -115 160 -163 180 -27 11 -30 17
-30 56 0 113 -100 253 -205 287 -67 21 -116 27 -140 18z m324 -1108 c12 -36
11 -40 -25 -95 -21 -32 -45 -58 -54 -58 -35 0 -48 24 -54 102 l-7 77 33 5 c56
9 83 12 89 10 3 -2 11 -20 18 -41z"/>
<path d="M7990 12660 c-11 -8 -7 -9 15 -4 37 8 45 14 19 14 -10 0 -26 -5 -34
-10z"/>
<path d="M12658 12613 c17 -2 47 -2 65 0 17 2 3 4 -33 4 -36 0 -50 -2 -32 -4z"/>
<path d="M11422 12590 c0 -14 2 -19 5 -12 2 6 2 18 0 25 -3 6 -5 1 -5 -13z"/>
<path d="M12511 12564 c-19 -13 -29 -24 -24 -24 6 0 21 8 34 19 13 10 31 21
39 24 13 5 13 5 0 5 -8 0 -30 -11 -49 -24z"/>
<path d="M7458 12573 c6 -2 18 -2 25 0 6 3 1 5 -13 5 -14 0 -19 -2 -12 -5z"/>
<path d="M7303 12511 c-36 -26 -113 -118 -113 -135 0 -17 -42 -97 -66 -125
-31 -37 -61 -54 -129 -70 -241 -59 -367 -271 -268 -453 30 -54 75 -95 120
-107 17 -5 26 -14 24 -22 -2 -8 -6 -51 -9 -96 -4 -73 4 -135 24 -187 5 -13 -1
-16 -39 -16 -70 0 -200 -28 -277 -60 -202 -82 -310 -189 -310 -307 0 -124 111
-175 245 -113 22 10 41 17 43 16 1 -2 -11 -32 -27 -67 -30 -63 -61 -166 -61
-201 0 -16 -25 -17 -369 -20 l-369 -3 -44 -30 c-111 -79 -137 -212 -62 -324
27 -41 90 -89 101 -77 4 3 1 6 -5 6 -21 0 -74 54 -97 101 -55 108 -10 231 102
281 43 19 113 19 4276 25 3084 4 4243 3 4272 -5 50 -14 109 -62 136 -110 14
-26 18 -30 13 -12 -10 41 -58 93 -110 120 l-48 25 -1293 3 -1293 2 -22 34 -22
33 -21 -31 -21 -31 -492 -2 -492 -1 0 35 c0 33 -1 35 -27 29 -16 -4 -74 -10
-130 -13 -152 -8 -257 27 -397 135 -46 35 -56 40 -46 22 27 -51 140 -119 258
-157 67 -22 90 -24 177 -20 55 3 110 8 123 12 19 6 22 4 22 -19 l0 -26 -264 0
-265 0 -4 28 -4 27 -2 -27 -1 -28 -595 0 c-327 0 -595 4 -595 8 0 21 44 180
57 205 8 16 13 31 10 33 -8 8 -58 -115 -70 -172 -9 -44 -17 -58 -35 -65 -13
-5 -260 -9 -549 -9 l-526 0 -46 30 c-61 39 -169 150 -219 225 -57 86 -88 153
-116 247 -18 60 -25 74 -25 51 -1 -55 46 -184 100 -275 56 -93 151 -199 220
-245 l43 -28 -595 -3 c-327 -1 -600 0 -607 3 -40 15 60 271 130 330 40 34 139
91 218 127 51 23 58 28 30 24 -49 -8 -167 -68 -217 -110 -22 -20 -45 -36 -50
-36 -4 0 -24 -11 -43 -23 -136 -92 -280 -62 -280 58 0 90 39 147 152 220 90
59 113 70 205 101 66 22 101 27 224 31 127 5 156 3 229 -16 47 -12 112 -35
145 -51 l60 -28 34 41 c128 154 323 276 443 277 20 0 40 4 43 10 11 19 -105
-3 -194 -37 -103 -39 -213 -122 -290 -221 l-42 -52 -37 16 c-92 41 -163 63
-245 75 -102 15 -106 20 -128 127 -13 60 -9 102 16 188 5 17 0 22 -34 32 -87
27 -151 120 -151 222 0 82 45 168 113 219 67 50 139 85 206 101 83 20 110 49
175 191 25 54 78 117 127 151 13 10 21 17 18 17 -3 1 -24 -12 -46 -28z m4327
-1941 c0 -5 -7 -10 -16 -10 -8 0 -12 5 -9 10 3 6 10 10 16 10 5 0 9 -4 9 -10z"/>
<path d="M12428 12488 c-19 -24 -43 -62 -53 -85 -10 -24 -21 -43 -25 -43 -3 0
-22 16 -41 36 -18 20 -47 45 -64 56 -16 12 4 -11 45 -50 l75 -71 17 51 c16 47
58 114 82 130 6 4 8 10 4 13 -3 3 -21 -13 -40 -37z"/>
<path d="M7770 12393 c-15 -34 -25 -190 -13 -220 5 -15 9 6 10 65 1 48 6 107
12 132 12 53 9 60 -9 23z"/>
<path d="M12884 12372 c-68 -24 -146 -83 -183 -139 -38 -57 -41 -81 -4 -33 73
95 157 147 280 174 l68 14 -55 1 c-30 0 -78 -8 -106 -17z"/>
<path d="M10593 12293 c9 -2 23 -2 30 0 6 3 -1 5 -18 5 -16 0 -22 -2 -12 -5z"/>
<path d="M10640 12286 c0 -2 7 -6 15 -10 8 -3 15 -1 15 4 0 6 -7 10 -15 10 -8
0 -15 -2 -15 -4z"/>
<path d="M10745 12250 c11 -5 27 -9 35 -9 9 0 8 4 -5 9 -11 5 -27 9 -35 9 -9
0 -8 -4 5 -9z"/>
<path d="M10414 12204 c-18 -14 -18 -15 4 -4 12 6 22 13 22 15 0 8 -5 6 -26
-11z"/>
<path d="M10958 12203 c23 -2 61 -2 85 0 23 2 4 4 -43 4 -47 0 -66 -2 -42 -4z"/>
<path d="M10318 12158 c-16 -5 -28 -14 -28 -19 0 -8 54 14 69 27 7 7 -13 3
-41 -8z"/>
<path d="M12175 12055 c15 -37 18 -206 5 -264 -23 -104 -64 -177 -145 -258
-68 -68 -71 -73 -32 -50 48 28 127 120 157 184 49 105 63 238 36 342 -8 29
-18 56 -22 60 -4 3 -4 -3 1 -14z"/>
<path d="M7155 11991 c-61 -17 -103 -41 -151 -85 -41 -38 -46 -47 -34 -56 8
-5 22 -8 30 -5 8 3 4 -4 -10 -15 -20 -16 -10 -14 42 9 110 49 198 70 327 81
68 5 127 7 132 4 5 -3 9 -1 9 4 0 5 -28 22 -62 37 -52 23 -79 29 -158 31 -52
2 -108 -1 -125 -5z"/>
<path d="M10827 11894 c-4 -4 -7 -16 -7 -28 0 -20 0 -20 -15 0 -13 16 -13 12
1 -21 59 -143 86 -251 93 -375 l7 -125 27 56 c57 119 60 258 8 364 -30 61
-101 141 -114 129z"/>
<path d="M7880 11836 c0 -20 64 -108 101 -137 46 -36 115 -64 179 -73 l45 -5
-55 18 c-109 36 -186 90 -248 176 -12 17 -22 26 -22 21z"/>
<path d="M9085 11829 c-4 -6 -5 -12 -2 -15 2 -3 7 2 10 11 7 17 1 20 -8 4z"/>
<path d="M9164 11530 c3 -14 6 -34 6 -45 0 -17 2 -17 10 -5 7 11 28 15 79 15
l69 0 6 -34 c15 -96 123 -170 249 -171 53 0 136 25 123 37 -2 2 -19 -3 -37
-12 -61 -32 -198 -1 -262 59 -32 30 -57 83 -57 122 0 25 -2 26 -39 20 -48 -7
-130 7 -143 25 -7 10 -8 7 -4 -11z"/>
<path d="M13030 11534 c0 -20 17 -32 50 -38 31 -5 32 -5 10 4 -13 6 -33 18
-42 27 -10 9 -18 12 -18 7z"/>
<path d="M7870 11508 c0 -4 23 -8 52 -8 28 0 49 2 47 5 -9 8 -99 11 -99 3z"/>
<path d="M7988 11493 c6 -2 18 -2 25 0 6 3 1 5 -13 5 -14 0 -19 -2 -12 -5z"/>
<path d="M9158 11427 c-3 -19 -2 -25 4 -19 6 6 8 18 6 28 -3 14 -5 12 -10 -9z"/>
<path d="M9122 11378 c-7 -7 -52 -14 -110 -16 -90 -3 -153 -19 -167 -42 -3 -5
9 -1 27 8 33 16 140 23 153 10 11 -11 -32 -64 -68 -87 -43 -27 -108 -37 -137
-21 -18 10 -24 9 -31 -1 -5 -8 -9 -18 -9 -24 0 -5 4 -4 9 4 7 11 15 11 39 3
53 -18 133 8 181 60 l21 22 11 -32 c18 -51 27 -37 13 19 -8 29 -11 55 -8 60 2
4 20 11 39 15 19 3 39 12 46 20 14 17 8 19 -9 2z"/>
<path d="M13052 11360 c0 -14 2 -19 5 -12 2 6 2 18 0 25 -3 6 -5 1 -5 -13z"/>
<path d="M8810 11279 c-7 -11 -10 -23 -7 -25 2 -2 9 7 15 21 14 30 7 33 -8 4z"/>
<path d="M9420 11186 c0 -2 9 -6 20 -9 11 -3 18 -1 14 4 -5 9 -34 13 -34 5z"/>
<path d="M8782 11140 c0 -14 2 -19 5 -12 2 6 2 18 0 25 -3 6 -5 1 -5 -13z"/>
<path d="M11832 11142 c-29 -11 -70 -33 -90 -49 -44 -36 -108 -117 -121 -155
-14 -40 2 -34 22 7 25 53 95 124 150 152 148 74 336 27 437 -110 36 -49 40
-42 6 12 -80 127 -265 192 -404 143z"/>
<path d="M11150 11100 c-17 -6 -1 -8 55 -9 44 -1 108 -7 143 -15 74 -15 70 -5
-7 18 -57 17 -149 20 -191 6z"/>
<path d="M8465 11086 c-16 -12 -11 -14 51 -21 130 -14 215 -51 346 -154 37
-28 35 -25 -13 21 -68 66 -174 123 -259 138 -36 7 -73 16 -82 21 -22 11 -21
12 -43 -5z"/>
<path d="M9184 11080 c-81 -21 -184 -66 -240 -104 -21 -14 -42 -26 -45 -26 -4
0 -24 25 -44 55 -21 30 -40 53 -42 51 -7 -7 46 -85 88 -131 39 -42 40 -43 69
-28 16 8 32 18 35 23 3 5 19 11 35 15 17 4 28 11 24 16 -3 5 3 9 13 9 10 0 32
9 50 19 17 11 48 23 67 27 20 3 34 10 31 14 -3 5 20 12 50 15 30 4 55 11 55
15 0 4 28 11 63 15 34 3 76 9 92 12 l30 6 -25 8 c-51 15 -233 8 -306 -11z"/>
<path d="M10754 10946 c-27 -19 -63 -51 -79 -72 -38 -50 -75 -141 -74 -184 0
-32 2 -30 15 19 28 103 80 175 179 248 48 36 15 26 -41 -11z"/>
<path d="M13352 10700 c0 -14 2 -19 5 -12 2 6 2 18 0 25 -3 6 -5 1 -5 -13z"/>
<path d="M14421 10354 c0 -11 3 -14 6 -6 3 7 2 16 -1 19 -3 4 -6 -2 -5 -13z"/>
<path d="M14422 10300 c0 -19 2 -27 5 -17 2 9 2 25 0 35 -3 9 -5 1 -5 -18z"/>
<path d="M2936 10149 c-141 -33 -246 -160 -246 -297 0 -58 -3 -66 -29 -88 -62
-52 -75 -152 -32 -238 l19 -36 -47 0 c-99 0 -234 -99 -284 -208 -33 -71 -32
-218 3 -287 28 -58 88 -125 146 -165 114 -79 299 -98 452 -46 143 48 274 152
329 260 8 17 17 33 19 35 2 2 32 -23 66 -55 76 -70 156 -115 258 -143 90 -25
157 -26 253 -5 99 22 193 74 266 146 73 73 115 143 142 235 21 73 26 148 9
138 -5 -3 -10 -25 -10 -48 -1 -142 -111 -311 -258 -394 -222 -125 -477 -89
-660 93 l-73 72 -30 -61 c-82 -161 -303 -287 -505 -287 -126 0 -264 63 -338
153 -60 74 -81 131 -80 222 0 70 4 88 32 141 17 35 52 80 79 104 82 72 156 94
263 76 l45 -8 -38 32 c-49 41 -67 78 -67 135 0 58 20 106 56 134 26 21 29 28
30 90 1 113 66 208 179 262 51 25 72 29 143 29 153 0 267 -56 413 -204 85 -85
86 -86 118 -75 17 6 30 13 28 15 -2 3 -16 0 -30 -5 -24 -9 -33 -3 -129 92 -79
78 -119 110 -171 135 -115 55 -227 73 -321 51z"/>
<path d="M5748 10098 c9 -4 1504 -6 3322 -5 1818 1 2956 3 2530 4 -1936 7
-5868 7 -5852 1z"/>
<path d="M14218 10093 c7 -3 16 -2 19 1 4 3 -2 6 -13 5 -11 0 -14 -3 -6 -6z"/>
<path d="M13847 8273 c-485 -3868 -807 -6429 -812 -6458 -3 -16 -2 -23 1 -15
4 8 13 23 21 32 8 9 12 21 9 27 -5 8 219 1819 899 7241 63 503 118 932 121
953 3 20 2 37 -3 37 -4 0 -111 -818 -236 -1817z"/>
<path d="M3304 9907 c-31 -28 -37 -41 -42 -85 -5 -61 11 -93 61 -118 l32 -16
-31 33 c-18 19 -35 44 -38 56 -10 31 10 97 40 133 34 40 23 38 -22 -3z"/>
<path d="M3683 9903 c9 -2 23 -2 30 0 6 3 -1 5 -18 5 -16 0 -22 -2 -12 -5z"/>
<path d="M3482 9811 c-5 -60 -39 -157 -98 -276 -72 -144 -94 -215 -93 -290 l2
-50 7 55 c10 80 25 120 96 265 67 136 98 233 91 288 -3 22 -4 24 -5 8z"/>
<path d="M2980 9671 c-49 -16 -93 -44 -127 -79 -44 -46 -93 -147 -92 -187 1
-28 1 -28 10 8 34 145 150 242 289 240 85 -1 148 -30 217 -99 42 -42 50 -47
36 -23 -23 39 -86 94 -138 121 -43 23 -152 33 -195 19z"/>
<path d="M4190 9651 c0 -6 4 -13 10 -16 6 -3 7 1 4 9 -7 18 -14 21 -14 7z"/>
<path d="M4232 9570 c0 -8 4 -26 8 -40 6 -20 8 -21 8 -5 0 11 -3 29 -8 40 -5
12 -8 14 -8 5z"/>
<path d="M4250 9463 c0 -12 5 -25 10 -28 13 -8 13 15 0 35 -8 12 -10 11 -10
-7z"/>
<path d="M2691 9339 c-1 -37 9 -54 97 -169 35 -47 40 -76 17 -120 -20 -39 -53
-60 -93 -60 -20 0 -31 -4 -27 -10 19 -31 117 10 142 60 31 62 10 121 -78 217
-21 23 -41 54 -45 70 -10 47 -12 49 -13 12z"/>
<path d="M9805 8091 c-205 -15 -485 -81 -644 -152 -180 -81 -307 -150 -423
-229 -196 -134 -195 -134 -294 -225 -351 -323 -593 -763 -688 -1252 -148 -761
103 -1543 675 -2099 113 -109 179 -162 315 -252 82 -54 303 -172 321 -172 4 0
-37 24 -93 53 -353 186 -640 444 -860 773 -460 688 -508 1548 -129 2304 46 92
175 291 245 380 139 174 387 394 580 513 96 59 320 167 430 207 401 148 900
173 1320 67 653 -165 1185 -591 1489 -1191 97 -192 181 -453 216 -671 22 -140
30 -426 16 -566 -23 -218 -77 -445 -148 -619 -242 -589 -700 -1052 -1270
-1281 -85 -35 -325 -108 -358 -110 -16 -1 -17 -2 -3 -6 21 -5 183 37 303 79
159 57 438 211 584 322 31 24 64 47 73 52 9 5 62 51 118 103 250 231 435 506
571 849 114 287 173 674 150 983 -48 640 -342 1226 -801 1599 -378 306 -748
473 -1166 525 -150 19 -386 26 -529 16z"/>
<path d="M10173 7833 c15 -2 39 -2 55 0 15 2 2 4 -28 4 -30 0 -43 -2 -27 -4z"/>
<path d="M9696 7821 c-3 -4 6 -6 19 -3 14 2 25 6 25 8 0 8 -39 4 -44 -5z"/>
<path d="M10360 7810 c416 -76 794 -275 1092 -573 390 -392 592 -886 591
-1447 -1 -251 -28 -416 -112 -660 -215 -633 -751 -1129 -1399 -1295 -390 -100
-754 -90 -1142 31 -303 95 -580 263 -810 494 -322 321 -504 681 -581 1146 -18
113 -20 155 -16 334 8 269 40 449 121 673 115 317 355 650 626 870 220 178
499 319 773 392 37 10 65 20 63 22 -6 7 -178 -42 -276 -77 -288 -105 -618
-330 -810 -552 -153 -176 -250 -324 -337 -513 -130 -281 -187 -548 -186 -875
2 -543 209 -1038 601 -1433 161 -163 317 -274 545 -389 406 -203 889 -262
1357 -163 260 55 583 206 808 379 419 322 693 789 778 1327 23 142 22 445 0
594 -105 680 -527 1254 -1144 1551 -178 86 -434 164 -582 177 -51 5 -42 2 40
-13z"/>
<path d="M9648 7813 c6 -2 18 -2 25 0 6 3 1 5 -13 5 -14 0 -19 -2 -12 -5z"/>
<path d="M9593 7803 c9 -2 23 -2 30 0 6 3 -1 5 -18 5 -16 0 -22 -2 -12 -5z"/>
<path d="M6471 7084 c0 -11 3 -14 6 -6 3 7 2 16 -1 19 -3 4 -6 -2 -5 -13z"/>
<path d="M6481 7024 c0 -11 3 -14 6 -6 3 7 2 16 -1 19 -3 4 -6 -2 -5 -13z"/>
<path d="M6491 6964 c0 -11 3 -14 6 -6 3 7 2 16 -1 19 -3 4 -6 -2 -5 -13z"/>
<path d="M6511 6834 c0 -11 3 -14 6 -6 3 7 2 16 -1 19 -3 4 -6 -2 -5 -13z"/>
<path d="M6521 6774 c0 -11 3 -14 6 -6 3 7 2 16 -1 19 -3 4 -6 -2 -5 -13z"/>
<path d="M6531 6714 c0 -11 3 -14 6 -6 3 7 2 16 -1 19 -3 4 -6 -2 -5 -13z"/>
<path d="M6541 6654 c0 -11 3 -14 6 -6 3 7 2 16 -1 19 -3 4 -6 -2 -5 -13z"/>
<path d="M6551 6584 c0 -11 3 -14 6 -6 3 7 2 16 -1 19 -3 4 -6 -2 -5 -13z"/>
<path d="M6561 6524 c0 -11 3 -14 6 -6 3 7 2 16 -1 19 -3 4 -6 -2 -5 -13z"/>
<path d="M6571 6464 c0 -11 3 -14 6 -6 3 7 2 16 -1 19 -3 4 -6 -2 -5 -13z"/>
<path d="M6581 6404 c0 -11 3 -14 6 -6 3 7 2 16 -1 19 -3 4 -6 -2 -5 -13z"/>
<path d="M6592 6340 c0 -14 2 -19 5 -12 2 6 2 18 0 25 -3 6 -5 1 -5 -13z"/>
<path d="M6602 6280 c0 -14 2 -19 5 -12 2 6 2 18 0 25 -3 6 -5 1 -5 -13z"/>
<path d="M6611 6214 c0 -11 3 -14 6 -6 3 7 2 16 -1 19 -3 4 -6 -2 -5 -13z"/>
<path d="M6621 6154 c0 -11 3 -14 6 -6 3 7 2 16 -1 19 -3 4 -6 -2 -5 -13z"/>
<path d="M6632 6090 c0 -14 2 -19 5 -12 2 6 2 18 0 25 -3 6 -5 1 -5 -13z"/>
<path d="M6642 6030 c0 -14 2 -19 5 -12 2 6 2 18 0 25 -3 6 -5 1 -5 -13z"/>
<path d="M15713 6033 c15 -2 37 -2 50 0 12 2 0 4 -28 4 -27 0 -38 -2 -22 -4z"/>
<path d="M15638 6023 c7 -3 16 -2 19 1 4 3 -2 6 -13 5 -11 0 -14 -3 -6 -6z"/>
<path d="M15510 5982 c-70 -34 -160 -123 -194 -190 -59 -117 -70 -256 -30
-392 28 -96 29 -91 -38 -140 -71 -51 -133 -127 -177 -216 -48 -95 -65 -175
-65 -296 1 -93 4 -113 25 -155 38 -73 113 -105 173 -73 25 13 49 59 64 119 l8
34 26 -39 c91 -136 234 -197 343 -144 48 23 88 72 100 123 l7 27 33 -29 c81
-71 226 -93 343 -52 125 43 227 146 336 338 80 143 99 196 94 267 -3 33 1 75
8 95 24 71 -21 187 -94 236 -48 33 -139 61 -229 70 l-72 7 -4 61 -3 62 -2 -67
-2 -67 48 -5 c201 -24 286 -65 332 -161 18 -36 21 -56 16 -98 -3 -28 -7 -88
-9 -132 -2 -71 -7 -90 -45 -168 -98 -205 -213 -346 -326 -403 -193 -95 -398
-25 -456 157 -13 38 -27 72 -31 75 -15 9 -10 -20 16 -86 41 -106 31 -166 -40
-221 -38 -31 -133 -38 -189 -14 -53 22 -130 97 -172 167 -35 57 -36 63 -37
156 0 53 3 117 7 142 l6 45 -15 -40 c-12 -30 -15 -77 -14 -195 2 -169 -8 -213
-52 -244 -32 -22 -60 -20 -99 7 -49 33 -70 82 -76 178 -12 171 53 345 174 467
37 38 82 79 101 93 l34 25 -21 59 c-70 205 -36 393 95 523 32 32 85 72 118 89
73 39 62 43 -15 5z"/>
<path d="M6652 5970 c0 -14 2 -19 5 -12 2 6 2 18 0 25 -3 6 -5 1 -5 -13z"/>
<path d="M16031 5915 c26 -28 58 -68 73 -90 14 -22 26 -36 26 -32 0 16 -59 93
-102 132 l-43 40 46 -50z"/>
<path d="M6661 5904 c0 -11 3 -14 6 -6 3 7 2 16 -1 19 -3 4 -6 -2 -5 -13z"/>
<path d="M6672 5840 c0 -14 2 -19 5 -12 2 6 2 18 0 25 -3 6 -5 1 -5 -13z"/>
<path d="M6682 5780 c0 -14 2 -19 5 -12 2 6 2 18 0 25 -3 6 -5 1 -5 -13z"/>
<path d="M16130 5775 c0 -5 5 -17 10 -25 5 -8 10 -10 10 -5 0 6 -5 17 -10 25
-5 8 -10 11 -10 5z"/>
<path d="M6692 5720 c0 -14 2 -19 5 -12 2 6 2 18 0 25 -3 6 -5 1 -5 -13z"/>
<path d="M16151 5714 c0 -11 3 -14 6 -6 3 7 2 16 -1 19 -3 4 -6 -2 -5 -13z"/>
<path d="M6702 5660 c0 -14 2 -19 5 -12 2 6 2 18 0 25 -3 6 -5 1 -5 -13z"/>
<path d="M6712 5595 c0 -16 2 -22 5 -12 2 9 2 23 0 30 -3 6 -5 -1 -5 -18z"/>
<path d="M6722 5530 c0 -14 2 -19 5 -12 2 6 2 18 0 25 -3 6 -5 1 -5 -13z"/>
<path d="M6732 5470 c0 -14 2 -19 5 -12 2 6 2 18 0 25 -3 6 -5 1 -5 -13z"/>
<path d="M6742 5410 c0 -14 2 -19 5 -12 2 6 2 18 0 25 -3 6 -5 1 -5 -13z"/>
<path d="M15995 5394 c-36 -28 -150 -82 -211 -100 -79 -24 -255 -24 -343 -1
-88 24 -87 15 1 -14 59 -19 94 -24 178 -23 58 0 125 6 150 13 66 19 180 75
220 110 36 31 40 42 5 15z"/>
<path d="M6752 5345 c0 -16 2 -22 5 -12 2 9 2 23 0 30 -3 6 -5 -1 -5 -18z"/>
<path d="M16085 5328 c89 -44 170 -118 218 -199 45 -77 50 -60 6 22 -39 72
-112 142 -182 174 -84 38 -119 40 -42 3z"/>
<path d="M6762 5285 c0 -16 2 -22 5 -12 2 9 2 23 0 30 -3 6 -5 -1 -5 -18z"/>
<path d="M6772 5225 c0 -16 2 -22 5 -12 2 9 2 23 0 30 -3 6 -5 -1 -5 -18z"/>
<path d="M6782 5160 c0 -14 2 -19 5 -12 2 6 2 18 0 25 -3 6 -5 1 -5 -13z"/>
<path d="M6792 5095 c0 -16 2 -22 5 -12 2 9 2 23 0 30 -3 6 -5 -1 -5 -18z"/>
<path d="M6802 5035 c0 -16 2 -22 5 -12 2 9 2 23 0 30 -3 6 -5 -1 -5 -18z"/>
<path d="M6812 4975 c0 -16 2 -22 5 -12 2 9 2 23 0 30 -3 6 -5 -1 -5 -18z"/>
<path d="M6822 4915 c0 -16 2 -22 5 -12 2 9 2 23 0 30 -3 6 -5 -1 -5 -18z"/>
<path d="M6832 4845 c0 -16 2 -22 5 -12 2 9 2 23 0 30 -3 6 -5 -1 -5 -18z"/>
<path d="M6842 4785 c0 -16 2 -22 5 -12 2 9 2 23 0 30 -3 6 -5 -1 -5 -18z"/>
<path d="M6852 4725 c0 -16 2 -22 5 -12 2 9 2 23 0 30 -3 6 -5 -1 -5 -18z"/>
<path d="M6862 4665 c0 -16 2 -22 5 -12 2 9 2 23 0 30 -3 6 -5 -1 -5 -18z"/>
<path d="M6872 4610 c-1 -14 3 -43 7 -65 6 -26 9 -31 9 -15 1 14 -3 43 -7 65
-6 26 -9 31 -9 15z"/>
<path d="M6892 4475 c0 -16 2 -22 5 -12 2 9 2 23 0 30 -3 6 -5 -1 -5 -18z"/>
<path d="M6902 4415 c0 -16 2 -22 5 -12 2 9 2 23 0 30 -3 6 -5 -1 -5 -18z"/>
<path d="M6912 4360 c-1 -14 5 -56 12 -95 8 -38 14 -59 14 -45 1 14 -5 57 -12
95 -8 39 -14 59 -14 45z"/>
<path d="M6942 4165 c0 -16 2 -22 5 -12 2 9 2 23 0 30 -3 6 -5 -1 -5 -18z"/>
<path d="M6951 4119 c0 -9 35 -241 79 -515 44 -274 79 -504 78 -511 -2 -6 -41
17 -87 53 -195 150 -392 227 -526 205 -47 -7 -45 -8 30 -8 124 0 239 -42 399
-148 161 -107 221 -176 251 -291 32 -122 9 -254 -70 -420 -86 -179 -183 -286
-323 -359 -43 -22 -51 -30 -38 -37 9 -5 47 -45 85 -89 68 -78 112 -154 125
-215 l7 -32 -63 -7 c-106 -12 -268 -75 -292 -114 -11 -17 11 -21 25 -5 21 26
125 73 196 90 87 20 189 13 276 -20 l65 -24 6 50 c14 105 85 200 185 247 45
21 70 26 131 26 44 -1 85 -7 100 -15 16 -9 51 -13 96 -11 65 2 74 -1 119 -31
57 -38 83 -84 92 -159 4 -30 16 -68 29 -87 53 -77 59 -180 16 -265 -16 -31
-25 -54 -20 -51 16 10 56 99 63 141 8 49 -13 129 -47 183 -13 21 -23 54 -24
81 -6 120 -103 209 -228 209 -30 0 -80 6 -110 14 -62 17 -155 8 -226 -20 -22
-9 -42 -15 -44 -13 -5 7 -108 664 -108 689 0 14 3 59 7 100 9 87 -10 178 -50
246 -21 35 -37 122 -110 570 -47 291 -87 536 -89 544 -3 12 -4 12 -5 -1z m289
-1826 l53 -331 -46 -52 c-44 -48 -87 -138 -87 -180 0 -10 -3 -21 -8 -24 -4 -2
-43 6 -86 18 l-79 23 -13 52 c-21 78 -49 125 -129 216 l-74 83 66 38 c123 72
255 245 319 416 16 42 30 76 30 75 1 -1 25 -151 54 -334z"/>
<path d="M9100 3697 c0 -7 162 -69 167 -64 2 3 -27 16 -64 30 -37 14 -76 28
-85 32 -10 4 -18 5 -18 2z"/>
<path d="M9295 3620 c11 -5 27 -9 35 -9 9 0 8 4 -5 9 -11 5 -27 9 -35 9 -9 0
-8 -4 5 -9z"/>
<path d="M9430 3579 c41 -18 268 -57 365 -63 l90 -5 -115 14 c-63 8 -158 24
-211 34 -174 36 -158 33 -129 20z"/>
<path d="M10448 3553 c6 -2 18 -2 25 0 6 3 1 5 -13 5 -14 0 -19 -2 -12 -5z"/>
<path d="M10398 3543 c6 -2 18 -2 25 0 6 3 1 5 -13 5 -14 0 -19 -2 -12 -5z"/>
<path d="M10338 3533 c6 -2 18 -2 25 0 6 3 1 5 -13 5 -14 0 -19 -2 -12 -5z"/>
<path d="M10258 3523 c7 -3 16 -2 19 1 4 3 -2 6 -13 5 -11 0 -14 -3 -6 -6z"/>
<path d="M6340 3300 c-8 -5 -10 -10 -5 -10 6 0 17 5 25 10 8 5 11 10 5 10 -5
0 -17 -5 -25 -10z"/>
<path d="M5778 3043 c6 -2 18 -2 25 0 6 3 1 5 -13 5 -14 0 -19 -2 -12 -5z"/>
<path d="M5848 3043 c7 -3 16 -2 19 1 4 3 -2 6 -13 5 -11 0 -14 -3 -6 -6z"/>
<path d="M5409 2843 c-13 -16 -12 -17 4 -4 16 13 21 21 13 21 -2 0 -10 -8 -17
-17z"/>
<path d="M5361 2754 c0 -11 3 -14 6 -6 3 7 2 16 -1 19 -3 4 -6 -2 -5 -13z"/>
<path d="M6039 2726 c-67 -153 -20 -277 117 -304 32 -7 77 -13 99 -15 35 -2
40 -5 46 -33 16 -79 81 -135 185 -161 56 -14 74 -15 113 -4 25 7 53 19 61 27
13 13 11 13 -15 0 -37 -19 -126 -20 -178 -2 -92 33 -147 96 -147 168 l0 33
-82 0 c-152 0 -226 64 -215 185 3 31 14 78 25 104 12 25 19 46 16 46 -3 0 -14
-20 -25 -44z"/>
<path d="M5330 2665 c0 -8 5 -15 10 -15 6 0 10 7 10 15 0 8 -4 15 -10 15 -5 0
-10 -7 -10 -15z"/>
<path d="M5330 2601 c0 -12 5 -21 10 -21 6 0 10 6 10 14 0 8 -4 18 -10 21 -5
3 -10 -3 -10 -14z"/>
<path d="M5351 2532 c-1 -7 6 -29 14 -49 8 -20 14 -37 13 -37 -2 -1 -29 -10
-61 -21 -117 -38 -244 -140 -292 -234 -14 -29 -20 -32 -43 -26 -128 33 -244
-2 -331 -101 -104 -118 -107 -294 -6 -411 19 -23 35 -46 35 -51 0 -6 -11 -32
-24 -59 -50 -103 -60 -253 -21 -353 9 -25 21 -63 27 -85 12 -48 44 -153 53
-178 7 -16 -8 -17 -229 -17 -151 0 -236 -4 -236 -10 0 -6 88 -10 243 -10 l244
0 44 -53 c24 -28 49 -55 56 -60 6 -4 18 -14 26 -22 23 -23 128 -73 177 -84 25
-6 82 -11 128 -11 126 0 237 43 327 129 24 22 49 41 57 41 7 0 29 -11 49 -24
36 -25 76 -44 164 -78 57 -22 195 -49 195 -38 0 4 -24 10 -52 14 -86 10 -205
55 -301 113 -31 19 -61 33 -66 31 -5 -2 -31 -24 -58 -49 -85 -80 -204 -128
-319 -129 -206 0 -394 136 -458 332 -14 45 -28 108 -23 108 2 0 23 -10 48 -22
58 -30 214 -33 269 -6 l35 18 -35 -8 c-69 -14 -222 -8 -272 12 -40 16 -49 25
-68 69 -27 63 -37 182 -21 259 7 32 26 85 43 119 l30 61 -35 36 c-86 88 -109
233 -54 344 48 98 137 158 247 166 36 2 81 0 100 -5 l35 -9 7 -74 c9 -89 46
-160 106 -207 l41 -31 -62 -7 c-75 -9 -166 -37 -227 -72 -52 -30 -143 -103
-136 -110 2 -3 30 17 62 43 212 172 511 162 727 -24 44 -37 42 -34 -11 17 -76
74 -152 114 -258 136 -71 14 -84 21 -127 63 -56 55 -84 108 -99 189 -10 55 -9
64 12 105 46 93 152 185 273 236 56 24 74 27 192 27 126 0 132 -1 196 -32 37
-18 83 -51 103 -73 33 -37 36 -45 36 -101 0 -54 -3 -64 -29 -90 -23 -22 -39
-29 -70 -29 -22 0 -43 -5 -47 -11 -11 -19 94 1 203 38 23 8 53 25 67 39 26 27
46 25 46 -4 0 -29 56 -116 99 -155 45 -41 48 -49 26 -67 -8 -7 -15 -18 -15
-25 0 -8 25 12 55 44 67 70 135 109 212 120 l58 9 -58 1 c-66 1 -115 -20 -177
-75 -46 -42 -56 -39 -118 31 -85 97 -105 196 -77 390 l5 30 -16 -35 c-10 -22
-16 -65 -16 -123 -1 -88 -2 -90 -35 -124 -36 -35 -70 -53 -102 -53 -17 0 -18
3 -5 40 10 29 11 52 5 82 -12 54 -36 86 -95 126 -73 49 -144 67 -264 67 l-102
0 -14 30 c-7 17 -16 37 -19 45 -3 10 -6 10 -6 2z"/>
<path d="M13416 2325 c-86 -19 -160 -60 -212 -118 -56 -63 -67 -84 -89 -169
-12 -49 -14 -76 -7 -95 8 -24 6 -32 -16 -55 -14 -16 -21 -28 -15 -28 5 0 18 9
27 19 14 15 19 40 21 103 2 71 7 91 33 138 41 73 93 122 172 161 54 26 80 33
155 37 58 3 83 8 70 13 -28 11 -70 9 -139 -6z"/>
<path d="M13593 2313 c9 -2 25 -2 35 0 9 3 1 5 -18 5 -19 0 -27 -2 -17 -5z"/>
<path d="M13656 2300 c5 -5 25 -12 44 -15 l35 -6 -34 15 c-38 18 -60 21 -45 6z"/>
<path d="M13753 2267 c10 -7 44 -29 75 -49 31 -20 72 -51 90 -67 48 -45 54
-38 7 8 -38 36 -167 122 -183 120 -4 0 1 -6 11 -12z"/>
<path d="M5578 2095 c-43 -16 -87 -46 -88 -59 0 -5 10 0 23 12 31 29 70 42
125 42 34 0 43 3 32 10 -20 13 -47 11 -92 -5z"/>
<path d="M13975 2100 c3 -5 8 -10 11 -10 2 0 4 5 4 10 0 6 -5 10 -11 10 -5 0
-7 -4 -4 -10z"/>
<path d="M13831 2041 c-43 -43 -57 -88 -48 -148 7 -39 47 -88 80 -97 16 -4 12
3 -15 32 -20 20 -39 47 -43 60 -12 39 6 101 41 147 42 56 36 57 -15 6z"/>
<path d="M14000 2077 c0 -3 14 -21 31 -39 17 -18 27 -24 21 -13 -11 21 -52 63
-52 52z"/>
<path d="M14358 2043 c7 -3 16 -2 19 1 4 3 -2 6 -13 5 -11 0 -14 -3 -6 -6z"/>
<path d="M5472 1995 c-17 -37 -14 -45 4 -12 9 16 14 31 11 33 -2 2 -9 -7 -15
-21z"/>
<path d="M14078 1988 c6 -6 18 -8 28 -6 14 3 12 5 -9 10 -19 3 -25 2 -19 -4z"/>
<path d="M14031 1917 c-1 -70 -39 -188 -87 -275 -95 -170 -135 -285 -133 -382
1 -30 3 -44 5 -30 22 146 49 226 119 350 82 146 120 277 105 357 -7 35 -8 33
-9 -20z"/>
<path d="M5452 1910 c0 -19 2 -27 5 -17 2 9 2 25 0 35 -3 9 -5 1 -5 -18z"/>
<path d="M5874 1825 c-78 -17 -188 -63 -248 -104 -26 -17 -49 -31 -51 -31 -3
0 -25 30 -51 68 -25 37 -42 56 -38 42 9 -33 105 -158 126 -165 9 -3 34 5 55
18 21 13 61 34 88 46 28 13 63 29 78 37 16 8 34 14 40 14 7 0 25 7 40 15 15 8
55 19 87 25 33 6 72 13 87 16 16 3 46 9 68 13 l40 7 -40 7 c-63 11 -214 7
-281 -8z"/>
<path d="M13010 1758 c0 -19 2 -20 10 -8 13 19 13 30 0 30 -5 0 -10 -10 -10
-22z"/>
<path d="M13432 1755 c-56 -17 -88 -38 -141 -93 -51 -53 -91 -134 -97 -195 -4
-41 -4 -40 11 11 45 157 181 267 330 266 106 -1 174 -31 258 -115 61 -61 67
-55 12 12 -36 44 -117 99 -168 114 -61 18 -147 18 -205 0z"/>
<path d="M13008 1623 l-3 -67 -46 -11 c-80 -21 -142 -58 -209 -125 -52 -53
-70 -80 -92 -138 -44 -112 -35 -242 22 -339 l19 -33 -2374 0 -2374 0 30 56
c58 110 27 231 -76 301 -50 34 -55 28 -7 -7 47 -34 87 -90 96 -135 10 -48 -11
-136 -44 -183 -17 -23 -30 -45 -30 -47 0 -3 1079 -5 2398 -5 l2397 0 51 -53
c54 -56 158 -114 249 -138 65 -18 226 -18 290 0 134 36 207 71 307 148 l56 43
179 0 c99 0 183 -4 189 -8 18 -17 135 -53 157 -49 17 3 15 5 -8 6 -17 0 -35 5
-40 9 -6 5 -32 17 -60 27 -100 36 -197 107 -278 204 l-28 34 -34 -72 c-136
-284 -548 -423 -841 -285 -81 38 -174 130 -215 211 -32 64 -34 74 -34 168 0
93 2 105 33 167 37 76 120 159 198 198 52 26 151 34 224 17 l35 -8 -25 21
c-59 49 -79 74 -89 116 -6 24 -13 44 -16 44 -2 0 -5 -30 -7 -67z m52 -65 c0
-4 -9 -8 -20 -8 -20 0 -28 29 -13 44 7 7 33 -21 33 -36z m792 -540 c61 -61 99
-93 119 -101 8 -3 -52 -6 -133 -6 -82 -1 -148 3 -148 7 0 5 8 16 18 26 11 9
31 41 47 71 15 30 31 55 36 55 4 0 32 -24 61 -52z"/>
<path d="M7266 1614 c-21 -56 4 -156 52 -208 30 -32 116 -76 148 -76 11 0 39
-18 62 -40 35 -35 46 -40 85 -40 30 0 52 7 68 20 l24 20 -39 -16 c-51 -20 -89
-11 -124 31 -20 25 -40 37 -76 45 -66 14 -96 32 -138 78 -44 48 -62 100 -55
158 5 46 3 54 -7 28z"/>
<path d="M7141 1554 c-56 -124 -52 -334 9 -454 25 -49 107 -157 124 -163 8 -3
-9 24 -36 61 -92 121 -124 224 -115 372 3 52 13 120 21 150 17 60 16 74 -3 34z"/>
<path d="M14952 1535 c0 -16 2 -22 5 -12 2 9 2 23 0 30 -3 6 -5 -1 -5 -18z"/>
<path d="M5557 1470 c-59 -136 -72 -316 -32 -458 10 -34 19 -61 21 -59 2 2 -3
38 -11 81 -26 136 -12 315 35 438 27 72 18 71 -13 -2z"/>
<path d="M6692 1440 c0 -14 2 -19 5 -12 2 6 2 18 0 25 -3 6 -5 1 -5 -13z"/>
<path d="M13111 1377 c-1 -58 6 -72 81 -161 82 -98 89 -157 25 -221 -21 -21
-47 -35 -77 -40 -44 -9 -44 -9 -12 -13 77 -8 152 65 152 148 0 54 -23 93 -101
176 -47 50 -54 66 -62 129 -3 19 -5 13 -6 -18z"/>
<path d="M6700 1376 c0 -8 5 -18 10 -21 6 -3 10 1 10 9 0 8 -4 18 -10 21 -5 3
-10 -1 -10 -9z"/>
<path d="M14951 1334 c0 -11 3 -14 6 -6 3 7 2 16 -1 19 -3 4 -6 -2 -5 -13z"/>
<path d="M14931 1264 c0 -11 3 -14 6 -6 3 7 2 16 -1 19 -3 4 -6 -2 -5 -13z"/>
<path d="M6707 1227 c-4 -10 -7 -28 -7 -40 1 -20 2 -20 11 -4 6 10 9 28 7 40
-3 20 -4 20 -11 4z"/>
<path d="M14921 1224 c0 -11 3 -14 6 -6 3 7 2 16 -1 19 -3 4 -6 -2 -5 -13z"/>
<path d="M14901 1191 c-2 -27 -84 -137 -149 -198 -63 -60 -187 -133 -225 -133
-9 0 -17 -4 -17 -10 0 -14 2 -13 66 15 l56 25 559 0 c366 0 559 3 559 10 0 7
-188 10 -542 10 -543 0 -543 0 -513 20 84 55 225 230 212 263 -4 9 -6 8 -6 -2z"/>
<path d="M6692 1140 c0 -14 2 -19 5 -12 2 6 2 18 0 25 -3 6 -5 1 -5 -13z"/>
<path d="M6651 1046 c-58 -112 -163 -218 -281 -279 -56 -30 -167 -67 -199 -67
-17 0 -32 -4 -35 -9 -11 -17 95 4 181 37 57 22 177 98 207 131 l19 21 42 -39
c59 -54 119 -87 205 -110 88 -25 171 -26 258 -6 70 17 113 37 203 95 76 49 98
50 226 8 79 -26 115 -32 183 -32 80 0 182 22 194 43 3 4 -21 -1 -52 -12 -88
-30 -194 -26 -312 11 -148 48 -163 47 -265 -18 -103 -65 -187 -92 -290 -92
-132 -1 -245 41 -332 125 l-42 40 27 36 c40 51 64 90 85 135 29 64 13 51 -22
-18z"/>
<path d="M7640 1051 c0 -16 63 -73 96 -87 45 -19 133 -27 169 -15 26 8 23 9
-31 10 -82 1 -156 27 -199 68 -19 19 -35 30 -35 24z"/>
<path d="M14463 833 c9 -2 23 -2 30 0 6 3 -1 5 -18 5 -16 0 -22 -2 -12 -5z"/>
<path d="M14230 820 c20 -13 70 -13 70 0 0 6 -19 10 -42 10 -32 0 -39 -3 -28
-10z"/>
<path d="M14313 824 c11 -11 72 -14 102 -5 25 8 19 9 -39 10 -38 1 -67 -2 -63
-5z"/>
<path d="M5988 683 c7 -3 16 -2 19 1 4 3 -2 6 -13 5 -11 0 -14 -3 -6 -6z"/>
<path d="M6030 680 c0 -5 9 -10 20 -10 11 0 20 5 20 10 0 6 -9 10 -20 10 -11
0 -20 -4 -20 -10z"/>
<path d="M6088 683 c6 -2 18 -2 25 0 6 3 1 5 -13 5 -14 0 -19 -2 -12 -5z"/>
</g>
</svg>
