<?xml version="1.0" standalone="no"?>
<!DOCTYPE svg PUBLIC "-//W3C//DTD SVG 20010904//EN"
 "http://www.w3.org/TR/2001/REC-SVG-20010904/DTD/svg10.dtd">
<svg version="1.0" xmlns="http://www.w3.org/2000/svg"
 width="2000.000000pt" height="2000.000000pt" viewBox="0 0 2000.000000 2000.000000"
 preserveAspectRatio="xMidYMid meet">

<g transform="translate(0.000000,2000.000000) scale(0.100000,-0.100000)"
fill="#000000" stroke="none">
<path d="M8611 13840 c-73 -105 -190 -241 -320 -373 -180 -184 -187 -188 -129
-69 26 53 52 125 58 159 11 59 11 66 -11 110 -29 56 -74 83 -139 83 -76 0
-133 -54 -146 -137 -11 -75 51 -237 123 -324 22 -26 24 -31 10 -42 -155 -124
-365 -277 -381 -277 -3 0 15 43 40 95 24 51 48 115 54 142 27 119 -33 203
-147 203 -80 0 -136 -52 -149 -138 -9 -60 35 -192 93 -278 24 -36 43 -67 41
-69 -10 -10 -468 -311 -468 -308 0 2 18 39 39 81 92 182 91 286 -2 342 -41 25
-123 27 -157 3 -88 -61 -98 -166 -30 -312 17 -35 46 -85 64 -111 l34 -47 -88
-66 c-47 -36 -123 -98 -168 -137 -45 -39 -82 -69 -82 -67 0 3 14 35 31 73 23
50 33 89 37 141 l5 71 -40 43 c-37 39 -45 43 -99 47 -50 3 -64 0 -93 -20 -88
-60 -93 -175 -16 -331 15 -28 38 -67 51 -85 l25 -32 -91 -103 c-51 -56 -128
-150 -173 -209 -44 -59 -82 -106 -83 -105 -2 2 2 21 8 43 6 21 12 77 12 124 1
97 -17 141 -72 173 -62 36 -162 17 -198 -38 -61 -93 -19 -219 116 -353 l64
-65 -23 -41 c-59 -103 -142 -270 -182 -365 l-44 -104 -12 74 c-17 103 -38 153
-80 190 -34 29 -40 31 -99 27 -50 -3 -69 -9 -90 -28 -33 -31 -54 -79 -54 -122
1 -80 100 -190 229 -254 l59 -29 -24 -80 c-20 -64 -69 -263 -99 -402 -8 -37
-20 -27 -38 31 -43 135 -132 194 -231 152 -87 -36 -115 -153 -57 -234 17 -22
50 -54 76 -72 48 -33 147 -80 168 -80 7 0 21 -6 30 -12 15 -12 15 -23 2 -148
-9 -74 -19 -205 -23 -290 l-7 -154 -31 -7 c-108 -22 -148 -144 -85 -255 16
-28 52 -75 79 -105 l49 -54 7 -100 c4 -55 14 -156 22 -224 8 -68 12 -126 9
-129 -2 -3 -10 0 -17 5 -63 50 -183 -6 -208 -95 -5 -20 -21 -58 -34 -84 l-24
-48 -50 78 c-27 42 -60 96 -73 120 l-24 42 47 40 c55 48 143 174 158 228 22
81 8 142 -43 190 -58 55 -162 29 -208 -51 -22 -38 -24 -53 -24 -164 l0 -121
-50 93 c-99 184 -151 298 -137 302 27 10 119 77 164 120 66 65 101 133 101
200 0 64 -21 99 -76 126 -82 41 -175 -14 -210 -123 -10 -30 -21 -90 -24 -132
-3 -43 -9 -78 -13 -78 -18 0 -132 307 -190 511 -23 79 -43 150 -45 156 -3 8
26 27 69 49 89 43 179 114 221 172 26 39 30 52 30 113 0 64 -2 71 -31 100 -23
23 -44 33 -76 36 -116 13 -184 -79 -222 -299 l-12 -73 -23 95 c-23 101 -81
439 -81 476 0 17 8 23 38 28 54 10 210 88 259 130 68 60 98 144 74 209 -23 60
-97 95 -164 76 -78 -21 -129 -94 -182 -263 -31 -98 -32 -99 -38 -60 -4 21 -12
140 -18 264 -6 124 -13 227 -15 229 -6 6 -3 -236 5 -384 4 -71 6 -131 5 -133
-1 -1 -22 39 -48 91 -75 152 -151 211 -241 186 -116 -32 -150 -172 -63 -260
55 -54 188 -99 300 -99 67 0 60 12 78 -150 11 -103 56 -393 65 -417 9 -26 -4
-12 -36 40 -42 65 -115 144 -151 163 -66 34 -158 7 -199 -58 -27 -44 -22 -122
11 -168 45 -63 195 -107 331 -98 l68 5 16 -71 c34 -149 134 -476 180 -589 4
-10 -20 11 -54 47 -110 113 -194 131 -273 57 -35 -32 -41 -45 -45 -88 -8 -74
23 -125 96 -161 51 -24 67 -27 166 -27 61 0 124 3 140 7 l31 7 53 -117 c29
-64 71 -149 92 -189 l38 -72 -59 40 c-113 77 -189 86 -255 28 -84 -74 -65
-198 38 -248 69 -34 236 -22 338 23 13 6 30 -16 79 -101 35 -59 82 -139 106
-176 24 -37 44 -70 44 -72 0 -3 -26 16 -57 41 -129 105 -241 115 -307 27 -28
-38 -33 -118 -11 -160 22 -40 73 -73 129 -84 56 -10 183 7 262 35 l65 24 45
-59 c43 -56 44 -60 30 -81 -20 -28 -21 -110 -1 -147 32 -64 133 -116 244 -127
31 -4 65 -12 75 -19 11 -9 36 -76 67 -182 27 -92 49 -169 49 -170 0 -2 -133
-3 -295 -3 l-295 0 0 -859 0 -858 -157 -6 c-131 -4 -173 -9 -248 -31 -105 -31
-269 -107 -355 -166 -34 -23 -436 -333 -893 -689 -458 -355 -1102 -856 -1433
-1113 -330 -256 -606 -474 -614 -483 -12 -14 -12 -18 1 -26 8 -5 979 -9 2379
-9 l2365 0 41 28 c22 15 450 336 952 715 501 378 916 687 922 687 5 0 10 -5
10 -11 0 -6 -120 -254 -268 -552 l-267 -542 5 -80 5 -80 5050 0 5050 0 3 80 3
80 -581 1173 -580 1172 0 2493 c0 1761 -3 2511 -11 2552 -6 33 -18 73 -26 90
-49 94 -141 166 -239 185 -43 8 -1013 10 -3659 8 l-3600 -3 -57 -28 c-74 -36
-134 -96 -166 -165 l-27 -57 -5 -2540 -5 -2540 -38 -72 -37 -73 -1020 0 -1020
0 0 860 0 860 -345 0 -344 0 -21 73 c-46 157 -92 303 -101 313 -6 7 5 17 33
30 60 27 155 89 185 122 109 117 70 276 -67 276 -87 0 -147 -62 -194 -200 -14
-42 -26 -63 -30 -54 -9 23 -77 313 -74 315 2 1 37 17 78 37 140 66 224 151
236 239 12 87 -45 152 -130 152 -83 0 -142 -57 -186 -183 -13 -36 -26 -69 -30
-73 -4 -4 -17 50 -30 120 -18 95 -25 174 -28 310 l-4 182 59 -14 c71 -17 218
-19 264 -4 88 30 143 113 119 183 -6 19 -27 49 -46 66 -30 26 -42 30 -93 30
-68 0 -137 -31 -229 -105 -31 -24 -58 -42 -60 -40 -7 7 19 206 43 331 21 110
69 290 94 356 l10 26 48 -15 c30 -10 89 -16 158 -17 97 -1 116 2 157 22 89 44
122 133 76 202 -65 97 -185 88 -332 -25 -27 -20 -50 -35 -52 -33 -7 7 103 215
154 290 71 105 158 211 240 292 l70 68 53 -40 c118 -88 247 -132 329 -112 191
46 137 281 -65 280 -38 0 -146 -20 -190 -35 -17 -6 -16 -3 5 14 48 41 245 169
348 226 l102 57 63 -64 c125 -129 270 -186 362 -143 104 50 99 192 -10 249
-34 18 -57 21 -161 21 l-120 -1 225 106 c124 59 245 117 268 129 l43 21 57
-39 c110 -74 208 -111 295 -111 99 0 168 56 168 137 0 124 -110 172 -283 124
-37 -10 -67 -17 -67 -16 0 2 35 24 78 51 42 26 111 71 152 99 41 28 80 54 86
58 6 3 37 -12 70 -34 162 -111 296 -144 392 -98 78 38 103 114 61 189 -30 53
-71 74 -145 73 -63 0 -174 -32 -284 -81 -30 -13 -53 -22 -50 -19 3 2 51 41
108 86 118 94 337 284 348 303 4 7 -23 -14 -62 -47 -121 -106 -319 -264 -361
-289 -7 -3 9 37 34 90 59 124 69 209 31 263 -65 95 -199 93 -256 -5 -44 -75
-16 -216 70 -344 22 -34 39 -62 37 -64 -49 -41 -427 -262 -435 -254 -2 3 14
40 35 84 46 94 61 143 61 204 0 60 -29 106 -83 130 -54 25 -81 25 -133 -1
-112 -54 -109 -219 6 -398 l40 -61 -48 -24 c-38 -19 -273 -123 -490 -217 l-43
-19 50 61 c75 93 105 155 106 216 1 160 -215 203 -286 57 -19 -40 -21 -57 -17
-137 4 -58 14 -114 27 -152 34 -94 34 -95 20 -95 -21 0 -233 -119 -357 -201
-64 -42 -118 -76 -119 -75 -1 1 15 34 35 75 50 100 56 185 18 235 -15 20 -44
41 -70 51 -63 24 -110 14 -160 -36 -39 -40 -39 -40 -60 -20 -25 23 -68 41 -99
41 -42 0 -124 -48 -180 -106 -32 -31 -57 -55 -57 -52 0 25 140 327 197 425
l25 43 34 -15 c48 -20 174 -45 227 -45 115 0 205 60 214 142 10 89 -49 148
-147 148 -57 0 -116 -22 -198 -74 -23 -14 -42 -23 -42 -20 0 20 208 281 273
343 l36 34 57 -38 c215 -143 444 -121 444 43 0 49 -33 101 -80 125 -50 26
-151 18 -259 -22 l-85 -31 35 36 c38 40 254 224 293 249 24 16 27 16 58 -8 80
-60 208 -108 290 -108 134 -1 210 93 159 198 -39 81 -150 104 -280 58 -24 -8
-46 -14 -48 -12 -3 3 305 218 345 241 8 5 27 -3 47 -18 45 -35 160 -91 214
-106 69 -18 143 -14 191 10 87 44 100 153 25 219 -58 50 -143 53 -277 7 -38
-12 -68 -22 -68 -20 0 1 43 34 96 74 52 39 125 96 161 127 l65 55 41 -30 c65
-46 155 -88 229 -106 100 -25 169 -8 222 54 51 61 25 156 -55 198 -37 20 -54
23 -107 18 -52 -4 -148 -32 -247 -72 -11 -4 42 56 117 135 116 120 284 327
353 434 32 50 9 28 -34 -33z m6331 -2647 c-60 -29 -128 -100 -165 -171 -72
-137 -67 124 -68 -3162 0 -1631 -4 -2976 -8 -2990 l-7 -25 -769 0 -770 0 -850
304 c-1048 374 -1667 593 -1805 638 -137 44 -263 63 -432 63 l-138 0 0 2448
c0 1511 4 2476 10 2522 22 167 144 316 305 371 47 17 198 18 2390 18 2172 1
2338 -1 2307 -16z m-8482 -114 c0 -9 18 -53 41 -98 l41 -82 -94 -92 c-52 -50
-111 -113 -132 -139 l-38 -48 -27 29 c-68 72 -154 62 -244 -30 -32 -32 -64
-59 -71 -59 -10 0 -6 32 16 132 15 73 34 155 42 183 8 27 20 69 26 93 l11 42
87 0 c135 0 258 36 306 89 21 23 36 14 36 -20z m-369 -751 l-21 -33 0 32 c0
22 5 33 18 35 26 6 26 2 3 -34z m-138 -328 c-18 -54 -47 -149 -63 -211 l-30
-114 4 242 c3 134 7 247 11 252 3 6 30 -8 59 -31 l53 -41 -34 -97z m-149
-1570 c32 -5 60 -10 62 -13 2 -2 12 -45 23 -96 l19 -92 -22 19 c-30 28 -61 42
-90 42 -36 0 -142 126 -124 148 8 9 22 12 42 7 17 -3 57 -10 90 -15z m4096
-2515 l0 -65 -421 0 c-231 0 -419 4 -417 8 2 4 14 33 27 65 l25 57 393 0 393
0 0 -65z m7510 -1076 c311 -627 566 -1147 568 -1155 3 -12 -691 -14 -4997 -14
-2751 0 -5001 2 -5001 4 0 5 519 1059 524 1063 3 3 517 -174 523 -180 1 -1
-20 -53 -47 -116 -27 -62 -52 -122 -55 -132 -6 -18 3 -19 187 -19 l194 0 29
80 c26 69 33 80 54 80 18 0 22 -4 16 -17 -4 -10 -17 -46 -30 -81 l-24 -62 211
2 211 3 25 73 c20 62 27 72 47 72 l24 0 -25 -72 c-13 -39 -24 -73 -24 -75 0
-2 96 -2 212 -1 l213 3 20 73 c17 62 23 72 42 72 13 0 23 -1 23 -2 0 -2 -9
-32 -20 -68 -11 -36 -20 -68 -20 -72 0 -5 1046 -8 2325 -8 1279 0 2325 2 2325
3 0 2 -13 71 -30 152 -16 81 -30 150 -30 152 0 1 -58 3 -130 3 -71 0 -130 3
-130 7 0 3 7 15 17 25 14 15 32 18 123 18 l106 0 -25 140 -26 140 -32 0 c-26
0 -33 4 -33 20 0 15 7 20 25 20 18 0 25 5 25 19 0 11 -11 76 -25 145 -18 91
-25 155 -24 233 l1 108 20 -97 21 -98 187 0 c174 0 188 1 184 18 -6 27 -34
143 -45 185 l-10 37 -179 0 c-173 0 -180 1 -180 20 0 19 7 20 175 20 119 0
175 3 175 11 0 9 -22 102 -51 212 l-10 37 -144 0 -145 0 0 80 0 80 1048 0
1048 0 564 -1141z m-7600 951 c-131 -46 -227 -107 -485 -304 -492 -377 -932
-711 -1725 -1310 -437 -329 -856 -646 -931 -703 l-136 -103 -2337 2 -2338 3
1403 1090 c771 600 1429 1110 1463 1133 70 50 235 136 316 164 136 48 41 46
2505 47 2310 0 2320 0 2265 -19z"/>
<path d="M10352 9363 l3 -1268 2028 -3 2027 -2 0 1270 0 1270 -2030 0 -2030 0
2 -1267z m458 1157 l0 -100 -225 0 -225 0 0 100 0 100 225 0 225 0 0 -100z
m450 0 l0 -100 -220 0 -220 0 0 100 0 100 220 0 220 0 0 -100z m450 0 l0 -100
-215 0 -215 0 0 100 0 100 215 0 215 0 0 -100z m450 0 l0 -100 -215 0 -215 0
0 100 0 100 215 0 215 0 0 -100z m440 0 l0 -100 -210 0 -210 0 0 100 0 100
210 0 210 0 0 -100z m450 0 l0 -100 -215 0 -215 0 0 100 0 100 215 0 215 0 0
-100z m450 0 l0 -100 -215 0 -215 0 0 100 0 100 215 0 215 0 0 -100z m450 0
l0 -100 -215 0 -215 0 0 100 0 100 215 0 215 0 0 -100z m450 0 l0 -100 -215 0
-215 0 0 100 0 100 215 0 215 0 0 -100z m-3590 -215 l0 -95 -225 0 -225 0 0
95 0 95 225 0 225 0 0 -95z m900 -420 l0 -515 -445 0 -445 0 0 515 0 515 445
0 445 0 0 -515z m450 0 l0 -515 -220 0 -219 0 0 515 0 515 220 0 219 0 0 -515z
m449 0 l0 -515 -219 0 -220 0 0 515 0 515 220 0 220 0 -1 -515z m891 0 l0
-515 -440 0 -440 0 0 515 0 515 440 0 440 0 0 -515z m450 0 l0 -515 -220 0
-219 0 0 515 0 515 220 0 219 0 0 -515z m450 0 l0 -515 -220 0 -220 0 0 515 0
515 220 0 220 0 0 -515z m-3590 210 l0 -95 -225 0 -225 0 0 95 0 95 225 0 225
0 0 -95z m0 -210 l0 -95 -225 0 -225 0 0 95 0 95 225 0 225 0 0 -95z m0 -210
l0 -95 -225 0 -225 0 0 95 0 95 225 0 225 0 0 -95z m0 -210 l0 -95 -225 0
-225 0 0 95 0 95 225 0 225 0 0 -95z m900 -205 l0 -100 -445 0 -445 0 0 100 0
100 445 0 445 0 0 -100z m450 0 l0 -100 -220 0 -220 0 0 100 0 100 220 0 220
0 0 -100z m450 0 l0 -100 -220 0 -220 0 0 100 0 100 220 0 220 0 0 -100z m890
0 l0 -100 -440 0 -440 0 0 100 0 100 440 0 440 0 0 -100z m450 0 l0 -100 -220
0 -220 0 0 100 0 100 220 0 220 0 0 -100z m450 0 l0 -100 -220 0 -220 0 0 100
0 100 220 0 220 0 0 -100z m-3590 -5 l0 -95 -225 0 -225 0 0 95 0 95 225 0
225 0 0 -95z m900 -205 l0 -100 -445 0 -445 0 0 100 0 100 445 0 445 0 0 -100z
m450 0 l0 -100 -220 0 -220 0 0 100 0 100 220 0 220 0 0 -100z m450 0 l0 -100
-220 0 -220 0 0 100 0 100 220 0 220 0 0 -100z m890 0 l0 -100 -440 0 -440 0
0 100 0 100 440 0 440 0 0 -100z m450 0 l0 -100 -220 0 -220 0 0 100 0 100
220 0 220 0 0 -100z m450 0 l0 -100 -220 0 -220 0 0 100 0 100 220 0 220 0 0
-100z m-3590 -5 l0 -95 -225 0 -225 0 0 95 0 95 225 0 225 0 0 -95z m900 -205
l0 -100 -445 0 -445 0 0 100 0 100 445 0 445 0 0 -100z m450 0 l0 -100 -220 0
-220 0 0 100 0 100 220 0 220 0 0 -100z m450 0 l0 -100 -220 0 -220 0 0 100 0
100 220 0 220 0 0 -100z m890 0 l0 -100 -440 0 -440 0 0 100 0 100 440 0 440
0 0 -100z m450 0 l0 -100 -220 0 -220 0 0 100 0 100 220 0 220 0 0 -100z m450
0 l0 -100 -220 0 -220 0 0 100 0 100 220 0 220 0 0 -100z m-3590 -5 l0 -95
-225 0 -225 0 0 95 0 95 225 0 225 0 0 -95z m900 -205 l0 -100 -445 0 -445 0
0 100 0 100 445 0 445 0 0 -100z m450 0 l0 -100 -220 0 -220 0 0 100 0 100
220 0 220 0 0 -100z m450 0 l0 -100 -220 0 -220 0 0 100 0 100 220 0 220 0 0
-100z m890 0 l0 -100 -440 0 -440 0 0 100 0 100 440 0 440 0 0 -100z m450 0
l0 -100 -220 0 -220 0 0 100 0 100 220 0 220 0 0 -100z m450 0 l0 -100 -220 0
-220 0 0 100 0 100 220 0 220 0 0 -100z m-3590 -5 l0 -95 -225 0 -225 0 0 95
0 95 225 0 225 0 0 -95z m900 -205 l0 -100 -445 0 -445 0 0 100 0 100 445 0
445 0 0 -100z m450 0 l0 -100 -220 0 -220 0 0 100 0 100 220 0 220 0 0 -100z
m450 0 l0 -100 -220 0 -220 0 0 100 0 100 220 0 220 0 0 -100z m890 0 l0 -100
-440 0 -440 0 0 100 0 100 440 0 440 0 0 -100z m450 0 l0 -100 -220 0 -220 0
0 100 0 100 220 0 220 0 0 -100z m450 0 l0 -100 -220 0 -220 0 0 100 0 100
220 0 220 0 0 -100z m-3590 -5 l0 -95 -225 0 -225 0 0 95 0 95 225 0 225 0 0
-95z m900 -210 l0 -105 -445 0 -445 0 0 105 0 105 445 0 445 0 0 -105z m450 0
l0 -105 -220 0 -220 0 0 105 0 105 220 0 220 0 0 -105z m450 0 l0 -105 -220 0
-220 0 0 105 0 105 220 0 220 0 0 -105z m890 0 l0 -105 -440 0 -440 0 0 105 0
105 440 0 440 0 0 -105z m450 0 l0 -105 -220 0 -220 0 0 105 0 105 220 0 220
0 0 -105z m450 0 l0 -105 -220 0 -220 0 0 105 0 105 220 0 220 0 0 -105z
m-3590 -5 l0 -100 -225 0 -225 0 0 100 0 100 225 0 225 0 0 -100z"/>
<path d="M11260 10200 c0 -5 5 -10 10 -10 6 0 10 5 10 10 0 6 -4 10 -10 10 -5
0 -10 -4 -10 -10z"/>
<path d="M11260 9990 c0 -5 5 -10 10 -10 6 0 10 5 10 10 0 6 -4 10 -10 10 -5
0 -10 -4 -10 -10z"/>
<path d="M11260 9780 c0 -5 5 -10 10 -10 6 0 10 5 10 10 0 6 -4 10 -10 10 -5
0 -10 -4 -10 -10z"/>
<path d="M11260 9570 c0 -5 5 -10 10 -10 6 0 10 5 10 10 0 6 -4 10 -10 10 -5
0 -10 -4 -10 -10z"/>
<path d="M13050 10200 c0 -5 5 -10 10 -10 6 0 10 5 10 10 0 6 -4 10 -10 10 -5
0 -10 -4 -10 -10z"/>
<path d="M13050 9990 c0 -5 5 -10 10 -10 6 0 10 5 10 10 0 6 -4 10 -10 10 -5
0 -10 -4 -10 -10z"/>
<path d="M13050 9780 c0 -5 5 -10 10 -10 6 0 10 5 10 10 0 6 -4 10 -10 10 -5
0 -10 -4 -10 -10z"/>
<path d="M13050 9570 c0 -5 5 -10 10 -10 6 0 10 5 10 10 0 6 -4 10 -10 10 -5
0 -10 -4 -10 -10z"/>
<path d="M10350 6950 l0 -970 2033 2 2032 3 3 968 2 967 -2035 0 -2035 0 0
-970z m830 695 l0 -125 -365 0 -365 0 0 125 0 125 365 0 365 0 0 -125z m410 0
l0 -125 -200 0 -200 0 0 125 0 125 200 0 200 0 0 -125z m410 0 l0 -125 -200 0
-200 0 0 125 0 125 200 0 200 0 0 -125z m410 0 l0 -125 -200 0 -200 0 0 125 0
125 200 0 200 0 0 -125z m810 0 l0 -125 -400 0 -400 0 0 125 0 125 400 0 400
0 0 -125z m410 0 l0 -125 -200 0 -200 0 0 125 0 125 200 0 200 0 0 -125z m410
0 l0 -125 -200 0 -200 0 0 125 0 125 200 0 200 0 0 -125z m370 0 l0 -125 -180
0 -180 0 0 125 0 125 180 0 180 0 0 -125z m-3230 -255 l0 -120 -365 0 -365 0
0 120 0 120 365 0 365 0 0 -120z m410 0 l0 -120 -200 0 -200 0 0 120 0 120
200 0 200 0 0 -120z m410 0 l0 -120 -200 0 -200 0 0 120 0 120 200 0 200 0 0
-120z m410 0 l0 -120 -200 0 -200 0 0 120 0 120 200 0 200 0 0 -120z m810 0
l0 -120 -400 0 -400 0 0 120 0 120 400 0 400 0 0 -120z m408 -2 c0 -68 -3
-108 -5 -90 l-4 32 -95 0 -94 0 0 -30 0 -30 -100 0 -100 0 0 120 0 120 200 0
200 0 -2 -122z m412 32 l0 -90 -29 0 c-25 0 -30 -4 -33 -27 l-3 -28 -167 -3
-168 -2 0 120 0 120 200 0 200 0 0 -90z m370 -30 l0 -120 -125 0 -125 0 0 30
c0 30 -1 30 -55 30 l-55 0 0 90 0 90 180 0 180 0 0 -120z m-3230 -148 c0 -12
-20 -27 -62 -47 -42 -19 -85 -52 -131 -97 l-67 -68 -235 0 -235 0 0 115 0 115
365 0 c344 0 365 -1 365 -18z m410 -27 l0 -44 -47 24 c-90 44 -204 59 -310 41
-36 -6 -43 -5 -43 8 0 14 24 16 200 16 l200 0 0 -45z m410 -70 l0 -115 -137 0
-138 0 -24 35 c-13 20 -41 49 -63 66 -35 28 -38 35 -38 80 l0 49 200 0 200 0
0 -115z m410 0 l0 -115 -200 0 -200 0 0 115 0 115 200 0 200 0 0 -115z m810 0
l0 -115 -400 0 -400 0 0 115 0 115 400 0 400 0 0 -115z m210 0 l0 -115 -100 0
-100 0 0 115 0 115 100 0 100 0 0 -115z m197 -57 c-2 -35 -3 -9 -3 57 0 66 1
94 3 63 2 -32 2 -86 0 -120z m353 57 l0 -115 -170 0 -170 0 0 115 0 115 170 0
170 0 0 -115z m430 0 l0 -115 -125 0 -125 0 0 115 0 115 125 0 125 0 0 -115z
m-3517 -181 c-14 -30 -30 -84 -36 -120 l-11 -64 -198 0 -198 0 0 120 0 120
234 -1 234 0 -25 -55z m1107 -64 l0 -120 -95 0 c-52 0 -95 1 -95 3 0 29 -27
133 -46 175 -13 30 -24 56 -24 58 0 2 59 4 130 4 l130 0 0 -120z m410 0 l0
-120 -200 0 -200 0 0 120 0 120 200 0 200 0 0 -120z m810 75 c0 -43 -1 -45
-30 -45 l-30 0 0 -75 0 -75 -370 0 -370 0 0 120 0 120 400 0 400 0 0 -45z
m210 -75 l0 -120 -40 0 -40 0 0 75 0 74 -57 3 -58 3 -3 43 -3 42 100 0 101 0
0 -120z m197 -62 c-2 -35 -3 -7 -3 62 0 69 1 97 3 63 2 -35 2 -91 0 -125z
m351 60 l3 -118 -46 0 -45 0 0 80 0 80 -95 0 -95 0 0 -80 0 -80 -30 0 -30 0 0
120 0 120 168 -2 167 -3 3 -117z m432 2 l0 -120 -125 0 -125 0 0 120 0 120
125 0 125 0 0 -120z m-2623 -105 c11 -115 -44 -260 -132 -351 -64 -65 -173
-120 -257 -130 l-58 -7 0 226 0 226 213 70 c242 79 223 82 234 -34z m-933 -80
c20 -169 117 -305 273 -382 29 -14 53 -29 53 -34 0 -5 -161 -9 -365 -9 l-365
0 0 240 0 240 199 0 198 0 7 -55z m1146 -185 l0 -240 -200 0 -200 0 0 40 c0
33 6 44 35 67 43 34 108 124 135 188 11 26 25 78 32 116 l11 69 93 0 94 0 0
-240z m410 0 l0 -240 -200 0 -200 0 0 240 0 240 200 0 200 0 0 -240z m750 0
l0 -240 -40 0 -40 0 0 205 0 205 -95 0 -95 0 0 -205 0 -205 -235 0 -235 0 0
240 0 240 370 0 370 0 0 -240z m270 0 l0 -240 -40 0 -40 0 0 240 0 240 40 0
40 0 0 -240z m197 -122 c-1 -68 -3 -13 -3 122 0 135 2 190 3 123 2 -68 2 -178
0 -245z m73 122 l0 -240 -30 0 -30 0 0 240 0 240 30 0 30 0 0 -240z m279 0 l0
-240 -44 0 -45 0 0 240 0 240 45 0 44 0 0 -240z m431 0 l0 -240 -125 0 -124 0
0 240 0 240 124 0 125 0 0 -240z m-2820 -205 l0 -35 -92 1 -93 1 47 13 c25 7
63 21 85 32 52 28 53 28 53 -12z m-341 -31 c2 -2 -10 -4 -27 -4 -18 0 -32 5
-32 10 0 9 47 4 59 -6z m-69 -159 l0 -145 -412 2 c-227 1 -392 3 -365 5 l47 4
0 140 0 139 365 0 365 0 0 -145z m410 0 l0 -145 -200 0 -200 0 0 145 0 145
200 0 200 0 0 -145z m410 0 l0 -145 -200 0 -200 0 0 145 0 145 200 0 200 0 0
-145z m410 0 l0 -145 -200 0 -200 0 0 145 0 145 200 0 200 0 0 -145z m810 0
l0 -145 -400 0 -400 0 0 145 0 145 400 0 400 0 0 -145z m410 0 l0 -145 -200 0
-200 0 0 145 0 145 200 0 200 0 0 -145z m410 0 l0 -145 -200 0 -200 0 0 145 0
145 200 0 200 0 0 -145z m370 0 l0 -145 -180 0 -180 0 0 145 0 145 180 0 180
0 0 -145z"/>
<path d="M10770 6530 c0 -5 5 -10 10 -10 6 0 10 5 10 10 0 6 -4 10 -10 10 -5
0 -10 -4 -10 -10z"/>
<path d="M12810 6530 c0 -5 5 -10 10 -10 6 0 10 5 10 10 0 6 -4 10 -10 10 -5
0 -10 -4 -10 -10z"/>
<path d="M15090 5808 c0 -7 13 -65 28 -128 l27 -115 183 -3 c172 -2 183 -1
178 15 -3 10 -19 69 -37 131 l-32 112 -174 0 c-132 0 -173 -3 -173 -12z"/>
<path d="M15501 5753 c10 -38 27 -95 37 -128 l18 -60 181 -3 182 -2 -43 127
-43 128 -176 3 -176 2 20 -67z"/>
<path d="M15881 5813 c0 -5 19 -62 42 -128 l42 -120 179 -3 178 -2 -6 24 c-3
13 -24 71 -47 130 l-41 106 -174 0 c-96 0 -174 -3 -173 -7z"/>
<path d="M16280 5813 c0 -4 21 -62 47 -130 l48 -123 152 0 c103 0 153 4 153
11 0 6 -23 64 -51 130 l-51 119 -149 0 c-82 0 -149 -3 -149 -7z"/>
<path d="M15160 5513 c0 -5 12 -59 26 -120 l27 -113 188 0 c104 0 189 1 189 3
0 1 -16 54 -34 117 l-33 115 -182 3 c-99 1 -181 -1 -181 -5z"/>
<path d="M15572 5503 c3 -10 18 -64 34 -120 l29 -103 188 0 c177 0 188 1 183
18 -4 10 -21 63 -39 117 l-34 100 -183 3 c-171 2 -182 1 -178 -15z"/>
<path d="M15984 5502 c4 -10 21 -63 39 -117 l34 -100 186 -3 c103 -1 187 1
187 5 0 4 -19 58 -42 120 l-43 113 -183 0 c-172 0 -183 -1 -178 -18z"/>
<path d="M16416 5453 c14 -38 35 -92 46 -120 l19 -53 164 0 164 0 -35 83 c-20
45 -43 99 -51 120 l-15 37 -159 0 -159 0 26 -67z"/>
<path d="M14800 5231 c0 -4 11 -63 25 -131 14 -68 25 -124 25 -126 0 -2 88 -4
195 -4 112 0 195 4 195 9 0 9 -46 208 -56 244 -5 15 -23 17 -195 17 -104 0
-189 -4 -189 -9z"/>
<path d="M15230 5230 c0 -20 52 -235 59 -243 4 -4 93 -6 198 -5 l190 3 -36
125 -36 125 -187 3 c-121 1 -188 -1 -188 -8z"/>
<path d="M16080 5228 c0 -7 18 -68 41 -135 l41 -123 194 0 c107 0 194 3 194 8
0 4 -22 63 -49 132 l-48 125 -187 3 c-145 2 -186 0 -186 -10z"/>
<path d="M15671 5163 c11 -38 27 -94 36 -125 l16 -58 195 0 c151 0 193 3 190
13 -3 6 -22 63 -42 125 l-38 112 -188 0 -189 0 20 -67z"/>
<path d="M16515 5193 c8 -21 30 -76 48 -123 l33 -85 167 -3 c92 -1 167 1 167
6 0 4 -22 60 -49 123 l-50 114 -165 3 -166 2 15 -37z"/>
<path d="M14864 4903 c3 -16 15 -79 27 -140 l22 -113 203 0 c112 0 204 1 204
3 -1 1 -16 63 -34 137 l-33 135 -197 3 -198 2 6 -27z"/>
<path d="M15303 4908 c3 -13 18 -76 33 -140 l28 -118 203 0 c112 0 203 3 203
8 0 4 -17 66 -38 137 l-38 130 -198 3 -198 2 5 -22z"/>
<path d="M15745 4908 c3 -13 21 -75 39 -138 l33 -115 202 -3 c120 -1 201 1
201 7 0 5 -21 68 -46 140 l-46 131 -194 0 -194 0 5 -22z"/>
<path d="M16180 4922 c0 -4 20 -66 43 -137 l44 -130 205 -3 206 -2 -53 137
-53 138 -196 3 c-108 1 -196 -1 -196 -6z"/>
<path d="M16622 4918 c3 -7 27 -70 53 -140 l48 -128 178 0 177 0 -60 140 -61
140 -169 0 c-132 0 -169 -3 -166 -12z"/>
<path d="M14923 4593 c2 -5 17 -74 32 -155 l27 -148 209 0 c193 0 209 1 209
18 -1 9 -16 78 -34 152 l-34 135 -207 3 c-113 1 -204 -1 -202 -5z"/>
<path d="M15380 4590 c0 -6 16 -76 36 -155 l36 -145 209 0 c161 0 209 3 209
13 0 6 -18 75 -40 152 -22 77 -40 141 -40 142 0 2 -92 3 -205 3 -133 0 -205
-4 -205 -10z"/>
<path d="M15876 4453 c24 -82 44 -151 44 -155 0 -5 95 -8 210 -8 116 0 210 3
210 8 0 4 -22 73 -48 152 l-49 145 -205 3 -206 2 44 -147z"/>
<path d="M16292 4588 c3 -7 26 -77 52 -155 l48 -143 209 0 c115 0 209 3 209 7
0 4 -25 74 -56 155 l-57 148 -205 0 c-159 0 -203 -3 -200 -12z"/>
<path d="M16801 4449 c32 -84 60 -154 62 -156 2 -2 85 -2 185 -1 l181 3 -66
153 -65 152 -178 0 -178 0 59 -151z"/>
<path d="M3720 4552 l-1204 -917 1929 -3 1929 -2 38 26 c21 15 43 34 50 42 7
9 -9 -1 -36 -21 l-49 -37 -170 0 -170 0 126 95 c70 53 127 98 127 100 0 3 -60
-40 -134 -95 l-133 -100 -183 2 -183 3 116 88 c64 48 117 90 117 92 0 3 -57
-37 -127 -90 l-126 -95 -186 0 c-102 0 -181 4 -176 8 6 5 47 37 93 71 45 34
82 64 82 67 0 3 -45 -29 -100 -71 l-99 -75 -187 0 -187 0 67 50 c36 28 66 53
66 56 0 2 -33 -20 -73 -51 l-74 -55 -184 0 -184 1 34 27 c72 56 83 71 17 23
l-69 -51 -186 0 -186 1 30 22 c16 12 41 33 55 45 14 13 -3 3 -37 -22 l-61 -46
-187 0 -186 0 28 26 28 26 -36 -26 c-35 -26 -38 -26 -219 -26 l-183 0 19 22
19 21 -30 -22 c-29 -20 -39 -21 -214 -19 l-184 3 116 88 c64 48 117 90 117 93
0 3 -57 -38 -126 -90 l-125 -96 -192 1 c-111 1 -171 5 -142 8 45 6 68 20 215
134 l165 127 154 0 154 0 -47 -35 c-25 -20 -46 -38 -46 -41 0 -2 24 13 53 36
l54 40 183 0 183 0 -19 -22 -19 -22 29 22 c27 21 39 22 214 22 174 0 184 -1
171 -17 -13 -17 -12 -17 7 0 19 16 41 17 208 15 l187 -3 -106 -78 c-58 -44
-108 -84 -111 -89 -4 -6 48 30 114 81 l121 91 187 0 187 0 -106 -80 c-59 -44
-107 -83 -107 -85 0 -3 51 33 114 80 l113 85 183 -2 183 -3 -96 -73 c-53 -40
-97 -75 -97 -77 0 -3 48 31 107 75 l106 80 186 0 c102 0 181 -4 175 -8 -5 -5
-37 -30 -71 -56 -35 -26 -63 -49 -63 -52 0 -3 36 22 79 56 l80 60 187 0 187 0
-47 -35 c-25 -20 -46 -38 -46 -41 0 -2 24 13 53 36 l54 40 184 0 184 0 -40
-36 -40 -35 49 35 49 36 170 0 170 0 -126 -95 c-70 -53 -127 -98 -127 -100 0
-3 63 42 140 100 77 58 140 107 140 108 0 1 -80 1 -177 -1 l-177 -3 67 51 c37
28 67 53 67 56 0 2 -33 -20 -73 -51 l-74 -55 -184 0 -184 1 34 27 c72 56 83
71 17 23 l-69 -51 -186 0 -185 0 34 31 35 31 -41 -31 -42 -31 -187 0 c-146 0
-185 3 -179 13 6 9 5 9 -7 0 -12 -10 -108 -13 -392 -13 -208 0 -377 2 -377 4
0 2 52 42 115 90 63 47 115 89 115 92 0 3 -57 -38 -126 -91 l-126 -95 -184 2
-185 3 85 63 c47 35 89 69 92 74 4 6 -38 -23 -94 -65 l-101 -77 -187 0 -187 0
86 65 c48 36 87 68 87 70 0 3 -42 -26 -94 -65 l-93 -70 -183 2 -183 3 76 58
c42 31 77 60 77 63 0 2 -39 -25 -87 -61 l-86 -65 -149 0 c-81 0 -148 2 -148 4
0 2 63 52 139 110 l140 106 153 0 153 -1 -30 -22 c-16 -12 -41 -33 -55 -45
-14 -13 3 -3 37 22 l61 46 188 0 187 0 -47 -35 c-25 -20 -46 -38 -46 -41 0 -2
24 13 53 36 l54 40 184 0 184 0 -40 -36 -40 -35 49 35 49 36 185 0 c174 0 184
-1 171 -17 -13 -17 -12 -17 7 0 19 16 41 17 208 15 l187 -3 -126 -94 c-69 -51
-128 -98 -131 -103 -4 -6 57 37 134 96 l141 106 187 0 187 0 -106 -80 c-59
-44 -107 -83 -107 -85 0 -3 51 33 114 80 l113 85 183 -2 183 -3 -96 -73 c-53
-40 -97 -75 -97 -77 0 -3 48 31 107 75 l106 80 186 0 c102 0 181 -4 176 -8 -6
-5 -38 -30 -72 -56 -35 -26 -63 -49 -63 -52 0 -3 36 22 79 56 l80 60 187 0
187 0 -67 -50 c-36 -28 -66 -53 -66 -56 0 -2 33 20 73 51 l74 55 167 0 c125 0
165 -3 160 -12 -8 -13 -2 -9 134 95 56 43 102 80 102 83 0 2 -48 -32 -107 -76
l-106 -80 -166 0 -166 0 40 36 40 35 -49 -35 -49 -36 -186 0 -185 0 34 30 35
31 -44 -31 -44 -30 -184 0 c-145 0 -183 3 -177 13 6 9 4 9 -8 -1 -12 -9 -62
-12 -199 -10 l-184 3 123 93 c67 51 122 95 122 98 0 3 -60 -40 -132 -96 l-133
-100 -182 0 c-101 0 -183 2 -183 4 0 2 52 42 115 90 63 47 115 89 115 91 0 3
-57 -37 -127 -90 l-126 -95 -186 0 c-102 0 -181 4 -175 8 5 5 46 37 92 71 45
34 82 64 82 67 0 3 -45 -29 -100 -71 l-99 -75 -183 0 -183 1 26 22 c14 12 43
37 65 55 21 18 5 8 -37 -23 l-76 -55 -183 2 -183 3 148 113 148 112 185 0
c102 0 182 -4 176 -8 -5 -5 -37 -30 -71 -56 -35 -26 -63 -49 -63 -52 0 -2 36
23 81 56 l81 60 181 0 182 -1 -45 -40 -45 -41 56 41 56 41 183 0 183 0 -19
-22 -19 -22 29 22 c27 21 39 22 214 22 172 0 184 -1 171 -17 -13 -16 -13 -16
11 0 21 14 51 17 202 17 116 0 178 -4 178 -10 0 -7 6 -7 20 0 12 7 86 9 197 8
l178 -3 -102 -78 c-57 -43 -103 -80 -103 -83 0 -2 51 34 114 81 l113 85 183
-2 183 -3 -96 -73 c-53 -40 -97 -75 -97 -77 0 -3 48 31 107 75 l106 80 166 0
166 0 -40 -36 c-22 -19 15 6 83 56 67 50 122 93 122 96 0 2 -33 -20 -73 -51
l-74 -55 -167 0 c-131 0 -166 3 -160 13 6 9 5 9 -7 0 -12 -10 -108 -13 -392
-13 -208 0 -377 2 -377 4 0 2 52 42 115 90 63 47 115 89 115 91 0 3 -57 -37
-127 -90 l-126 -95 -186 0 c-102 0 -181 4 -175 8 5 5 46 37 92 71 45 34 82 64
82 67 0 3 -45 -29 -100 -71 l-99 -75 -187 0 -187 0 86 65 c48 36 87 68 87 70
0 3 -42 -26 -93 -65 l-94 -70 -184 0 -184 1 34 27 c72 56 83 71 17 23 l-69
-51 -186 0 -186 1 30 22 c16 12 41 33 55 45 14 13 -3 3 -37 -22 l-61 -46 -188
0 -187 0 47 35 c25 20 46 38 46 41 0 2 -24 -13 -53 -36 l-54 -40 -183 0 -183
0 19 22 19 21 -30 -22 c-29 -20 -40 -21 -181 -19 l-150 3 142 108 143 108 151
-3 151 -3 -105 -78 c-59 -44 -109 -84 -112 -89 -4 -6 48 30 114 81 l121 91
187 0 187 0 -86 -65 c-48 -36 -87 -68 -87 -70 0 -3 42 26 94 65 l93 70 183 -2
183 -3 -76 -58 c-42 -31 -77 -60 -77 -63 0 -2 39 25 87 61 l86 65 186 0 c102
0 181 -4 175 -8 -5 -5 -37 -30 -71 -56 -35 -26 -63 -49 -63 -52 0 -3 36 22 79
56 l80 60 187 0 187 0 -47 -35 c-25 -20 -46 -38 -46 -41 0 -2 24 13 53 36 l54
40 184 0 184 0 -40 -36 -40 -35 49 35 49 36 185 0 c174 0 184 -1 171 -17 -13
-17 -13 -17 7 0 18 15 44 17 208 17 147 0 186 -3 180 -12 -6 -10 -4 -10 8 0
12 9 62 12 199 10 l184 -3 -122 -93 c-68 -51 -123 -95 -123 -97 0 -3 60 40
133 95 l134 100 168 0 168 0 -67 -50 c-36 -28 -66 -53 -66 -56 0 -7 450 333
475 359 l20 21 -21 -17 c-19 -15 -42 -17 -189 -15 l-168 3 96 73 c53 40 97 75
97 77 0 3 -48 -31 -107 -75 l-106 -80 -186 0 c-102 0 -181 4 -175 8 5 5 46 37
92 71 45 34 82 64 82 67 0 3 -45 -29 -100 -71 l-99 -75 -187 0 -187 0 67 50
c36 28 66 53 66 56 0 2 -33 -20 -73 -51 l-74 -55 -184 0 -184 1 34 27 c72 56
83 71 17 23 l-69 -51 -186 0 -185 0 34 30 35 31 -44 -31 -44 -30 -184 0 -184
0 28 26 28 26 -36 -26 -36 -26 -184 2 -184 3 123 93 c67 51 122 95 122 98 0 3
-60 -40 -132 -96 l-133 -100 -182 0 c-101 0 -183 2 -183 4 0 2 52 42 115 90
63 47 115 89 115 91 0 3 -57 -37 -127 -90 l-126 -95 -186 0 c-102 0 -181 4
-176 9 6 4 56 43 113 85 56 42 102 79 102 82 0 2 -54 -36 -120 -86 l-120 -91
-150 3 -150 3 140 105 c77 58 181 138 232 178 176 139 160 132 326 132 l145 0
-24 -26 -24 -26 39 26 c38 26 41 26 219 26 l180 0 -19 -22 -19 -22 29 22 c27
21 39 22 214 22 172 0 184 -1 171 -17 -13 -16 -13 -16 11 0 21 14 51 17 202
17 98 0 178 -3 178 -7 -1 -8 -185 -149 -222 -170 -11 -6 -23 -15 -27 -20 -3
-5 -52 -44 -108 -87 -57 -42 -103 -79 -103 -81 0 -4 50 32 368 273 l123 92
180 0 c98 0 179 -2 179 -5 0 -2 -36 -32 -80 -65 -44 -33 -80 -63 -80 -66 0 -2
42 27 94 66 l93 70 183 -2 183 -3 -76 -58 c-42 -31 -77 -60 -77 -63 0 -2 39
25 87 61 l86 65 179 0 c98 0 178 -3 178 -7 0 -5 -25 -26 -56 -48 -30 -21 -61
-46 -67 -54 -7 -8 26 13 71 47 l84 62 181 0 182 -1 -45 -40 c-44 -40 -44 -40
-5 -12 70 52 74 53 261 53 l177 0 -19 -22 -19 -21 30 22 c29 20 39 21 195 19
l165 -3 -102 -78 c-57 -43 -103 -80 -103 -83 0 -5 441 326 470 352 12 12 -289
14 -1920 13 l-1935 -1 -1205 -916z m170 -177 c0 -2 -36 -32 -80 -65 -44 -33
-80 -63 -80 -66 0 -2 42 27 94 66 l93 70 183 -2 183 -3 -148 -112 -148 -113
-186 0 -186 1 30 22 c63 47 77 66 16 23 l-63 -46 -151 0 c-91 0 -147 4 -141 9
5 5 72 57 149 115 l140 106 148 0 c81 0 147 -2 147 -5z"/>
<path d="M5700 5159 c-97 -74 -168 -135 -115 -98 48 32 225 170 225 174 0 8 1
8 -110 -76z"/>
<path d="M5302 5151 c-104 -79 -168 -135 -102 -90 19 13 37 27 40 30 3 3 42
33 88 68 45 34 82 64 82 66 0 7 2 9 -108 -74z"/>
<path d="M7991 5135 c-123 -93 -203 -162 -106 -92 28 20 55 40 60 45 6 4 47
36 93 70 45 35 82 65 82 67 0 8 2 9 -129 -90z"/>
<path d="M4920 5155 c-47 -35 -101 -77 -120 -95 l-35 -31 41 28 c89 61 221
167 202 162 -2 0 -41 -29 -88 -64z"/>
<path d="M7645 5164 c-16 -13 -52 -40 -80 -59 -27 -19 -68 -50 -90 -70 l-40
-36 50 35 c72 51 186 140 192 148 7 13 -1 9 -32 -18z"/>
<path d="M7190 5115 c-25 -19 -49 -38 -55 -43 -5 -4 -38 -29 -72 -55 -35 -27
-63 -50 -63 -52 0 -6 164 115 210 154 47 41 35 38 -20 -4z"/>
<path d="M6730 5059 c-133 -101 -164 -133 -45 -46 91 67 164 127 155 126 -3 0
-52 -36 -110 -80z"/>
<path d="M6399 5102 c-98 -73 -239 -183 -239 -187 0 -6 239 171 265 196 27 26
17 23 -26 -9z"/>
<path d="M8258 5072 c-18 -16 -79 -63 -135 -106 -57 -42 -103 -79 -103 -82 0
-2 63 43 140 101 77 58 140 108 140 110 0 10 -10 4 -42 -23z"/>
<path d="M6780 4509 c-58 -44 -112 -87 -120 -96 -8 -9 40 25 108 76 102 77
135 104 120 100 -2 0 -50 -36 -108 -80z"/>
<path d="M6090 4279 c-58 -44 -112 -87 -120 -96 -8 -9 40 25 108 76 102 77
135 104 120 100 -2 0 -50 -36 -108 -80z"/>
<path d="M6900 4039 c-58 -44 -112 -87 -120 -96 -8 -9 40 25 108 76 102 77
135 104 120 100 -2 0 -50 -36 -108 -80z"/>
<path d="M5279 3953 c-13 -16 -12 -17 4 -4 16 13 21 21 13 21 -2 0 -10 -8 -17
-17z"/>
<path d="M3910 3799 c-58 -44 -112 -87 -120 -96 -8 -9 40 25 108 76 102 77
135 104 120 100 -2 0 -50 -36 -108 -80z"/>
<path d="M3510 3789 c-58 -44 -112 -87 -120 -96 -8 -9 40 25 108 76 102 77
135 104 120 100 -2 0 -50 -36 -108 -80z"/>
<path d="M9920 12970 l0 -200 280 0 280 0 0 -500 0 -500 160 0 160 0 0 500 0
500 2445 0 2445 0 0 -500 0 -500 165 0 165 0 0 500 0 500 355 0 355 0 0 200 0
200 -3405 0 -3405 0 0 -200z"/>
<path d="M4642 11580 c0 -14 2 -19 5 -12 2 6 2 18 0 25 -3 6 -5 1 -5 -13z"/>
</g>
</svg>
