<?xml version="1.0" standalone="no"?>
<!DOCTYPE svg PUBLIC "-//W3C//DTD SVG 20010904//EN"
 "http://www.w3.org/TR/2001/REC-SVG-20010904/DTD/svg10.dtd">
<svg version="1.0" xmlns="http://www.w3.org/2000/svg"
 width="2000.000000pt" height="2000.000000pt" viewBox="0 0 2000.000000 2000.000000"
 preserveAspectRatio="xMidYMid meet">

<g transform="translate(0.000000,2000.000000) scale(0.100000,-0.100000)"
fill="#000000" stroke="none">
<path d="M10563 16201 c-194 -75 -352 -139 -350 -143 6 -21 432 -437 436 -426
2 7 64 168 138 357 74 189 133 344 131 346 -2 1 -162 -59 -355 -134z m175
-225 l-112 -287 -173 173 c-95 95 -173 176 -173 179 0 6 562 228 568 224 1 -1
-48 -131 -110 -289z"/>
<path d="M7990 16257 c0 -11 132 -303 200 -444 99 -203 148 -281 213 -338 47
-41 118 -75 156 -75 9 0 101 85 205 189 l189 189 -12 33 c-20 59 -60 116 -112
163 -106 96 -357 188 -689 255 -58 12 -115 23 -127 26 -13 3 -23 4 -23 2z
m265 -97 c404 -99 587 -198 638 -344 9 -27 4 -34 -163 -201 l-173 -173 -39 14
c-113 40 -191 156 -380 569 -81 175 -81 175 -62 175 9 0 89 -18 179 -40z"/>
<path d="M11370 16216 c0 -12 152 -340 216 -468 112 -221 178 -296 293 -336
l35 -12 175 181 c97 100 178 186 179 191 8 19 -53 123 -96 165 -95 91 -333
181 -662 253 -52 11 -105 22 -117 25 -13 3 -23 3 -23 1z"/>
<path d="M9816 15681 c-216 -216 -354 -347 -362 -343 -6 4 -45 37 -85 74 -89
80 -124 108 -136 108 -10 0 -413 -403 -413 -413 0 -6 136 -166 160 -187 40
-38 53 -22 -313 -388 l-347 -347 225 -225 225 -225 343 343 c188 188 347 342
354 342 6 0 47 -33 90 -73 396 -372 817 -699 1054 -819 93 -47 111 -53 168
-53 57 0 66 3 84 27 18 24 19 32 8 84 -27 139 -156 345 -420 674 -187 233
-298 361 -468 540 -35 36 -63 70 -63 75 0 6 157 168 350 360 l350 350 -222
222 c-123 123 -225 223 -228 223 -3 0 -162 -157 -354 -349z m552 96 l192 -192
-338 -338 -337 -337 -197 196 -196 196 334 334 c184 184 338 334 342 334 4 0
94 -87 200 -193z m-1029 -395 c45 -40 81 -79 81 -85 0 -15 -361 -377 -375
-377 -12 0 -165 173 -165 186 0 5 80 88 177 186 114 114 181 174 189 170 7 -4
49 -40 93 -80z m324 -312 l192 -189 -195 -196 -195 -195 -190 190 c-105 104
-190 195 -190 202 0 16 356 376 373 377 7 1 100 -84 205 -189z m-558 -940
c-181 -181 -335 -330 -340 -330 -11 0 -385 372 -385 383 0 4 149 156 331 338
l331 332 197 -197 196 -196 -330 -330z m861 628 c155 -162 351 -392 532 -623
268 -342 397 -603 312 -630 -91 -29 -469 213 -875 558 -115 98 -435 389 -435
396 0 8 373 381 381 381 3 0 42 -37 85 -82z"/>
<path d="M13191 15666 l-324 -324 210 -210 210 -210 324 324 324 324 -210 210
-210 210 -324 -324z"/>
<path d="M8785 15550 l-139 -140 12 -47 c13 -46 56 -125 104 -190 l24 -32 207
207 c114 113 204 208 199 211 -92 70 -209 131 -251 131 -9 0 -79 -63 -156
-140z m252 65 c122 -64 127 -46 -66 -239 -144 -144 -172 -168 -185 -157 -21
18 -64 93 -82 143 l-15 42 123 123 c68 68 130 123 140 123 9 0 47 -16 85 -35z"/>
<path d="M12382 15287 l-193 -193 103 -115 c56 -62 194 -207 307 -320 555
-555 1087 -992 1382 -1134 218 -105 276 -52 175 160 -100 211 -408 616 -762
1000 -255 278 -783 795 -811 795 -5 0 -95 -87 -201 -193z"/>
<path d="M12015 14490 l-320 -320 210 -210 210 -210 320 320 320 320 -210 210
-210 210 -320 -320z"/>
<path d="M8143 14008 c-151 -154 -167 -180 -166 -273 1 -74 24 -118 110 -207
94 -97 144 -127 217 -135 95 -10 130 11 294 171 l143 140 -223 223 c-123 123
-225 223 -228 223 -3 0 -69 -64 -147 -142z m345 -111 l192 -192 -122 -122
c-127 -127 -168 -153 -235 -153 -61 1 -112 32 -202 123 -69 71 -86 93 -96 135
-13 48 -7 112 13 148 10 18 244 254 251 254 3 0 93 -87 199 -193z"/>
<path d="M11498 13972 c-105 -106 -138 -147 -147 -177 -16 -58 -13 -104 10
-155 24 -53 158 -193 211 -221 50 -26 146 -26 196 0 20 11 93 76 161 145 l124
125 -203 208 c-111 114 -206 209 -209 211 -4 1 -68 -60 -143 -136z"/>
<path d="M6469 12848 c76 -183 140 -339 142 -347 3 -8 27 37 54 100 27 63 50
116 52 119 2 2 68 -60 146 -138 l143 -142 34 35 34 35 -142 143 -142 143 115
48 c63 27 114 50 113 52 -2 1 -151 64 -333 139 -181 75 -335 139 -342 141 -6
3 51 -145 126 -328z"/>
<path d="M13753 12660 c-13 -5 -37 -29 -54 -53 l-31 -45 -47 49 c-89 92 -134
54 -135 -111 -1 -87 7 -114 47 -157 29 -32 10 -29 -95 13 -49 20 -92 33 -95
30 -9 -9 47 -85 79 -107 45 -32 90 -35 137 -8 l41 23 28 -21 c15 -11 33 -31
39 -44 16 -31 16 -177 -1 -292 -12 -83 -11 -89 7 -98 22 -12 20 -14 37 29 26
65 110 79 163 26 40 -40 45 -109 15 -199 -9 -27 -2 -46 66 -186 l77 -157 49
19 c61 23 108 24 138 3 13 -9 25 -14 26 -13 2 2 32 47 67 99 74 111 142 249
164 335 18 71 20 192 3 248 -12 39 -11 41 17 61 17 11 56 47 88 79 52 52 58
61 55 94 -2 20 -9 38 -16 41 -13 4 -88 -67 -131 -123 l-22 -30 5 35 c26 162
-174 302 -506 355 -23 3 -42 14 -52 30 -16 24 -84 68 -121 78 -11 3 -30 2 -42
-3z"/>
<path d="M6997 12373 c-4 -3 -7 -93 -7 -200 l0 -193 200 0 200 0 0 200 0 200
-193 0 c-107 0 -197 -3 -200 -7z m363 -198 l0 -165 -170 0 -170 0 0 165 0 165
170 0 170 0 0 -165z"/>
<path d="M7170 12250 l0 -50 -55 0 c-52 0 -55 -1 -55 -25 0 -24 3 -25 55 -25
l55 0 0 -50 c0 -47 2 -50 25 -50 23 0 25 3 25 50 l0 50 50 0 c47 0 50 2 50 25
0 23 -3 25 -50 25 l-50 0 0 50 c0 47 -2 50 -25 50 -23 0 -25 -3 -25 -50z"/>
<path d="M8055 12351 c-73 -18 -124 -62 -167 -145 -27 -50 -27 -114 -4 -371
16 -171 26 -286 61 -685 8 -96 22 -249 30 -340 8 -91 17 -201 21 -245 14 -187
34 -335 49 -371 27 -66 81 -121 153 -156 l67 -33 657 -3 658 -3 -5 -37 c-3
-20 -14 -145 -25 -277 -11 -132 -22 -259 -26 -282 l-5 -43 35 0 c27 0 36 4 37
18 0 9 10 130 22 267 l22 250 240 5 240 5 3 48 3 47 673 0 c742 0 741 0 812
62 50 44 84 108 91 170 2 30 -31 453 -76 968 l-81 915 -30 60 c-37 76 -77 117
-148 152 l-57 28 -1610 2 c-885 0 -1623 -2 -1640 -6z m3275 -131 c41 -21 75
-61 90 -107 5 -15 46 -441 91 -947 l80 -918 -23 -46 c-14 -27 -38 -55 -58 -67
-35 -20 -45 -20 -1565 -20 -841 0 -1542 3 -1557 8 -42 11 -95 63 -112 110 -24
63 -180 1858 -166 1902 10 32 62 88 90 98 8 3 707 6 1553 6 1513 1 1538 1
1577 -19z"/>
<path d="M8718 11880 c-112 -19 -213 -109 -244 -218 -16 -54 -16 -72 10 -377
15 -176 32 -351 38 -389 18 -123 69 -208 162 -270 97 -65 108 -66 531 -66 338
1 386 3 431 18 91 32 161 108 190 210 15 50 14 74 -10 355 -37 429 -42 461
-78 535 -54 109 -161 184 -291 203 -75 11 -673 10 -739 -1z m821 -313 c-16
-53 -33 -97 -36 -97 -4 0 -35 27 -69 60 -51 50 -60 62 -46 67 9 4 53 21 97 39
44 18 81 31 82 30 1 -1 -11 -46 -28 -99z m-750 53 c93 -26 143 -52 165 -85 18
-27 17 -27 -31 -83 -27 -31 -54 -57 -61 -60 -21 -7 -81 63 -132 151 -27 48
-50 90 -50 92 0 10 38 4 109 -15z m635 -111 c37 -34 66 -65 64 -69 -2 -5 -43
-52 -91 -104 l-89 -96 -66 62 c-37 34 -67 66 -67 70 0 11 166 198 175 198 4 0
37 -28 74 -61z m-403 -55 c17 -8 29 -19 27 -23 -2 -5 -27 -34 -55 -65 l-53
-57 -20 33 c-11 18 -20 37 -20 43 0 12 71 85 83 85 4 0 22 -7 38 -16z m344
-306 c274 -280 348 -425 166 -328 -107 58 -357 259 -498 402 l-73 73 56 63 56
62 86 -74 c48 -41 141 -130 207 -198z m-273 -14 l65 -60 -86 -96 c-47 -53 -90
-97 -96 -97 -5 0 -40 28 -77 62 l-67 62 87 97 c48 54 92 96 98 95 6 -1 41 -29
76 -63z m-164 -314 c-46 -53 -78 -66 -116 -46 -37 19 -82 72 -82 95 0 10 18
42 41 70 l41 51 74 -66 74 -67 -32 -37z"/>
<path d="M10880 11629 c-41 -17 -79 -34 -83 -38 -4 -4 20 -34 55 -66 l62 -58
28 89 c15 49 28 92 28 97 0 11 -9 9 -90 -24z"/>
<path d="M10090 11637 c0 -6 58 -109 93 -163 24 -38 71 -84 86 -84 4 0 30 27
59 59 l52 60 -31 35 c-23 27 -49 41 -108 60 -83 26 -151 41 -151 33z"/>
<path d="M10666 11473 c-47 -53 -85 -99 -84 -103 2 -4 33 -34 69 -68 l66 -62
93 102 93 102 -69 63 c-38 35 -72 63 -75 63 -3 0 -45 -43 -93 -97z"/>
<path d="M10345 11430 l-39 -40 18 -35 c11 -19 23 -35 27 -35 4 0 30 26 57 57
45 51 49 58 34 69 -41 28 -57 25 -97 -16z"/>
<path d="M10422 11352 l-51 -59 77 -75 c222 -217 504 -428 573 -428 49 0 -6
95 -149 255 -123 138 -365 365 -389 365 -6 0 -33 -26 -61 -58z"/>
<path d="M10327 11102 l-87 -97 67 -62 c38 -34 71 -62 75 -63 3 0 46 43 94 96
l89 97 -69 63 c-37 35 -71 64 -75 64 -3 0 -45 -44 -94 -98z"/>
<path d="M10175 10933 c-28 -36 -35 -53 -30 -73 8 -32 50 -76 84 -88 35 -12
58 -2 104 45 l37 39 -69 62 c-38 34 -74 62 -80 62 -5 0 -26 -21 -46 -47z"/>
<path d="M13440 12030 c0 -5 9 -10 20 -10 11 0 20 5 20 10 0 6 -9 10 -20 10
-11 0 -20 -4 -20 -10z"/>
<path d="M13434 11915 c-7 -28 0 -55 16 -55 5 0 10 11 10 24 0 13 3 31 6 40 4
11 1 16 -10 16 -8 0 -18 -11 -22 -25z"/>
<path d="M13422 11718 c-37 -56 -34 -66 20 -74 l35 -6 -5 53 c-7 80 -13 83
-50 27z"/>
<path d="M13767 11313 c-67 -18 -64 -28 12 -43 113 -21 148 -7 101 40 -23 23
-34 23 -113 3z"/>
<path d="M13970 11230 c-64 -12 -213 -48 -242 -59 -35 -13 -88 -60 -88 -78 0
-8 12 -30 26 -49 15 -19 22 -34 18 -34 -68 -2 -324 -21 -349 -26 -19 -3 -49
-21 -68 -39 -67 -65 -388 -602 -665 -1109 -37 -69 -67 -112 -80 -117 -14 -5
-22 -4 -22 3 0 11 -28 8 -101 -12 l-37 -10 -7 -88 c-9 -101 10 -230 49 -336
l24 -66 -28 0 c-16 0 -35 -3 -44 -6 -12 -5 -16 0 -16 20 0 25 -1 26 -67 26
-38 0 -86 3 -107 7 l-39 6 16 -24 c23 -31 21 -81 -2 -110 l-19 -24 -446 0
c-343 0 -448 3 -458 13 -9 9 -64 12 -207 12 l-196 0 32 20 c17 10 37 28 42 39
16 29 13 93 -5 119 -36 52 -38 52 -526 51 -249 0 -446 -3 -438 -6 81 -26 111
-93 74 -164 -32 -63 138 -59 -2409 -59 l-2325 0 0 -80 0 -79 108 -3 107 -3 3
-82 3 -83 119 0 120 0 0 -175 0 -175 130 0 130 0 0 175 0 175 2180 0 2180 0 0
-175 0 -175 130 0 130 0 0 175 0 175 1415 0 1415 0 0 -175 0 -175 130 0 130 0
0 77 c0 42 2 74 5 71 3 -3 14 -65 25 -139 18 -127 18 -136 2 -169 -21 -43 -46
-55 -182 -91 -565 -148 -1234 -384 -1615 -569 -290 -141 -468 -274 -495 -370
-33 -117 16 -394 156 -889 95 -337 416 -1285 622 -1836 38 -101 46 -131 35
-133 -8 -2 -13 -9 -10 -15 2 -7 16 -60 32 -119 l29 -106 35 6 c71 11 71 11 97
-57 14 -36 26 -66 28 -68 5 -5 306 34 313 40 3 3 0 29 -6 57 -19 88 -16 97 29
104 24 4 40 12 40 20 0 12 -20 118 -36 194 -2 12 -11 22 -19 22 -17 0 -15 -14
-65 390 -122 985 -275 1718 -411 1969 -16 30 -29 58 -29 61 0 4 26 13 58 20
31 7 62 14 67 17 6 2 16 -12 23 -31 19 -51 50 -86 96 -107 35 -16 67 -19 207
-19 l166 0 23 -122 c77 -424 309 -1444 441 -1940 27 -103 38 -159 34 -185 -3
-21 0 -83 7 -138 l13 -100 42 -3 c38 -3 42 -6 48 -35 14 -71 7 -67 118 -67 56
0 132 3 169 6 l66 7 -5 53 -6 54 36 0 c35 0 36 1 31 32 -2 18 -8 73 -13 122
-5 49 -13 91 -19 95 -5 3 -12 121 -16 271 -17 689 -61 1369 -111 1752 -14 103
-25 189 -25 192 0 3 155 6 345 6 l345 0 0 -160 0 -160 135 0 135 0 0 160 0
160 889 0 c489 0 904 3 922 7 21 4 51 24 80 53 34 34 60 50 96 59 89 23 166
90 197 172 10 27 61 414 133 999 133 1085 136 1130 89 1285 -90 298 -306 491
-615 549 -56 11 -140 16 -255 16 -288 0 -422 -24 -594 -105 -117 -56 -175 -97
-279 -198 l-82 -80 -5 34 c-2 19 -10 77 -16 129 -41 334 -105 569 -220 805
-81 166 -144 253 -233 319 -87 65 -116 80 -232 121 l-90 31 -35 99 c-46 130
-49 135 -101 147 -56 13 -300 19 -359 8z m-516 -1495 c42 -170 90 -371 106
-445 17 -74 33 -142 35 -150 4 -14 -38 -15 -383 -12 l-387 3 -103 42 -104 41
51 12 c27 6 67 24 88 40 40 30 127 121 153 160 8 12 40 53 71 90 67 84 215
290 312 437 39 59 74 104 78 100 4 -5 41 -147 83 -318z"/>
<path d="M3380 11145 l0 -75 185 0 185 0 0 75 0 75 -185 0 -185 0 0 -75z"/>
<path d="M5390 10765 l0 -125 124 0 124 0 3 63 c2 34 3 90 1 125 l-4 62 -124
0 -124 0 0 -125z"/>
<path d="M4498 9973 l-58 -4 0 -119 0 -120 125 0 125 0 0 120 c0 119 0 120
-24 120 -13 0 -43 2 -67 4 -24 2 -70 1 -101 -1z"/>
<path d="M6383 9973 l-43 -4 0 -120 0 -119 125 0 125 0 0 120 0 120 -32 0
c-18 0 -55 2 -83 4 -27 2 -69 2 -92 -1z"/>
<path d="M8810 8620 l0 -170 130 0 130 0 0 170 0 170 -130 0 -130 0 0 -170z"/>
<path d="M6835 6494 c-242 -54 -294 -181 -148 -361 l34 -42 -30 -15 c-37 -20
-101 -92 -132 -151 -13 -25 -26 -45 -29 -45 -3 0 -18 31 -35 68 -45 100 -140
192 -200 192 -29 0 -14 -20 34 -44 63 -32 105 -83 160 -192 36 -72 45 -102 52
-168 4 -45 12 -112 18 -151 5 -38 13 -122 17 -185 6 -100 4 -117 -10 -129 -14
-12 -16 -10 -16 22 0 52 -25 174 -50 239 -13 36 -19 66 -14 80 l6 23 -25 -23
c-17 -16 -23 -30 -19 -45 5 -21 4 -21 -14 -5 -30 27 -89 48 -132 48 -59 0
-188 -36 -271 -76 -59 -27 -71 -31 -56 -14 18 20 18 20 -5 20 -13 0 -32 -8
-42 -17 -18 -16 -20 -15 -35 8 -42 61 -150 161 -199 184 -70 33 -141 34 -193
1 -89 -57 -170 -187 -213 -347 -30 -111 -33 -357 -5 -489 26 -122 72 -271 119
-377 l40 -92 51 20 c29 11 112 49 185 84 75 36 132 59 133 52 0 -7 33 -271 72
-587 l72 -575 571 -3 572 -2 5 32 c4 18 36 276 73 573 36 297 67 541 68 542 0
1 53 -3 116 -8 107 -9 342 2 394 17 17 6 18 13 12 83 -38 432 -187 856 -369
1048 l-51 55 44 35 c106 85 390 387 390 416 0 3 -52 41 -115 83 -135 89 -300
166 -434 201 -124 32 -295 40 -396 17z m375 -119 c20 -24 -5 -76 -77 -160 -56
-67 -62 -77 -41 -72 71 18 277 40 384 41 132 1 163 -9 144 -45 -20 -37 -169
-64 -417 -75 l-150 -7 87 -72 c81 -68 150 -151 150 -182 0 -17 7 -19 -85 22
-60 26 -104 55 -178 120 l-97 85 -11 -26 c-60 -158 -139 -303 -178 -323 -11
-6 -27 -8 -36 -4 -33 12 -10 88 75 259 l80 161 -50 104 c-57 120 -65 169 -25
169 33 0 94 -62 136 -137 l33 -60 68 82 c98 118 158 156 188 120z m-515 -363
c-97 -136 -132 -289 -83 -362 32 -47 93 -79 180 -93 l72 -13 12 -94 c7 -52 11
-96 10 -97 -1 -1 -24 4 -51 12 -69 21 -115 19 -170 -10 -27 -13 -51 -23 -52
-21 -2 2 -8 59 -14 127 -5 68 -16 165 -25 214 -29 164 -29 156 6 224 30 61
117 161 140 161 5 0 -6 -22 -25 -48z m472 -437 c-2 -45 -17 -119 -32 -170 -15
-49 -30 -98 -32 -108 -5 -17 1 -18 104 -11 115 7 249 -1 273 -16 25 -16 -2
-44 -56 -57 -27 -7 -94 -16 -149 -19 l-101 -7 211 -211 c138 -138 220 -227
235 -258 30 -58 20 -74 -30 -50 -35 17 -297 271 -405 392 -65 73 -62 82 -26
-90 30 -146 36 -231 17 -255 -16 -20 -16 -20 -36 3 -29 35 -56 133 -81 289
-12 76 -23 144 -25 151 -2 8 -33 -7 -86 -44 -154 -106 -288 -155 -288 -105 0
10 18 35 41 55 34 31 224 161 295 202 15 9 24 31 32 80 41 227 92 353 130 322
11 -10 13 -30 9 -93z m-1600 23 c41 -18 138 -83 216 -145 l67 -54 141 11 c160
12 261 5 291 -20 19 -15 19 -17 4 -32 -26 -26 -107 -38 -261 -38 -80 0 -145
-2 -145 -4 0 -2 20 -39 45 -81 56 -94 123 -226 141 -279 17 -46 7 -64 -25 -46
-24 13 -136 160 -196 259 l-39 63 -27 -78 c-80 -239 -199 -515 -246 -573 -25
-31 -43 -20 -43 26 0 64 124 393 221 584 16 32 28 59 26 59 -2 0 -65 -31 -140
-70 -140 -72 -192 -85 -204 -53 -12 31 116 118 277 188 36 16 69 32 73 35 5 4
-16 22 -45 41 -77 49 -167 126 -188 161 -31 52 -5 73 57 46z m927 -143 c8 -33
20 -100 26 -148 10 -79 9 -98 -10 -170 -11 -45 -23 -115 -28 -156 -13 -137
-42 -81 -42 84 0 39 9 105 20 148 23 86 29 187 16 262 -10 66 -2 55 18 -20z
m328 -116 c49 -11 51 -13 28 -22 -77 -30 -175 -79 -205 -103 l-35 -26 0 44 c0
50 21 76 80 102 43 19 64 19 132 5z m-251 -196 c-9 -15 -10 -13 -11 14 0 17 3
40 8 50 5 14 8 11 10 -14 2 -18 -1 -41 -7 -50z m-151 -138 l0 -105 -80 0 c-44
0 -80 3 -80 6 0 3 23 31 51 62 28 32 62 76 76 100 14 23 27 42 29 42 2 0 4
-47 4 -105z m100 -99 c-12 -12 -14 47 -2 120 7 47 7 46 10 -30 2 -46 -2 -84
-8 -90z m47 2 c-3 -7 -5 -2 -5 12 0 14 2 19 5 13 2 -7 2 -19 0 -25z"/>
<path d="M14680 3910 c0 -66 2 -120 5 -120 2 0 34 -11 70 -25 l65 -24 0 115 0
115 -66 29 c-36 17 -68 30 -70 30 -2 0 -4 -54 -4 -120z"/>
<path d="M14323 3992 l-53 -26 0 -114 c0 -127 -9 -119 85 -83 28 10 50 24 49
30 -1 6 -2 58 -2 116 -2 77 -5 105 -14 104 -7 0 -37 -12 -65 -27z"/>
<path d="M13403 3994 c-3 -8 4 -29 16 -45 l22 -30 -34 6 c-71 14 -110 -45 -43
-63 18 -6 46 -7 60 -5 l27 5 -22 -36 c-44 -74 -149 -143 -272 -176 -35 -9 -49
-18 -53 -35 -8 -31 20 -82 56 -100 61 -32 87 -23 450 146 190 88 349 164 354
169 11 11 -31 127 -48 133 -22 9 -342 -24 -378 -38 -12 -5 -18 -2 -18 5 0 7
-11 28 -26 47 -28 37 -79 47 -91 17z m55 -10 c25 -17 58 -74 43 -74 -10 0 -71
47 -83 64 -7 11 -1 26 10 26 4 0 18 -7 30 -16z m-11 -85 c26 -10 27 -12 8 -19
-29 -12 -103 -12 -110 0 -18 29 46 41 102 19z"/>
<path d="M12337 3913 c-13 -12 -7 -32 20 -64 25 -30 26 -31 5 -25 -39 13 -83
9 -100 -7 -15 -16 -15 -18 1 -34 9 -9 38 -20 64 -23 l48 -5 -53 -53 c-59 -60
-143 -103 -241 -123 -47 -10 -65 -19 -71 -34 -10 -29 7 -71 42 -100 38 -32
108 -33 274 -4 84 14 189 23 359 28 132 4 246 10 253 15 19 12 14 60 -17 170
-16 55 -34 120 -40 142 -10 36 -15 42 -44 47 -34 5 -268 -7 -341 -18 -39 -6
-45 -5 -51 14 -17 55 -83 100 -108 74z m49 -11 c13 -8 54 -73 54 -84 0 -5 -6
-8 -14 -8 -18 0 -88 78 -81 90 7 12 26 13 41 2z m-17 -93 c17 -6 31 -15 31
-19 0 -13 -57 -22 -92 -15 -44 10 -48 13 -41 30 6 18 57 20 102 4z"/>
<path d="M13960 3623 l-65 -24 55 6 c30 3 61 13 69 20 24 24 9 23 -59 -2z"/>
</g>
</svg>
