<?xml version="1.0" standalone="no"?>
<!DOCTYPE svg PUBLIC "-//W3C//DTD SVG 20010904//EN"
 "http://www.w3.org/TR/2001/REC-SVG-20010904/DTD/svg10.dtd">
<svg version="1.0" xmlns="http://www.w3.org/2000/svg"
 width="1816.000000pt" height="719.000000pt" viewBox="0 0 1816.000000 719.000000"
 preserveAspectRatio="xMidYMid meet">

<g transform="translate(0.000000,719.000000) scale(0.100000,-0.100000)"
fill="#000000" stroke="none">
<path d="M9063 6760 c0 -41 2 -58 4 -37 4 36 6 37 43 37 37 0 39 -1 43 -37 2
-21 4 -4 4 37 0 41 -2 60 -4 43 -4 -31 -7 -33 -43 -33 -36 0 -39 2 -43 33 -2
17 -4 -2 -4 -43z"/>
<path d="M9221 6804 c-12 -15 -21 -34 -21 -44 0 -28 39 -70 66 -70 33 0 64 34
64 70 0 64 -71 92 -109 44z m83 0 c34 -34 8 -104 -39 -104 -29 0 -48 24 -48
60 0 54 51 80 87 44z"/>
<path d="M9382 6763 l-2 -73 38 2 c36 1 36 1 5 5 l-32 4 -4 67 -3 67 -2 -72z"/>
<path d="M9506 6764 c-15 -37 -24 -69 -21 -72 3 -3 8 4 12 16 8 30 72 32 80 2
3 -11 9 -20 14 -20 5 0 0 23 -12 51 -22 57 -38 89 -43 89 -2 0 -16 -30 -30
-66z m49 6 l16 -30 -30 0 c-29 0 -30 1 -20 30 6 17 13 30 15 30 2 0 10 -13 19
-30z"/>
<path d="M10510 6810 c-41 -41 -12 -120 44 -120 14 0 27 4 30 8 3 5 -8 7 -23
4 -35 -5 -61 20 -61 58 0 38 26 63 61 58 15 -3 26 -1 23 4 -10 15 -54 8 -74
-12z"/>
<path d="M10640 6810 c-41 -41 -12 -120 45 -120 14 0 34 9 45 20 41 41 12 120
-45 120 -14 0 -34 -9 -45 -20z m90 -22 c13 -25 13 -31 0 -55 -21 -37 -62 -42
-84 -11 -9 12 -16 29 -16 38 0 9 7 26 16 38 22 31 63 26 84 -10z"/>
<path d="M10791 6760 c-1 -44 2 -70 8 -70 6 0 12 24 13 55 0 30 1 60 2 67 1 6
-4 13 -10 15 -7 2 -12 -21 -13 -67z"/>
<path d="M10888 6780 c2 -27 0 -50 -5 -50 -4 0 -18 16 -31 36 -13 20 -25 34
-28 31 -6 -5 59 -106 69 -106 4 -1 7 31 7 69 0 39 -3 70 -7 70 -5 0 -6 -22 -5
-50z"/>
<path d="M10961 6804 c-12 -15 -21 -34 -21 -44 0 -28 39 -70 66 -70 33 0 64
34 64 70 0 64 -71 92 -109 44z m83 0 c34 -34 8 -104 -39 -104 -29 0 -48 24
-48 60 0 54 51 80 87 44z"/>
<path d="M11144 6822 c-16 -11 -34 -48 -34 -71 0 -32 35 -61 73 -60 l32 2 -35
6 c-23 4 -39 15 -50 34 -13 24 -13 30 1 55 11 20 23 27 46 27 17 0 29 3 26 7
-5 10 -45 10 -59 0z"/>
<path d="M11253 6760 c0 -41 2 -58 4 -37 2 20 2 54 0 75 -2 20 -4 3 -4 -38z"/>
<path d="M11315 6787 c-4 -24 -5 -56 -2 -73 3 -21 4 -17 6 16 2 56 16 83 26
51 4 -13 9 -20 12 -18 5 5 -24 67 -32 67 -2 0 -7 -19 -10 -43z"/>
<path d="M11412 6793 c-12 -23 -22 -46 -22 -50 1 -4 9 8 19 27 l19 35 7 -50
c4 -28 8 -54 10 -60 6 -19 3 80 -4 110 l-7 30 -22 -42z"/>
<path d="M11503 6760 c0 -41 2 -58 4 -37 2 20 2 54 0 75 -2 20 -4 3 -4 -38z"/>
<path d="M11560 6760 l0 -70 43 2 42 1 -37 4 c-34 4 -38 7 -38 33 0 25 4 29
33 33 l32 4 -32 1 c-28 2 -33 6 -33 26 0 21 5 25 38 29 l37 4 -42 1 -43 2 0
-70z"/>
<path d="M11680 6761 c0 -84 19 -98 22 -16 0 30 1 60 2 67 1 6 -5 13 -11 16
-10 3 -13 -15 -13 -67z"/>
<path d="M11780 6780 c0 -27 -3 -50 -7 -50 -5 0 -18 16 -31 36 -13 20 -25 34
-28 31 -6 -5 59 -106 69 -106 4 -1 7 31 7 69 0 39 -2 70 -5 70 -3 0 -5 -22 -5
-50z"/>
<path d="M11842 6823 c26 -4 27 -7 31 -71 l3 -67 2 67 c2 60 4 67 25 71 12 2
-3 4 -33 4 -30 0 -43 -2 -28 -4z"/>
<path d="M11969 6809 c-17 -17 -20 -29 -15 -58 3 -20 13 -42 23 -48 43 -32
103 2 103 57 0 61 -69 91 -111 49z m91 -21 c13 -25 13 -31 0 -55 -21 -37 -62
-42 -84 -11 -9 12 -16 29 -16 38 0 9 7 26 16 38 22 31 63 26 84 -10z"/>
<path d="M12133 6823 c-27 -10 -14 -49 23 -66 46 -22 44 -52 -4 -52 -17 0 -32
-3 -32 -7 0 -13 55 -9 68 4 23 23 13 48 -24 64 -43 18 -43 46 1 55 26 6 27 7
5 7 -14 0 -31 -2 -37 -5z"/>
<path d="M13101 6758 c1 -40 4 -61 6 -45 3 21 10 27 28 27 26 0 55 24 55 45 0
23 -30 45 -61 45 l-29 0 1 -72z m68 48 c18 -22 -3 -56 -34 -56 -22 0 -25 4
-25 35 0 30 3 35 24 35 13 0 29 -6 35 -14z"/>
<path d="M13232 6758 c0 -40 3 -58 5 -40 6 42 37 44 61 2 9 -16 21 -30 25 -30
5 0 -1 15 -12 34 -18 29 -19 35 -6 40 21 8 19 43 -4 56 -11 5 -31 10 -45 10
-26 0 -26 -1 -24 -72z m68 47 c17 -20 -3 -45 -36 -45 -20 0 -24 5 -24 30 0 25
4 30 24 30 13 0 29 -7 36 -15z"/>
<path d="M13380 6810 c-40 -40 -12 -120 43 -120 56 1 84 66 47 113 -26 32 -62
35 -90 7z m88 -22 c11 -23 11 -33 0 -55 -25 -53 -98 -32 -98 28 0 60 72 80 98
27z"/>
<path d="M13520 6825 c0 -5 9 -23 20 -40 11 -16 20 -46 21 -65 l2 -35 6 30 c3
17 16 50 29 75 21 41 16 39 -15 -7 -13 -17 -13 -17 -25 0 -29 42 -37 52 -38
42z"/>
<path d="M13650 6760 l0 -70 48 2 47 1 -42 4 c-40 4 -43 6 -43 33 0 25 4 29
33 33 l32 4 -33 1 c-29 2 -33 5 -30 25 2 16 12 24 38 28 l35 6 -42 2 -43 1 0
-70z"/>
<path d="M13792 6814 c-28 -20 -31 -83 -4 -107 19 -18 67 -23 76 -9 3 5 -8 7
-23 4 -35 -5 -61 20 -61 58 0 38 26 63 61 58 15 -3 26 -1 23 4 -8 13 -48 9
-72 -8z"/>
<path d="M13917 6823 c20 -4 22 -12 26 -71 l3 -67 2 67 c2 64 3 67 30 71 15 2
2 4 -28 4 -30 0 -45 -2 -33 -4z"/>
<path d="M14041 6804 c-12 -15 -21 -34 -21 -44 0 -28 39 -70 66 -70 58 0 89
91 42 124 -33 23 -64 19 -87 -10z m83 0 c36 -35 10 -104 -38 -104 -30 0 -49
23 -49 60 0 54 51 80 87 44z"/>
<path d="M14202 6818 c-20 -20 -13 -38 23 -60 45 -26 43 -53 -2 -53 -17 0 -29
-3 -26 -7 2 -5 13 -8 23 -8 61 0 69 47 14 79 -42 25 -40 46 4 46 16 0 28 3 25
7 -7 12 -48 9 -61 -4z"/>
<path d="M15361 6804 c-24 -30 -26 -46 -10 -77 16 -30 29 -37 64 -36 29 2 29
2 -5 8 -46 8 -68 48 -48 89 11 21 20 27 46 27 17 0 32 3 32 7 0 5 -13 8 -29 8
-20 0 -36 -9 -50 -26z"/>
<path d="M15502 6814 c-16 -11 -22 -25 -22 -54 0 -29 6 -43 22 -54 49 -35 98
-7 98 56 0 59 -50 86 -98 52z m76 -6 c20 -20 15 -86 -7 -98 -43 -22 -81 1 -81
50 0 49 56 80 88 48z"/>
<path d="M15652 6758 l1 -73 6 60 6 60 39 -57 c21 -32 40 -58 42 -58 2 0 3 33
2 73 l-1 72 -6 -55 -6 -55 -33 47 c-48 70 -52 68 -50 -14z"/>
<path d="M15812 6823 c26 -4 27 -7 31 -71 l3 -67 2 67 c2 60 4 67 25 71 12 2
-3 4 -33 4 -30 0 -43 -2 -28 -4z"/>
<path d="M15951 6811 c-23 -42 -50 -121 -42 -121 5 0 11 9 14 20 8 30 72 28
80 -2 4 -12 9 -19 12 -16 6 5 -43 138 -51 138 -2 0 -8 -8 -13 -19z m27 -36
c16 -35 16 -35 -17 -35 -28 0 -29 1 -18 30 14 37 20 37 35 5z"/>
<path d="M16070 6810 c-41 -41 -12 -120 44 -120 14 0 27 4 30 8 3 5 -8 7 -23
4 -53 -7 -79 48 -45 97 12 17 24 22 45 19 15 -3 26 -1 23 4 -10 15 -54 8 -74
-12z"/>
<path d="M16200 6823 c24 -4 25 -6 22 -68 -3 -42 0 -65 7 -65 7 0 11 25 11 64
0 59 2 65 23 69 12 2 -3 4 -33 4 -30 0 -44 -2 -30 -4z"/>
<path d="M16332 6814 c-28 -20 -31 -83 -4 -107 44 -40 102 -8 102 55 0 59 -50
86 -98 52z m76 -6 c20 -20 15 -86 -7 -98 -43 -22 -81 1 -81 50 0 49 56 80 88
48z"/>
<path d="M11360 6743 c0 -15 19 -37 26 -31 3 4 -1 14 -10 23 -9 9 -16 13 -16
8z"/>
<path d="M0 6260 l0 -60 9080 0 9080 0 0 60 0 60 -9080 0 -9080 0 0 -60z"/>
<path d="M2102 4776 c3 -98 20 -137 26 -58 l3 42 45 0 44 0 0 -45 c0 -25 5
-45 10 -45 6 0 10 40 10 100 0 60 -4 100 -10 100 -5 0 -10 -18 -10 -40 l0 -40
-44 0 c-44 0 -45 0 -48 37 -2 20 -9 38 -16 41 -10 3 -12 -17 -10 -92z"/>
<path d="M2305 4845 c-33 -32 -36 -114 -5 -145 47 -47 132 -29 148 32 11 44
-2 99 -29 121 -31 25 -85 22 -114 -8z m118 -50 c15 -43 -14 -95 -52 -95 -53 0
-84 55 -59 106 25 54 92 47 111 -11z"/>
<path d="M2492 4773 l3 -98 65 0 c58 0 66 2 75 23 10 22 20 26 65 22 23 -1 45
-19 53 -43 2 -6 8 -7 14 -4 15 10 -58 192 -77 192 -8 0 -28 -35 -48 -85 l-33
-85 -50 4 -50 3 1 62 c2 92 1 106 -10 106 -7 0 -10 -35 -8 -97z m211 30 c2
-10 8 -26 12 -35 6 -15 2 -18 -24 -18 -17 0 -31 2 -31 4 0 1 5 17 11 35 12 35
24 40 32 14z"/>
<path d="M2800 4806 c0 -36 4 -67 9 -71 11 -6 26 97 17 120 -13 35 -26 11 -26
-49z"/>
<path d="M2032 4804 c4 -21 22 -23 26 -1 2 10 -3 17 -13 17 -10 0 -15 -6 -13
-16z"/>
<path d="M2924 4806 c-10 -26 0 -49 30 -66 43 -24 44 -40 2 -40 -44 0 -56 -16
-17 -25 71 -15 98 47 35 84 -39 23 -37 44 4 39 14 -2 27 3 29 10 7 18 -76 16
-83 -2z"/>
<path d="M3046 4798 c-38 -53 5 -137 62 -123 15 3 33 13 40 22 18 25 15 87 -6
106 -27 25 -78 22 -96 -5z m70 -6 c18 -12 26 -50 14 -72 -21 -39 -70 -18 -70
30 0 40 28 61 56 42z"/>
<path d="M3180 4793 c4 -16 17 -49 28 -74 22 -50 16 -69 -20 -69 -10 0 -18 -4
-18 -10 0 -5 13 -10 30 -10 24 0 33 7 49 38 30 59 52 152 36 152 -7 0 -18 -22
-25 -50 -7 -27 -16 -50 -20 -50 -5 0 -16 23 -25 50 -9 28 -23 50 -30 50 -10 0
-12 -7 -5 -27z"/>
<path d="M2030 4695 c0 -51 3 -65 15 -65 11 0 15 12 15 49 0 54 -7 81 -21 81
-5 0 -9 -29 -9 -65z"/>
<path d="M2794 4699 c-10 -17 13 -36 27 -22 12 12 4 33 -11 33 -5 0 -12 -5
-16 -11z"/>
<path d="M3887 4418 c-15 -8 -16 -31 -10 -221 3 -117 10 -218 16 -224 5 -7 27
-13 49 -13 l40 0 -7 38 c-4 20 -8 119 -9 220 l-1 184 -31 13 c-20 8 -36 9 -47
3z"/>
<path d="M4018 4418 c-13 -11 -14 -40 -10 -206 4 -180 6 -195 26 -219 49 -57
166 -48 227 18 l36 39 24 -38 c44 -68 170 -77 219 -15 l21 27 -26 14 c-23 12
-31 11 -60 -2 -42 -20 -48 -20 -68 2 -29 32 -21 42 33 42 42 0 50 3 50 18 0
20 -38 42 -73 42 -20 0 -20 1 -4 17 24 24 157 26 158 3 0 -8 1 -55 2 -105 l2
-90 39 -3 c24 -2 42 2 47 10 5 7 8 48 7 91 -1 94 9 110 62 98 43 -9 60 -5 61
17 0 14 2 13 9 -3 5 -11 9 -58 9 -105 1 -53 6 -91 13 -98 7 -7 30 -12 51 -12
l40 0 -7 48 c-9 57 -8 164 2 173 4 4 26 9 49 11 l41 3 7 -95 c8 -133 10 -137
45 -142 49 -7 64 10 51 58 -6 23 -8 72 -4 121 l6 82 -37 17 c-33 16 -38 16
-52 2 -14 -14 -19 -14 -43 -2 -14 8 -36 14 -48 14 -18 0 -23 6 -23 25 0 19 -9
29 -35 42 -42 20 -65 6 -65 -38 0 -35 -25 -51 -57 -36 -18 8 -33 7 -59 -2 -28
-10 -41 -10 -65 0 -24 9 -35 9 -54 -1 -19 -10 -30 -11 -50 -2 -54 25 -120 8
-177 -45 l-26 -25 -11 21 c-18 33 -88 64 -130 58 -20 -3 -44 -8 -54 -12 -18
-7 -18 -3 -12 57 9 80 2 104 -35 123 -35 18 -33 18 -52 3z m187 -258 c29 -32
25 -88 -9 -116 -15 -13 -34 -24 -43 -24 -54 0 -73 91 -28 135 29 30 56 32 80
5z"/>
<path d="M1924 4379 c-13 -22 -11 -399 3 -411 7 -5 67 -10 135 -11 117 -2 123
-1 126 19 4 28 -35 44 -107 44 -43 0 -60 4 -65 15 -3 9 -5 85 -4 170 1 88 -3
160 -8 165 -17 17 -71 23 -80 9z"/>
<path d="M3497 4383 c-4 -3 -7 -14 -7 -24 0 -19 27 -29 83 -29 21 0 37 -3 35
-7 -48 -102 -63 -122 -92 -125 -38 -4 -50 -42 -17 -53 20 -6 20 -8 5 -38 -9
-18 -30 -47 -46 -65 -42 -48 -35 -76 18 -80 51 -4 72 19 105 109 24 66 35 72
110 67 l44 -3 6 -76 c4 -42 10 -82 13 -88 8 -13 82 -15 90 -2 3 4 -1 57 -9
117 -19 145 -19 228 0 244 21 17 19 37 -4 50 -21 11 -323 14 -334 3z m233
-129 l0 -54 -45 0 c-25 0 -45 2 -45 5 0 13 34 71 53 92 28 31 37 21 37 -43z"/>
<path d="M5012 4368 c-15 -15 -16 -45 -1 -54 6 -3 26 -8 44 -11 26 -3 36 0 44
14 11 22 5 35 -26 52 -28 14 -46 14 -61 -1z"/>
<path d="M5470 4365 c-20 -24 -7 -48 29 -57 44 -12 61 -4 61 26 0 18 -8 27
-31 35 -41 14 -44 14 -59 -4z"/>
<path d="M2223 4244 c-7 -3 -13 -16 -13 -28 0 -18 8 -25 37 -32 47 -12 52 -28
13 -44 -33 -13 -70 -72 -70 -110 0 -54 101 -96 161 -66 16 8 31 10 35 5 3 -5
23 -9 45 -9 44 0 50 16 24 67 -8 15 -28 59 -45 96 -23 49 -41 74 -69 93 -38
25 -95 38 -118 28z m115 -173 c4 -25 -14 -51 -34 -51 -9 0 -14 11 -14 28 0 49
41 69 48 23z"/>
<path d="M2461 4241 c-15 -9 -13 -24 12 -101 8 -25 21 -67 29 -94 20 -73 46
-88 153 -88 90 0 113 10 97 42 -4 8 -8 53 -9 100 -1 47 -2 94 -2 105 -1 23
-52 50 -76 41 -17 -6 -18 -12 -15 -117 1 -59 -2 -80 -15 -92 -22 -23 -34 -21
-40 6 -8 33 -35 168 -35 172 0 7 -58 35 -72 35 -7 0 -19 -4 -27 -9z"/>
<path d="M2782 4238 c-15 -15 -16 -45 -1 -53 7 -5 9 -43 7 -106 -3 -110 2
-122 53 -117 l34 3 6 85 c6 97 14 122 38 116 55 -15 69 -15 81 -1 37 45 -36
98 -105 75 -24 -8 -40 -8 -54 -1 -26 14 -44 14 -59 -1z"/>
<path d="M3026 4235 c-17 -17 -11 -45 10 -45 17 0 64 -21 64 -30 0 -3 -15 -13
-33 -22 -67 -32 -85 -129 -31 -164 28 -19 116 -23 136 -6 9 7 19 8 28 2 8 -6
30 -10 48 -10 27 0 32 4 32 24 0 14 -4 27 -9 30 -4 3 -16 27 -26 53 -31 84
-72 139 -120 162 -53 25 -78 26 -99 6z m122 -165 c4 -22 -19 -50 -40 -50 -13
0 -9 68 5 73 21 9 32 1 35 -23z"/>
<path d="M5153 4238 c-6 -7 -10 -68 -10 -135 -1 -136 3 -147 59 -141 l33 3 5
95 c5 99 11 120 35 120 21 0 32 -26 48 -113 8 -42 20 -83 26 -91 16 -19 68
-25 88 -10 15 10 16 15 4 40 -7 16 -21 61 -31 101 -9 40 -24 83 -33 97 -23 34
-86 53 -131 39 -19 -6 -40 -7 -47 -2 -20 12 -35 11 -46 -3z"/>
<path d="M5470 4235 c-10 -12 -10 -45 -4 -143 l9 -127 42 -3 c47 -3 61 16 44
61 -6 15 -7 63 -4 110 l6 85 -31 16 c-38 20 -46 20 -62 1z"/>
<path d="M13175 3830 c-16 -3 -40 -12 -51 -18 -32 -17 -163 -162 -182 -200
-15 -30 -14 -37 6 -107 12 -41 22 -82 22 -90 0 -9 16 -32 35 -52 20 -20 38
-47 41 -60 8 -32 -4 -106 -21 -129 -13 -19 -14 -19 -29 1 -16 20 -49 85 -60
118 -5 16 -20 17 -168 15 l-163 -3 -2 -295 c0 -162 2 -281 6 -264 17 69 51
122 93 144 24 12 49 18 61 15 16 -5 18 -4 8 3 -20 14 65 26 122 18 l42 -7 0
-224 c0 -124 -3 -225 -6 -225 -4 0 -5 -9 -2 -19 7 -26 -35 -109 -65 -130 -33
-23 -69 -54 -56 -47 6 3 26 -2 44 -10 42 -22 141 -33 202 -23 68 11 123 41
183 100 28 26 55 50 60 51 6 1 9 8 7 14 -1 6 4 16 11 23 11 9 13 3 7 -32 -11
-69 -31 -131 -47 -149 -9 -10 -12 -18 -8 -18 4 0 0 -9 -10 -20 -10 -11 -23
-20 -29 -20 -6 0 -4 5 4 10 12 8 10 10 -8 10 -16 0 -21 -4 -16 -12 6 -10 4
-10 -7 -2 -8 7 -67 12 -144 14 -71 1 -217 7 -322 13 -106 7 -193 9 -193 5 0
-5 -5 -8 -11 -8 -5 0 -8 4 -5 9 3 5 -1 11 -9 14 -28 11 -17 108 21 188 l34 71
-2 402 -3 401 -642 3 -643 2 0 -586 0 -587 215 6 215 5 0 -62 c0 -35 -5 -67
-12 -74 -9 -9 -91 -12 -308 -12 l-296 0 -157 -93 -157 -92 0 -48 0 -49 818 7
c449 3 1238 10 1752 16 514 5 1256 12 1648 16 l712 6 0 41 0 41 -183 93 -182
92 -257 0 -258 0 0 58 0 57 192 0 193 0 3 577 2 578 -22 5 c-13 3 -302 4 -643
3 l-620 -3 -3 -340 c-2 -334 -2 -340 22 -425 14 -47 32 -119 41 -160 10 -41
24 -90 32 -108 8 -19 13 -35 11 -37 -8 -8 -277 -25 -439 -28 l-165 -3 45 25
c85 45 122 72 184 134 92 91 120 145 125 238 4 68 -12 175 -35 234 -6 17 -4
17 26 -1 18 -10 51 -39 72 -63 l39 -44 0 286 c0 316 4 297 -69 297 l-38 0 -12
67 c-16 89 -112 284 -166 338 -50 50 -141 79 -380 119 -11 2 -33 0 -50 -4z
m-1287 -797 c-93 -2 -243 -2 -335 0 -93 1 -17 3 167 3 184 0 260 -2 168 -3z
m2139 -819 c-3 -3 -12 -4 -19 -1 -8 3 -5 6 6 6 11 1 17 -2 13 -5z m-1234 -11
c-7 -2 -21 -2 -30 0 -10 3 -4 5 12 5 17 0 24 -2 18 -5z m1160 0 c-7 -2 -19 -2
-25 0 -7 3 -2 5 12 5 14 0 19 -2 13 -5z m-980 -10 c-7 -2 -19 -2 -25 0 -7 3
-2 5 12 5 14 0 19 -2 13 -5z m734 1 c-3 -3 -12 -4 -19 -1 -8 3 -5 6 6 6 11 1
17 -2 13 -5z m-300 -10 c-3 -3 -12 -4 -19 -1 -8 3 -5 6 6 6 11 1 17 -2 13 -5z
m-1032 -172 c-3 -3 -75 -8 -160 -10 -185 -5 -185 -5 -185 92 l0 66 173 2 172
3 3 -74 c2 -40 0 -76 -3 -79z m2133 76 l3 -68 -141 0 -140 0 0 33 c0 17 3 49
6 70 l7 38 131 -3 131 -3 3 -67z"/>
<path d="M2686 3493 c-3 -3 -6 -17 -6 -30 0 -18 -6 -23 -24 -23 -69 0 -77
-107 -10 -124 56 -14 64 -3 64 89 0 77 -7 104 -24 88z m-6 -113 c0 -36 -3 -40
-25 -40 -18 0 -26 7 -31 25 -7 29 10 55 37 55 15 0 19 -8 19 -40z"/>
<path d="M3372 3413 c3 -79 5 -88 23 -91 16 -3 18 -1 8 9 -8 8 -13 42 -13 91
0 47 -4 78 -10 78 -7 0 -10 -32 -8 -87z"/>
<path d="M3430 3410 c0 -86 1 -90 22 -90 17 0 19 3 10 12 -7 7 -12 43 -12 90
0 45 -4 78 -10 78 -6 0 -10 -37 -10 -90z"/>
<path d="M3680 3471 c0 -26 -4 -30 -32 -33 -37 -3 -64 -44 -53 -78 10 -30 50
-53 80 -46 24 6 25 9 25 96 0 53 -4 90 -10 90 -5 0 -10 -13 -10 -29z m0 -92
c0 -38 -1 -40 -27 -37 -47 5 -45 78 2 78 23 0 25 -4 25 -41z"/>
<path d="M4130 3490 c-11 -7 -15 -29 -15 -87 0 -87 18 -113 23 -33 3 42 6 50
23 50 10 0 19 5 19 10 0 6 -9 10 -21 10 -28 0 -21 34 9 38 12 2 20 8 17 13 -8
12 -36 11 -55 -1z"/>
<path d="M4960 3471 c0 -26 -4 -30 -32 -33 -40 -4 -64 -41 -54 -82 7 -30 47
-50 83 -41 22 5 23 10 23 95 0 53 -4 90 -10 90 -5 0 -10 -13 -10 -29z m-2 -90
c4 -38 -13 -55 -40 -40 -11 6 -18 21 -18 38 0 34 8 43 35 39 15 -2 21 -12 23
-37z"/>
<path d="M1900 3400 c0 -47 4 -80 10 -80 6 0 10 16 10 35 0 33 2 35 35 35 44
0 46 18 3 22 -25 2 -34 8 -36 26 -3 20 1 22 37 22 23 0 41 5 41 10 0 6 -22 10
-50 10 l-50 0 0 -80z"/>
<path d="M2148 3474 c-5 -4 -8 -38 -8 -75 0 -57 3 -70 19 -79 20 -10 51 -4 51
10 0 5 -10 10 -22 12 -19 2 -24 10 -26 41 -3 34 -1 37 22 37 14 0 26 5 26 10
0 6 -11 10 -24 10 -17 0 -26 6 -28 21 -2 11 -6 17 -10 13z"/>
<path d="M4548 3474 c-5 -4 -8 -38 -8 -75 0 -57 3 -70 19 -79 20 -10 51 -4 51
10 0 5 -10 10 -22 12 -19 2 -24 10 -26 41 -3 34 -1 37 22 37 14 0 26 5 26 10
0 6 -11 10 -24 10 -17 0 -26 6 -28 21 -2 11 -6 17 -10 13z"/>
<path d="M2010 3397 c0 -65 23 -86 88 -78 15 1 17 121 2 121 -5 0 -10 -22 -10
-49 0 -31 -5 -51 -12 -54 -28 -9 -38 6 -38 54 0 37 -4 49 -15 49 -11 0 -15
-11 -15 -43z"/>
<path d="M2230 3385 c0 -50 2 -56 26 -65 14 -6 36 -7 50 -4 22 6 24 11 24 65
0 46 -3 59 -15 59 -11 0 -15 -12 -15 -51 0 -47 -2 -50 -22 -47 -20 3 -23 10
-26 51 -4 66 -22 59 -22 -8z"/>
<path d="M2359 3430 c0 -5 0 -30 0 -55 0 -65 0 -67 11 -60 6 3 10 28 10 56 0
42 3 49 19 49 11 0 23 5 26 10 4 6 -8 10 -29 10 -20 0 -36 -4 -37 -10z"/>
<path d="M2450 3430 c0 -5 11 -10 25 -10 16 0 25 -6 25 -15 0 -9 -9 -15 -24
-15 -30 0 -50 -23 -41 -49 7 -24 34 -34 69 -25 23 5 26 12 26 46 0 55 -15 78
-50 78 -17 0 -30 -4 -30 -10z m50 -81 c0 -15 -4 -19 -16 -15 -9 3 -18 6 -20 6
-2 0 -4 7 -4 15 0 8 9 15 20 15 14 0 20 -7 20 -21z"/>
<path d="M2746 3418 c-39 -55 8 -125 68 -102 26 10 18 23 -16 26 -49 5 -48 28
2 28 41 0 42 1 35 27 -12 48 -62 59 -89 21z m62 -15 c2 -8 -6 -13 -22 -13 -25
0 -33 10 -19 24 10 10 36 3 41 -11z"/>
<path d="M2861 3426 c-15 -18 -5 -41 25 -54 33 -16 30 -32 -6 -32 -34 0 -40
-15 -10 -25 62 -20 94 47 34 73 -31 15 -31 32 1 32 14 0 25 5 25 10 0 15 -56
12 -69 -4z"/>
<path d="M2960 3431 c0 -5 12 -11 27 -13 39 -5 40 -26 1 -30 -27 -2 -34 -8
-36 -30 -4 -32 27 -53 64 -44 21 6 24 12 24 54 0 26 -5 53 -12 60 -14 14 -68
16 -68 3z m58 -78 c-4 -20 -18 -26 -37 -14 -18 12 -5 31 20 31 14 0 19 -6 17
-17z"/>
<path d="M3077 3433 c-11 -10 -8 -111 3 -118 6 -4 10 15 10 49 0 53 1 56 25
56 14 0 25 5 25 10 0 11 -53 14 -63 3z"/>
<path d="M3160 3385 c0 -30 0 -57 0 -60 0 -3 3 -5 8 -5 4 0 8 22 10 50 3 41 6
50 22 50 10 0 22 5 25 10 4 6 -8 10 -29 10 l-36 0 0 -55z"/>
<path d="M3250 3424 c-36 -42 5 -123 54 -108 45 13 59 61 30 102 -18 26 -65
30 -84 6z m65 -44 c0 -31 -3 -35 -25 -35 -19 0 -26 6 -28 23 -5 36 5 54 30 50
19 -2 23 -9 23 -38z"/>
<path d="M3490 3431 c0 -5 12 -11 27 -13 39 -5 40 -26 1 -30 -28 -2 -34 -7
-36 -30 -3 -23 2 -30 24 -38 46 -18 64 -5 64 45 0 64 -7 75 -46 75 -19 0 -34
-4 -34 -9z m58 -78 c-2 -12 -11 -17 -23 -15 -25 5 -29 8 -20 21 11 19 47 13
43 -6z"/>
<path d="M3740 3424 c-36 -42 5 -123 54 -108 45 13 59 61 30 102 -18 26 -65
30 -84 6z m65 -44 c0 -31 -3 -35 -25 -35 -19 0 -26 6 -28 23 -5 36 5 54 30 50
19 -2 23 -9 23 -38z"/>
<path d="M3864 3426 c-9 -23 0 -111 11 -109 6 2 11 25 13 53 3 42 6 50 23 50
10 0 19 5 19 10 0 15 -60 12 -66 -4z"/>
<path d="M3950 3431 c0 -5 11 -11 25 -13 35 -4 35 -22 -1 -28 -22 -4 -30 -11
-32 -32 -4 -32 25 -52 63 -42 22 5 25 12 25 49 0 63 -7 75 -46 75 -19 0 -34
-4 -34 -9z m58 -78 c-2 -12 -11 -17 -23 -15 -25 5 -29 8 -20 21 11 19 47 13
43 -6z"/>
<path d="M4200 3385 c0 -30 0 -57 0 -60 0 -3 3 -5 8 -5 4 0 8 22 10 50 3 41 6
50 22 50 10 0 22 5 25 10 4 6 -8 10 -29 10 l-36 0 0 -55z"/>
<path d="M4290 3424 c-21 -25 -16 -75 9 -96 30 -24 46 -23 71 4 24 26 26 56 4
86 -18 26 -65 30 -84 6z m65 -44 c0 -31 -3 -35 -25 -35 -19 0 -26 6 -28 23 -5
36 5 54 30 50 19 -2 23 -9 23 -38z"/>
<path d="M4410 3381 c0 -33 5 -63 10 -66 6 -4 10 15 10 49 0 52 2 56 24 56 27
0 36 -16 36 -66 0 -19 5 -34 10 -34 14 0 12 94 -2 108 -7 7 -29 12 -50 12
l-38 0 0 -59z"/>
<path d="M4636 3424 c-17 -16 -21 -50 -10 -79 9 -23 49 -36 76 -25 26 10 25
11 -16 16 -16 2 -33 9 -37 16 -6 10 2 14 31 16 34 3 40 7 40 26 0 44 -52 63
-84 30z m62 -21 c2 -8 -6 -13 -22 -13 -25 0 -33 10 -19 24 10 10 36 3 41 -11z"/>
<path d="M4750 3381 c0 -33 5 -63 10 -66 6 -4 10 15 10 49 0 52 2 56 24 56 28
0 36 -16 36 -71 0 -24 4 -38 10 -34 14 9 12 99 -2 113 -7 7 -29 12 -50 12
l-38 0 0 -59z"/>
<path d="M5010 3326 c0 -8 -3 -22 -7 -32 -4 -11 -2 -15 7 -12 20 6 32 58 14
58 -8 0 -14 -6 -14 -14z"/>
<path d="M2262 3228 c-11 -14 -15 -47 -13 -126 1 -68 21 -60 21 9 0 46 2 49
25 49 14 0 25 5 25 10 0 6 -12 10 -26 10 -33 0 -30 33 4 38 12 2 22 8 22 13 0
14 -46 11 -58 -3z"/>
<path d="M2586 3233 c-3 -3 -6 -17 -6 -30 0 -18 -6 -23 -24 -23 -69 0 -77
-107 -10 -124 56 -14 64 -3 64 89 0 77 -7 104 -24 88z m-6 -113 c0 -36 -3 -40
-25 -40 -18 0 -26 7 -31 25 -7 29 10 55 37 55 15 0 19 -8 19 -40z"/>
<path d="M2812 3153 c3 -79 5 -88 23 -91 16 -3 18 -1 8 9 -8 8 -13 42 -13 91
0 47 -4 78 -10 78 -7 0 -10 -32 -8 -87z"/>
<path d="M3906 3233 c-3 -3 -6 -17 -6 -29 0 -18 -6 -23 -32 -26 -25 -2 -35 -9
-42 -29 -20 -59 21 -108 80 -93 23 6 24 10 24 89 0 77 -7 104 -24 88z m-6
-112 c0 -47 -9 -55 -38 -35 -36 25 -23 74 20 74 14 0 18 -8 18 -39z"/>
<path d="M4736 3233 c-3 -3 -6 -17 -6 -30 0 -18 -6 -23 -24 -23 -45 0 -69 -46
-50 -95 9 -22 49 -37 80 -29 23 6 24 10 24 89 0 77 -7 104 -24 88z m-6 -113
c0 -36 -3 -40 -25 -40 -18 0 -26 7 -31 25 -7 29 10 55 37 55 15 0 19 -8 19
-40z"/>
<path d="M5240 3211 c0 -26 -4 -30 -32 -33 -24 -2 -36 -10 -46 -30 -24 -50 21
-107 74 -94 23 6 24 10 24 96 0 53 -4 90 -10 90 -5 0 -10 -13 -10 -29z m-2
-90 c4 -41 -6 -52 -35 -40 -17 6 -23 17 -23 37 0 35 8 44 35 40 15 -2 21 -12
23 -37z"/>
<path d="M5296 3223 c-11 -11 -6 -23 9 -23 8 0 15 4 15 9 0 13 -16 22 -24 14z"/>
<path d="M2990 3151 c0 -73 17 -108 47 -97 8 3 17 6 19 6 2 0 4 4 4 9 0 5 -10
11 -22 13 -19 2 -24 10 -26 41 -3 34 -1 37 22 37 14 0 26 5 26 10 0 6 -11 10
-25 10 -18 0 -25 5 -25 20 0 11 -4 20 -10 20 -6 0 -10 -30 -10 -69z"/>
<path d="M4190 3145 c0 -63 3 -76 19 -85 21 -10 51 -4 51 11 0 5 -11 9 -25 9
-22 0 -25 4 -25 40 0 36 3 40 25 40 14 0 25 5 25 10 0 6 -11 10 -25 10 -18 0
-25 5 -25 20 0 11 -4 20 -10 20 -6 0 -10 -32 -10 -75z"/>
<path d="M1900 3095 c0 -55 4 -84 10 -80 6 3 10 15 10 25 0 13 6 19 18 18 38
-3 50 3 62 31 9 24 9 35 -2 58 -11 23 -20 29 -56 31 l-42 3 0 -86z m70 51 c20
-26 8 -61 -22 -64 -27 -3 -28 -1 -28 37 0 33 3 41 19 41 10 0 24 -7 31 -14z"/>
<path d="M2030 3121 c0 -33 5 -63 10 -66 6 -4 10 15 10 49 0 53 1 56 25 56 14
0 25 5 25 10 0 6 -16 10 -35 10 l-35 0 0 -59z"/>
<path d="M2126 3164 c-38 -37 -1 -123 47 -108 12 3 28 11 35 16 15 13 16 80 0
96 -17 17 -64 15 -82 -4z m70 -29 c9 -36 -2 -55 -30 -55 -30 0 -46 41 -26 65
20 24 49 18 56 -10z"/>
<path d="M2342 3167 c-43 -52 -9 -113 61 -108 30 2 19 20 -15 23 -49 5 -48 28
1 28 44 0 51 12 31 51 -12 22 -62 26 -78 6z m58 -22 c0 -9 -9 -15 -25 -15 -24
0 -32 10 -18 23 12 13 43 7 43 -8z"/>
<path d="M2645 3164 c-25 -26 -16 -86 15 -101 27 -13 70 -7 70 8 0 5 -15 9
-34 9 -21 0 -36 6 -40 15 -4 12 4 15 38 15 41 0 44 2 39 23 -3 12 -10 28 -16
35 -13 17 -53 15 -72 -4z m63 -21 c2 -8 -6 -13 -22 -13 -25 0 -33 10 -19 24
10 10 36 3 41 -11z"/>
<path d="M2876 3158 c-39 -55 8 -125 68 -102 28 11 17 24 -19 24 -24 0 -35 5
-35 15 0 11 11 15 40 15 43 0 46 5 28 45 -15 33 -60 35 -82 3z m62 -15 c2 -8
-6 -13 -22 -13 -25 0 -33 10 -19 24 10 10 36 3 41 -11z"/>
<path d="M3080 3114 c0 -41 4 -63 10 -59 6 3 10 28 10 56 0 46 2 49 25 49 14
0 25 5 25 10 0 6 -16 10 -35 10 l-35 0 0 -66z"/>
<path d="M3170 3170 c0 -5 11 -10 25 -10 35 0 33 -28 -2 -32 -22 -2 -29 -9
-31 -30 -4 -32 25 -52 63 -42 22 5 25 11 25 53 0 26 -5 52 -12 59 -14 14 -68
16 -68 2z m60 -74 c0 -16 -19 -25 -37 -18 -23 8 -14 32 12 32 15 0 25 -6 25
-14z"/>
<path d="M3277 3173 c-16 -15 -5 -45 23 -61 43 -25 38 -38 -12 -33 -22 3 -24
-17 -2 -26 24 -9 64 14 64 37 0 12 -12 26 -30 35 -37 19 -39 35 -5 35 14 0 25
5 25 10 0 11 -53 14 -63 3z"/>
<path d="M3480 3101 c0 -44 4 -82 9 -86 5 -3 11 4 13 16 2 16 11 23 33 25 51
5 71 57 39 102 -11 16 -25 22 -55 22 l-39 0 0 -79z m79 37 c16 -44 -15 -82
-45 -57 -14 12 -19 60 -7 72 14 15 44 6 52 -15z"/>
<path d="M3610 3121 c0 -33 5 -63 10 -66 6 -4 10 15 10 49 0 53 1 56 25 56 14
0 25 5 25 10 0 6 -16 10 -35 10 l-35 0 0 -59z"/>
<path d="M3707 3162 c-23 -25 -21 -68 3 -92 24 -24 38 -25 68 -4 24 17 30 61
12 95 -14 25 -61 25 -83 1z m68 -22 c10 -33 -4 -60 -30 -60 -18 0 -26 7 -31
25 -11 46 47 79 61 35z"/>
<path d="M3960 3133 c0 -69 11 -79 78 -75 20 2 22 7 22 62 0 47 -3 60 -15 60
-11 0 -15 -12 -15 -49 0 -28 -5 -53 -10 -56 -21 -13 -40 17 -40 61 0 24 -4 44
-10 44 -5 0 -10 -21 -10 -47z"/>
<path d="M4096 3164 c-17 -16 -21 -50 -10 -79 8 -20 48 -37 69 -29 25 10 17
24 -14 24 -21 0 -32 6 -36 20 -9 29 12 60 40 60 14 0 25 5 25 10 0 16 -57 12
-74 -6z"/>
<path d="M4286 3164 c-19 -19 -21 -64 -3 -88 16 -21 60 -24 82 -6 18 15 20 81
3 98 -17 17 -64 15 -82 -4z m70 -29 c9 -36 -2 -55 -30 -55 -29 0 -42 30 -26
60 15 29 48 26 56 -5z"/>
<path d="M4410 3114 c0 -41 4 -63 10 -59 6 3 10 28 10 56 0 42 3 49 19 49 11
0 23 5 26 10 4 6 -8 10 -29 10 l-36 0 0 -66z"/>
<path d="M4500 3170 c0 -5 11 -10 25 -10 16 0 25 -6 25 -15 0 -9 -9 -15 -24
-15 -30 0 -50 -23 -41 -49 7 -22 40 -33 73 -24 18 4 22 12 22 45 0 55 -15 78
-50 78 -17 0 -30 -4 -30 -10z m50 -73 c0 -19 -10 -27 -26 -20 -21 8 -17 33 6
33 11 0 20 -6 20 -13z"/>
<path d="M4796 3158 c-39 -55 8 -125 68 -102 28 11 17 24 -19 24 -24 0 -35 5
-35 15 0 11 11 15 40 15 43 0 46 5 28 45 -15 33 -60 35 -82 3z m62 -15 c2 -8
-6 -13 -22 -13 -25 0 -33 10 -19 24 10 10 36 3 41 -11z"/>
<path d="M4964 3166 c-9 -23 0 -111 11 -109 6 2 11 25 13 53 3 42 6 50 23 50
10 0 19 5 19 10 0 15 -60 12 -66 -4z"/>
<path d="M5050 3171 c0 -5 11 -11 25 -13 35 -4 35 -22 -1 -28 -22 -4 -30 -11
-32 -32 -4 -32 27 -53 64 -44 21 6 24 12 24 50 0 65 -7 76 -46 76 -19 0 -34
-4 -34 -9z m58 -78 c-4 -20 -18 -26 -37 -14 -18 12 -5 31 20 31 14 0 19 -6 17
-17z"/>
<path d="M5292 3118 c2 -35 8 -63 13 -63 6 0 11 28 13 63 2 51 0 62 -13 62
-13 0 -15 -11 -13 -62z"/>
<path d="M5357 3162 c-48 -53 11 -135 69 -97 26 17 32 61 14 96 -14 25 -61 25
-83 1z m61 -14 c16 -16 15 -44 -3 -62 -31 -30 -67 13 -45 54 12 23 30 26 48 8z"/>
<path d="M5520 3163 c0 -10 10 -38 21 -63 19 -42 19 -45 3 -57 -9 -7 -21 -10
-25 -7 -5 3 -9 1 -9 -5 0 -19 21 -23 45 -7 16 11 31 38 45 82 11 37 18 69 16
72 -10 10 -24 -10 -30 -43 -9 -46 -22 -44 -37 5 -12 41 -29 54 -29 23z"/>
<path d="M3370 3050 c0 -16 5 -30 10 -30 6 0 10 3 10 8 0 4 3 17 6 30 5 16 2
22 -10 22 -11 0 -16 -9 -16 -30z"/>
<path d="M2650 2950 c0 -26 -4 -30 -28 -30 -48 0 -74 -46 -56 -95 9 -22 49
-37 80 -29 23 6 24 9 24 95 0 53 -4 89 -10 89 -5 0 -10 -13 -10 -30z m-2 -93
c3 -37 2 -38 -25 -35 -20 2 -29 9 -31 26 -5 36 5 54 30 50 19 -2 24 -10 26
-41z"/>
<path d="M3180 2890 c0 -94 17 -126 22 -42 2 39 7 48 24 50 24 3 34 -19 34
-76 0 -20 4 -31 10 -27 14 9 12 99 -2 113 -7 7 -25 12 -40 12 -24 0 -28 4 -28
30 0 17 -4 30 -10 30 -6 0 -10 -37 -10 -90z"/>
<path d="M4426 2973 c-3 -3 -6 -43 -6 -89 0 -78 1 -82 24 -88 31 -8 71 7 80
29 19 49 -5 95 -50 95 -19 0 -24 5 -24 24 0 26 -12 40 -24 29z m74 -88 c20
-24 4 -65 -25 -65 -22 0 -25 4 -25 40 0 32 4 40 19 40 10 0 24 -7 31 -15z"/>
<path d="M4680 2891 c0 -69 3 -90 15 -94 17 -7 30 9 15 18 -5 3 -10 42 -10 86
0 46 -4 79 -10 79 -6 0 -10 -36 -10 -89z"/>
<path d="M4737 2973 c-4 -3 -7 -41 -7 -84 0 -70 2 -80 21 -90 20 -10 21 -9 16
12 -4 13 -7 57 -7 97 0 66 -6 83 -23 65z"/>
<path d="M5236 2973 c-3 -3 -6 -17 -6 -30 0 -17 -6 -23 -23 -23 -63 0 -79 -98
-20 -121 13 -5 35 -6 49 -3 23 6 24 10 24 89 0 77 -7 104 -24 88z m-6 -113 c0
-36 -3 -40 -24 -40 -16 0 -27 7 -31 20 -8 26 11 60 35 60 17 0 20 -7 20 -40z"/>
<path d="M6350 2951 c0 -26 -4 -30 -32 -33 -22 -2 -37 -11 -47 -29 -30 -53 14
-108 75 -93 23 6 24 9 24 95 0 53 -4 89 -10 89 -5 0 -10 -13 -10 -29z m-2 -94
c3 -37 2 -38 -25 -35 -20 2 -29 9 -31 26 -5 36 5 54 30 50 19 -2 24 -10 26
-41z"/>
<path d="M2440 2955 c-21 -25 -1 -31 23 -7 17 18 18 22 5 22 -8 0 -21 -7 -28
-15z"/>
<path d="M4796 2963 c-11 -11 -6 -23 9 -23 8 0 15 4 15 9 0 13 -16 22 -24 14z"/>
<path d="M6050 2955 c0 -8 5 -15 10 -15 6 0 10 7 10 15 0 8 -4 15 -10 15 -5 0
-10 -7 -10 -15z"/>
<path d="M7180 2962 c-42 -6 -47 -22 -8 -22 20 0 39 4 43 9 7 13 -5 18 -35 13z"/>
<path d="M4128 2954 c-5 -4 -8 -38 -8 -75 0 -59 3 -70 21 -79 22 -12 49 -7 49
9 0 5 -10 11 -22 13 -19 2 -24 10 -26 41 -3 34 -1 37 22 37 14 0 26 5 26 10 0
6 -11 10 -24 10 -17 0 -26 6 -28 21 -2 11 -6 17 -10 13z"/>
<path d="M6576 2953 c-3 -3 -6 -35 -6 -69 0 -78 20 -105 64 -88 20 8 11 24
-14 24 -20 0 -28 22 -22 58 3 13 12 22 23 22 11 0 19 5 19 10 0 6 -9 10 -20
10 -11 0 -20 6 -20 14 0 17 -14 28 -24 19z"/>
<path d="M1900 2854 c0 -41 4 -63 10 -59 6 3 10 29 10 56 0 47 2 50 23 47 19
-3 22 -10 25 -50 4 -64 22 -61 22 3 0 47 2 50 23 47 18 -2 22 -10 25 -48 5
-74 23 -74 20 0 l-3 65 -77 2 -78 3 0 -66z"/>
<path d="M2100 2910 c0 -5 11 -10 25 -10 35 0 33 -28 -2 -32 -23 -2 -29 -9
-31 -34 -3 -27 1 -33 23 -38 49 -13 65 0 65 53 0 26 -5 52 -12 59 -14 14 -68
16 -68 2z m60 -74 c0 -19 -14 -28 -34 -20 -25 10 -19 34 9 34 15 0 25 -6 25
-14z"/>
<path d="M2210 2860 c0 -33 4 -60 10 -60 6 0 10 23 10 51 0 47 2 50 23 47 18
-2 22 -10 25 -48 5 -69 22 -74 22 -6 0 54 1 57 23 54 18 -2 22 -10 25 -48 5
-74 23 -74 20 0 l-3 65 -77 2 -78 2 0 -59z"/>
<path d="M2410 2911 c0 -5 11 -11 25 -13 34 -4 37 -22 5 -26 -33 -4 -52 -29
-40 -52 12 -23 36 -31 66 -24 21 5 24 12 24 53 0 26 -5 52 -12 59 -14 14 -68
16 -68 3z m60 -74 c0 -20 -9 -25 -31 -20 -28 8 -24 33 6 33 14 0 25 -6 25 -13z"/>
<path d="M2706 2898 c-39 -55 8 -125 68 -102 26 10 18 23 -16 26 -49 5 -48 28
1 28 33 0 41 4 41 18 0 24 -31 52 -58 52 -11 0 -28 -10 -36 -22z m62 -15 c2
-8 -6 -13 -22 -13 -25 0 -33 10 -19 24 10 10 36 3 41 -11z"/>
<path d="M2870 2877 c0 -65 23 -86 88 -78 15 1 17 121 2 121 -5 0 -10 -22 -10
-50 0 -47 -2 -50 -25 -50 -26 0 -29 6 -25 68 1 23 -3 32 -14 32 -12 0 -16 -11
-16 -43z"/>
<path d="M3000 2860 c0 -33 4 -60 10 -60 6 0 10 23 10 50 0 46 2 50 24 50 28
0 36 -16 36 -71 0 -24 4 -38 10 -34 14 9 12 99 -2 113 -7 7 -29 12 -50 12
l-38 0 0 -60z"/>
<path d="M3316 2898 c-38 -54 1 -117 63 -101 31 8 25 21 -11 25 -49 5 -48 28
2 28 41 0 42 1 35 27 -12 48 -62 59 -89 21z m62 -15 c2 -8 -6 -13 -22 -13 -25
0 -33 10 -19 24 10 10 36 3 41 -11z"/>
<path d="M3434 2906 c-9 -23 0 -111 11 -109 6 2 11 25 13 53 3 42 6 50 23 50
10 0 19 5 19 10 0 15 -60 12 -66 -4z"/>
<path d="M3518 2897 c-5 -35 3 -97 13 -97 5 0 9 23 9 51 0 47 2 50 23 47 19
-3 22 -10 25 -56 4 -66 22 -59 22 9 0 47 2 50 23 47 19 -3 22 -10 25 -56 2
-30 7 -50 13 -47 14 9 11 101 -3 113 -7 6 -43 10 -80 11 -61 0 -67 -2 -70 -22z"/>
<path d="M3722 2908 c-43 -55 0 -132 61 -109 57 22 38 121 -22 121 -16 0 -33
-6 -39 -12z m63 -48 c0 -31 -3 -35 -25 -35 -19 0 -26 6 -28 23 -5 36 5 54 30
50 19 -2 23 -9 23 -38z"/>
<path d="M3842 2908 c-20 -20 -14 -37 18 -53 17 -9 30 -20 30 -25 0 -6 -13
-10 -30 -10 -34 0 -40 -15 -10 -25 62 -20 94 47 34 73 -31 15 -31 32 1 32 14
0 25 5 25 10 0 14 -54 12 -68 -2z"/>
<path d="M3946 2898 c-22 -31 -20 -64 4 -88 25 -25 41 -25 71 -2 25 21 30 71
9 96 -19 24 -66 20 -84 -6z m69 -38 c0 -31 -3 -35 -25 -35 -19 0 -26 6 -28 23
-5 36 5 54 30 50 19 -2 23 -9 23 -38z"/>
<path d="M4214 2895 c-38 -58 24 -129 76 -87 26 21 32 71 10 96 -20 25 -67 20
-86 -9z m71 -35 c0 -31 -3 -35 -25 -35 -19 0 -26 6 -28 23 -5 36 5 54 30 50
19 -2 23 -9 23 -38z"/>
<path d="M4340 2854 c0 -41 4 -63 10 -59 6 3 10 28 10 56 0 46 2 49 25 49 14
0 25 5 25 10 0 6 -16 10 -35 10 l-35 0 0 -66z"/>
<path d="M4562 2908 c-7 -7 -12 -29 -12 -50 0 -43 34 -74 70 -63 26 8 26 29 0
22 -12 -3 -27 2 -37 11 -16 16 -14 17 25 20 36 3 42 6 42 26 0 29 -18 46 -50
46 -14 0 -31 -5 -38 -12z m62 -23 c4 -11 -2 -15 -24 -15 -22 0 -28 4 -24 15 4
8 14 15 24 15 10 0 20 -7 24 -15z"/>
<path d="M4790 2861 c0 -34 4 -61 10 -61 6 0 10 23 10 50 0 28 0 53 1 57 0 4
-4 9 -10 11 -7 2 -11 -18 -11 -57z"/>
<path d="M4849 2888 c-6 -48 1 -99 12 -93 5 4 9 29 9 56 0 47 2 50 23 47 18
-2 23 -11 27 -51 6 -57 25 -59 25 -2 -1 64 -9 75 -54 75 -36 0 -39 -2 -42 -32z"/>
<path d="M4982 2908 c-21 -21 -15 -85 10 -102 30 -21 44 -20 68 4 25 25 26 72
2 93 -22 20 -63 22 -80 5z m68 -28 c16 -30 3 -60 -26 -60 -28 0 -39 19 -30 55
8 31 41 34 56 5z"/>
<path d="M5296 2901 c-26 -29 -18 -83 15 -98 19 -9 34 -10 50 -4 27 11 26 12
-15 17 -16 2 -33 9 -37 16 -6 10 3 14 37 16 41 3 44 5 38 25 -15 50 -56 63
-88 28z m62 -18 c2 -8 -6 -13 -22 -13 -25 0 -33 10 -19 24 10 10 36 3 41 -11z"/>
<path d="M5472 2908 c-18 -23 -23 -57 -12 -78 13 -24 53 -42 75 -34 25 10 17
23 -17 26 -49 5 -48 28 1 28 44 0 51 12 31 51 -12 22 -62 26 -78 7z m58 -23
c0 -9 -9 -15 -25 -15 -24 0 -32 10 -18 23 12 13 43 7 43 -8z"/>
<path d="M5584 2906 c-9 -23 0 -111 11 -109 6 2 11 26 13 53 3 46 5 51 25 48
19 -3 22 -10 25 -56 2 -30 7 -50 13 -47 13 9 11 99 -3 113 -17 17 -77 15 -84
-2z"/>
<path d="M5720 2901 c-5 -11 -10 -33 -10 -50 0 -36 37 -66 70 -56 30 10 24 23
-12 27 -49 5 -48 28 1 28 36 0 41 3 41 23 0 13 -5 28 -12 35 -19 19 -66 15
-78 -7z m64 -16 c4 -11 -2 -15 -24 -15 -22 0 -28 4 -24 15 4 8 14 15 24 15 10
0 20 -7 24 -15z"/>
<path d="M5838 2871 c-4 -58 0 -83 13 -76 5 4 9 28 9 56 0 42 3 49 19 49 11 0
23 5 26 10 4 6 -8 10 -28 10 -35 0 -35 0 -39 -49z"/>
<path d="M5930 2904 c-20 -23 -16 -75 5 -90 10 -8 30 -14 44 -14 19 0 22 -3
13 -12 -6 -6 -25 -11 -42 -10 -16 0 -30 -3 -30 -8 0 -16 40 -21 67 -8 26 12
28 18 31 86 l3 72 -39 0 c-24 0 -45 -6 -52 -16z m70 -39 c0 -39 -21 -55 -45
-35 -15 13 -20 51 -8 63 3 4 17 7 30 7 20 0 23 -5 23 -35z"/>
<path d="M6050 2860 c0 -33 4 -60 10 -60 6 0 10 27 10 60 0 33 -4 60 -10 60
-6 0 -10 -27 -10 -60z"/>
<path d="M6110 2910 c0 -5 11 -10 25 -10 16 0 25 -6 25 -15 0 -9 -9 -15 -24
-15 -30 0 -50 -23 -41 -49 7 -22 40 -33 73 -24 18 4 22 12 22 45 0 55 -15 78
-50 78 -17 0 -30 -4 -30 -10z m50 -73 c0 -19 -10 -27 -26 -20 -21 8 -17 33 6
33 11 0 20 -6 20 -13z"/>
<path d="M6406 2898 c-19 -27 -20 -59 -3 -80 14 -18 52 -29 73 -21 20 7 17 25
-3 22 -37 -3 -53 1 -53 16 0 11 11 15 41 15 40 0 41 1 34 27 -12 48 -62 59
-89 21z m62 -15 c2 -8 -6 -13 -22 -13 -25 0 -33 10 -19 24 10 10 36 3 41 -11z"/>
<path d="M6660 2861 c0 -33 5 -63 10 -66 6 -4 10 15 10 49 0 53 1 56 25 56 14
0 25 5 25 10 0 6 -16 10 -35 10 l-35 0 0 -59z"/>
<path d="M6755 2904 c-10 -11 -15 -29 -13 -53 2 -28 9 -39 31 -49 29 -14 72
-7 61 10 -3 5 -15 8 -25 5 -11 -3 -27 2 -36 11 -16 16 -14 17 25 20 36 3 42 6
42 26 0 44 -52 63 -85 30z m63 -21 c2 -8 -6 -13 -22 -13 -25 0 -33 10 -19 24
10 10 36 3 41 -11z"/>
<path d="M6864 2905 c-9 -23 3 -44 31 -55 42 -16 31 -35 -17 -31 -25 3 -22
-16 2 -24 13 -4 31 0 46 10 20 13 23 19 14 36 -6 11 -22 24 -36 29 -30 12 -23
30 12 30 13 0 24 5 24 10 0 16 -70 12 -76 -5z"/>
<path d="M7020 2911 c0 -5 12 -11 27 -13 39 -5 40 -26 1 -30 -27 -2 -34 -8
-36 -30 -4 -32 27 -53 64 -44 21 6 24 12 24 54 0 26 -5 53 -12 60 -14 14 -68
16 -68 3z m60 -76 c0 -9 -9 -15 -25 -15 -24 0 -32 10 -18 23 12 13 43 7 43 -8z"/>
<path d="M7130 2861 c0 -33 5 -63 10 -66 6 -4 10 15 10 49 0 52 2 56 24 56 28
0 36 -16 36 -71 0 -24 4 -38 10 -34 14 9 12 99 -2 113 -7 7 -29 12 -50 12
l-38 0 0 -59z"/>
<path d="M7266 2898 c-29 -42 -15 -89 31 -103 34 -10 77 37 68 73 -10 39 -24
52 -56 52 -17 0 -34 -8 -43 -22z m69 -38 c0 -31 -3 -35 -25 -35 -19 0 -26 6
-28 23 -5 36 5 54 30 50 19 -2 23 -9 23 -38z"/>
<path d="M7387 2913 c-16 -15 -5 -44 23 -58 45 -23 39 -41 -12 -36 -24 3 -23
-16 2 -24 26 -8 60 11 60 35 0 12 -13 28 -30 39 -33 19 -30 31 7 31 13 0 23 5
23 10 0 11 -63 14 -73 3z"/>
<path d="M7482 2808 c6 -18 28 -21 28 -4 0 9 -7 16 -16 16 -9 0 -14 -5 -12
-12z"/>
<path d="M2860 2691 c0 -26 -4 -30 -32 -33 -24 -2 -36 -10 -46 -30 -24 -50 21
-107 74 -94 23 6 24 10 24 96 0 53 -4 90 -10 90 -5 0 -10 -13 -10 -29z m-2
-94 c3 -37 2 -38 -25 -35 -20 2 -29 9 -31 26 -5 36 5 54 30 50 19 -2 24 -10
26 -41z"/>
<path d="M4245 2704 c-12 -13 -15 -33 -13 -93 2 -43 7 -74 12 -71 5 3 8 26 7
53 -2 45 -1 47 23 47 14 0 26 5 26 10 0 6 -11 10 -25 10 -14 0 -25 4 -25 9 0
14 28 33 40 26 5 -3 10 1 10 9 0 21 -34 20 -55 0z"/>
<path d="M4690 2691 c0 -26 -4 -30 -32 -33 -22 -2 -37 -11 -47 -29 -30 -53 14
-108 75 -93 23 6 24 9 24 95 0 53 -4 89 -10 89 -5 0 -10 -13 -10 -29z m-2 -94
c3 -37 2 -38 -25 -35 -20 2 -29 9 -31 26 -5 36 5 54 30 50 19 -2 24 -10 26
-41z"/>
<path d="M5185 2708 c-3 -8 -5 -48 -3 -89 2 -56 7 -74 18 -77 13 -2 15 11 12
80 -4 81 -15 117 -27 86z"/>
<path d="M5320 2690 c0 -27 -3 -30 -30 -30 -37 0 -65 -38 -56 -75 8 -33 49
-59 81 -51 24 6 25 9 25 96 0 53 -4 90 -10 90 -5 0 -10 -13 -10 -30z m-2 -93
c3 -37 2 -38 -25 -35 -20 2 -29 9 -31 26 -5 36 5 54 30 50 19 -2 24 -10 26
-41z"/>
<path d="M5505 2708 c-3 -8 -5 -48 -3 -89 2 -56 7 -74 18 -77 13 -2 15 11 12
80 -4 81 -15 117 -27 86z"/>
<path d="M6862 2633 c3 -79 5 -88 23 -91 16 -3 18 -1 8 9 -8 8 -13 42 -13 91
0 47 -4 78 -10 78 -7 0 -10 -32 -8 -87z"/>
<path d="M7325 2700 c-25 -27 -10 -39 16 -13 12 11 17 23 11 27 -5 3 -17 -3
-27 -14z"/>
<path d="M8830 2630 c0 -86 1 -90 22 -90 17 0 19 3 10 12 -7 7 -12 43 -12 90
0 45 -4 78 -10 78 -6 0 -10 -37 -10 -90z"/>
<path d="M7500 2696 c0 -9 7 -16 16 -16 9 0 14 5 12 12 -6 18 -28 21 -28 4z"/>
<path d="M1906 2684 c-10 -27 -7 -156 4 -149 6 3 10 28 10 56 0 59 12 63 33 9
8 -22 20 -40 26 -40 6 0 21 19 33 43 l23 42 5 -55 c3 -30 10 -54 15 -52 6 1
10 7 9 12 -1 6 -2 42 -2 80 -2 86 -18 92 -52 20 -13 -27 -26 -50 -29 -50 -3 0
-16 23 -28 50 -22 52 -36 62 -47 34z"/>
<path d="M2730 2690 c0 -5 5 -10 10 -10 6 0 10 5 10 10 0 6 -4 10 -10 10 -5 0
-10 -4 -10 -10z"/>
<path d="M4930 2678 c-58 -62 7 -172 84 -142 28 11 17 22 -20 21 -53 -1 -80
52 -49 99 14 21 23 25 51 22 23 -3 34 0 34 9 0 23 -76 16 -100 -9z"/>
<path d="M6607 2693 c-4 -7 -3 -85 2 -134 1 -18 35 -31 57 -22 23 9 16 23 -11
23 -22 0 -25 4 -25 40 0 33 3 40 20 40 11 0 20 5 20 10 0 6 -9 10 -20 10 -13
0 -20 7 -20 20 0 20 -15 27 -23 13z"/>
<path d="M2100 2641 c-5 -11 -10 -33 -10 -50 0 -36 37 -66 70 -56 30 10 24 23
-12 27 -49 5 -48 28 1 28 36 0 41 3 41 23 0 13 -5 28 -12 35 -19 19 -66 15
-78 -7z m63 -16 c-1 -5 -14 -11 -28 -13 -19 -3 -24 0 -19 13 7 17 51 17 47 0z"/>
<path d="M2276 2638 c-40 -56 5 -122 66 -99 24 9 16 16 -27 23 -16 3 -20 11
-20 38 0 31 3 35 28 38 36 4 35 22 -2 22 -20 0 -35 -8 -45 -22z"/>
<path d="M2380 2644 c-36 -42 5 -123 54 -108 45 13 59 61 30 102 -18 26 -65
30 -84 6z m65 -44 c0 -31 -3 -35 -25 -35 -19 0 -26 6 -28 23 -5 36 5 54 30 50
19 -2 23 -9 23 -38z"/>
<path d="M2504 2646 c-9 -23 0 -111 11 -109 6 2 11 26 13 53 3 46 5 51 25 48
18 -2 23 -10 25 -48 5 -67 22 -75 22 -9 0 30 -5 60 -12 67 -17 17 -77 15 -84
-2z"/>
<path d="M2631 2646 c-15 -18 2 -56 24 -56 19 0 30 -21 15 -30 -7 -4 -21 -5
-31 -3 -25 7 -24 -14 1 -22 62 -20 94 47 34 73 -31 15 -31 32 1 32 14 0 25 5
25 10 0 15 -56 12 -69 -4z"/>
<path d="M2730 2594 c0 -41 4 -63 10 -59 6 3 10 33 10 66 0 33 -4 59 -10 59
-6 0 -10 -29 -10 -66z"/>
<path d="M2923 2648 c-40 -52 0 -131 57 -113 25 8 26 29 1 22 -20 -5 -51 9
-51 23 0 6 18 10 40 10 43 0 50 13 30 51 -12 22 -62 26 -77 7z m57 -23 c0 -9
-9 -15 -25 -15 -24 0 -32 10 -18 23 12 13 43 7 43 -8z"/>
<path d="M3039 2623 c-5 -52 1 -94 12 -88 5 4 9 28 9 56 0 46 2 49 25 49 14 0
25 5 25 10 0 6 -15 10 -34 10 -32 0 -34 -2 -37 -37z"/>
<path d="M3126 2638 c-29 -41 -15 -89 30 -102 49 -15 90 66 54 108 -19 24 -66
20 -84 -6z m69 -38 c0 -31 -3 -35 -25 -35 -19 0 -26 6 -28 23 -5 36 5 54 30
50 19 -2 23 -9 23 -38z"/>
<path d="M3302 2608 c3 -45 7 -55 28 -65 15 -7 36 -10 48 -6 20 5 22 12 22 64
0 33 -4 59 -10 59 -10 0 -14 -32 -10 -78 1 -20 -2 -23 -27 -20 -26 3 -28 7
-31 51 -2 26 -8 47 -13 47 -6 0 -9 -22 -7 -52z"/>
<path d="M3430 2600 c0 -33 4 -60 10 -60 6 0 10 23 10 51 0 47 2 50 23 47 19
-3 22 -10 25 -50 2 -34 7 -48 18 -48 10 0 14 12 14 41 0 61 -14 79 -60 79
l-40 0 0 -60z"/>
<path d="M3560 2651 c0 -6 14 -11 30 -11 20 0 30 -5 30 -15 0 -8 -9 -15 -19
-15 -35 0 -51 -12 -51 -36 0 -28 35 -46 69 -37 20 5 22 11 19 62 l-3 56 -37 3
c-22 2 -38 -1 -38 -7z m60 -75 c0 -8 -5 -18 -10 -21 -13 -8 -42 14 -34 26 9
15 44 10 44 -5z"/>
<path d="M3732 2648 c-7 -7 -12 -29 -12 -50 0 -40 19 -58 60 -58 12 0 18 -4
15 -10 -3 -5 -19 -10 -35 -10 -37 0 -47 -16 -16 -24 27 -7 57 1 68 18 4 6 8
41 8 79 l0 67 -38 0 c-21 0 -43 -5 -50 -12z m68 -43 c0 -39 -21 -55 -45 -35
-29 24 -11 70 27 70 14 0 18 -8 18 -35z"/>
<path d="M3854 2646 c-9 -23 0 -111 11 -109 6 2 11 25 13 53 3 42 6 50 23 50
10 0 19 5 19 10 0 15 -60 12 -66 -4z"/>
<path d="M3940 2651 c0 -5 12 -11 27 -13 39 -5 40 -26 1 -30 -27 -2 -34 -8
-36 -30 -4 -32 27 -53 64 -44 21 6 24 12 24 54 0 26 -5 53 -12 60 -14 14 -68
16 -68 3z m58 -78 c-4 -20 -18 -26 -37 -14 -18 12 -5 31 20 31 14 0 19 -6 17
-17z"/>
<path d="M4050 2601 c0 -33 5 -63 10 -66 6 -4 10 15 10 49 0 52 2 56 24 56 26
0 36 -21 36 -78 0 -20 4 -31 10 -27 14 9 12 99 -2 113 -7 7 -29 12 -50 12
l-38 0 0 -59z"/>
<path d="M4320 2651 c0 -5 12 -11 27 -13 39 -5 40 -26 1 -30 -27 -2 -34 -8
-36 -30 -4 -32 27 -53 64 -44 22 6 24 12 24 60 0 40 -4 55 -16 60 -24 9 -64 7
-64 -3z m60 -75 c0 -19 -14 -28 -34 -20 -25 10 -19 34 9 34 15 0 25 -6 25 -14z"/>
<path d="M4430 2600 c0 -33 4 -60 10 -60 6 0 10 23 10 51 0 47 2 50 23 47 18
-2 23 -11 27 -51 6 -60 24 -66 28 -10 5 62 -10 83 -58 83 l-40 0 0 -60z"/>
<path d="M4752 2648 c-18 -23 -23 -57 -12 -77 14 -27 46 -44 70 -36 30 10 24
23 -12 27 -49 5 -48 28 1 28 44 0 51 12 31 51 -12 22 -62 26 -78 7z m58 -23
c0 -9 -9 -15 -25 -15 -24 0 -32 10 -18 23 12 13 43 7 43 -8z"/>
<path d="M5062 2648 c-44 -56 2 -134 62 -107 55 25 37 119 -23 119 -16 0 -33
-6 -39 -12z m63 -48 c0 -31 -3 -35 -25 -35 -19 0 -26 6 -28 23 -5 36 5 54 30
50 19 -2 23 -9 23 -38z"/>
<path d="M5370 2581 c0 -44 4 -82 9 -86 5 -3 11 4 13 16 2 16 11 23 33 25 51
5 71 57 39 102 -11 16 -25 22 -55 22 l-39 0 0 -79z m78 16 c3 -37 2 -38 -25
-35 -25 3 -28 8 -31 41 -3 37 -2 38 25 35 25 -3 28 -8 31 -41z"/>
<path d="M5560 2651 c0 -6 14 -11 30 -11 20 0 30 -5 30 -15 0 -9 -9 -15 -23
-15 -46 0 -64 -50 -26 -70 11 -7 32 -9 45 -6 23 6 25 10 22 64 l-3 57 -37 3
c-22 2 -38 -1 -38 -7z m60 -74 c0 -8 -3 -17 -6 -20 -10 -9 -46 12 -39 24 9 14
45 11 45 -4z"/>
<path d="M5660 2648 c0 -7 9 -33 20 -57 25 -54 25 -71 1 -71 -11 0 -22 -4 -26
-9 -9 -16 12 -22 38 -12 25 10 50 59 62 124 11 55 -10 46 -25 -10 -13 -51 -14
-50 -40 20 -10 27 -30 38 -30 15z"/>
<path d="M5890 2594 c0 -41 4 -63 10 -59 6 3 10 29 10 56 0 47 2 50 23 47 19
-3 22 -10 25 -56 4 -66 22 -59 22 9 0 47 2 50 23 47 19 -3 22 -10 25 -50 2
-27 7 -48 13 -48 11 0 12 90 1 107 -4 7 -35 12 -80 12 l-72 0 0 -65z"/>
<path d="M6087 2642 c-44 -49 7 -129 67 -106 22 8 20 26 -1 23 -37 -3 -53 1
-53 16 0 11 11 15 40 15 33 0 40 3 40 19 0 46 -62 67 -93 33z m61 -19 c2 -8
-6 -13 -22 -13 -25 0 -33 10 -19 24 10 10 36 3 41 -11z"/>
<path d="M6262 2648 c-7 -7 -12 -29 -12 -50 0 -40 19 -58 61 -58 17 0 20 -3
11 -12 -6 -6 -25 -11 -42 -10 -16 0 -30 -4 -30 -9 0 -18 80 -14 92 4 4 7 8 42
8 80 l0 67 -38 0 c-21 0 -43 -5 -50 -12z m68 -43 c0 -39 -21 -55 -45 -35 -29
24 -11 70 27 70 14 0 18 -8 18 -35z"/>
<path d="M6380 2615 c0 -54 29 -90 63 -81 12 3 25 6 30 6 11 0 8 120 -3 120
-5 0 -10 -22 -10 -49 0 -31 -5 -51 -12 -54 -28 -9 -38 6 -38 54 0 37 -4 49
-15 49 -11 0 -15 -12 -15 -45z"/>
<path d="M6511 2646 c-15 -18 -5 -41 25 -54 40 -19 30 -37 -18 -33 -25 3 -23
-16 2 -24 62 -20 94 47 34 73 -31 15 -31 32 1 32 14 0 25 5 25 10 0 15 -56 12
-69 -4z"/>
<path d="M6700 2651 c0 -5 11 -11 25 -13 34 -4 37 -22 5 -26 -33 -4 -52 -29
-40 -52 12 -23 36 -31 66 -24 21 5 24 12 24 53 0 26 -5 52 -12 59 -14 14 -68
16 -68 3z m55 -71 c3 -5 4 -14 1 -19 -9 -13 -46 -1 -46 15 0 16 36 19 45 4z"/>
<path d="M6920 2651 c0 -6 14 -11 30 -11 20 0 30 -5 30 -15 0 -9 -9 -15 -23
-15 -48 0 -65 -54 -23 -70 13 -5 34 -6 45 -3 20 5 22 11 19 62 l-3 56 -37 3
c-22 2 -38 -1 -38 -7z m60 -75 c0 -8 -5 -18 -10 -21 -13 -8 -42 14 -34 26 9
15 44 10 44 -5z"/>
<path d="M7084 2646 c-9 -23 0 -111 11 -109 6 2 11 25 13 53 3 41 6 50 22 50
16 0 19 -9 22 -50 4 -67 22 -69 26 -2 3 43 6 52 21 52 20 0 31 -26 31 -78 0
-20 4 -31 10 -27 13 8 13 81 0 106 -9 16 -22 19 -81 19 -50 0 -71 -4 -75 -14z"/>
<path d="M7280 2613 c0 -69 11 -79 78 -75 20 2 22 7 22 62 0 47 -3 60 -15 60
-11 0 -15 -12 -15 -51 0 -47 -2 -50 -22 -47 -20 3 -23 10 -26 51 -2 26 -7 47
-13 47 -5 0 -9 -21 -9 -47z"/>
<path d="M7407 2653 c-16 -15 -5 -45 23 -61 38 -22 38 -32 0 -32 -16 0 -30 -4
-30 -9 0 -16 38 -23 60 -11 29 15 22 51 -12 68 -35 16 -36 32 -3 32 14 0 25 5
25 10 0 11 -53 14 -63 3z"/>
<path d="M7500 2600 c0 -33 4 -60 10 -60 6 0 10 27 10 60 0 33 -4 60 -10 60
-6 0 -10 -27 -10 -60z"/>
<path d="M7565 2644 c-26 -26 -16 -86 17 -101 26 -13 58 -8 58 9 0 5 -6 8 -12
7 -34 -4 -48 3 -54 26 -8 31 10 55 42 55 13 0 24 5 24 10 0 16 -57 11 -75 -6z"/>
<path d="M7660 2651 c0 -6 14 -11 30 -11 20 0 30 -5 30 -15 0 -9 -9 -15 -23
-15 -46 0 -65 -50 -26 -70 11 -6 32 -9 47 -5 26 5 27 7 22 63 l-5 57 -37 3
c-22 2 -38 -1 -38 -7z m58 -78 c-2 -12 -11 -17 -23 -15 -25 5 -29 8 -20 21 11
19 47 13 43 -6z"/>
<path d="M7830 2640 c-19 -36 -8 -83 22 -97 27 -14 58 -8 58 9 0 6 -8 8 -19 5
-20 -5 -51 9 -51 23 0 6 18 10 40 10 35 0 40 3 40 23 0 31 -18 47 -52 47 -17
0 -31 -7 -38 -20z m65 -15 c0 -5 -10 -11 -22 -13 -16 -2 -23 2 -23 13 0 11 7
15 23 13 12 -2 22 -7 22 -13z"/>
<path d="M7950 2600 c0 -33 4 -60 10 -60 6 0 10 23 10 51 0 47 2 50 23 47 18
-2 23 -11 27 -51 6 -60 24 -66 28 -10 5 62 -10 83 -58 83 l-40 0 0 -60z"/>
<path d="M8136 2644 c-36 -35 -7 -104 42 -104 12 0 22 -4 22 -10 0 -10 -19
-14 -52 -11 -10 1 -18 -2 -18 -8 0 -16 35 -22 64 -12 26 11 28 16 28 91 0 70
0 70 -36 70 -19 0 -42 -7 -50 -16z m64 -39 c0 -41 -23 -56 -48 -32 -21 21 -2
67 28 67 16 0 20 -7 20 -35z"/>
<path d="M8260 2641 c-21 -41 -9 -88 26 -101 27 -11 75 2 55 14 -6 4 -18 5
-26 2 -8 -3 -22 3 -32 12 -16 16 -14 17 25 20 43 3 51 16 36 56 -9 24 -71 21
-84 -3z m68 -18 c2 -8 -6 -13 -22 -13 -25 0 -33 10 -19 24 10 10 36 3 41 -11z"/>
<path d="M8380 2600 c0 -33 4 -60 10 -60 6 0 10 23 10 50 0 46 2 50 24 50 23
0 25 -4 28 -52 4 -63 22 -70 26 -11 5 62 -10 83 -58 83 l-40 0 0 -60z"/>
<path d="M8510 2641 c-16 -31 -12 -69 10 -91 22 -22 25 -23 57 -14 30 8 19 24
-17 24 -15 0 -30 7 -34 15 -4 12 4 15 38 15 41 0 44 2 39 23 -9 34 -23 47 -54
47 -18 0 -32 -7 -39 -19z m68 -18 c2 -8 -6 -13 -22 -13 -25 0 -33 10 -19 24
10 10 36 3 41 -11z"/>
<path d="M8634 2646 c-8 -22 0 -111 11 -111 5 0 8 24 6 53 -2 50 -1 52 23 52
14 0 26 5 26 10 0 15 -60 12 -66 -4z"/>
<path d="M8720 2650 c0 -5 11 -10 25 -10 35 0 33 -28 -2 -32 -22 -2 -29 -9
-31 -30 -4 -32 27 -53 64 -44 21 6 24 12 24 54 0 26 -5 53 -12 60 -14 14 -68
16 -68 2z m60 -74 c0 -16 -19 -25 -37 -18 -23 8 -14 32 12 32 15 0 25 -6 25
-14z"/>
<path d="M5789 2565 c-13 -22 -19 -65 -9 -65 6 0 13 6 16 14 7 19 1 64 -7 51z"/>
<path d="M8882 2548 c6 -18 28 -21 28 -4 0 9 -7 16 -16 16 -9 0 -14 -5 -12
-12z"/>
<path d="M2340 2371 c0 -98 17 -135 22 -49 2 42 7 54 22 56 25 5 36 -14 36
-66 0 -26 4 -41 10 -37 14 9 12 99 -2 113 -7 7 -25 12 -40 12 -24 0 -28 4 -28
30 0 17 -4 30 -10 30 -6 0 -10 -36 -10 -89z"/>
<path d="M2710 2430 c0 -27 -3 -30 -30 -30 -35 0 -53 -26 -48 -73 3 -36 44
-63 78 -52 18 6 20 15 20 96 0 53 -4 89 -10 89 -5 0 -10 -13 -10 -30z m0 -88
c0 -45 -4 -52 -30 -45 -42 11 -36 83 6 83 21 0 24 -4 24 -38z"/>
<path d="M2056 2443 c-11 -11 -6 -23 9 -23 8 0 15 4 15 9 0 13 -16 22 -24 14z"/>
<path d="M3296 2443 c-11 -11 -6 -23 9 -23 8 0 15 4 15 9 0 13 -16 22 -24 14z"/>
<path d="M1900 2360 c0 -47 4 -80 10 -80 6 0 10 16 10 35 0 34 1 35 40 35 39
0 40 -1 40 -34 0 -19 5 -38 10 -41 6 -4 10 25 10 79 0 51 -4 86 -10 86 -5 0
-10 -16 -10 -35 0 -34 -1 -35 -40 -35 -39 0 -40 1 -40 35 0 19 -4 35 -10 35
-6 0 -10 -33 -10 -80z"/>
<path d="M2940 2360 c0 -47 4 -80 10 -80 6 0 10 14 10 30 0 23 5 30 19 30 11
0 28 -13 38 -30 9 -16 23 -30 30 -30 18 0 16 7 -7 40 -17 24 -18 29 -5 34 9 3
15 18 15 35 0 36 -22 51 -74 51 l-36 0 0 -80z m80 45 c17 -20 -3 -45 -36 -45
-20 0 -24 5 -24 30 0 25 4 30 24 30 13 0 29 -7 36 -15z"/>
<path d="M2058 2335 c5 -81 22 -76 22 6 0 40 -4 59 -12 59 -10 0 -12 -18 -10
-65z"/>
<path d="M2110 2334 c0 -41 4 -63 10 -59 6 3 10 29 10 56 0 47 2 50 23 47 18
-2 23 -11 27 -51 6 -60 24 -66 28 -10 5 62 -10 83 -58 83 l-40 0 0 -66z"/>
<path d="M2246 2384 c-22 -22 -20 -70 4 -94 21 -21 29 -23 54 -14 24 9 19 22
-10 26 -15 2 -32 11 -38 21 -15 24 3 51 38 55 14 2 26 8 26 13 0 15 -57 10
-74 -7z"/>
<path d="M2470 2391 c0 -5 12 -11 27 -13 34 -4 43 -28 11 -28 -50 0 -67 -53
-22 -70 14 -6 35 -8 47 -5 20 6 22 11 17 63 l-5 57 -37 3 c-21 2 -38 -1 -38
-7z m60 -74 c0 -8 -3 -17 -6 -20 -10 -9 -46 12 -39 24 9 14 45 11 45 -4z"/>
<path d="M2776 2384 c-17 -16 -21 -50 -10 -79 8 -21 45 -35 73 -28 29 7 16 23
-19 23 -15 0 -30 7 -34 15 -4 12 3 15 34 15 35 0 40 3 40 23 0 45 -52 64 -84
31z m62 -21 c2 -8 -6 -13 -22 -13 -25 0 -33 10 -19 24 10 10 36 3 41 -11z"/>
<path d="M3080 2391 c0 -6 14 -11 30 -11 20 0 30 -5 30 -15 0 -9 -9 -15 -23
-15 -46 0 -64 -50 -26 -70 11 -7 32 -9 45 -6 23 6 25 10 22 64 l-3 57 -37 3
c-22 2 -38 -1 -38 -7z m60 -74 c0 -8 -3 -17 -6 -20 -10 -9 -46 12 -39 24 9 14
45 11 45 -4z"/>
<path d="M3200 2381 c-5 -11 -10 -33 -10 -50 0 -36 37 -66 70 -56 30 9 24 25
-9 25 -21 0 -32 6 -36 20 -11 35 3 60 36 60 16 0 29 5 29 10 0 6 -16 10 -35
10 -24 0 -37 -6 -45 -19z"/>
<path d="M3298 2335 c5 -81 22 -76 22 6 0 40 -4 59 -12 59 -10 0 -12 -18 -10
-65z"/>
<path d="M3350 2341 c0 -75 18 -90 22 -19 2 42 7 54 22 56 25 5 36 -14 36 -66
0 -26 4 -41 10 -37 14 9 12 99 -2 113 -7 7 -29 12 -50 12 l-38 0 0 -59z"/>
<path d="M3486 2378 c-9 -12 -16 -29 -16 -38 0 -27 30 -60 56 -60 13 0 24 -4
24 -10 0 -10 -19 -14 -52 -11 -25 3 -22 -16 3 -22 31 -8 68 9 74 36 4 13 5 46
3 73 -3 49 -3 49 -40 52 -28 2 -40 -2 -52 -20z m64 -32 c0 -19 -4 -37 -9 -40
-19 -12 -41 7 -41 33 0 32 7 41 32 41 14 0 18 -8 18 -34z"/>
<path d="M3602 2289 c2 -6 8 -10 13 -10 5 0 11 4 13 10 2 6 -4 11 -13 11 -9 0
-15 -5 -13 -11z"/>
<path d="M2960 1524 c0 -80 3 -105 13 -102 7 3 13 27 15 62 3 53 5 57 25 54
19 -3 23 -11 27 -57 7 -78 30 -80 30 -3 0 65 -17 91 -57 87 -20 -1 -23 3 -23
32 0 23 -5 33 -15 33 -12 0 -15 -18 -15 -106z"/>
<path d="M2152 1518 l3 -93 49 0 c31 0 51 5 54 13 2 8 -9 12 -37 12 l-41 0 0
80 c0 65 -3 80 -15 80 -13 0 -15 -15 -13 -92z"/>
<path d="M2290 1550 c-41 -41 -14 -130 40 -130 29 0 70 44 70 75 0 31 -41 75
-70 75 -11 0 -29 -9 -40 -20z m68 -22 c27 -27 7 -78 -29 -78 -21 0 -33 32 -25
66 7 26 34 32 54 12z"/>
<path d="M2495 1545 c-45 -45 -25 -112 37 -121 28 -5 38 -11 38 -25 0 -11 6
-19 13 -19 16 0 11 171 -6 182 -23 15 -58 8 -82 -17z m71 -47 c-1 -46 -23 -62
-51 -38 -32 27 -11 80 31 80 18 0 21 -5 20 -42z"/>
<path d="M2780 1550 c-12 -12 -20 -33 -20 -55 0 -56 44 -88 94 -69 28 11 17
23 -21 26 -27 2 -39 8 -41 21 -3 14 4 17 42 17 39 0 46 3 46 20 0 11 -9 29
-20 40 -11 11 -29 20 -40 20 -11 0 -29 -9 -40 -20z m68 -27 c2 -9 -7 -13 -27
-13 -30 0 -39 9 -24 24 11 10 46 3 51 -11z"/>
<path d="M3117 1564 c-14 -14 -7 -23 20 -26 38 -4 42 -28 5 -28 -37 0 -56 -22
-48 -55 7 -28 41 -41 81 -31 23 6 25 11 25 59 0 28 -4 58 -8 64 -10 15 -64 28
-75 17z m53 -94 c0 -15 -7 -20 -25 -20 -24 0 -34 18 -18 33 15 15 43 7 43 -13z"/>
<path d="M3243 1544 c-43 -43 -16 -114 43 -114 16 0 24 -5 21 -12 -2 -8 -19
-12 -41 -11 -26 2 -36 -2 -36 -12 0 -18 61 -21 91 -5 16 9 19 22 19 90 0 44
-3 81 -7 82 -41 8 -70 2 -90 -18z m67 -44 c0 -36 -3 -40 -25 -40 -18 0 -26 7
-31 25 -7 29 10 55 37 55 15 0 19 -8 19 -40z"/>
<path d="M3389 1551 c-48 -38 -18 -131 42 -131 55 0 83 102 37 134 -29 21 -51
20 -79 -3z m66 -56 c0 -36 -3 -40 -24 -40 -34 0 -48 26 -33 60 9 19 18 25 35
23 19 -3 22 -9 22 -43z"/>
<path d="M2620 1510 c0 -72 33 -101 95 -84 17 4 20 13 18 52 -2 78 -3 82 -13
82 -5 0 -10 -25 -10 -56 0 -54 0 -55 -27 -52 -26 3 -28 7 -31 56 -2 37 -7 52
-18 52 -10 0 -14 -13 -14 -50z"/>
</g>
</svg>
