<?xml version="1.0" standalone="no"?>
<!DOCTYPE svg PUBLIC "-//W3C//DTD SVG 20010904//EN"
 "http://www.w3.org/TR/2001/REC-SVG-20010904/DTD/svg10.dtd">
<svg version="1.0" xmlns="http://www.w3.org/2000/svg"
 width="2000.000000pt" height="2000.000000pt" viewBox="0 0 2000.000000 2000.000000"
 preserveAspectRatio="xMidYMid meet">

<g transform="translate(0.000000,2000.000000) scale(0.100000,-0.100000)"
fill="#000000" stroke="none">
<path d="M1840 17056 c0 -839 3 -1277 10 -1281 7 -4 10 420 10 1264 l0 1271
1851 0 c1231 0 1848 3 1844 10 -4 7 -635 10 -1861 10 l-1854 0 0 -1274z"/>
<path d="M5885 18320 c4 -6 57 -10 126 -10 l119 0 0 -94 c0 -53 4 -98 10 -101
6 -4 10 33 10 104 l0 111 -136 0 c-87 0 -133 -4 -129 -10z"/>
<path d="M4858 17866 c-48 -11 -90 -25 -95 -30 -5 -5 0 -6 11 -2 38 13 156 37
170 34 8 -2 137 -111 285 -242 185 -163 267 -242 259 -248 -9 -5 -8 -8 5 -8
16 0 17 -11 15 -136 l-3 -136 -75 -28 c-41 -15 -86 -31 -99 -35 l-24 -7 5 113
c3 63 2 125 -2 139 -5 15 -9 -32 -9 -115 l-2 -140 -119 125 c-65 69 -121 122
-124 119 -4 -3 49 -64 118 -135 l124 -129 116 39 116 39 0 152 0 152 -280 247
c-154 136 -286 248 -293 250 -6 2 -51 -6 -99 -18z"/>
<path d="M6138 16697 c1 -634 3 -1197 5 -1252 2 -55 4 461 5 1147 1 686 -1
1249 -5 1251 -5 3 -7 -513 -5 -1146z"/>
<path d="M4952 17662 c84 -81 199 -191 255 -244 l102 -96 81 20 c44 12 78 23
76 26 -3 2 -37 -3 -76 -13 l-70 -17 -105 98 c-293 275 -401 374 -408 374 -4 0
61 -67 145 -148z"/>
<path d="M3742 17745 c4 -4 47 -8 96 -10 173 -6 287 -56 409 -183 46 -46 83
-88 83 -93 0 -4 -12 -10 -27 -12 -23 -3 -21 -4 10 -6 20 0 37 3 37 9 0 21
-141 169 -197 206 -95 63 -171 86 -303 92 -63 2 -112 1 -108 -3z"/>
<path d="M8500 16025 l0 -1725 1330 0 1330 0 0 -65 0 -65 -1685 0 -1685 0 0
-1825 0 -1825 408 0 c225 0 693 -3 1040 -7 l632 -6 0 -544 0 -544 33 5 c17 3
64 8 103 11 81 7 93 -1 103 -62 6 -35 9 -37 71 -54 67 -18 110 -53 110 -88 0
-12 12 -22 38 -29 70 -21 81 -49 100 -249 5 -51 13 -78 28 -95 28 -31 49 -67
62 -105 l11 -33 -800 0 c-439 0 -799 2 -799 4 0 2 20 131 46 286 25 155 44
284 42 285 -2 2 -351 75 -776 163 -425 88 -774 161 -776 163 -2 2 -109 162
-238 354 -212 315 -252 383 -315 533 -4 9 63 12 316 12 l321 0 0 1825 0 1825
-485 0 -485 0 -26 53 c-51 100 -103 164 -223 274 -181 167 -268 217 -475 277
-141 41 -428 70 -547 55 -276 -34 -603 -242 -792 -503 -13 -17 -15 -17 -46 12
-84 76 -220 113 -343 93 -169 -28 -330 -156 -303 -241 6 -20 3 -20 -484 -20
l-491 0 0 -820 0 -820 -392 0 -393 0 -60 -28 c-67 -32 -107 -80 -130 -156 -11
-37 -12 -77 -5 -204 13 -215 12 -624 -1 -717 -6 -43 -32 -151 -59 -242 -105
-354 -154 -613 -148 -788 4 -108 6 -117 107 -430 56 -176 185 -570 286 -875
329 -994 326 -979 470 -2163 l85 -707 3 -358 2 -357 28 -57 c31 -64 78 -104
145 -124 38 -12 527 -14 3006 -14 l2961 -1 -170 -54 c-890 -286 -1504 -419
-2154 -465 -219 -16 -698 -13 -931 4 -539 41 -1180 158 -1899 347 -84 22 -155
38 -157 36 -11 -11 658 -178 953 -239 l113 -23 2 -755 c2 -415 2 -949 0 -1186
l-2 -432 -138 -47 c-507 -172 -1054 -455 -1465 -758 l-108 -79 21 -23 21 -23
-48 -6 c-113 -17 -208 -84 -264 -188 -32 -60 -34 -68 -34 -163 0 -91 3 -105
29 -158 17 -32 49 -75 72 -97 42 -39 128 -88 161 -92 10 -2 -119 -5 -287 -8
-168 -3 1126 -6 2875 -8 2277 -1 3191 -5 3220 -13 29 -8 40 -8 43 0 3 8 1273
11 4683 11 l4679 0 0 2065 0 2065 -1037 2 -1038 3 -3 1613 -2 1612 675 0 675
0 0 240 0 240 -1045 0 -1045 0 5 53 c7 59 115 1584 115 1612 0 17 11 18 177
11 97 -4 179 -9 181 -11 3 -2 -14 -43 -37 -91 -32 -68 -57 -102 -114 -158 -39
-40 -98 -85 -129 -101 -77 -40 -65 -45 15 -5 122 60 213 162 258 290 l22 65
229 2 c127 1 231 3 234 5 2 2 55 744 119 1649 63 904 124 1772 135 1928 11
156 20 286 20 288 0 10 -398 -2 -1560 -47 -711 -27 -1294 -51 -1295 -52 -8
-10 -57 -3660 -49 -3667 5 -5 187 -16 404 -25 217 -9 441 -19 498 -22 l102 -7
0 -33 c0 -18 -9 -164 -20 -326 -21 -311 -80 -1293 -80 -1334 l0 -24 -367 2
c-215 1 -320 4 -253 7 99 5 120 9 148 29 59 42 67 70 67 227 0 154 -9 186 -62
223 -16 10 -179 79 -363 152 -184 73 -364 148 -400 165 -158 78 -129 75 -718
75 -577 0 -562 1 -682 -60 -111 -57 -210 -199 -231 -332 -27 -177 76 -378 236
-461 l50 -26 -272 -1 -273 0 0 533 0 532 80 17 c44 9 111 31 149 48 l68 31 56
-54 c213 -208 507 -159 632 105 46 97 65 190 63 313 l-1 100 -7 -110 c-12
-186 -57 -310 -148 -407 -144 -154 -351 -150 -522 9 l-60 55 48 37 c139 110
228 288 239 477 l6 92 201 7 c111 4 206 6 211 5 6 -1 232 -2 503 -1 l492 1 0
1825 0 1825 -695 0 -695 0 0 65 0 65 1360 0 1360 0 0 1725 0 1725 -3050 0
-3050 0 0 -1725z m3600 1306 c0 -14 -18 -23 -30 -16 -6 4 -8 11 -5 16 8 12 35
12 35 0z m-2336 -43 c15 -25 -17 -57 -42 -42 -22 14 -28 44 -10 55 18 12 39 7
52 -13z m3679 -13 c1 -5 -6 -11 -15 -13 -11 -2 -18 3 -18 13 0 17 30 18 33 0z
m-1965 -47 c4 -33 -31 -49 -55 -25 -24 24 -8 59 25 55 21 -2 28 -9 30 -30z
m-1468 -198 c0 -5 -2 -10 -4 -10 -3 0 -8 5 -11 10 -3 6 -1 10 4 10 6 0 11 -4
11 -10z m3133 -15 c1 -5 -6 -11 -15 -13 -11 -2 -18 3 -18 13 0 17 30 18 33 0z
m987 -30 c0 -8 -7 -15 -15 -15 -16 0 -20 12 -8 23 11 12 23 8 23 -8z m-1585
-55 c3 -5 1 -10 -4 -10 -6 0 -11 5 -11 10 0 6 2 10 4 10 3 0 8 -4 11 -10z
m1106 -16 c17 -21 0 -49 -32 -49 -18 0 -25 6 -27 24 -6 38 34 55 59 25z
m-2783 -156 c2 -19 -2 -28 -18 -33 -37 -12 -64 27 -38 53 21 21 53 10 56 -20z
m1797 -97 c0 -34 -30 -51 -51 -29 -25 24 -10 60 24 56 21 -2 27 -8 27 -27z
m-535 -57 c0 -8 -7 -14 -15 -14 -15 0 -21 21 -9 33 10 9 24 -2 24 -19z m810
-304 c0 -5 -5 -10 -11 -10 -5 0 -7 5 -4 10 3 6 8 10 11 10 2 0 4 -4 4 -10z
m1010 -25 c0 -8 -7 -15 -15 -15 -8 0 -15 7 -15 15 0 8 7 15 15 15 8 0 15 -7
15 -15z m-2870 -30 c0 -8 -6 -15 -14 -15 -17 0 -28 14 -19 24 12 12 33 6 33
-9z m-512 -46 c3 -28 -16 -43 -43 -33 -15 6 -21 45 -8 58 16 16 48 1 51 -25z
m2022 -153 c0 -8 -4 -17 -9 -21 -12 -7 -24 12 -16 25 9 15 25 12 25 -4z
m-1407 -148 c13 -20 -6 -48 -34 -48 -22 0 -35 36 -18 56 15 18 38 15 52 -8z
m-2129 -123 c9 -25 -5 -45 -30 -45 -14 0 -27 7 -30 15 -10 25 4 45 30 45 13 0
26 -7 30 -15z m2861 -15 c0 -20 -6 -26 -28 -28 -29 -4 -44 16 -33 44 4 10 15
14 33 12 22 -2 28 -8 28 -28z m2338 -15 c1 -5 -6 -11 -15 -13 -11 -2 -18 3
-18 13 0 17 30 18 33 0z m-4723 -90 c0 -8 -7 -15 -15 -15 -8 0 -15 7 -15 15 0
8 7 15 15 15 8 0 15 -7 15 -15z m3180 -157 c0 -15 -81 -230 -93 -245 -7 -10
-86 -13 -334 -13 -250 0 -325 -3 -328 -12 -2 -7 -13 -47 -25 -88 -35 -119 -48
-161 -67 -220 l-18 -55 -279 -3 c-154 -1 -283 1 -288 6 -5 5 -28 89 -52 188
l-43 179 -327 3 c-302 2 -326 4 -325 20 0 11 2 12 6 4 4 -10 74 -12 330 -12
179 1 327 -1 330 -4 4 -4 71 -258 90 -343 l5 -23 272 0 272 0 18 63 c31 108
68 230 81 272 l13 40 328 5 329 5 32 81 c18 45 35 94 39 108 l6 26 -689 0
c-379 0 -887 3 -1129 8 -404 6 -422 7 -229 12 116 3 630 7 1143 8 704 1 932
-1 932 -10z m839 -253 c664 -261 794 -314 776 -315 -14 0 -283 102 -926 350
-283 110 -520 200 -526 200 -5 0 -34 -55 -63 -122 -46 -106 -51 -124 -40 -142
7 -12 110 -149 228 -306 119 -157 220 -292 225 -300 38 -59 -123 141 -450 561
l-43 55 62 143 c54 124 65 142 83 138 11 -2 314 -120 674 -262z m-3199 120
c47 -68 86 -129 88 -134 2 -7 -288 -359 -363 -439 -9 -10 -43 33 -164 213 -84
125 -151 228 -149 230 2 2 71 -90 153 -206 82 -115 152 -209 155 -208 4 0 71
80 294 350 l49 60 -78 114 c-43 63 -79 115 -80 115 -1 0 -104 -43 -230 -95
-125 -53 -230 -94 -232 -92 -3 4 454 215 467 216 3 0 43 -55 90 -124z m719 99
l31 -6 -2 -72 -2 -71 -3 68 -4 67 -158 0 c-87 0 -199 -3 -249 -6 l-92 -7 0
-58 0 -59 216 0 c141 0 213 -3 209 -10 -4 -6 -90 -10 -226 -10 l-219 0 0 85 0
85 234 0 c128 0 248 -3 265 -6z m586 -51 c61 -31 125 -112 125 -159 0 -10 -12
7 -27 37 -32 61 -88 106 -146 116 l-37 6 0 -40 c0 -36 4 -43 41 -67 23 -16 47
-42 55 -62 13 -32 17 -34 63 -34 27 0 51 4 53 9 2 5 8 4 14 -3 9 -9 8 -17 -2
-31 -8 -10 -14 -13 -14 -7 0 8 -19 12 -55 12 -51 0 -55 -2 -55 -24 0 -23 -41
-76 -59 -76 -21 0 -41 -33 -41 -70 0 -38 0 -38 33 -31 75 18 138 72 164 143 6
19 12 25 12 15 1 -26 -33 -88 -66 -119 -31 -30 -91 -58 -123 -58 -12 0 -20 -7
-21 -17 -1 -17 -2 -17 -6 0 -3 11 -14 17 -34 17 -66 0 -145 54 -181 124 -32
61 -31 157 2 215 63 110 199 157 305 104z m-1148 -95 c-3 -8 -6 -5 -6 6 -1 11
2 17 5 13 3 -3 4 -12 1 -19z m-670 -347 l165 -263 -41 -61 c-48 -72 -54 -70
-11 3 17 28 30 54 30 57 0 8 -298 473 -315 491 -10 11 -68 -7 -311 -93 -400
-143 -556 -196 -561 -191 -6 6 332 133 847 319 8 3 19 4 24 3 4 -1 82 -120
173 -265z m258 194 c32 -31 32 -74 0 -109 -49 -53 -135 -17 -135 58 0 68 86
101 135 51z m2504 -165 c-17 -55 -36 -103 -40 -106 -5 -3 -1 -17 9 -32 19 -28
42 -78 42 -90 0 -4 -14 17 -30 46 l-30 52 -316 0 c-224 0 -313 3 -308 11 4 7
99 10 308 8 166 -2 307 0 314 5 6 4 12 17 12 29 0 36 64 225 68 199 2 -12 -11
-67 -29 -122z m-1414 -119 c4 -8 -83 -11 -297 -11 -167 0 -308 -4 -314 -8 -6
-4 -22 -27 -37 -52 -35 -59 -35 -42 0 21 l28 48 60 3 c192 9 553 9 560 -1z
m1454 -166 c0 -5 -4 -3 -9 5 -5 8 -9 22 -9 30 0 16 17 -16 18 -35z m-2176 -20
c-3 -9 -8 -14 -10 -11 -3 3 -2 9 2 15 9 16 15 13 8 -4z m-4298 -445 c177 -185
247 -288 280 -415 54 -207 39 -918 -25 -1190 -57 -241 -181 -408 -374 -501
-49 -24 -100 -44 -113 -44 -23 0 -23 0 -23 -136 l0 -136 -27 6 c-16 3 -262 51
-548 106 -286 56 -528 103 -537 106 -17 5 -18 30 -18 344 l0 339 -47 6 c-100
15 -169 63 -207 144 -17 37 -21 65 -21 146 0 93 2 104 31 155 25 44 42 61 85
83 47 25 63 28 121 25 47 -3 73 -9 87 -22 20 -19 22 -18 62 10 56 38 67 58 84
150 15 77 33 117 64 142 9 7 66 37 127 67 154 75 164 88 198 269 16 84 43 134
87 160 15 9 72 27 126 41 193 49 304 128 382 274 l33 63 31 -39 c17 -21 81
-90 142 -153z m9355 -520 c0 -5 -19 -10 -42 -10 -24 0 -214 -7 -423 -14 -489
-19 -1106 -29 -1080 -17 11 4 234 14 495 21 261 7 558 16 660 20 299 11 390
11 390 0z m-1670 -40 c0 -5 -11 -10 -25 -10 -14 0 -25 5 -25 10 0 6 11 10 25
10 14 0 25 -4 25 -10z m-2440 -41 c0 -15 7 -19 34 -19 18 0 39 6 45 14 38 45
111 19 111 -39 0 -28 5 -37 30 -50 29 -15 31 -15 42 10 15 33 53 35 44 3 -3
-13 -13 -51 -22 -85 -9 -35 -19 -63 -23 -63 -20 1 -35 23 -35 51 -1 29 -6 34
-33 42 -28 8 -38 6 -65 -15 -18 -13 -41 -28 -52 -31 -13 -5 -15 -11 -8 -20 5
-6 12 -31 15 -54 l5 -42 -99 49 c-54 28 -103 58 -108 68 -9 16 -5 20 23 29 22
7 39 7 50 1 23 -13 66 26 66 58 0 32 -56 51 -81 28 -18 -17 -39 -12 -39 9 1
25 76 90 93 80 4 -2 7 -13 7 -24z m2440 -80 c0 -5 -11 -9 -25 -9 -26 0 -34 15
-12 23 16 5 37 -3 37 -14z m1120 11 c0 -6 -29 -10 -66 -10 -41 0 -63 4 -59 10
3 6 33 10 66 10 33 0 59 -4 59 -10z m-1110 -110 c0 -5 -9 -10 -19 -10 -11 0
-23 5 -26 10 -4 6 5 10 19 10 14 0 26 -4 26 -10z m370 -91 l45 -1 -40 -9 c-51
-10 -208 -11 -271 -1 l-49 7 70 6 c39 4 99 5 135 3 36 -2 85 -4 110 -5z m-375
-9 c3 -5 -3 -10 -14 -10 -12 0 -21 5 -21 10 0 6 6 10 14 10 8 0 18 -4 21 -10z
m15 -100 c0 -5 -11 -10 -25 -10 -14 0 -25 5 -25 10 0 6 11 10 25 10 14 0 25
-4 25 -10z m-4060 -129 c19 -6 54 -15 78 -21 l42 -11 0 -124 c0 -122 0 -124
-27 -143 l-26 -19 59 -7 c32 -4 129 -18 215 -32 86 -13 170 -23 185 -23 24 1
25 2 7 6 -13 2 -23 8 -23 11 0 19 128 145 178 176 96 57 186 79 305 74 136 -7
205 -33 272 -102 65 -66 85 -125 85 -250 0 -80 -4 -111 -25 -204 -5 -22 -6
-22 -74 15 -37 21 -78 45 -92 54 l-24 16 81 119 c132 194 127 198 -11 9 -48
-66 -90 -119 -94 -118 -3 1 -71 38 -151 82 -114 63 -159 82 -210 90 -36 6 -74
11 -85 10 l-20 0 20 -8 c11 -5 47 -12 80 -16 65 -8 30 10 690 -360 154 -86
282 -158 283 -160 4 -4 -65 -195 -78 -215 -6 -10 -15 -11 -37 -2 -48 18 -935
333 -1063 377 -36 12 -132 46 -215 74 -82 29 -177 62 -210 72 -33 11 -73 26
-90 33 -16 8 -58 22 -93 31 -34 10 -65 22 -68 26 -3 5 -10 9 -15 9 -6 0 -8 -4
-5 -8 3 -5 -44 -57 -105 -118 l-109 -109 0 125 c-1 96 -3 121 -12 106 -7 -12
-9 -56 -5 -122 l5 -103 -80 30 c-44 16 -81 29 -84 29 -2 0 -4 58 -4 130 l0
129 252 226 c139 124 255 225 258 225 3 0 21 -4 40 -9z m4040 -21 c0 -5 -11
-10 -25 -10 -14 0 -25 5 -25 10 0 6 11 10 25 10 14 0 25 -4 25 -10z m1675 0
c17 -4 -334 -8 -780 -8 -445 0 -796 4 -780 8 17 4 368 8 780 8 413 0 764 -4
780 -8z m-1675 -120 c0 -5 -11 -10 -25 -10 -14 0 -25 5 -25 10 0 6 11 10 25
10 14 0 25 -4 25 -10z m10 -100 c0 -5 -9 -10 -19 -10 -11 0 -23 5 -26 10 -4 6
5 10 19 10 14 0 26 -4 26 -10z m-5 -100 c3 -5 -3 -10 -14 -10 -12 0 -21 5 -21
10 0 6 6 10 14 10 8 0 18 -4 21 -10z m15 -100 c0 -5 -11 -10 -25 -10 -14 0
-25 5 -25 10 0 6 11 10 25 10 14 0 25 -4 25 -10z m-2067 -140 c43 -5 80 -10
83 -10 11 0 1 -48 -30 -132 -18 -51 -66 -199 -106 -328 -40 -129 -74 -236 -75
-238 -1 -1 -41 7 -90 18 -48 12 -89 20 -91 17 -2 -2 40 -16 92 -31 53 -15 98
-25 99 -24 5 7 89 267 144 452 33 109 63 201 66 204 19 19 -8 -96 -105 -446
-61 -218 -112 -401 -115 -407 -2 -5 -2 33 0 85 7 135 -11 73 -27 -97 -7 -73
-15 -138 -18 -144 -6 -9 -225 64 -244 82 -6 5 1 70 18 166 25 143 39 190 153
505 116 319 128 347 147 343 12 -2 56 -9 99 -15z m2047 -10 c0 -5 -11 -10 -25
-10 -14 0 -25 5 -25 10 0 6 11 10 25 10 14 0 25 -4 25 -10z m1635 0 c-33 -4
-364 -8 -735 -8 -371 0 -702 4 -735 8 -33 4 298 7 735 7 437 0 768 -3 735 -7z
m-5246 -160 c339 -121 436 -158 435 -165 -1 -4 -17 -27 -35 -52 -42 -57 -79
-73 -166 -73 l-68 0 -82 -113 c-45 -61 -96 -131 -113 -154 -18 -24 -29 -43
-26 -43 2 0 55 65 117 145 l112 145 51 0 c116 0 129 7 218 113 l23 28 110 -37
c61 -20 114 -40 118 -44 13 -11 -277 -281 -341 -317 -31 -18 -77 -35 -102 -39
-39 -5 -55 -16 -116 -75 l-70 -70 -246 114 c-135 63 -252 119 -261 124 -14 7
0 28 84 123 56 63 120 138 144 165 l42 50 -6 118 c-3 67 -2 117 3 117 5 0 84
-27 175 -60z m3611 39 c0 -5 -11 -9 -25 -9 -26 0 -34 15 -12 23 16 5 37 -3 37
-14z m10 -99 c0 -5 -11 -10 -25 -10 -14 0 -25 5 -25 10 0 6 11 10 25 10 14 0
25 -4 25 -10z m1134 1 c7 -11 -44 -19 -85 -13 -22 3 -27 7 -18 13 18 11 96 11
103 0z m-12443 -107 c18 -9 37 -31 46 -52 15 -37 71 -632 92 -982 6 -96 13
-208 15 -249 8 -127 -18 -141 -110 -58 -165 147 -283 326 -319 481 -26 113
-44 350 -35 462 15 186 39 246 136 341 75 74 117 87 175 57z m11304 6 c3 -5
-3 -10 -14 -10 -12 0 -21 5 -21 10 0 6 6 10 14 10 8 0 18 -4 21 -10z m1560 0
c28 -4 -186 -7 -475 -7 -289 0 -507 3 -485 7 55 10 898 10 960 0z m-1545 -100
c0 -5 -11 -10 -25 -10 -14 0 -25 5 -25 10 0 6 11 10 25 10 14 0 25 -4 25 -10z
m-3910 -343 l445 -214 12 -159 c6 -87 11 -160 10 -161 -1 -1 -291 141 -644
315 -354 173 -641 318 -639 320 4 3 339 105 366 111 3 0 206 -95 450 -212z
m3890 193 c0 -5 -11 -10 -25 -10 -14 0 -25 5 -25 10 0 6 11 10 25 10 14 0 25
-4 25 -10z m-3399 -823 c4 -34 7 -81 8 -104 l1 -41 -242 124 c-134 69 -422
214 -640 324 l-397 200 -25 82 c-14 46 -28 95 -32 111 -6 26 34 7 657 -303
l664 -331 6 -62z m4519 713 c0 -6 -29 -10 -66 -10 -41 0 -63 4 -59 10 3 6 33
10 66 10 33 0 59 -4 59 -10z m-1120 -10 c0 -5 -11 -10 -25 -10 -14 0 -25 5
-25 10 0 6 11 10 25 10 14 0 25 -4 25 -10z m10 -100 c0 -5 -11 -10 -25 -10
-14 0 -25 5 -25 10 0 6 11 10 25 10 14 0 25 -4 25 -10z m741 3 c199 -7 207 -8
114 -14 -145 -9 -509 -10 -660 -1 l-130 7 150 5 c265 10 308 10 526 3z m-747
-102 c3 -5 0 -11 -8 -14 -15 -6 -26 1 -26 15 0 11 27 10 34 -1z m16 -101 c0
-5 -11 -10 -25 -10 -14 0 -25 5 -25 10 0 6 11 10 25 10 14 0 25 -4 25 -10z
m-20 -150 c0 -5 -11 -10 -25 -10 -14 0 -25 5 -25 10 0 6 11 10 25 10 14 0 25
-4 25 -10z m1500 0 c-30 -5 -334 -8 -675 -8 -341 0 -645 3 -675 8 -30 4 274 7
675 7 402 0 705 -3 675 -7z m-1500 -120 c0 -5 -11 -10 -25 -10 -14 0 -25 5
-25 10 0 6 11 10 25 10 14 0 25 -4 25 -10z m10 -100 c0 -5 -11 -10 -25 -10
-14 0 -25 5 -25 10 0 6 11 10 25 10 14 0 25 -4 25 -10z m1139 1 c9 -6 2 -10
-24 -13 -51 -6 -101 2 -84 13 18 11 90 11 108 0z m-789 -92 c61 -1 63 -2 25
-10 -51 -10 -208 -11 -271 -1 l-49 7 80 6 c44 3 96 5 115 3 19 -2 64 -4 100
-5z m-359 -14 c-1 -15 -24 -12 -29 3 -3 9 2 13 12 10 10 -1 17 -7 17 -13z m19
-95 c0 -5 -11 -10 -25 -10 -14 0 -25 5 -25 10 0 6 11 10 25 10 14 0 25 -4 25
-10z m-2020 -538 c0 -80 -32 -202 -77 -292 -27 -54 -61 -98 -121 -160 -97 -98
-89 -99 -147 25 -39 83 -52 126 -75 260 -10 55 -19 88 -19 74 -3 -96 63 -334
115 -412 l25 -38 -73 -33 c-40 -19 -98 -39 -128 -46 -30 -6 -63 -14 -72 -17
-17 -4 -18 8 -19 139 -1 79 -5 217 -9 308 -6 150 -7 138 -8 -142 l-2 -308 -40
0 -40 0 0 350 0 350 345 0 345 0 0 -58z m-610 -939 c0 -159 3 -399 7 -535 l6
-248 -46 0 -47 0 0 535 0 535 40 0 40 0 0 -287z m4187 -1267 c1 -1 4 -726 5
-1611 l3 -1610 -1313 -5 -1312 -5 -70 -99 c-153 -217 -285 -527 -404 -946 -79
-281 -160 -763 -210 -1255 -43 -413 -71 -1160 -60 -1572 l7 -243 -1354 0
-1354 1 60 30 c201 101 266 338 144 523 -52 79 -108 113 -248 153 -11 3 -9 9
8 27 l23 24 -149 106 c-172 122 -439 284 -638 387 -77 40 -142 74 -144 76 -5
4 -16 -22 329 793 589 1394 976 2340 1087 2665 44 127 45 134 50 286 4 125 2
172 -11 232 -37 167 -151 337 -301 449 -191 144 -352 208 -1441 569 -403 134
-733 248 -734 253 0 6 18 76 41 156 l40 147 572 7 c653 8 636 5 676 88 11 24
21 53 21 63 0 30 -39 102 -63 118 -61 40 -322 131 -523 182 l-99 25 3680 -6
c2024 -3 3681 -7 3682 -8z m-7439 -3203 c-9 -33 -751 -2398 -753 -2401 -2 -2
-29 4 -61 12 -83 21 -331 65 -449 80 -77 10 -99 16 -97 27 3 15 367 847 739
1689 118 267 219 490 226 497 7 6 93 32 192 58 99 25 182 48 184 51 11 11 23
2 19 -13z m-2838 -233 c257 -33 540 -50 833 -50 152 0 277 -3 277 -7 0 -5 -13
-42 -30 -83 l-29 -75 -1 -232 0 -233 -202 -1 c-167 -1 -192 -3 -143 -11 33 -5
153 -7 268 -4 l207 5 0 -676 0 -676 -67 6 c-38 4 -166 7 -285 7 l-218 0 0 343
-1 342 -119 -295 c-66 -162 -122 -302 -125 -310 -3 -9 7 -23 25 -35 30 -20 39
-48 20 -60 -6 -4 -77 -15 -158 -25 -81 -11 -205 -31 -277 -45 -71 -14 -138
-25 -147 -25 -17 0 -18 58 -18 1080 0 1022 1 1080 18 1080 9 0 87 -9 172 -20z
m10288 -1912 l2 -1758 -735 0 -735 0 0 44 c0 61 35 478 65 776 137 1349 340
2269 580 2631 l47 69 386 -2 387 -3 3 -1757z m2162 2 l0 -1760 -855 0 -855 0
0 1760 0 1760 855 0 855 0 0 -1760z m-10855 -739 c198 -22 493 -66 502 -75 5
-4 -155 -466 -177 -511 -6 -11 -19 -46 -30 -78 -14 -43 -16 -59 -7 -62 560
-202 1453 -528 1456 -531 2 -2 -531 -4 -1185 -4 l-1189 0 57 24 c110 45 180
124 213 240 33 113 -3 246 -88 334 l-42 43 50 -19 c28 -11 147 -61 265 -111
l215 -90 3 30 c3 24 -11 52 -62 127 -36 54 -95 131 -131 172 -36 41 -86 100
-112 130 -27 30 -72 77 -100 104 l-53 49 0 -106 0 -106 -62 -3 -63 -3 -3 -72
-3 -72 -34 15 c-130 54 -312 3 -400 -113 -82 -107 -98 -256 -41 -375 34 -71
117 -149 189 -177 l52 -20 -503 0 -502 -1 2 587 3 587 65 12 c105 19 250 37
255 32 3 -3 -8 -36 -24 -74 -16 -38 -29 -70 -27 -71 1 -1 118 -51 261 -111
l260 -109 3 213 2 213 93 4 c228 10 703 -2 892 -22z m-2235 -721 l0 -540 -802
1 c-696 0 -797 2 -759 14 59 19 143 78 175 123 52 76 70 132 70 217 0 67 -4
90 -27 140 -16 33 -42 74 -59 92 l-31 32 45 20 c198 85 625 233 898 312 155
45 462 127 483 128 4 1 7 -242 7 -539z m3718 399 c253 -83 785 -289 811 -315
3 -2 -9 -19 -27 -37 -17 -17 -43 -59 -59 -92 -23 -51 -28 -73 -27 -145 0 -70
5 -95 26 -140 39 -83 89 -135 171 -175 l72 -35 -291 0 -291 0 -12 26 c-24 53
-138 193 -253 310 -65 66 -115 123 -112 127 4 4 1 7 -6 7 -18 0 -125 102 -124
118 1 6 -5 12 -13 12 -21 0 -148 113 -133 118 9 3 9 6 0 12 -10 6 -3 34 30
117 53 133 58 143 71 143 6 0 81 -23 167 -51z m-713 6 c14 -13 25 -31 25 -40
0 -23 -46 -65 -71 -65 -56 0 -82 83 -37 114 32 22 55 20 83 -9z"/>
<path d="M11469 15390 c-50 -27 -98 -78 -109 -119 -16 -56 -13 -61 28 -61 33
0 39 4 57 38 12 23 35 45 60 57 22 11 40 20 41 20 1 0 4 19 8 43 6 41 6 42
-21 42 -16 -1 -44 -9 -64 -20z"/>
<path d="M11511 15286 c-22 -12 -50 -50 -51 -68 0 -5 20 -8 45 -8 l45 0 0 45
c0 49 -3 51 -39 31z"/>
<path d="M11580 15255 l0 -45 40 0 c22 0 40 5 40 11 0 22 -22 49 -50 64 l-30
16 0 -46z"/>
<path d="M11350 15168 c0 -36 40 -107 76 -134 30 -24 117 -57 126 -49 2 2 2
24 0 49 -3 33 -8 46 -19 46 -31 0 -82 41 -93 75 -11 32 -15 35 -51 35 -33 0
-39 -3 -39 -22z"/>
<path d="M11465 15168 c8 -27 50 -68 71 -68 10 0 14 12 14 45 l0 45 -46 0
c-42 0 -45 -2 -39 -22z"/>
<path d="M11580 15145 c0 -53 11 -56 51 -16 42 42 38 61 -11 61 l-40 0 0 -45z"/>
<path d="M6171 13906 c-39 -14 -61 -40 -46 -54 14 -13 233 -23 240 -11 9 14
-44 58 -84 69 -45 12 -67 12 -110 -4z"/>
<path d="M5414 13794 c-42 -15 -93 -59 -81 -70 4 -4 52 -2 107 5 55 6 127 11
160 11 64 0 79 9 52 32 -44 39 -161 49 -238 22z"/>
<path d="M5474 13597 c-38 -15 -81 -43 -74 -50 3 -3 34 1 70 9 65 13 126 7
172 -17 28 -15 35 -3 12 22 -40 45 -116 60 -180 36z"/>
<path d="M6146 13567 c-35 -20 -51 -47 -22 -38 6 2 38 8 71 13 51 9 68 8 118
-9 49 -17 57 -18 55 -5 -2 9 -23 26 -47 39 -57 30 -123 30 -175 0z"/>
<path d="M5884 13563 c23 -86 103 -337 131 -416 37 -103 43 -145 23 -152 -7
-2 -40 -7 -73 -11 -55 -6 -57 -8 -30 -15 34 -10 113 -2 133 13 6 6 12 23 12
38 0 27 -130 422 -169 513 -20 46 -37 65 -27 30z"/>
<path d="M5580 13390 c-25 -25 -26 -72 -2 -93 41 -37 112 -6 112 48 0 14 -9
34 -20 45 -11 11 -31 20 -45 20 -14 0 -34 -9 -45 -20z"/>
<path d="M6250 13370 c-27 -27 -25 -62 3 -88 28 -27 58 -28 85 -4 31 27 35 55
11 85 -25 33 -70 36 -99 7z"/>
<path d="M5664 12906 c-9 -38 14 -104 51 -141 36 -35 86 -55 142 -55 48 0 48
16 0 29 -82 21 -142 76 -167 154 -14 43 -18 45 -26 13z"/>
<path d="M11490 13586 c0 -2 7 -7 16 -10 8 -3 12 -2 9 4 -6 10 -25 14 -25 6z"/>
<path d="M9793 13008 c-55 -51 -162 -151 -236 -221 l-135 -128 -67 16 c-98 22
-102 17 -6 -11 l84 -23 156 149 c172 164 318 310 311 310 -3 0 -51 -42 -107
-92z"/>
<path d="M10388 12753 c12 -2 32 -2 45 0 12 2 2 4 -23 4 -25 0 -35 -2 -22 -4z"/>
<path d="M10222 12654 c-50 -47 -106 -104 -124 -127 l-33 -42 30 22 c34 24
225 217 225 227 0 12 -8 5 -98 -80z"/>
<path d="M9612 12686 c-26 -25 -45 -46 -42 -48 3 -2 27 17 53 44 60 60 52 63
-11 4z"/>
<path d="M10133 12604 c-96 -94 -86 -100 15 -9 49 44 100 105 88 105 -3 0 -50
-43 -103 -96z"/>
<path d="M10315 12565 l-28 -23 162 -52 c156 -50 163 -51 182 -35 10 10 19 22
19 26 0 4 -57 26 -127 49 -71 22 -139 45 -153 49 -20 7 -32 3 -55 -14z"/>
<path d="M10794 12483 c-68 -85 -100 -127 -124 -163 l-24 -35 28 25 c48 42
178 220 162 220 -3 0 -22 -21 -42 -47z"/>
<path d="M10857 12458 c-13 -18 -41 -58 -63 -88 -23 -30 -46 -66 -53 -80 -28
-58 102 110 138 178 17 32 6 27 -22 -10z"/>
<path d="M11458 11893 c7 -3 16 -2 19 1 4 3 -2 6 -13 5 -11 0 -14 -3 -6 -6z"/>
<path d="M11473 11745 c-13 -14 -7 -25 14 -25 14 0 18 26 6 33 -5 3 -13 -1
-20 -8z"/>
<path d="M11586 11714 c-9 -22 -8 -24 9 -24 8 0 15 6 15 14 0 22 -17 28 -24
10z"/>
<path d="M11515 11679 c50 -16 97 -28 105 -26 20 4 -144 57 -173 56 -12 -1 19
-14 68 -30z"/>
<path d="M10421 11950 c0 -69 4 -132 9 -140 7 -10 9 21 9 95 -2 160 -16 198
-18 45z"/>
<path d="M11401 10434 c0 -11 3 -14 6 -6 3 7 2 16 -1 19 -3 4 -6 -2 -5 -13z"/>
<path d="M5860 1710 c20 -13 40 -13 40 0 0 6 -12 10 -27 10 -22 0 -25 -2 -13
-10z"/>
<path d="M3698 17733 c7 -3 16 -2 19 1 4 3 -2 6 -13 5 -11 0 -14 -3 -6 -6z"/>
<path d="M3546 17679 c-141 -94 -171 -232 -121 -549 l6 -35 -215 -117 c-118
-65 -218 -118 -223 -118 -5 0 -24 41 -42 90 -18 50 -35 89 -37 87 -3 -2 39
-123 92 -268 86 -238 99 -282 129 -449 19 -102 30 -188 27 -191 -7 -6 -265
-99 -276 -99 -3 0 -6 21 -6 48 0 61 -29 304 -37 312 -3 3 -3 -44 0 -105 3 -60
4 -105 2 -100 -3 6 -61 212 -130 459 -144 517 -151 566 -85 579 17 3 14 5 -10
4 l-35 -2 -3 -70 c-3 -63 11 -120 142 -603 79 -293 146 -536 149 -539 6 -5
295 94 309 106 7 7 -54 350 -72 406 -11 35 -7 55 11 55 10 0 263 88 418 145
l94 35 122 -114 c238 -224 266 -244 375 -272 58 -14 72 -23 138 -87 l73 -72
-63 -30 -63 -30 -22 -270 c-12 -148 -21 -289 -20 -313 l2 -42 703 351 c386
194 701 354 699 356 -2 2 -314 -149 -693 -336 -379 -186 -690 -338 -692 -336
-6 5 10 182 17 193 3 5 334 174 735 374 l729 365 -88 22 c-106 27 -124 22 -23
-6 l73 -21 -250 -122 c-895 -438 -1168 -570 -1173 -566 -8 9 19 330 30 343 5
6 37 23 71 36 161 66 725 344 635 314 -13 -5 -32 9 -65 46 -110 120 -139 145
-55 47 50 -58 90 -106 89 -106 -7 -6 -549 -254 -555 -254 -4 0 -41 33 -81 74
-65 66 -78 74 -121 80 -90 12 -157 56 -335 223 l-168 157 34 14 c59 25 198 72
212 72 7 0 32 -25 55 -55 56 -71 87 -86 189 -93 l82 -5 122 -158 c67 -88 126
-162 131 -165 14 -9 -13 30 -142 204 l-105 142 -70 1 c-97 0 -130 14 -188 82
-28 31 -48 58 -46 60 2 2 83 31 179 66 96 34 191 69 210 76 19 7 90 33 157 56
67 24 120 45 118 47 -2 3 -39 -8 -82 -23 -43 -16 -107 -38 -143 -51 -270 -93
-527 -184 -710 -249 -264 -94 -552 -195 -563 -198 -8 -2 -95 215 -96 240 -1 6
32 29 72 51 39 21 266 147 502 278 472 263 415 239 650 274 38 5 42 8 18 9
-18 0 -81 -6 -140 -15 -106 -16 -112 -18 -269 -105 -89 -49 -165 -89 -170 -89
-5 1 -35 38 -66 83 -32 45 -69 96 -84 112 -14 17 9 -21 51 -83 42 -62 75 -118
72 -125 -3 -7 -46 -33 -95 -60 l-91 -47 -13 57 c-7 32 -13 116 -13 188 0 122
2 134 28 187 26 52 62 92 133 145 45 34 14 27 -40 -8z"/>
<path d="M4498 17473 c12 -2 30 -2 40 0 9 3 -1 5 -23 4 -22 0 -30 -2 -17 -4z"/>
<path d="M4413 17463 c9 -2 23 -2 30 0 6 3 -1 5 -18 5 -16 0 -22 -2 -12 -5z"/>
<path d="M4352 17392 c50 -55 245 -242 253 -242 13 0 -77 95 -176 188 -104 96
-135 119 -77 54z"/>
<path d="M4438 17353 c29 -37 115 -117 176 -163 72 -55 -92 110 -184 185 -19
16 -18 12 8 -22z"/>
<path d="M5120 17336 c0 -2 8 -10 18 -17 15 -13 16 -12 3 4 -13 16 -21 21 -21
13z"/>
<path d="M4126 17203 l-168 -55 27 -28 27 -28 161 54 c89 30 169 56 177 59 11
5 7 12 -15 30 -17 13 -32 24 -35 24 -3 -1 -81 -26 -174 -56z"/>
<path d="M4878 17213 c7 -3 16 -2 19 1 4 3 -2 6 -13 5 -11 0 -14 -3 -6 -6z"/>
<path d="M3771 17178 c21 -41 137 -192 170 -223 l32 -30 -24 35 c-40 59 -180
240 -185 240 -3 0 1 -10 7 -22z"/>
<path d="M4768 17173 c7 -3 16 -2 19 1 4 3 -2 6 -13 5 -11 0 -14 -3 -6 -6z"/>
<path d="M3719 17122 c22 -44 133 -196 151 -207 9 -6 9 -2 1 13 -16 30 -161
232 -167 232 -2 0 4 -17 15 -38z"/>
<path d="M4688 17143 c7 -3 16 -2 19 1 4 3 -2 6 -13 5 -11 0 -14 -3 -6 -6z"/>
<path d="M2886 17100 c3 -14 11 -32 16 -40 6 -10 7 -7 2 10 -3 14 -11 32 -16
40 -6 10 -7 7 -2 -10z"/>
<path d="M4611 17063 c1 -62 6 -56 11 15 2 23 0 42 -4 42 -5 0 -7 -26 -7 -57z"/>
<path d="M2641 17065 c-1 -11 188 -627 194 -633 2 -2 55 11 119 29 64 18 114
34 112 36 -2 2 -52 -8 -111 -22 -60 -14 -109 -24 -110 -23 -2 2 -41 125 -88
273 -91 285 -115 357 -116 340z"/>
<path d="M4710 16725 c13 -14 26 -25 28 -25 3 0 -5 11 -18 25 -13 14 -26 25
-28 25 -3 0 5 -11 18 -25z"/>
<path d="M4208 16646 c-12 -75 -10 -255 3 -234 5 10 8 74 7 150 -2 104 -5 122
-10 84z"/>
<path d="M5388 16563 c7 -3 16 -2 19 1 4 3 -2 6 -13 5 -11 0 -14 -3 -6 -6z"/>
<path d="M5435 16550 c11 -5 27 -9 35 -9 9 0 8 4 -5 9 -11 5 -27 9 -35 9 -9 0
-8 -4 5 -9z"/>
<path d="M4490 16356 c0 -2 8 -10 18 -17 15 -13 16 -12 3 4 -13 16 -21 21 -21
13z"/>
<path d="M3040 16335 c-10 -12 -9 -16 4 -21 9 -4 20 -3 24 1 4 4 1 10 -6 12
-6 3 -10 9 -6 14 9 14 -2 10 -16 -6z"/>
<path d="M2918 16314 c-15 -14 -8 -34 12 -34 11 0 20 5 20 11 0 5 -4 8 -9 4
-5 -3 -11 2 -13 11 -2 9 -6 12 -10 8z"/>
<path d="M3000 16276 c-41 -13 -86 -28 -100 -34 -21 -9 -22 -11 -5 -11 24 -1
177 43 202 58 17 10 17 10 -2 10 -11 0 -54 -11 -95 -23z"/>
<path d="M1840 15406 l0 -106 133 2 132 2 -122 3 -123 4 0 94 c0 52 -4 97 -10
100 -6 4 -10 -32 -10 -99z"/>
<path d="M3093 15303 c367 -2 967 -2 1335 0 367 1 66 2 -668 2 -734 0 -1035
-1 -667 -2z"/>
<path d="M12293 10405 c0 -22 2 -30 4 -17 2 12 2 30 0 40 -3 9 -5 -1 -4 -23z"/>
<path d="M14366 10325 c-9 -26 -7 -32 5 -12 6 10 9 21 6 23 -2 3 -7 -2 -11
-11z"/>
<path d="M12610 10277 c-1 -18 43 -90 98 -159 137 -172 321 -296 528 -355 90
-25 113 -28 254 -28 146 1 161 2 255 33 242 77 495 281 584 472 10 21 9 22 -1
6 -95 -140 -177 -228 -285 -305 -110 -78 -177 -113 -301 -154 -93 -31 -104
-32 -257 -32 -146 0 -168 2 -254 28 -52 16 -124 43 -160 61 -75 39 -208 131
-264 184 -56 53 -151 171 -175 217 -12 22 -21 36 -22 32z"/>
<path d="M3198 5243 c7 -3 16 -2 19 1 4 3 -2 6 -13 5 -11 0 -14 -3 -6 -6z"/>
<path d="M3245 5230 c11 -5 27 -9 35 -9 9 0 8 4 -5 9 -11 5 -27 9 -35 9 -9 0
-8 -4 5 -9z"/>
<path d="M3315 5210 c11 -5 27 -9 35 -9 9 0 8 4 -5 9 -11 5 -27 9 -35 9 -9 0
-8 -4 5 -9z"/>
<path d="M3385 5190 c11 -5 27 -9 35 -9 9 0 8 4 -5 9 -11 5 -27 9 -35 9 -9 0
-8 -4 5 -9z"/>
</g>
</svg>
