<?xml version="1.0" standalone="no"?>
<!DOCTYPE svg PUBLIC "-//W3C//DTD SVG 20010904//EN"
 "http://www.w3.org/TR/2001/REC-SVG-20010904/DTD/svg10.dtd">
<svg version="1.0" xmlns="http://www.w3.org/2000/svg"
 width="2000.000000pt" height="2000.000000pt" viewBox="0 0 2000.000000 2000.000000"
 preserveAspectRatio="xMidYMid meet">

<g transform="translate(0.000000,2000.000000) scale(0.100000,-0.100000)"
fill="#000000" stroke="none">
<path d="M8214 19121 c-19 -19 -2767 -1601 -2772 -1596 -3 2 61 296 142 651
80 356 145 648 143 650 -2 2 -4216 -2430 -4262 -2460 l-25 -16 0 -1141 c0
-909 3 -1140 13 -1136 6 3 838 482 1847 1065 l1835 1060 31 133 31 134 1449
837 c797 461 1453 839 1457 840 7 3 130 979 124 985 -2 1 -8 -1 -13 -6z m-290
-437 c9 -8 16 -31 16 -50 0 -27 -5 -37 -25 -46 -21 -10 -27 -8 -39 7 -12 17
-14 17 -44 0 -35 -21 -66 -72 -60 -100 3 -18 10 -20 65 -17 71 4 83 -7 83 -76
0 -85 -46 -167 -118 -213 -76 -48 -132 -33 -132 36 0 24 7 39 22 50 21 14 24
14 38 -5 13 -17 21 -19 40 -12 56 22 112 114 78 127 -8 3 -33 2 -56 -4 -35 -7
-46 -6 -65 9 -32 26 -28 113 8 187 46 93 146 150 189 107z m-284 -355 c-31
-247 -37 -269 -76 -269 -6 0 -29 47 -49 105 -36 100 -55 129 -55 84 0 -12 -7
-77 -17 -146 -14 -111 -19 -126 -40 -140 -13 -9 -26 -13 -29 -11 -3 3 9 113
26 244 27 212 32 241 52 257 11 10 24 14 28 10 4 -4 25 -54 46 -111 20 -56 40
-99 44 -95 4 4 14 67 23 139 9 73 19 138 22 147 6 13 46 38 53 32 1 -1 -11
-112 -28 -246z m-306 9 c33 -46 8 -271 -41 -381 -50 -111 -157 -173 -197 -115
-25 36 -15 207 19 323 40 138 171 242 219 173z m-303 -378 c-26 -200 -32 -226
-51 -242 -30 -24 -41 -23 -36 5 3 12 17 121 32 242 25 209 28 221 53 244 l26
25 3 -25 c1 -13 -11 -125 -27 -249z m-75 168 c-4 -23 -8 -43 -9 -44 -1 -1 -21
-13 -44 -28 -24 -14 -43 -32 -43 -39 0 -6 -11 -97 -24 -202 -21 -167 -27 -191
-46 -207 -32 -26 -39 -22 -34 15 21 149 44 360 40 364 -3 3 -21 -5 -40 -17
l-36 -22 0 40 c0 24 6 45 16 53 22 18 207 127 218 128 5 1 6 -18 2 -41z m-294
-175 c26 -23 25 -108 -1 -123 -29 -15 -39 -12 -43 12 -7 50 -74 25 -107 -40
-39 -77 -57 -264 -27 -275 25 -10 70 29 101 88 50 96 88 104 61 13 -37 -130
-151 -230 -214 -189 -38 24 -28 231 18 352 50 136 154 215 212 162z m-1732
-82 c0 -11 -74 -346 -165 -746 -131 -579 -169 -735 -189 -765 -24 -37 -151
-120 -182 -120 -24 0 -30 36 -44 238 -7 105 -16 192 -19 192 -4 0 -37 -109
-74 -242 -37 -134 -80 -267 -95 -297 -24 -47 -36 -59 -104 -97 -73 -42 -101
-47 -111 -21 -9 26 13 1292 24 1318 14 35 187 133 207 117 10 -9 11 -73 6
-327 -4 -208 -3 -313 3 -306 6 6 29 87 52 180 59 237 61 241 160 299 45 27 87
46 95 43 10 -4 15 -46 21 -172 4 -92 10 -163 14 -158 4 4 24 85 45 178 75 339
127 558 137 576 10 19 185 128 207 129 6 0 12 -9 12 -19z m1430 -272 c-16
-128 -30 -236 -30 -240 0 -12 -30 -39 -45 -39 -7 0 -28 44 -50 105 -36 100
-55 129 -55 84 0 -12 -7 -77 -17 -146 -14 -111 -19 -126 -40 -140 -13 -9 -26
-13 -29 -10 -3 3 8 113 25 244 27 211 33 240 52 256 12 10 25 14 29 10 4 -4
25 -55 46 -112 45 -121 46 -120 69 56 8 68 18 129 21 137 5 12 45 37 52 31 1
-1 -11 -107 -28 -236z m-284 -6 c-20 -206 -44 -324 -77 -391 -37 -73 -96 -124
-144 -124 -62 0 -69 48 -41 269 18 145 25 177 41 189 10 8 22 14 27 14 12 0
10 -52 -7 -165 -28 -191 -18 -239 41 -200 43 28 63 92 86 272 17 127 26 171
40 185 34 34 41 23 34 -49z m-286 -122 c0 -44 -20 -69 -88 -109 l-71 -42 -6
-54 c-4 -30 -6 -59 -4 -65 2 -5 30 6 63 25 32 19 61 33 63 30 3 -3 2 -22 -2
-43 -5 -35 -13 -43 -73 -79 -72 -43 -72 -43 -87 -166 -5 -45 -11 -60 -31 -73
-14 -9 -28 -14 -31 -12 -6 7 56 490 65 499 10 10 186 108 195 108 4 0 7 -9 7
-19z m-1934 -216 c9 -21 -26 -265 -41 -295 -9 -17 -79 -63 -213 -139 l-199
-114 -15 -106 c-9 -58 -14 -108 -12 -110 1 -2 82 43 179 99 166 95 205 110
205 77 0 -32 -32 -250 -39 -270 -13 -33 -31 -46 -216 -152 -93 -54 -172 -99
-173 -100 -5 -5 -31 -219 -27 -224 2 -2 91 47 197 109 106 61 198 112 203 113
6 1 11 -14 13 -34 4 -51 -23 -242 -40 -274 -9 -20 -94 -73 -316 -201 -167 -96
-310 -174 -318 -174 -20 0 -19 18 20 325 19 149 58 450 85 670 28 220 57 414
65 432 11 23 40 46 108 86 314 183 513 297 520 297 5 0 11 -7 14 -15z m-830
-479 c3 -8 -6 -101 -20 -208 -14 -106 -41 -319 -61 -473 -77 -608 -95 -728
-110 -751 -18 -28 -140 -98 -159 -91 -7 3 -45 83 -84 179 -129 315 -151 363
-156 348 -3 -8 -24 -166 -47 -350 -23 -185 -48 -349 -56 -367 -11 -23 -38 -45
-105 -83 -50 -28 -96 -49 -104 -46 -16 6 -17 30 -4 111 9 56 43 318 125 970
37 287 40 305 56 347 13 32 122 100 153 96 17 -2 40 -49 130 -266 61 -144 113
-259 117 -255 4 5 26 161 49 348 29 231 48 349 59 369 10 19 50 50 106 83 50
29 94 53 98 53 4 0 10 -6 13 -14z"/>
<path d="M7210 18231 c-49 -54 -89 -264 -57 -306 15 -20 15 -20 44 1 15 11 38
40 51 65 25 51 49 200 38 242 -9 36 -40 35 -76 -2z"/>
<path d="M16854 18672 c-263 -142 -1155 -665 -1185 -694 l-38 -37 -106 61
c-83 48 -108 59 -118 49 -9 -9 -13 -182 -15 -718 -2 -699 -2 -706 19 -749 28
-59 85 -102 153 -116 72 -16 90 -9 286 103 85 49 160 89 165 89 6 0 18 -15 28
-32 13 -24 47 -50 127 -95 60 -35 114 -63 119 -63 11 0 21 25 103 269 l63 184
220 127 c265 153 279 167 290 302 3 46 5 361 3 701 -3 599 -4 619 -22 633 -27
19 -33 18 -92 -14z m-237 -507 c23 -14 43 -29 43 -33 0 -4 -16 -43 -35 -87
-35 -78 -36 -81 -21 -117 l16 -37 55 25 c31 13 60 24 65 24 6 0 10 -34 10 -78
0 -87 -3 -92 -86 -146 -35 -22 -44 -36 -59 -87 l-18 -60 36 -37 c20 -21 37
-41 37 -45 0 -19 -93 -167 -105 -167 -7 0 -31 6 -53 14 l-41 15 -45 -49 c-42
-45 -46 -54 -47 -102 -2 -88 -8 -99 -82 -142 -37 -21 -70 -36 -73 -33 -3 3 -8
33 -11 66 l-6 61 -42 0 c-42 0 -43 -1 -91 -75 -27 -41 -53 -75 -57 -75 -13 0
-85 39 -92 51 -4 5 10 48 30 93 36 81 37 84 21 115 -19 37 -21 37 -77 11 -68
-30 -69 -30 -69 58 0 87 3 92 86 146 35 23 43 35 58 89 l18 62 -36 31 c-20 17
-36 36 -36 43 0 23 92 171 106 171 8 0 31 -7 52 -16 l37 -15 46 48 c44 46 46
51 52 121 3 39 9 76 12 82 9 15 135 83 142 76 3 -3 9 -34 12 -68 3 -35 9 -62
14 -60 4 1 23 2 42 2 32 0 38 6 85 75 28 41 53 75 57 75 3 0 26 -11 50 -25z"/>
<path d="M16296 17829 c-99 -53 -194 -202 -203 -323 -15 -182 121 -223 264
-80 89 90 147 271 113 354 -28 69 -99 88 -174 49z"/>
<path d="M9592 17560 c-40 -11 -101 -32 -135 -47 -56 -25 -4683 -2693 -4852
-2798 -156 -97 -276 -258 -325 -437 -20 -74 -20 -84 -18 -5673 l3 -5600 31
-87 c61 -171 154 -283 262 -315 79 -23 225 -21 323 5 98 26 169 63 529 271
l295 170 7 -42 c9 -50 34 -85 77 -110 55 -33 110 -17 283 83 l153 88 6 -192
c3 -105 10 -206 14 -225 11 -45 66 -98 110 -107 20 -3 53 -2 75 4 22 5 1033
583 2247 1283 1862 1075 2217 1283 2270 1333 78 72 145 197 162 302 8 49 11
276 9 769 -3 688 -3 701 -24 740 -23 44 -83 85 -125 85 -45 0 -103 -26 -247
-109 -75 -44 -145 -83 -155 -87 -16 -6 -17 243 -17 4588 0 3409 -3 4604 -11
4629 -16 48 -55 96 -92 115 -46 24 -129 21 -187 -8 l-49 -24 -4 480 c-4 536
-3 534 -77 691 -51 109 -110 179 -179 212 -77 37 -249 43 -359 13z m849 -1403
c19 -12 43 -40 54 -62 20 -40 20 -63 23 -4646 2 -4241 1 -4608 -14 -4620 -9
-7 -921 -536 -2028 -1175 -1760 -1016 -2019 -1168 -2072 -1220 -69 -67 -114
-139 -146 -234 -22 -63 -22 -83 -28 -578 l-5 -514 -120 -70 c-176 -102 -210
-118 -255 -118 -49 0 -86 31 -95 81 -3 19 -4 2358 -3 5199 l3 5165 23 54 c46
107 115 195 197 250 48 33 1283 747 1306 756 13 5 18 -2 23 -29 8 -41 47 -76
85 -76 26 0 1422 799 1499 858 40 31 66 79 81 153 9 41 20 64 44 86 24 22
1121 663 1257 733 65 34 127 37 171 7z m587 -9160 c8 -6 23 -30 33 -52 17 -37
19 -85 19 -740 0 -772 0 -771 -63 -889 -74 -141 64 -56 -2360 -1454 -1601
-924 -2218 -1275 -2247 -1279 -49 -7 -93 11 -117 46 -16 23 -18 51 -18 246 l0
220 195 112 c107 62 198 113 203 113 4 0 7 -42 7 -92 0 -103 7 -118 71 -156
40 -24 117 -32 86 -9 -17 11 -18 46 -15 483 l3 471 -66 36 c-36 20 -69 34 -73
30 -3 -3 -6 -165 -6 -358 l0 -352 -200 -117 c-110 -64 -202 -116 -205 -116
-10 0 -5 936 6 996 18 101 63 180 148 262 73 71 153 118 2070 1224 1097 633
2001 1153 2009 1156 13 5 14 -24 9 -226 -4 -128 -5 -232 -3 -232 2 0 11 3 20
6 14 5 16 36 16 243 l0 236 178 102 c97 56 188 104 202 106 34 7 80 -1 98 -16z"/>
<path d="M10157 15586 c-48 -28 -92 -58 -97 -66 -12 -19 -13 -167 -1 -174 5
-4 49 17 98 45 106 61 113 67 113 88 -1 14 -2 14 -10 -1 -9 -15 -178 -118
-194 -118 -3 0 -6 34 -6 75 l0 74 94 56 c52 30 99 55 106 55 6 0 8 5 5 10 -9
14 -11 13 -108 -44z"/>
<path d="M10270 15554 c0 -27 4 -43 10 -39 6 3 10 24 10 46 0 21 -4 39 -10 39
-5 0 -10 -21 -10 -46z"/>
<path d="M10227 15583 c-4 -3 -7 -31 -7 -62 1 -51 2 -54 15 -37 8 11 15 39 15
63 0 40 -8 52 -23 36z"/>
<path d="M10182 15561 c-9 -5 -12 -26 -10 -64 2 -43 6 -55 16 -48 9 5 12 26
10 64 -2 43 -6 55 -16 48z"/>
<path d="M10132 15531 c-9 -5 -12 -26 -10 -64 2 -43 6 -55 16 -48 9 5 12 26
10 64 -2 43 -6 55 -16 48z"/>
<path d="M10087 15503 c-4 -3 -7 -31 -7 -60 0 -76 24 -67 28 10 3 52 -4 68
-21 50z"/>
<path d="M9861 15374 l-74 -66 43 4 c42 3 43 2 54 -36 l11 -39 24 97 c13 53
21 99 19 101 -2 2 -37 -25 -77 -61z"/>
<path d="M8344 14585 c-42 -25 -54 -52 -54 -127 0 -34 7 -35 36 -7 25 24 44
18 44 -12 0 -39 -19 -60 -52 -57 -35 3 -44 -10 -25 -36 13 -17 15 -17 46 -2
77 40 83 193 6 158 -23 -11 -25 -9 -25 11 0 17 10 28 35 40 23 11 35 24 35 37
0 25 3 25 -46 -5z"/>
<path d="M8201 14504 c-24 -17 -51 -65 -51 -91 0 -21 16 -7 34 29 13 27 39 31
44 6 2 -9 -15 -53 -37 -97 -36 -71 -49 -111 -37 -111 13 0 99 55 103 67 8 21
-3 26 -27 13 -12 -6 -24 -10 -26 -7 -2 2 10 34 27 70 43 93 27 160 -30 121z"/>
<path d="M8008 14360 c-16 -28 -28 -55 -28 -60 0 -20 20 -10 34 18 14 26 15
23 16 -61 0 -66 3 -88 13 -85 8 3 13 39 15 121 3 135 -6 147 -50 67z"/>
<path d="M8097 14373 c-4 -3 -7 -15 -7 -25 0 -26 24 -17 28 10 3 21 -8 29 -21
15z"/>
<path d="M7928 14338 c-40 -63 -48 -78 -48 -93 0 -24 15 -18 31 13 13 26 14
22 19 -63 8 -127 21 -84 18 56 -3 113 -3 114 -20 87z"/>
<path d="M8097 14253 c-4 -3 -7 -17 -7 -31 0 -21 2 -22 15 -12 8 7 15 21 15
31 0 19 -11 25 -23 12z"/>
<path d="M8330 12785 l0 -1056 25 -24 c51 -52 24 -66 992 493 632 365 899 525
902 538 3 18 2 18 -20 -2 -21 -19 -1773 -1034 -1784 -1034 -3 0 -5 470 -5
1044 l0 1044 -46 26 c-26 14 -50 26 -55 26 -5 0 -9 -460 -9 -1055z"/>
<path d="M6900 13724 c-33 -29 -70 -92 -70 -121 1 -10 9 -1 21 22 41 82 97
116 133 80 20 -20 26 -19 26 5 0 21 -27 40 -59 40 -11 0 -34 -12 -51 -26z"/>
<path d="M6897 13651 c-27 -33 -43 -69 -33 -78 3 -3 9 3 12 13 17 48 76 83 87
52 2 -7 8 -9 13 -5 12 12 -10 41 -33 45 -13 2 -30 -8 -46 -27z"/>
<path d="M6912 13598 c-13 -13 -17 -68 -4 -68 17 0 32 25 32 52 0 30 -9 35
-28 16z"/>
<path d="M6597 13528 c-21 -16 -47 -79 -47 -113 0 -33 17 -65 34 -65 25 0 56
45 56 83 0 39 -5 44 -30 26 -11 -8 -12 -12 -2 -16 18 -7 15 -60 -4 -67 -26
-10 -34 3 -34 53 0 46 25 91 50 91 6 0 10 5 10 10 0 14 -13 13 -33 -2z"/>
<path d="M6503 13451 c-15 -40 -16 -52 -3 -31 7 11 10 6 10 -21 0 -24 -5 -39
-15 -43 -8 -3 -15 0 -16 7 0 7 -5 2 -11 -11 -14 -28 -6 -37 20 -23 17 9 21 8
25 -7 4 -14 5 -13 6 4 0 11 7 26 13 32 10 10 10 15 1 20 -6 4 -13 30 -15 57
l-3 50 -12 -34z"/>
<path d="M6243 13353 c-15 -5 -19 -223 -5 -223 24 0 32 30 32 127 0 57 -3 103
-7 102 -5 0 -14 -3 -20 -6z"/>
<path d="M6178 13259 c-15 -8 -18 -24 -18 -89 0 -44 4 -80 9 -80 23 0 32 32
29 103 -3 69 -5 75 -20 66z"/>
<path d="M6097 13156 c-14 -11 -17 -25 -15 -65 3 -51 3 -51 26 -36 18 13 22
26 22 66 0 52 -4 57 -33 35z"/>
<path d="M6027 13057 c-11 -8 -18 -22 -15 -36 3 -20 5 -21 21 -8 11 8 18 22
15 36 -3 20 -5 21 -21 8z"/>
<path d="M6185 12567 c-4 -24 -5 -498 -3 -1053 2 -767 6 -1014 15 -1030 15
-27 66 -48 96 -40 27 6 1785 1020 1806 1041 8 8 11 18 7 22 -4 4 -11 2 -15 -5
-4 -7 -408 -244 -897 -525 l-889 -513 -5 1044 -5 1045 -52 29 -52 29 -6 -44z"/>
<path d="M9843 10188 c-15 -7 -22 -21 -25 -49 -3 -37 4 -50 17 -29 12 20 26 9
23 -17 -2 -22 -8 -28 -25 -27 -23 1 -30 -10 -14 -20 16 -11 39 5 51 35 16 37
6 63 -20 56 -27 -7 -26 18 2 37 26 19 21 27 -9 14z"/>
<path d="M9585 9998 c-10 -29 -20 -59 -23 -67 -4 -11 -1 -11 18 -1 17 9 24 9
30 0 11 -19 18 22 13 74 -3 25 -9 46 -12 46 -4 0 -15 -24 -26 -52z m14 -39
c-19 -12 -21 -6 -7 32 l13 34 3 -29 c2 -16 -2 -32 -9 -37z"/>
<path d="M8438 9928 c-2 -7 -1 -38 3 -68 l6 -55 1 68 c2 64 -1 82 -10 55z"/>
<path d="M8516 9923 c6 -4 14 -15 17 -23 5 -11 6 -9 4 4 -1 11 -9 21 -17 23
-10 3 -11 2 -4 -4z"/>
<path d="M8480 9905 c0 -8 2 -15 4 -15 2 0 6 7 10 15 3 8 1 15 -4 15 -6 0 -10
-7 -10 -15z"/>
<path d="M6140 8835 l0 -1056 25 -24 c28 -25 85 -55 107 -55 11 0 13 177 13
1059 l0 1060 -61 35 c-33 20 -66 36 -72 36 -9 0 -12 -261 -12 -1055z"/>
<path d="M9307 9872 c-10 -10 -17 -25 -17 -33 0 -8 6 -5 16 9 8 12 19 22 25
22 14 0 11 -22 -8 -42 -15 -17 -15 -18 0 -18 10 0 17 -6 17 -12 0 -23 -18 -41
-34 -35 -10 4 -16 1 -16 -8 0 -20 24 -19 42 3 10 11 16 37 16 75 0 61 -11 72
-41 39z"/>
<path d="M8515 9859 c-4 -6 -13 -8 -21 -5 -8 3 -14 1 -14 -4 0 -15 26 -12 40
5 7 8 10 15 7 15 -3 0 -9 -5 -12 -11z"/>
<path d="M9020 9701 c-16 -30 -12 -38 6 -12 11 16 19 20 27 12 7 -7 2 -26 -16
-62 -38 -73 -33 -90 14 -48 l24 20 -23 -6 -23 -7 21 39 c26 49 27 83 0 83 -10
0 -24 -9 -30 -19z"/>
<path d="M8750 9539 c-7 -11 -9 -23 -6 -27 3 -3 7 1 8 9 1 8 4 -11 8 -41 l7
-55 1 68 c1 37 0 67 -3 67 -2 0 -9 -9 -15 -21z"/>
<path d="M8280 7297 c0 -1046 0 -1053 20 -1075 27 -29 93 -62 122 -61 13 0 17
3 10 6 -10 4 -12 219 -12 1060 l1 1056 -58 33 c-32 18 -64 34 -70 34 -10 0
-13 -217 -13 -1053z"/>
<path d="M7196 7663 c-3 -3 -6 -219 -6 -479 l0 -473 23 -25 c12 -14 33 -28 47
-31 l25 -6 -2 487 -3 487 -38 23 c-22 13 -42 21 -46 17z"/>
<path d="M6197 7083 c-4 -3 -7 -220 -7 -480 l0 -474 25 -24 c13 -14 34 -25 47
-25 l23 0 -2 482 -3 483 -38 22 c-21 13 -42 20 -45 16z"/>
<path d="M7196 6513 c-3 -4 -6 -220 -6 -480 l0 -475 29 -29 c19 -18 40 -29 58
-29 18 0 24 3 15 8 -10 7 -12 107 -10 484 l3 476 -42 25 c-23 14 -44 23 -47
20z"/>
<path d="M6196 5932 c-3 -3 -6 -218 -6 -478 l0 -473 23 -25 c12 -14 33 -28 47
-31 l25 -6 -2 487 -3 487 -39 23 c-22 12 -42 19 -45 16z"/>
<path d="M9938 5968 c-1 -2 -5 -165 -8 -363 l-5 -360 -37 -20 c-27 -14 -38
-27 -38 -43 l0 -24 34 21 c18 12 36 21 40 21 3 0 6 -38 6 -85 0 -108 13 -135
82 -169 28 -14 57 -26 62 -26 8 0 11 151 11 482 l0 483 -25 15 c-58 36 -120
71 -122 68z"/>
<path d="M8856 5333 c-3 -3 -6 -164 -6 -357 l0 -351 -45 -25 c-33 -18 -45 -31
-45 -48 l0 -23 45 27 45 26 0 -99 c0 -109 7 -123 71 -161 40 -24 117 -32 86
-9 -17 11 -18 46 -15 483 l3 471 -66 36 c-36 20 -69 34 -73 30z"/>
<path d="M7766 4694 c-3 -9 -6 -169 -6 -357 l0 -342 -40 -23 c-25 -14 -40 -30
-40 -42 0 -25 1 -25 44 1 l36 21 0 -80 c0 -110 11 -137 74 -172 88 -51 81 -92
81 454 l0 485 -62 35 c-70 41 -78 42 -87 20z"/>
<path d="M12590 16634 c-311 -179 -576 -337 -590 -350 -25 -24 -25 -27 -28
-205 -3 -192 0 -209 43 -209 13 0 279 147 591 328 431 249 571 334 585 357 17
26 19 53 19 207 0 165 -1 178 -19 188 -11 5 -23 10 -28 10 -4 0 -262 -147
-573 -326z m558 -69 c-22 -21 -1082 -636 -1120 -651 -17 -6 -18 6 -18 158 0
155 1 166 21 184 11 10 271 164 577 341 l557 322 3 -167 c2 -162 2 -167 -20
-187z"/>
<path d="M16055 15999 c-125 -18 -215 -59 -291 -131 l-52 -49 -65 11 c-201 35
-397 -104 -403 -289 -3 -61 -4 -64 -38 -85 -66 -40 -104 -108 -113 -201 -7
-82 17 -178 59 -237 20 -27 28 -46 22 -53 -58 -78 -72 -131 -55 -209 26 -116
116 -206 216 -214 42 -3 55 -8 55 -21 0 -34 49 -118 90 -155 110 -99 243 -108
368 -26 l32 22 15 -33 c13 -32 14 -26 15 99 0 72 -3 132 -7 132 -5 -1 -19 -7
-33 -15 -41 -23 -119 -19 -178 11 -93 46 -142 132 -142 248 0 117 66 195 174
204 48 4 56 1 90 -28 20 -18 44 -46 52 -61 11 -22 22 -29 44 -29 16 0 32 5 35
11 4 6 8 66 9 134 1 121 2 124 31 161 48 61 65 91 92 162 31 84 63 126 114
153 61 31 122 34 209 9 41 -11 101 -28 132 -36 l57 -16 66 41 c36 23 87 46
113 51 115 21 227 -41 258 -145 20 -67 44 -235 44 -313 l0 -63 33 17 c56 30
98 66 118 105 23 47 24 76 2 130 -15 39 -15 42 2 52 78 43 104 151 59 239 -19
37 -79 75 -131 83 l-41 7 38 38 c43 43 63 96 58 149 -5 52 -25 59 -105 36
-132 -37 -207 -32 -433 30 -159 43 -404 85 -489 84 -36 -1 -93 -5 -126 -10z"/>
<path d="M11638 15877 l-178 -102 0 -796 0 -795 -192 -110 -193 -110 -17 28
c-55 88 -215 -47 -218 -183 0 -33 35 -79 61 -79 55 0 138 81 159 155 12 44 13
44 216 162 l204 118 0 792 0 792 28 19 c15 10 91 56 170 101 78 46 142 90 142
97 0 8 -1 14 -2 14 -2 0 -83 -46 -180 -103z"/>
<path d="M16826 15229 c-14 -11 -26 -24 -26 -29 0 -7 150 -70 166 -70 6 0 5
56 -2 75 -8 20 -56 45 -87 45 -13 0 -36 -9 -51 -21z"/>
<path d="M16260 15219 c-14 -5 -33 -20 -42 -32 -21 -27 -24 -77 -4 -77 22 0
150 57 154 69 4 11 -55 51 -73 50 -5 0 -21 -5 -35 -10z"/>
<path d="M16822 15034 c-45 -31 -15 -114 42 -114 25 0 66 41 66 65 0 23 -41
65 -64 65 -12 0 -32 -7 -44 -16z"/>
<path d="M16305 15020 c-37 -41 -9 -110 46 -110 28 0 69 39 69 65 0 7 -9 24
-21 39 -25 32 -68 35 -94 6z"/>
<path d="M16430 14556 c0 -24 12 -46 21 -40 15 9 87 -16 118 -41 l29 -25 26
31 c14 17 26 34 26 39 0 8 -166 50 -201 50 -10 0 -19 -6 -19 -14z"/>
<path d="M2415 12876 c-102 -48 -1151 -659 -1180 -687 l-30 -29 -3 -708 -2
-708 23 -35 c29 -43 60 -59 117 -59 42 0 97 30 640 343 578 333 596 344 618
387 l22 44 0 675 c0 669 0 675 -21 719 -16 33 -32 49 -63 63 -53 24 -61 24
-121 -5z m-273 -602 c118 -60 141 -330 53 -624 -44 -147 -145 -379 -197 -453
-19 -27 -20 -27 -50 -10 -51 30 -144 138 -177 205 -49 100 -65 178 -65 313 0
138 15 206 73 330 97 206 241 300 363 239z"/>
<path d="M1995 12076 c-116 -51 -192 -313 -121 -421 29 -44 99 -27 148 37 39
51 57 91 74 165 21 93 12 166 -26 205 -32 32 -34 32 -75 14z"/>
<path d="M14286 12249 c-14 -17 -26 -35 -26 -41 0 -18 411 -1062 438 -1111 34
-64 80 -103 169 -143 86 -39 82 -24 58 -236 -56 -507 -105 -1402 -105 -1931 0
-328 25 -731 71 -1162 l21 -189 44 -57 c75 -98 196 -190 349 -267 507 -253
1368 -257 1993 -8 132 52 283 129 336 171 l26 20 -29 132 c-16 72 -46 186 -65
251 l-35 119 10 394 c5 217 18 594 29 839 31 676 36 1174 16 1390 -20 203 -49
353 -99 502 -31 93 -105 268 -113 268 -17 0 -495 -233 -675 -330 -85 -46 -199
-113 -254 -150 -55 -37 -130 -83 -167 -103 l-66 -37 -181 0 -181 0 -88 44
c-106 54 -234 152 -251 195 -8 17 -11 41 -7 54 4 17 -1 30 -15 43 -34 30 -42
62 -24 97 8 16 15 33 15 37 0 4 -20 21 -45 39 -54 39 -57 64 -12 91 40 25 61
22 218 -31 63 -21 133 -39 155 -39 34 0 137 16 232 36 39 8 40 20 6 103 -14
35 -22 66 -19 70 4 3 95 9 203 13 187 6 232 12 293 36 64 26 514 330 514 347
0 6 -8 21 -18 35 -16 23 -19 23 -40 11 -218 -138 -534 -223 -923 -247 l-111
-7 -44 44 c-24 25 -64 54 -89 66 -25 11 -281 131 -570 266 -289 135 -603 281
-698 326 -95 45 -184 81 -197 81 -14 0 -34 -12 -49 -31z"/>
<path d="M3744 12226 c-42 -19 -95 -84 -114 -140 l-15 -47 -205 -118 -205
-118 -3 -499 -2 -500 -170 -98 -170 -99 0 -804 c0 -525 3 -803 10 -803 6 0 11
277 12 797 l3 797 150 87 c83 49 153 88 158 89 4 0 7 -128 7 -284 0 -171 4
-287 10 -291 5 -3 98 46 207 110 179 104 198 113 205 96 12 -35 51 -53 84 -41
39 15 91 66 116 114 40 78 21 176 -34 176 -54 0 -137 -82 -158 -155 -12 -44
-14 -45 -184 -143 -94 -55 -181 -104 -193 -111 l-23 -12 0 778 0 778 28 16
c15 9 101 59 192 112 l164 96 12 -28 c43 -103 213 29 217 170 2 42 -2 54 -22
70 -27 22 -36 23 -77 5z"/>
<path d="M12635 11155 c-280 -163 -537 -311 -571 -331 -91 -53 -94 -62 -94
-261 0 -183 7 -211 48 -201 45 12 1128 641 1160 674 l32 34 0 178 c0 186 -3
202 -44 202 -12 0 -250 -133 -531 -295z m535 92 c0 -115 -4 -168 -12 -180 -11
-13 -1131 -667 -1144 -667 -2 0 -4 74 -4 164 0 141 2 167 18 185 15 18 1116
659 1135 660 4 1 7 -72 7 -162z"/>
<path d="M11750 10439 c-30 -17 -108 -62 -172 -100 l-118 -70 -2 -795 -3 -796
-190 -108 -189 -109 -18 30 c-20 33 -52 38 -96 15 -101 -53 -157 -222 -88
-268 54 -36 163 51 188 149 10 42 12 43 214 160 l204 118 0 785 c0 432 4 791
9 798 4 8 80 55 167 106 87 51 160 98 162 104 6 18 -9 14 -68 -19z"/>
<path d="M2863 8832 c-310 -180 -573 -337 -585 -350 -22 -21 -23 -32 -26 -189
-2 -91 -1 -177 2 -189 15 -57 29 -50 553 251 652 376 657 379 671 410 17 36
16 367 0 383 -7 7 -21 12 -32 11 -12 -1 -274 -148 -583 -327z m587 120 c0
-149 -2 -171 -17 -184 -18 -15 -1130 -658 -1139 -658 -2 0 -4 73 -4 163 1 120
4 167 14 180 12 16 1120 664 1139 666 4 1 7 -75 7 -167z"/>
<path d="M2425 6871 c-11 -5 -281 -160 -600 -344 -451 -261 -584 -342 -602
-368 l-23 -33 0 -696 c0 -671 1 -696 20 -727 28 -46 65 -67 119 -67 42 0 93
28 631 338 322 186 595 347 608 359 12 11 26 37 32 56 6 22 10 293 10 704 0
636 -1 670 -19 705 -10 20 -28 46 -40 56 -23 21 -104 31 -136 17z m-404 -678
c60 -39 138 -43 204 -9 27 14 53 22 57 18 12 -13 -10 -433 -27 -496 -48 -181
-195 -427 -283 -475 -34 -18 -111 -8 -165 21 -46 26 -101 99 -117 156 -5 21
-12 129 -16 242 l-7 205 51 33 c80 51 195 196 238 297 8 19 17 35 19 35 3 0
24 -12 46 -27z"/>
<path d="M18835 6556 c-171 -37 -369 -159 -531 -327 -221 -230 -368 -575 -424
-993 -6 -44 -9 -81 -7 -82 2 -2 20 -10 40 -19 l37 -15 5 27 c4 16 27 93 51
172 124 395 380 744 685 934 125 78 249 120 249 84 0 -18 -21 -37 -42 -37 -9
0 -59 -21 -110 -48 -349 -178 -644 -585 -773 -1063 l-23 -86 79 -38 c43 -22
80 -37 82 -34 2 2 14 31 27 63 32 79 134 247 206 338 125 158 292 300 491 418
254 152 376 296 377 445 0 149 -120 260 -294 270 -36 2 -92 -2 -125 -9z"/>
<path d="M3734 6461 c-44 -27 -90 -87 -104 -135 -11 -40 -18 -46 -130 -112
-74 -43 -121 -77 -124 -89 -3 -11 -6 -326 -6 -700 l0 -680 -165 -94 c-91 -51
-167 -97 -170 -101 -19 -31 36 -7 189 82 l176 103 0 695 0 696 107 62 c99 56
108 60 115 42 4 -10 18 -26 31 -35 68 -44 187 79 191 197 1 41 -3 53 -23 69
-29 24 -48 24 -87 0z"/>
<path d="M15785 5268 c-63 -69 -116 -207 -139 -358 -3 -19 -10 -132 -16 -250
-18 -382 -48 -539 -116 -618 -42 -49 -60 -60 -128 -78 -64 -17 -147 -6 -276
37 -76 25 -114 31 -189 32 l-93 2 -47 -54 c-25 -30 -86 -100 -135 -155 -94
-107 -116 -145 -116 -198 0 -39 29 -90 63 -113 42 -27 164 -47 247 -40 199 18
509 94 628 154 121 62 157 131 212 399 52 262 78 354 98 350 21 -4 59 -60 72
-107 13 -45 30 -230 30 -332 0 -42 3 -97 6 -123 6 -39 10 -46 30 -46 l23 0 -2
263 c-2 311 8 398 65 575 31 97 41 144 42 197 0 77 -10 104 -119 300 -30 55
-63 124 -72 153 -9 28 -20 52 -24 52 -4 0 -24 -19 -44 -42z"/>
<path d="M17670 5109 c0 -35 32 -350 51 -499 21 -163 44 -292 93 -505 14 -60
29 -144 32 -186 6 -70 5 -78 -16 -99 -21 -21 -28 -22 -79 -14 -31 5 -112 8
-181 8 -110 -1 -134 -4 -200 -28 -41 -15 -85 -30 -98 -33 -36 -9 -71 16 -81
56 -17 63 -86 661 -110 946 -8 92 -8 94 -10 34 0 -37 6 -158 14 -270 8 -112
19 -328 25 -479 6 -151 15 -303 20 -338 26 -157 131 -396 218 -493 52 -58 128
-99 182 -99 86 0 208 98 289 232 109 180 137 270 127 413 -5 86 -15 130 -85
382 -41 151 -78 339 -86 443 -8 111 -30 244 -66 404 -27 121 -39 159 -39 125z"/>
<path d="M10601 4726 c-116 -86 -140 -266 -35 -266 l34 0 0 -252 -1 -253 -341
-196 c-312 -180 -373 -219 -337 -219 6 0 169 91 360 201 l349 202 0 272 0 272
26 24 c69 64 93 198 41 231 -23 15 -63 8 -96 -16z"/>
<path d="M2305 4339 c-286 -165 -543 -314 -571 -331 -81 -48 -84 -58 -84 -261
0 -186 5 -206 50 -194 43 11 1127 641 1158 673 l32 34 0 178 c0 186 -3 202
-44 202 -12 0 -255 -136 -541 -301z m545 98 c0 -115 -4 -168 -12 -180 -11 -13
-1132 -667 -1144 -667 -2 0 -4 73 -4 163 0 115 4 168 13 180 11 16 1122 665
1140 666 4 1 7 -72 7 -162z"/>
<path d="M9200 3355 c-311 -179 -577 -338 -592 -354 -34 -38 -40 -82 -36 -255
3 -123 5 -139 22 -152 11 -8 29 -11 39 -8 11 4 275 153 586 333 496 287 568
331 583 362 15 28 18 62 18 201 0 161 -1 167 -22 182 -12 9 -25 16 -28 16 -3
0 -259 -146 -570 -325z m580 116 c0 -152 -1 -161 -22 -184 -23 -25 -1117 -657
-1137 -657 -16 0 -14 286 2 324 10 23 112 86 572 352 308 178 566 324 573 324
9 0 12 -38 12 -159z"/>
</g>
</svg>
